<svg id="BallRotate6" xmlns="http://www.w3.org/2000/svg" width="12.001" height="12" viewBox="0 0 12.001 12">
  <path id="Union_27" data-name="Union 27" d="M-1986-141v-1h1v1Zm-5,0v-1h1v1Zm3-1v-1h1v1Zm-1,0v-1h-2v-1h2v0h-1v0h-2v-2h1v0h-2v-1h1v-1h1v0h-1v-2h4v1h1v1h0v-1h-1v-1h-1v-1h1v-1h1v1h1v1h2v1h-1v0h1v1h1v2h-1v1h-2v2h-2v1Zm1-2v0Zm1-1h0Zm0-1h0Zm3-1h0Zm-5,0v-1h0Zm3,4v-1h1v1Zm3-1v-1h1v1Zm-2,0v-1h1v1Zm-1,0v-1h1v1Zm-8,0v-1h1v1Zm1-3v-1h1v1Zm10-2v-1h1v1Zm-11,0v-1h1v1Zm8-1v-1h1v1Zm-4,0v-1h1v1Zm-1,0v-1h1v1Zm2-1v-1h1v1Zm3-1v-1h1v1Zm-5,0v-1h1v1Z" transform="translate(1994 153)"/>
</svg>
