<svg id="Bg" xmlns="http://www.w3.org/2000/svg" width="39.001" height="18" viewBox="0 0 39.001 18">
  <path id="Union_20" data-name="Union 20" d="M-1958-97v-1h1v1Zm-14,0v-2h1v2Zm-6,0v-1h1v1Zm-14,0v-2h-2v-1h1v-1h-1v-1h1v1h1v1h1v1h0v2Zm34-1v-1h-1v-1h-1v-1h-1v-1h-1v-1h-3v1h-1v-1h-1v-1h4v-4h1v4h1v1h1v1h1v1h1v1h1v-1h1v1h1v1h-2v1Zm-4-5v0Zm2,5v-1h1v1Zm-2,0v-1h-1v-1h-1v-1h1v1h1v1h1v1Zm-2,0v-1h-1v-1h1v1h1v1Zm-2,0v-1h1v1Zm-2,0v-1h-1v-1h1v1h1v1Zm-2,0v-1h1v1Zm-3,0h-4v0h-1v-1h-1v-1h-1v-1h-1v-1h-1v-1h-3v1h-1v-1h-1v-1h0v-1h1v1h4v-3h1v4h1v1h1v1h1v1h1v1h1v-1h1v1h1v-1h-1v-1h1v1h1v1h1v1Zm-7,0v-1h1v1Zm-2,0v-1h-1v-1h-1v-1h1v1h1v1h1v1Zm-2,0v-1h-1v-1h1v1h1v1Zm-2,0v-1h1v1Zm-2,0v-1h-1v-1h1v1h1v1Zm-2,0v-1h1v1Zm29-1v-1h1v1Zm-6,0v-1h-1v-1h1v1h1v1Zm-4,0v-1h1v1Zm-1,0v-1h-1v-1h-1v-1h1v1h1v1h1v1Zm-9,0v-1h1v1Zm-6,0v-1h-1v-1h1v1h1v1Zm-4,0v-1h1v1Zm29-1v-1h-1v-1h1v1h1v1Zm-4,0v-1h1v1Zm-4,0v-1h1v1Zm-1,0v-1h-1v-1h-1v-1h1v1h1v1h1v1Zm-6,0v-1h1v1Zm-5,0v-1h-1v-1h1v1h1v1Zm-4,0v-1h1v1Zm-4,0v-1h1v1Zm-1,0v-1h-1v-1h-1v-1h1v1h1v1h1v1Zm35-1v-1h1v1Zm-2,0v-1h1v1Zm-7,0v-1h1v1Zm-2,0v-1h-1v-1h1v1h1v1Zm-2,0v-1h1v1Zm-1,0v-1h-1v-1h1v1h1v1Zm-6,0v-1h1v1Zm-2,0v-1h1v1Zm-7,0v-1h1v1Zm-2,0v-1h-1v-1h1v1h1v1Zm-2,0v-1h1v1Zm-1,0v-1h-1v-1h-1v-1h-1v-1h1v1h1v1h1v1h1v1Zm33-1v-1h1v1Zm-2,0v-1h1v1Zm-5,0v-1h1v1Zm-5,0v-1h-1v-1h1v1h1v1Zm-6,0v-1h1v1Zm-2,0v-1h1v1Zm-2,0v-1h1v1Zm-5,0v-1h1v1Zm-5,0v-1h-1v-1h1v1h1v1Zm33-1v-1h1v1Zm-2,0v-1h1v1Zm-2,0v-1h1v1Zm-8,0v-1h1v1Zm-4,0v-1h1v1Zm-2,0v-1h1v1Zm-2,0v-1h1v1Zm-2,0v-1h1v1Zm-2,0v-1h1v1Zm-8,0v-1h-1v-1h1v1h1v1Zm-6,0v-1h1v1Zm37-1v-1h1v1Zm-2,0v-1h1v1Zm-2,0v-1h1v1Zm-7,0v-1h1v1Zm-23,0v-1h1v1Zm23-1v-1h1v1Zm-19,0v-1h1v1Zm19-1v-1h-1v-1h-1v-1h-1v-1h-1v-1h-1v-4h1v3h1v1h1v1h1v1h1v1h1v-1h1v1h1v-1h-1v-1h1v1h1v1h1v1h-4v1Zm-2,0v-1h1v1Zm-2,0v-1h-1v-1h-1v-1h1v1h1v1h1v1Zm-2,0v-1h-1v-1h1v1h1v1Zm-2,0v-1h1v1Zm-2,0v-1h-1v-1h1v1h1v1Zm-2,0v-1h1v1Zm-7,0v-1h1v1Zm30-1v-1h1v1Zm-2,0v-1h-1v-1h1v1h1v1Zm-2,0v-1h1v1Zm-10,0v-1h1v1Zm-6,0v-1h-1v-1h1v1h1v1Zm-4,0v-1h1v1Zm-1,0h-4v0h-1v-1h-1v-1h-1v-1h-1v-1h-1v-4h1v3h1v1h1v1h1v1h1v1h1v-1h1v1h1v-1h-1v-1h1v1h1v1h1v1Zm-7,0v-1h1v1Zm-2,0v-1h-1v-1h-1v-1h1v1h1v1h1v1Zm-2,0v-1h-1v-1h1v1h1v1Zm37-1v-1h1v1Zm-2,0v-1h-1v-1h1v1h1v1Zm-4,0v-1h1v1Zm-1,0v-1h-1v-1h-1v-1h1v1h1v1h1v1Zm-9,0v-1h-1v-1h1v1h1v1Zm-4,0v-1h1v1Zm-4,0v-1h1v1Zm-1,0v-1h-1v-1h-1v-1h1v1h1v1h1v1Zm-9,0v-1h1v1Zm33-1v-1h1v1Zm-4,0v-1h1v1Zm-1,0v-1h-1v-1h-1v-1h1v1h1v1h1v1Zm-6,0v-1h1v1Zm-7,0v-1h1v1Zm-2,0v-1h-1v-1h1v1h1v1Zm-2,0v-1h1v1Zm-1,0v-1h-1v-1h-1v-1h1v1h1v1h1v1Zm-6,0v-1h1v1Zm-5,0v-1h-1v-1h-1v-1h1v1h1v1h1v1Zm35-1v-1h1v1Zm-2,0v-1h-1v-1h1v1h1v1Zm-2,0v-1h1v1Zm-1,0v-1h-1v-1h1v1h1v1Zm-6,0v-1h1v1Zm-2,0v-1h1v1Zm-5,0v-1h1v1Zm-2,0v-1h-1v-1h0v-1h1v1h1v1h0v1Zm-3,0v-1h-1v-1h1v1h1v1Zm-6,0v-1h1v1Zm-2,0v-1h1v1Zm-7,0v-1h1v1Zm37-1v-1h-1v-1h2v1h0v1Zm-3,0v-1h-1v-1h1v1h1v1Zm-6,0v-1h1v1Zm-2,0v-1h1v1Zm-2,0v-1h1v1Zm-4,0v-1h1v1Zm-1,0v-1h1v1Zm-3,0v-1h-1v-1h1v1h1v1Zm-6,0v-1h1v1Zm-2,0v-1h1v1Zm-2,0v-1h1v1Zm32-1v-1h1v1Zm-3,0v-1h1v1Zm-4,0v-1h1v1Zm-2,0v-1h1v1Zm-2,0v-1h1v1Zm-2,0v-1h1v1Zm-2,0v-1h1v1Zm-10,0v-1h1v1Zm-2,0v-1h1v1Zm-2,0v-1h1v1Zm-2,0v-1h1v1Zm-2,0v-1h1v1Zm-3,0h-1v-1h2v1Zm-2,0v-1h1v1Zm35-1v-1h1v1Zm-18,0v-1h1v1Zm18-1v-1h1v1Zm-18,0v-1h1v1Z" transform="translate(1994 115)"/>
</svg>
