<svg id="Pattern" xmlns="http://www.w3.org/2000/svg" width="14.999" height="14" viewBox="0 0 14.999 14">
  <path id="Union_21" data-name="Union 21" d="M-2028-101h-4v-1h-1v-1h-1v-1h-1v-1h-1v-1h-1v-4h1v4h1v1h1v1h1v1h1v1h1v-1h1v1h1v-1h-1v-1h1v1h1v1h1v1Zm1-1v-1h-1v-1h-1v-1h1v1h1v1h1v1Zm1-1v-1h-1v-1h-1v-1h1v1h1v1h1v1Zm-6,0v-1h1v1Zm7-1v-1h-1v-1h1v1h1v1Zm-6,0v-1h1v1Zm-2,0v-1h1v1Zm9-1v-1h-1v-1h1v1h1v1Zm-6,0v-1h1v1Zm-2,0v-1h1v1Zm-2,0v-1h1v1Zm11-1v-1h1v1Zm-4,0v-1h1v1Zm-2,0v-1h1v1Zm-2,0v-1h1v1Zm-2,0v-1h1v1Zm-2,0v-1h1v1Zm12-1v-1h1v1Zm0-1v-1h1v1Zm0-1v-1h1v1Zm-2,0v-1h1v1Zm-2,0v-1h-1v-1h-1v-1h1v1h1v1h1v1Zm-2,0v-1h-1v-1h1v1h1v1Zm-2,0v-1h1v1Zm-2,0v-1h-1v-1h1v1h1v1Zm-2,0v-1h-1v-1h1v1h1v1Zm11-1v-1h1v1Zm-2,0v-1h1v1Zm-6,0v-1h-1v-1h1v1h1v1Zm7-1v-1h1v1Zm-2,0v-1h-1v-1h1v1h1v1Zm-4,0v-1h1v1Zm-4,0v-1h1v1Zm9-1v-1h1v1Zm-4,0v-1h1v1Zm-2,0v-1h-1v-1h1v1h1v1Zm-2,0v-1h1v1Zm7-1v-1h-3v1h-1v-1h-1v-1h5v1h1v1Zm-2,0v-1h1v1Z" transform="translate(2037 115)"/>
</svg>
