<svg xmlns="http://www.w3.org/2000/svg" width="13.271" height="13.271" viewBox="0 0 13.271 13.271">
  <g id="BallRotate4" transform="translate(0)">
    <rect id="Rectangle_17842" data-name="Rectangle 17842" width="1" height="1" transform="matrix(0.574, 0.819, -0.819, 0.574, 5.98, 2.212)"/>
    <rect id="Rectangle_17843" data-name="Rectangle 17843" width="1" height="1" transform="matrix(0.574, 0.819, -0.819, 0.574, 6.799, 1.638)"/>
    <rect id="Rectangle_17889" data-name="Rectangle 17889" width="1" height="1" transform="matrix(0.574, 0.819, -0.819, 0.574, 8.93, 9.912)"/>
    <rect id="Rectangle_17876" data-name="Rectangle 17876" width="1" height="1" transform="matrix(0.574, 0.819, -0.819, 0.574, 2.703, 4.506)"/>
    <rect id="Rectangle_17890" data-name="Rectangle 17890" width="1" height="1" transform="matrix(0.574, 0.819, -0.819, 0.574, 9.995, 7.946)"/>
    <rect id="Rectangle_17891" data-name="Rectangle 17891" width="1" height="1" transform="matrix(0.574, 0.819, -0.819, 0.574, 9.421, 7.127)"/>
    <rect id="Rectangle_17892" data-name="Rectangle 17892" width="1" height="1" transform="matrix(0.574, 0.819, -0.819, 0.574, 2.785, 8.111)"/>
    <rect id="Rectangle_17893" data-name="Rectangle 17893" width="1" height="1" transform="matrix(0.574, 0.819, -0.819, 0.574, 0.819, 7.046)"/>
    <rect id="Rectangle_17894" data-name="Rectangle 17894" width="1" height="1" transform="matrix(0.574, 0.819, -0.819, 0.574, 3.687, 11.142)"/>
    <rect id="Rectangle_17895" data-name="Rectangle 17895" width="1" height="1" transform="matrix(0.574, 0.819, -0.819, 0.574, 7.865, 11.879)"/>
    <rect id="Rectangle_17896" data-name="Rectangle 17896" width="1" height="1" transform="matrix(0.574, 0.819, -0.819, 0.574, 11.961, 9.011)"/>
    <rect id="Rectangle_17897" data-name="Rectangle 17897" width="1" height="1" transform="matrix(0.574, 0.819, -0.819, 0.574, 12.698, 4.832)"/>
    <rect id="Rectangle_17844" data-name="Rectangle 17844" width="1" height="1" transform="matrix(0.574, 0.819, -0.819, 0.574, 9.83, 0.737)"/>
    <rect id="Rectangle_17841" data-name="Rectangle 17841" width="1" height="1" transform="matrix(0.574, 0.819, -0.819, 0.574, 5.652, 0)"/>
    <rect id="Rectangle_17877" data-name="Rectangle 17877" width="1" height="1" transform="matrix(0.574, 0.819, -0.819, 0.574, 1.556, 2.868)"/>
    <rect id="Rectangle_17855" data-name="Rectangle 17855" width="1" height="1" transform="matrix(0.574, 0.819, -0.819, 0.574, 3.768, 2.54)"/>
    <rect id="Rectangle_17856" data-name="Rectangle 17856" width="1" height="1" transform="matrix(0.574, 0.819, -0.819, 0.574, 3.522, 3.933)"/>
    <rect id="Rectangle_17878" data-name="Rectangle 17878" width="1" height="1" transform="matrix(0.574, 0.819, -0.819, 0.574, 10.486, 5.16)"/>
    <rect id="Rectangle_17879" data-name="Rectangle 17879" width="1" height="1" transform="matrix(0.574, 0.819, -0.819, 0.574, 9.667, 5.734)"/>
    <rect id="Rectangle_17845" data-name="Rectangle 17845" width="1" height="1" transform="matrix(0.574, 0.819, -0.819, 0.574, 8.192, 1.884)"/>
    <rect id="Rectangle_17857" data-name="Rectangle 17857" width="1" height="1" transform="matrix(0.574, 0.819, -0.819, 0.574, 10.731, 3.768)"/>
    <rect id="Rectangle_17858" data-name="Rectangle 17858" width="1" height="1" transform="matrix(0.574, 0.819, -0.819, 0.574, 10.158, 2.949)"/>
    <rect id="Rectangle_17859" data-name="Rectangle 17859" width="1" height="1" transform="matrix(0.574, 0.819, -0.819, 0.574, 9.339, 3.522)"/>
    <rect id="Rectangle_17860" data-name="Rectangle 17860" width="1" height="1" transform="matrix(0.574, 0.819, -0.819, 0.574, 8.519, 4.096)"/>
    <rect id="Rectangle_17846" data-name="Rectangle 17846" width="1" height="1" transform="matrix(0.574, 0.819, -0.819, 0.574, 7.946, 3.277)"/>
    <rect id="Rectangle_17847" data-name="Rectangle 17847" width="1" height="1" transform="matrix(0.574, 0.819, -0.819, 0.574, 7.372, 2.457)"/>
    <rect id="Rectangle_17848" data-name="Rectangle 17848" width="1" height="1" transform="matrix(0.574, 0.819, -0.819, 0.574, 6.553, 3.031)"/>
    <rect id="Rectangle_17849" data-name="Rectangle 17849" width="1" height="1" transform="matrix(0.574, 0.819, -0.819, 0.574, 5.16, 2.785)"/>
    <rect id="Rectangle_17861" data-name="Rectangle 17861" width="1" height="1" transform="matrix(0.574, 0.819, -0.819, 0.574, 4.341, 3.359)"/>
    <rect id="Rectangle_17862" data-name="Rectangle 17862" width="1" height="1" transform="matrix(0.574, 0.819, -0.819, 0.574, 4.915, 4.178)"/>
    <rect id="Rectangle_17850" data-name="Rectangle 17850" width="1" height="1" transform="matrix(0.574, 0.819, -0.819, 0.574, 5.734, 3.605)"/>
    <rect id="Rectangle_17851" data-name="Rectangle 17851" width="1" height="1" transform="matrix(0.574, 0.819, -0.819, 0.574, 6.308, 4.424)"/>
    <rect id="Rectangle_17852" data-name="Rectangle 17852" width="1" height="1" transform="matrix(0.574, 0.819, -0.819, 0.574, 7.127, 3.85)"/>
    <rect id="Rectangle_17863" data-name="Rectangle 17863" width="1" height="1" transform="matrix(0.574, 0.819, -0.819, 0.574, 7.7, 4.669)"/>
    <rect id="Rectangle_17864" data-name="Rectangle 17864" width="1" height="1" transform="matrix(0.574, 0.819, -0.819, 0.574, 6.881, 5.243)"/>
    <rect id="Rectangle_17865" data-name="Rectangle 17865" width="1" height="1" transform="matrix(0.574, 0.819, -0.819, 0.574, 5.488, 4.997)"/>
    <rect id="Rectangle_17866" data-name="Rectangle 17866" width="1" height="1" transform="matrix(0.574, 0.819, -0.819, 0.574, 4.096, 4.752)"/>
    <rect id="Rectangle_17867" data-name="Rectangle 17867" width="1" height="1" transform="matrix(0.574, 0.819, -0.819, 0.574, 4.669, 5.571)"/>
    <rect id="Rectangle_17880" data-name="Rectangle 17880" width="1" height="1" transform="matrix(0.574, 0.819, -0.819, 0.574, 3.277, 5.325)"/>
    <rect id="Rectangle_17898" data-name="Rectangle 17898" width="1" height="1" transform="matrix(0.574, 0.819, -0.819, 0.574, 4.178, 8.356)"/>
    <rect id="Rectangle_17899" data-name="Rectangle 17899" width="1" height="1" transform="matrix(0.574, 0.819, -0.819, 0.574, 6.144, 9.421)"/>
    <rect id="Rectangle_17881" data-name="Rectangle 17881" width="1" height="1" transform="matrix(0.574, 0.819, -0.819, 0.574, 5.571, 8.602)"/>
    <rect id="Rectangle_17900" data-name="Rectangle 17900" width="1" height="1" transform="matrix(0.574, 0.819, -0.819, 0.574, 6.964, 8.848)"/>
    <rect id="Rectangle_17901" data-name="Rectangle 17901" width="1" height="1" transform="matrix(0.574, 0.819, -0.819, 0.574, 8.356, 9.093)"/>
    <rect id="Rectangle_17902" data-name="Rectangle 17902" width="1" height="1" transform="matrix(0.574, 0.819, -0.819, 0.574, 9.176, 8.52)"/>
    <rect id="Rectangle_17903" data-name="Rectangle 17903" width="1" height="1" transform="matrix(0.574, 0.819, -0.819, 0.574, 7.783, 8.274)"/>
    <rect id="Rectangle_17904" data-name="Rectangle 17904" width="1" height="1" transform="matrix(0.574, 0.819, -0.819, 0.574, 7.783, 8.274)"/>
    <rect id="Rectangle_17868" data-name="Rectangle 17868" width="1" height="1" transform="matrix(0.574, 0.819, -0.819, 0.574, 9.912, 4.341)"/>
    <rect id="Rectangle_17869" data-name="Rectangle 17869" width="1" height="1" transform="matrix(0.574, 0.819, -0.819, 0.574, 9.093, 4.915)"/>
    <rect id="Rectangle_17882" data-name="Rectangle 17882" width="1" height="1" transform="matrix(0.574, 0.819, -0.819, 0.574, 8.847, 6.308)"/>
    <rect id="Rectangle_17870" data-name="Rectangle 17870" width="1" height="1" transform="matrix(0.574, 0.819, -0.819, 0.574, 8.274, 5.488)"/>
    <rect id="Rectangle_17905" data-name="Rectangle 17905" width="1" height="1" transform="matrix(0.574, 0.819, -0.819, 0.574, 10.24, 6.553)"/>
    <rect id="Rectangle_17871" data-name="Rectangle 17871" width="1" height="1" transform="matrix(0.574, 0.819, -0.819, 0.574, 7.455, 6.062)"/>
    <rect id="Rectangle_17883" data-name="Rectangle 17883" width="1" height="1" transform="matrix(0.574, 0.819, -0.819, 0.574, 8.028, 6.881)"/>
    <rect id="Rectangle_17906" data-name="Rectangle 17906" width="1" height="1" transform="matrix(0.574, 0.819, -0.819, 0.574, 8.602, 7.7)"/>
    <rect id="Rectangle_17884" data-name="Rectangle 17884" width="1" height="1" transform="matrix(0.574, 0.819, -0.819, 0.574, 7.209, 7.455)"/>
    <rect id="Rectangle_17872" data-name="Rectangle 17872" width="1" height="1" transform="matrix(0.574, 0.819, -0.819, 0.574, 6.636, 6.636)"/>
    <rect id="Rectangle_17885" data-name="Rectangle 17885" width="1" height="1" transform="matrix(0.574, 0.819, -0.819, 0.574, 6.39, 8.028)"/>
    <rect id="Rectangle_17873" data-name="Rectangle 17873" width="1" height="1" transform="matrix(0.574, 0.819, -0.819, 0.574, 5.816, 7.209)"/>
    <rect id="Rectangle_17874" data-name="Rectangle 17874" width="1" height="1" transform="matrix(0.574, 0.819, -0.819, 0.574, 5.243, 6.39)"/>
    <rect id="Rectangle_17886" data-name="Rectangle 17886" width="1" height="1" transform="matrix(0.574, 0.819, -0.819, 0.574, 3.85, 6.144)"/>
    <rect id="Rectangle_17887" data-name="Rectangle 17887" width="1" height="1" transform="matrix(0.574, 0.819, -0.819, 0.574, 4.997, 7.783)"/>
    <rect id="Rectangle_17875" data-name="Rectangle 17875" width="1" height="2" transform="matrix(0.574, 0.819, -0.819, 0.574, 6.881, 5.243)"/>
    <rect id="Rectangle_17853" data-name="Rectangle 17853" width="1" height="1" transform="matrix(0.574, 0.819, -0.819, 0.574, 4.587, 1.966)"/>
    <rect id="Rectangle_17907" data-name="Rectangle 17907" width="1" height="1" transform="matrix(0.574, 0.819, -0.819, 0.574, 11.059, 5.98)"/>
    <rect id="Rectangle_17854" data-name="Rectangle 17854" width="1" height="1" transform="matrix(0.574, 0.819, -0.819, 0.574, 8.765, 2.703)"/>
    <rect id="Rectangle_17908" data-name="Rectangle 17908" width="1" height="1" transform="matrix(0.574, 0.819, -0.819, 0.574, 2.457, 5.899)"/>
    <rect id="Rectangle_17909" data-name="Rectangle 17909" width="1" height="1" transform="matrix(0.574, 0.819, -0.819, 0.574, 7.537, 9.667)"/>
    <rect id="Rectangle_17910" data-name="Rectangle 17910" width="1" height="1" transform="matrix(0.574, 0.819, -0.819, 0.574, 5.325, 9.995)"/>
    <rect id="Rectangle_17911" data-name="Rectangle 17911" width="1" height="1" transform="matrix(0.574, 0.819, -0.819, 0.574, 9.749, 9.339)"/>
    <rect id="Rectangle_17912" data-name="Rectangle 17912" width="1" height="1" transform="matrix(0.574, 0.819, -0.819, 0.574, 3.031, 6.718)"/>
    <rect id="Rectangle_17913" data-name="Rectangle 17913" width="1" height="1" transform="matrix(0.574, 0.819, -0.819, 0.574, 3.605, 7.537)"/>
    <rect id="Rectangle_17888" data-name="Rectangle 17888" width="1" height="1" transform="matrix(0.574, 0.819, -0.819, 0.574, 4.424, 6.964)"/>
    <rect id="Rectangle_17914" data-name="Rectangle 17914" width="1" height="1" transform="matrix(0.574, 0.819, -0.819, 0.574, 10.814, 7.372)"/>
    <rect id="Rectangle_17915" data-name="Rectangle 17915" width="1" height="1" transform="matrix(0.574, 0.819, -0.819, 0.574, 3.359, 8.93)"/>
    <rect id="Rectangle_17916" data-name="Rectangle 17916" width="1" height="1" transform="matrix(0.574, 0.819, -0.819, 0.574, 6.718, 10.24)"/>
    <rect id="Rectangle_17917" data-name="Rectangle 17917" width="1" height="1" transform="matrix(0.574, 0.819, -0.819, 0.574, 4.752, 9.176)"/>
  </g>
</svg>
