<svg id="BallRotate2" xmlns="http://www.w3.org/2000/svg" width="13.144" height="13.144" viewBox="0 0 13.144 13.144">
  <rect id="Rectangle_17688" data-name="Rectangle 17688" width="1" height="1" transform="matrix(0.966, 0.259, -0.259, 0.966, 3.226, 3.605)"/>
  <rect id="Rectangle_17689" data-name="Rectangle 17689" width="1" height="1" transform="matrix(0.966, 0.259, -0.259, 0.966, 3.485, 2.639)"/>
  <rect id="Rectangle_17735" data-name="Rectangle 17735" width="1" height="1" transform="matrix(0.966, 0.259, -0.259, 0.966, 10.436, 7.607)"/>
  <rect id="Rectangle_17722" data-name="Rectangle 17722" width="1" height="1" transform="matrix(0.966, 0.259, -0.259, 0.966, 2.191, 7.469)"/>
  <rect id="Rectangle_17736" data-name="Rectangle 17736" width="1" height="1" transform="matrix(0.966, 0.259, -0.259, 0.966, 9.987, 5.417)"/>
  <rect id="Rectangle_17737" data-name="Rectangle 17737" width="1" height="1" transform="matrix(0.966, 0.259, -0.259, 0.966, 9.022, 5.158)"/>
  <rect id="Rectangle_17738" data-name="Rectangle 17738" width="1" height="1" transform="matrix(0.966, 0.259, -0.259, 0.966, 4.571, 10.177)"/>
  <rect id="Rectangle_17739" data-name="Rectangle 17739" width="1" height="1" transform="matrix(0.966, 0.259, -0.259, 0.966, 2.38, 10.625)"/>
  <rect id="Rectangle_17740" data-name="Rectangle 17740" width="1" height="1" transform="matrix(0.966, 0.259, -0.259, 0.966, 7.21, 11.919)"/>
  <rect id="Rectangle_17741" data-name="Rectangle 17741" width="1" height="1" transform="matrix(0.966, 0.259, -0.259, 0.966, 10.884, 9.798)"/>
  <rect id="Rectangle_17742" data-name="Rectangle 17742" width="1" height="1" transform="matrix(0.966, 0.259, -0.259, 0.966, 12.178, 4.968)"/>
  <rect id="Rectangle_17743" data-name="Rectangle 17743" width="1" height="1" transform="matrix(0.966, 0.259, -0.259, 0.966, 10.057, 1.294)"/>
  <rect id="Rectangle_17690" data-name="Rectangle 17690" width="1" height="1" transform="matrix(0.966, 0.259, -0.259, 0.966, 5.227, 0)"/>
  <rect id="Rectangle_17687" data-name="Rectangle 17687" width="1" height="1" transform="matrix(0.966, 0.259, -0.259, 0.966, 1.553, 2.121)"/>
  <rect id="Rectangle_17723" data-name="Rectangle 17723" width="1" height="1" transform="matrix(0.966, 0.259, -0.259, 0.966, 0.259, 6.951)"/>
  <rect id="Rectangle_17701" data-name="Rectangle 17701" width="1" height="1" transform="matrix(0.966, 0.259, -0.259, 0.966, 1.742, 5.278)"/>
  <rect id="Rectangle_17702" data-name="Rectangle 17702" width="1" height="1" transform="matrix(0.966, 0.259, -0.259, 0.966, 2.449, 6.503)"/>
  <rect id="Rectangle_17724" data-name="Rectangle 17724" width="1" height="1" transform="matrix(0.966, 0.259, -0.259, 0.966, 8.573, 2.967)"/>
  <rect id="Rectangle_17725" data-name="Rectangle 17725" width="1" height="1" transform="matrix(0.966, 0.259, -0.259, 0.966, 8.314, 3.933)"/>
  <rect id="Rectangle_17691" data-name="Rectangle 17691" width="1" height="1" transform="matrix(0.966, 0.259, -0.259, 0.966, 4.71, 1.932)"/>
  <rect id="Rectangle_17703" data-name="Rectangle 17703" width="1" height="1" transform="matrix(0.966, 0.259, -0.259, 0.966, 7.866, 1.742)"/>
  <rect id="Rectangle_17704" data-name="Rectangle 17704" width="1" height="1" transform="matrix(0.966, 0.259, -0.259, 0.966, 6.9, 1.484)"/>
  <rect id="Rectangle_17705" data-name="Rectangle 17705" width="1" height="1" transform="matrix(0.966, 0.259, -0.259, 0.966, 6.641, 2.449)"/>
  <rect id="Rectangle_17706" data-name="Rectangle 17706" width="1" height="1" transform="matrix(0.966, 0.259, -0.259, 0.966, 6.383, 3.415)"/>
  <rect id="Rectangle_17692" data-name="Rectangle 17692" width="1" height="1" transform="matrix(0.966, 0.259, -0.259, 0.966, 5.417, 3.157)"/>
  <rect id="Rectangle_17693" data-name="Rectangle 17693" width="1" height="1" transform="matrix(0.966, 0.259, -0.259, 0.966, 4.451, 2.898)"/>
  <rect id="Rectangle_17694" data-name="Rectangle 17694" width="1" height="1" transform="matrix(0.966, 0.259, -0.259, 0.966, 4.192, 3.864)"/>
  <rect id="Rectangle_17695" data-name="Rectangle 17695" width="1" height="1" transform="matrix(0.966, 0.259, -0.259, 0.966, 2.967, 4.571)"/>
  <rect id="Rectangle_17707" data-name="Rectangle 17707" width="1" height="1" transform="matrix(0.966, 0.259, -0.259, 0.966, 2.708, 5.537)"/>
  <rect id="Rectangle_17708" data-name="Rectangle 17708" width="1" height="1" transform="matrix(0.966, 0.259, -0.259, 0.966, 3.674, 5.796)"/>
  <rect id="Rectangle_17696" data-name="Rectangle 17696" width="1" height="1" transform="matrix(0.966, 0.259, -0.259, 0.966, 3.933, 4.83)"/>
  <rect id="Rectangle_17697" data-name="Rectangle 17697" width="1" height="1" transform="matrix(0.966, 0.259, -0.259, 0.966, 4.899, 5.088)"/>
  <rect id="Rectangle_17698" data-name="Rectangle 17698" width="1" height="1" transform="matrix(0.966, 0.259, -0.259, 0.966, 5.158, 4.123)"/>
  <rect id="Rectangle_17709" data-name="Rectangle 17709" width="1" height="1" transform="matrix(0.966, 0.259, -0.259, 0.966, 6.124, 4.381)"/>
  <rect id="Rectangle_17710" data-name="Rectangle 17710" width="1" height="1" transform="matrix(0.966, 0.259, -0.259, 0.966, 5.865, 5.347)"/>
  <rect id="Rectangle_17711" data-name="Rectangle 17711" width="1" height="1" transform="matrix(0.966, 0.259, -0.259, 0.966, 4.64, 6.054)"/>
  <rect id="Rectangle_17712" data-name="Rectangle 17712" width="1" height="1" transform="matrix(0.966, 0.259, -0.259, 0.966, 3.415, 6.761)"/>
  <rect id="Rectangle_17713" data-name="Rectangle 17713" width="1" height="1" transform="matrix(0.966, 0.259, -0.259, 0.966, 4.381, 7.02)"/>
  <rect id="Rectangle_17726" data-name="Rectangle 17726" width="1" height="1" transform="matrix(0.966, 0.259, -0.259, 0.966, 3.157, 7.727)"/>
  <rect id="Rectangle_17744" data-name="Rectangle 17744" width="1" height="1" transform="matrix(0.966, 0.259, -0.259, 0.966, 5.796, 9.47)"/>
  <rect id="Rectangle_17745" data-name="Rectangle 17745" width="1" height="1" transform="matrix(0.966, 0.259, -0.259, 0.966, 7.986, 9.022)"/>
  <rect id="Rectangle_17727" data-name="Rectangle 17727" width="1" height="1" transform="matrix(0.966, 0.259, -0.259, 0.966, 7.02, 8.763)"/>
  <rect id="Rectangle_17746" data-name="Rectangle 17746" width="1" height="1" transform="matrix(0.966, 0.259, -0.259, 0.966, 8.245, 8.056)"/>
  <rect id="Rectangle_17747" data-name="Rectangle 17747" width="1" height="1" transform="matrix(0.966, 0.259, -0.259, 0.966, 9.47, 7.348)"/>
  <rect id="Rectangle_17748" data-name="Rectangle 17748" width="1" height="1" transform="matrix(0.966, 0.259, -0.259, 0.966, 9.729, 6.383)"/>
  <rect id="Rectangle_17749" data-name="Rectangle 17749" width="1" height="1" transform="matrix(0.966, 0.259, -0.259, 0.966, 8.504, 7.09)"/>
  <rect id="Rectangle_17750" data-name="Rectangle 17750" width="1" height="1" transform="matrix(0.966, 0.259, -0.259, 0.966, 8.504, 7.09)"/>
  <rect id="Rectangle_17714" data-name="Rectangle 17714" width="1" height="1" transform="matrix(0.966, 0.259, -0.259, 0.966, 7.607, 2.708)"/>
  <rect id="Rectangle_17715" data-name="Rectangle 17715" width="1" height="1" transform="matrix(0.966, 0.259, -0.259, 0.966, 7.348, 3.674)"/>
  <rect id="Rectangle_17728" data-name="Rectangle 17728" width="1" height="1" transform="matrix(0.966, 0.259, -0.259, 0.966, 8.056, 4.899)"/>
  <rect id="Rectangle_17716" data-name="Rectangle 17716" width="1" height="1" transform="matrix(0.966, 0.259, -0.259, 0.966, 7.09, 4.64)"/>
  <rect id="Rectangle_17751" data-name="Rectangle 17751" width="1" height="1" transform="matrix(0.966, 0.259, -0.259, 0.966, 9.28, 4.192)"/>
  <rect id="Rectangle_17717" data-name="Rectangle 17717" width="1" height="1" transform="matrix(0.966, 0.259, -0.259, 0.966, 6.831, 5.606)"/>
  <rect id="Rectangle_17729" data-name="Rectangle 17729" width="1" height="1" transform="matrix(0.966, 0.259, -0.259, 0.966, 7.797, 5.865)"/>
  <rect id="Rectangle_17752" data-name="Rectangle 17752" width="1" height="1" transform="matrix(0.966, 0.259, -0.259, 0.966, 8.763, 6.124)"/>
  <rect id="Rectangle_17730" data-name="Rectangle 17730" width="1" height="1" transform="matrix(0.966, 0.259, -0.259, 0.966, 7.538, 6.831)"/>
  <rect id="Rectangle_17718" data-name="Rectangle 17718" width="1" height="1" transform="matrix(0.966, 0.259, -0.259, 0.966, 6.572, 6.572)"/>
  <rect id="Rectangle_17731" data-name="Rectangle 17731" width="1" height="1" transform="matrix(0.966, 0.259, -0.259, 0.966, 7.279, 7.797)"/>
  <rect id="Rectangle_17719" data-name="Rectangle 17719" width="1" height="1" transform="matrix(0.966, 0.259, -0.259, 0.966, 6.313, 7.538)"/>
  <rect id="Rectangle_17720" data-name="Rectangle 17720" width="1" height="1" transform="matrix(0.966, 0.259, -0.259, 0.966, 5.347, 7.279)"/>
  <rect id="Rectangle_17732" data-name="Rectangle 17732" width="1" height="1" transform="matrix(0.966, 0.259, -0.259, 0.966, 4.123, 7.986)"/>
  <rect id="Rectangle_17733" data-name="Rectangle 17733" width="1" height="1" transform="matrix(0.966, 0.259, -0.259, 0.966, 6.054, 8.504)"/>
  <rect id="Rectangle_17721" data-name="Rectangle 17721" width="1" height="2" transform="matrix(0.966, 0.259, -0.259, 0.966, 5.865, 5.347)"/>
  <rect id="Rectangle_17699" data-name="Rectangle 17699" width="1" height="1" transform="matrix(0.966, 0.259, -0.259, 0.966, 2.001, 4.312)"/>
  <rect id="Rectangle_17753" data-name="Rectangle 17753" width="1" height="1" transform="matrix(0.966, 0.259, -0.259, 0.966, 9.539, 3.226)"/>
  <rect id="Rectangle_17700" data-name="Rectangle 17700" width="1" height="1" transform="matrix(0.966, 0.259, -0.259, 0.966, 5.675, 2.191)"/>
  <rect id="Rectangle_17754" data-name="Rectangle 17754" width="1" height="1" transform="matrix(0.966, 0.259, -0.259, 0.966, 2.898, 8.693)"/>
  <rect id="Rectangle_17755" data-name="Rectangle 17755" width="1" height="1" transform="matrix(0.966, 0.259, -0.259, 0.966, 9.211, 8.314)"/>
  <rect id="Rectangle_17756" data-name="Rectangle 17756" width="1" height="1" transform="matrix(0.966, 0.259, -0.259, 0.966, 7.727, 9.987)"/>
  <rect id="Rectangle_17757" data-name="Rectangle 17757" width="1" height="1" transform="matrix(0.966, 0.259, -0.259, 0.966, 10.695, 6.641)"/>
  <rect id="Rectangle_17758" data-name="Rectangle 17758" width="1" height="1" transform="matrix(0.966, 0.259, -0.259, 0.966, 3.864, 8.952)"/>
  <rect id="Rectangle_17759" data-name="Rectangle 17759" width="1" height="1" transform="matrix(0.966, 0.259, -0.259, 0.966, 4.83, 9.211)"/>
  <rect id="Rectangle_17734" data-name="Rectangle 17734" width="1" height="1" transform="matrix(0.966, 0.259, -0.259, 0.966, 5.088, 8.245)"/>
  <rect id="Rectangle_17760" data-name="Rectangle 17760" width="1" height="1" transform="matrix(0.966, 0.259, -0.259, 0.966, 10.246, 4.451)"/>
  <rect id="Rectangle_17761" data-name="Rectangle 17761" width="1" height="1" transform="matrix(0.966, 0.259, -0.259, 0.966, 5.537, 10.436)"/>
  <rect id="Rectangle_17762" data-name="Rectangle 17762" width="1" height="1" transform="matrix(0.966, 0.259, -0.259, 0.966, 8.952, 9.28)"/>
  <rect id="Rectangle_17763" data-name="Rectangle 17763" width="1" height="1" transform="matrix(0.966, 0.259, -0.259, 0.966, 6.762, 9.729)"/>
</svg>
