<svg xmlns="http://www.w3.org/2000/svg" width="13.042" height="13.042" viewBox="0 0 13.042 13.042">
  <g id="BallRotate5" transform="translate(0)">
    <rect id="Rectangle_17919" data-name="Rectangle 17919" width="1" height="1" transform="translate(7.57 2.174) rotate(77)"/>
    <rect id="Rectangle_17920" data-name="Rectangle 17920" width="1" height="1" transform="translate(8.544 1.949) rotate(77)"/>
    <rect id="Rectangle_17966" data-name="Rectangle 17966" width="1" height="1" transform="translate(7.421 10.419) rotate(77)"/>
    <rect id="Rectangle_17953" data-name="Rectangle 17953" width="1" height="1" transform="translate(3.673 3.073) rotate(77)"/>
    <rect id="Rectangle_17967" data-name="Rectangle 17967" width="1" height="1" transform="translate(9.145 8.994) rotate(77)"/>
    <rect id="Rectangle_17968" data-name="Rectangle 17968" width="1" height="1" transform="translate(8.92 8.02) rotate(77)"/>
    <rect id="Rectangle_17969" data-name="Rectangle 17969" width="1" height="1" transform="translate(2.399 6.447) rotate(77)"/>
    <rect id="Rectangle_17970" data-name="Rectangle 17970" width="1" height="1" transform="translate(0.974 4.723) rotate(77)"/>
    <rect id="Rectangle_17971" data-name="Rectangle 17971" width="1" height="1" transform="translate(2.099 9.595) rotate(77)"/>
    <rect id="Rectangle_17972" data-name="Rectangle 17972" width="1" height="1" transform="translate(5.697 11.843) rotate(77)"/>
    <rect id="Rectangle_17973" data-name="Rectangle 17973" width="1" height="1" transform="translate(10.569 10.718) rotate(77)"/>
    <rect id="Rectangle_17974" data-name="Rectangle 17974" width="1" height="1" transform="translate(12.817 7.12) rotate(77)"/>
    <rect id="Rectangle_17921" data-name="Rectangle 17921" width="1" height="1" transform="translate(11.692 2.248) rotate(77)"/>
    <rect id="Rectangle_17918" data-name="Rectangle 17918" width="1" height="1" transform="translate(8.094 0) rotate(77)"/>
    <rect id="Rectangle_17954" data-name="Rectangle 17954" width="1" height="1" transform="translate(3.223 1.125) rotate(77)"/>
    <rect id="Rectangle_17932" data-name="Rectangle 17932" width="1" height="1" transform="translate(5.396 1.649) rotate(77)"/>
    <rect id="Rectangle_17933" data-name="Rectangle 17933" width="1" height="1" transform="translate(4.647 2.849) rotate(77)"/>
    <rect id="Rectangle_17955" data-name="Rectangle 17955" width="1" height="1" transform="translate(10.643 6.596) rotate(77)"/>
    <rect id="Rectangle_17956" data-name="Rectangle 17956" width="1" height="1" transform="translate(9.669 6.821) rotate(77)"/>
    <rect id="Rectangle_17922" data-name="Rectangle 17922" width="1" height="1" transform="translate(9.744 2.698) rotate(77)"/>
    <rect id="Rectangle_17934" data-name="Rectangle 17934" width="1" height="1" transform="translate(11.393 5.396) rotate(77)"/>
    <rect id="Rectangle_17935" data-name="Rectangle 17935" width="1" height="1" transform="translate(11.168 4.422) rotate(77)"/>
    <rect id="Rectangle_17936" data-name="Rectangle 17936" width="1" height="1" transform="translate(10.194 4.647) rotate(77)"/>
    <rect id="Rectangle_17937" data-name="Rectangle 17937" width="1" height="1" transform="translate(9.219 4.872) rotate(77)"/>
    <rect id="Rectangle_17923" data-name="Rectangle 17923" width="1" height="1" transform="translate(8.994 3.897) rotate(77)"/>
    <rect id="Rectangle_17924" data-name="Rectangle 17924" width="1" height="1" transform="translate(8.769 2.923) rotate(77)"/>
    <rect id="Rectangle_17925" data-name="Rectangle 17925" width="1" height="1" transform="translate(7.795 3.148) rotate(77)"/>
    <rect id="Rectangle_17926" data-name="Rectangle 17926" width="1" height="1" transform="translate(6.596 2.399) rotate(77)"/>
    <rect id="Rectangle_17938" data-name="Rectangle 17938" width="1" height="1" transform="translate(5.621 2.624) rotate(77)"/>
    <rect id="Rectangle_17939" data-name="Rectangle 17939" width="1" height="1" transform="translate(5.846 3.598) rotate(77)"/>
    <rect id="Rectangle_17927" data-name="Rectangle 17927" width="1" height="1" transform="translate(6.821 3.373) rotate(77)"/>
    <rect id="Rectangle_17928" data-name="Rectangle 17928" width="1" height="1" transform="translate(7.046 4.347) rotate(77)"/>
    <rect id="Rectangle_17929" data-name="Rectangle 17929" width="1" height="1" transform="translate(8.02 4.122) rotate(77)"/>
    <rect id="Rectangle_17940" data-name="Rectangle 17940" width="1" height="1" transform="translate(8.245 5.097) rotate(77)"/>
    <rect id="Rectangle_17941" data-name="Rectangle 17941" width="1" height="1" transform="translate(7.271 5.322) rotate(77)"/>
    <rect id="Rectangle_17942" data-name="Rectangle 17942" width="1" height="1" transform="translate(6.071 4.572) rotate(77)"/>
    <rect id="Rectangle_17943" data-name="Rectangle 17943" width="1" height="1" transform="translate(4.872 3.823) rotate(77)"/>
    <rect id="Rectangle_17944" data-name="Rectangle 17944" width="1" height="1" transform="translate(5.097 4.797) rotate(77)"/>
    <rect id="Rectangle_17957" data-name="Rectangle 17957" width="1" height="1" transform="translate(3.897 4.048) rotate(77)"/>
    <rect id="Rectangle_17975" data-name="Rectangle 17975" width="1" height="1" transform="translate(3.598 7.196) rotate(77)"/>
    <rect id="Rectangle_17976" data-name="Rectangle 17976" width="1" height="1" transform="translate(5.022 8.92) rotate(77)"/>
    <rect id="Rectangle_17958" data-name="Rectangle 17958" width="1" height="1" transform="translate(4.797 7.945) rotate(77)"/>
    <rect id="Rectangle_17977" data-name="Rectangle 17977" width="1" height="1" transform="translate(5.997 8.695) rotate(77)"/>
    <rect id="Rectangle_17978" data-name="Rectangle 17978" width="1" height="1" transform="translate(7.196 9.444) rotate(77)"/>
    <rect id="Rectangle_17979" data-name="Rectangle 17979" width="1" height="1" transform="translate(8.17 9.219) rotate(77)"/>
    <rect id="Rectangle_17980" data-name="Rectangle 17980" width="1" height="1" transform="translate(6.971 8.47) rotate(77)"/>
    <rect id="Rectangle_17981" data-name="Rectangle 17981" width="1" height="1" transform="translate(6.971 8.47) rotate(77)"/>
    <rect id="Rectangle_17945" data-name="Rectangle 17945" width="1" height="1" transform="translate(10.419 5.621) rotate(77)"/>
    <rect id="Rectangle_17946" data-name="Rectangle 17946" width="1" height="1" transform="translate(9.444 5.846) rotate(77)"/>
    <rect id="Rectangle_17959" data-name="Rectangle 17959" width="1" height="1" transform="translate(8.695 7.046) rotate(77)"/>
    <rect id="Rectangle_17947" data-name="Rectangle 17947" width="1" height="1" transform="translate(8.47 6.071) rotate(77)"/>
    <rect id="Rectangle_17982" data-name="Rectangle 17982" width="1" height="1" transform="translate(9.894 7.795) rotate(77)"/>
    <rect id="Rectangle_17948" data-name="Rectangle 17948" width="1" height="1" transform="translate(7.495 6.296) rotate(77)"/>
    <rect id="Rectangle_17960" data-name="Rectangle 17960" width="1" height="1" transform="translate(7.72 7.27) rotate(77)"/>
    <rect id="Rectangle_17983" data-name="Rectangle 17983" width="1" height="1" transform="translate(7.945 8.245) rotate(77)"/>
    <rect id="Rectangle_17961" data-name="Rectangle 17961" width="1" height="1" transform="translate(6.746 7.495) rotate(77)"/>
    <rect id="Rectangle_17949" data-name="Rectangle 17949" width="1" height="1" transform="translate(6.521 6.521) rotate(77)"/>
    <rect id="Rectangle_17962" data-name="Rectangle 17962" width="1" height="1" transform="translate(5.772 7.72) rotate(77)"/>
    <rect id="Rectangle_17950" data-name="Rectangle 17950" width="1" height="1" transform="translate(5.547 6.746) rotate(77)"/>
    <rect id="Rectangle_17951" data-name="Rectangle 17951" width="1" height="1" transform="translate(5.322 5.772) rotate(77)"/>
    <rect id="Rectangle_17963" data-name="Rectangle 17963" width="1" height="1" transform="translate(4.122 5.022) rotate(77)"/>
    <rect id="Rectangle_17964" data-name="Rectangle 17964" width="1" height="1" transform="translate(4.572 6.971) rotate(77)"/>
    <rect id="Rectangle_17952" data-name="Rectangle 17952" width="1" height="2" transform="translate(7.271 5.322) rotate(77)"/>
    <rect id="Rectangle_17930" data-name="Rectangle 17930" width="1" height="1" transform="translate(6.371 1.424) rotate(77)"/>
    <rect id="Rectangle_17984" data-name="Rectangle 17984" width="1" height="1" transform="translate(10.868 7.57) rotate(77)"/>
    <rect id="Rectangle_17931" data-name="Rectangle 17931" width="1" height="1" transform="translate(9.969 3.673) rotate(77)"/>
    <rect id="Rectangle_17985" data-name="Rectangle 17985" width="1" height="1" transform="translate(2.923 4.273) rotate(77)"/>
    <rect id="Rectangle_17986" data-name="Rectangle 17986" width="1" height="1" transform="translate(6.222 9.669) rotate(77)"/>
    <rect id="Rectangle_17987" data-name="Rectangle 17987" width="1" height="1" transform="translate(4.048 9.145) rotate(77)"/>
    <rect id="Rectangle_17988" data-name="Rectangle 17988" width="1" height="1" transform="translate(8.395 10.194) rotate(77)"/>
    <rect id="Rectangle_17989" data-name="Rectangle 17989" width="1" height="1" transform="translate(3.148 5.247) rotate(77)"/>
    <rect id="Rectangle_17990" data-name="Rectangle 17990" width="1" height="1" transform="translate(3.373 6.222) rotate(77)"/>
    <rect id="Rectangle_17965" data-name="Rectangle 17965" width="1" height="1" transform="translate(4.347 5.997) rotate(77)"/>
    <rect id="Rectangle_17991" data-name="Rectangle 17991" width="1" height="1" transform="translate(10.119 8.769) rotate(77)"/>
    <rect id="Rectangle_17992" data-name="Rectangle 17992" width="1" height="1" transform="translate(2.624 7.421) rotate(77)"/>
    <rect id="Rectangle_17993" data-name="Rectangle 17993" width="1" height="1" transform="translate(5.247 9.894) rotate(77)"/>
    <rect id="Rectangle_17994" data-name="Rectangle 17994" width="1" height="1" transform="translate(3.823 8.17) rotate(77)"/>
  </g>
</svg>
