<svg id="BallRotate1" xmlns="http://www.w3.org/2000/svg" width="12.001" height="12" viewBox="0 0 12.001 12">
  <path id="Union_22" data-name="Union 22" d="M-1986-126v-1h1v1Zm-5,0v-1h1v1Zm3-1v-1h1v1Zm-1,0v-1h-1v-1h1v-1h0v-3h2v1h0v-1h1v0h2v0h1v2h-2v2h-2v1h-1v1Zm3-4h0Zm0,3h-1v-1h2v1Zm-5,0v-1h1v1Zm8-1v-1h1v1Zm-2,0v-1h1v1Zm-5,0v-1h1v1Zm-1,0v-1h1v1Zm-1,0v-2h-1v-2h2v1h0v3Zm-2,0v-1h1v1Zm9-1v-1h1v1Zm-5,0v-1h1v1Zm-1,0v-1h1v1Zm1-1v-1h1v1Zm-1,0v-2h1v2Zm1-1v-2h1v2Zm5-1h-3v-1h0v-1h0v-1h-1v-1h2v1h1v1h0v-1h1v1h1v2Zm-4,0v-1h1v1Zm-2,0v-1h1v1Zm-1,0v-2h1v2Zm9-1v-1h1v1Zm-6,0h-2v-1h1v-1h2v1h0v1Zm-5,0v-1h1v1Zm3-1v-1h1v1Zm5-2v-1h1v1Zm-5,0v-1h1v1Z" transform="translate(1994 138)"/>
</svg>
