<svg id="BallSolid4" xmlns="http://www.w3.org/2000/svg" width="14" height="14" viewBox="0 0 14 14">
  <rect id="Rectangle_17538" data-name="Rectangle 17538" width="1" height="1" transform="translate(3 5)"/>
  <rect id="Rectangle_17533" data-name="Rectangle 17533" width="1" height="1" transform="translate(3 4)"/>
  <rect id="Rectangle_17606" data-name="Rectangle 17606" width="1" height="1" transform="translate(11 7)"/>
  <rect id="Rectangle_17557" data-name="Rectangle 17557" width="1" height="1" transform="translate(3 9)"/>
  <rect id="Rectangle_17558" data-name="Rectangle 17558" width="1" height="1" transform="translate(10 5)"/>
  <rect id="Rectangle_17559" data-name="Rectangle 17559" width="1" height="1" transform="translate(9 5)"/>
  <rect id="Rectangle_17560" data-name="Rectangle 17560" width="1" height="1" transform="translate(6 11)"/>
  <rect id="Rectangle_17561" data-name="Rectangle 17561" width="1" height="1" transform="translate(2 11)"/>
  <rect id="Rectangle_17562" data-name="Rectangle 17562" width="1" height="1" transform="translate(7 13)"/>
  <rect id="Rectangle_17608" data-name="Rectangle 17608" width="1" height="1" transform="translate(11 11)"/>
  <rect id="Rectangle_17609" data-name="Rectangle 17609" width="1" height="1" transform="translate(13 6)"/>
  <rect id="Rectangle_17563" data-name="Rectangle 17563" width="1" height="1" transform="translate(11 2)"/>
  <rect id="Rectangle_17534" data-name="Rectangle 17534" width="1" height="1" transform="translate(6)"/>
  <rect id="Rectangle_17535" data-name="Rectangle 17535" width="1" height="1" transform="translate(2 2)"/>
  <rect id="Rectangle_17564" data-name="Rectangle 17564" width="1" height="1" transform="translate(0 7)"/>
  <rect id="Rectangle_17539" data-name="Rectangle 17539" width="1" height="1" transform="translate(2 7)"/>
  <rect id="Rectangle_17565" data-name="Rectangle 17565" width="1" height="1" transform="translate(3 8)"/>
  <rect id="Rectangle_17566" data-name="Rectangle 17566" width="1" height="1" transform="translate(8 3)"/>
  <rect id="Rectangle_17567" data-name="Rectangle 17567" width="1" height="1" transform="translate(8 4)"/>
  <rect id="Rectangle_17536" data-name="Rectangle 17536" width="1" height="1" transform="translate(4 3)"/>
  <rect id="Rectangle_17568" data-name="Rectangle 17568" width="1" height="1" transform="translate(7 2)"/>
  <rect id="Rectangle_17540" data-name="Rectangle 17540" width="1" height="1" transform="translate(6 2)"/>
  <rect id="Rectangle_17541" data-name="Rectangle 17541" width="1" height="1" transform="translate(6 3)"/>
  <rect id="Rectangle_17542" data-name="Rectangle 17542" width="1" height="1" transform="translate(6 4)"/>
  <rect id="Rectangle_17543" data-name="Rectangle 17543" width="1" height="1" transform="translate(5 4)"/>
  <rect id="Rectangle_17537" data-name="Rectangle 17537" width="1" height="1" transform="translate(4 4)"/>
  <rect id="Rectangle_17544" data-name="Rectangle 17544" width="1" height="1" transform="translate(4 5)"/>
  <rect id="Rectangle_17545" data-name="Rectangle 17545" width="1" height="1" transform="translate(3 6)"/>
  <rect id="Rectangle_17546" data-name="Rectangle 17546" width="1" height="1" transform="translate(3 7)"/>
  <rect id="Rectangle_17547" data-name="Rectangle 17547" width="1" height="1" transform="translate(4 7)"/>
  <rect id="Rectangle_17548" data-name="Rectangle 17548" width="1" height="1" transform="translate(4 6)"/>
  <rect id="Rectangle_17549" data-name="Rectangle 17549" width="1" height="1" transform="translate(5 6)"/>
  <rect id="Rectangle_17550" data-name="Rectangle 17550" width="1" height="1" transform="translate(5 5)"/>
  <rect id="Rectangle_17551" data-name="Rectangle 17551" width="1" height="1" transform="translate(6 5)"/>
  <rect id="Rectangle_17552" data-name="Rectangle 17552" width="1" height="1" transform="translate(6 6)"/>
  <rect id="Rectangle_17553" data-name="Rectangle 17553" width="1" height="1" transform="translate(5 7)"/>
  <rect id="Rectangle_17569" data-name="Rectangle 17569" width="1" height="1" transform="translate(4 8)"/>
  <rect id="Rectangle_17570" data-name="Rectangle 17570" width="1" height="1" transform="translate(5 8)"/>
  <rect id="Rectangle_17571" data-name="Rectangle 17571" width="1" height="1" transform="translate(4 9)"/>
  <rect id="Rectangle_17572" data-name="Rectangle 17572" width="1" height="1" transform="translate(7 10)"/>
  <rect id="Rectangle_17573" data-name="Rectangle 17573" width="1" height="1" transform="translate(9 9)"/>
  <rect id="Rectangle_17574" data-name="Rectangle 17574" width="1" height="1" transform="translate(8 9)"/>
  <rect id="Rectangle_17575" data-name="Rectangle 17575" width="1" height="1" transform="translate(9 8)"/>
  <rect id="Rectangle_17576" data-name="Rectangle 17576" width="1" height="1" transform="translate(10 7)"/>
  <rect id="Rectangle_17577" data-name="Rectangle 17577" width="1" height="1" transform="translate(10 6)"/>
  <rect id="Rectangle_17578" data-name="Rectangle 17578" width="1" height="1" transform="translate(9 7)"/>
  <rect id="Rectangle_17579" data-name="Rectangle 17579" width="1" height="1" transform="translate(9 7)"/>
  <rect id="Rectangle_17580" data-name="Rectangle 17580" width="1" height="1" transform="translate(7 3)"/>
  <rect id="Rectangle_17581" data-name="Rectangle 17581" width="1" height="1" transform="translate(7 4)"/>
  <rect id="Rectangle_17582" data-name="Rectangle 17582" width="1" height="1" transform="translate(8 5)"/>
  <rect id="Rectangle_17583" data-name="Rectangle 17583" width="1" height="1" transform="translate(7 5)"/>
  <rect id="Rectangle_17584" data-name="Rectangle 17584" width="1" height="1" transform="translate(9 4)"/>
  <rect id="Rectangle_17585" data-name="Rectangle 17585" width="1" height="1" transform="translate(7 6)"/>
  <rect id="Rectangle_17586" data-name="Rectangle 17586" width="1" height="1" transform="translate(8 6)"/>
  <rect id="Rectangle_17587" data-name="Rectangle 17587" width="1" height="1" transform="translate(9 6)"/>
  <rect id="Rectangle_17588" data-name="Rectangle 17588" width="1" height="1" transform="translate(8 7)"/>
  <rect id="Rectangle_17589" data-name="Rectangle 17589" width="1" height="1" transform="translate(7 7)"/>
  <rect id="Rectangle_17590" data-name="Rectangle 17590" width="1" height="1" transform="translate(8 8)"/>
  <rect id="Rectangle_17591" data-name="Rectangle 17591" width="1" height="1" transform="translate(7 8)"/>
  <rect id="Rectangle_17592" data-name="Rectangle 17592" width="1" height="1" transform="translate(6 8)"/>
  <rect id="Rectangle_17593" data-name="Rectangle 17593" width="1" height="1" transform="translate(5 9)"/>
  <rect id="Rectangle_17594" data-name="Rectangle 17594" width="1" height="1" transform="translate(7 9)"/>
  <rect id="Rectangle_17554" data-name="Rectangle 17554" width="1" height="2" transform="translate(6 6)"/>
  <rect id="Rectangle_17555" data-name="Rectangle 17555" width="1" height="1" transform="translate(2 6)"/>
  <rect id="Rectangle_17595" data-name="Rectangle 17595" width="1" height="1" transform="translate(9 3)"/>
  <rect id="Rectangle_17556" data-name="Rectangle 17556" width="1" height="1" transform="translate(5 3)"/>
  <rect id="Rectangle_17596" data-name="Rectangle 17596" width="1" height="1" transform="translate(4 10)"/>
  <rect id="Rectangle_17597" data-name="Rectangle 17597" width="1" height="1" transform="translate(10 8)"/>
  <rect id="Rectangle_17598" data-name="Rectangle 17598" width="1" height="1" transform="translate(9 10)"/>
  <rect id="Rectangle_17607" data-name="Rectangle 17607" width="1" height="1" transform="translate(11 6)"/>
  <rect id="Rectangle_17599" data-name="Rectangle 17599" width="1" height="1" transform="translate(5 10)"/>
  <rect id="Rectangle_17600" data-name="Rectangle 17600" width="1" height="1" transform="translate(6 10)"/>
  <rect id="Rectangle_17601" data-name="Rectangle 17601" width="1" height="1" transform="translate(6 9)"/>
  <rect id="Rectangle_17602" data-name="Rectangle 17602" width="1" height="1" transform="translate(10 4)"/>
  <rect id="Rectangle_17603" data-name="Rectangle 17603" width="1" height="1" transform="translate(7 11)"/>
  <rect id="Rectangle_17604" data-name="Rectangle 17604" width="1" height="1" transform="translate(10 9)"/>
  <rect id="Rectangle_17605" data-name="Rectangle 17605" width="1" height="1" transform="translate(8 10)"/>
</svg>
