<svg id="BallSolid3" xmlns="http://www.w3.org/2000/svg" width="12" height="12" viewBox="0 0 12 12">
  <rect id="Rectangle_16906" data-name="Rectangle 16906" width="1" height="1" transform="translate(2 4)"/>
  <rect id="Rectangle_16880" data-name="Rectangle 16880" width="1" height="1" transform="translate(2 3)"/>
  <rect id="Rectangle_16952" data-name="Rectangle 16952" width="1" height="1" transform="translate(10 6)"/>
  <rect id="Rectangle_17002" data-name="Rectangle 17002" width="1" height="1" transform="translate(2 8)"/>
  <rect id="Rectangle_16910" data-name="Rectangle 16910" width="1" height="1" transform="translate(9 4)"/>
  <rect id="Rectangle_17034" data-name="Rectangle 17034" width="1" height="1" transform="translate(5 10)"/>
  <rect id="Rectangle_17076" data-name="Rectangle 17076" width="1" height="1" transform="translate(3 11)"/>
  <rect id="Rectangle_17077" data-name="Rectangle 17077" width="1" height="1" transform="translate(8 11)"/>
  <rect id="Rectangle_17078" data-name="Rectangle 17078" width="1" height="1" transform="translate(11 8)"/>
  <rect id="Rectangle_17079" data-name="Rectangle 17079" width="1" height="1" transform="translate(11 3)"/>
  <rect id="Rectangle_17080" data-name="Rectangle 17080" width="1" height="1" transform="translate(8)"/>
  <rect id="Rectangle_17081" data-name="Rectangle 17081" width="1" height="1" transform="translate(3)"/>
  <rect id="Rectangle_17082" data-name="Rectangle 17082" width="1" height="1" transform="translate(0 3)"/>
  <rect id="Rectangle_17083" data-name="Rectangle 17083" width="1" height="1" transform="translate(0 8)"/>
  <rect id="Rectangle_16956" data-name="Rectangle 16956" width="1" height="1" transform="translate(1 6)"/>
  <rect id="Rectangle_16978" data-name="Rectangle 16978" width="1" height="1" transform="translate(2 7)"/>
  <rect id="Rectangle_16856" data-name="Rectangle 16856" width="1" height="1" transform="translate(7 2)"/>
  <rect id="Rectangle_17072" data-name="Rectangle 17072" width="1" height="1" transform="translate(7 3)"/>
  <rect id="Rectangle_16860" data-name="Rectangle 16860" width="1" height="1" transform="translate(3 2)"/>
  <rect id="Rectangle_16846" data-name="Rectangle 16846" width="1" height="1" transform="translate(6 1)"/>
  <rect id="Rectangle_16850" data-name="Rectangle 16850" width="1" height="1" transform="translate(5 1)"/>
  <rect id="Rectangle_17039" data-name="Rectangle 17039" width="1" height="1" transform="translate(5 2)"/>
  <rect id="Rectangle_17040" data-name="Rectangle 17040" width="1" height="1" transform="translate(5 3)"/>
  <rect id="Rectangle_17041" data-name="Rectangle 17041" width="1" height="1" transform="translate(4 3)"/>
  <rect id="Rectangle_17042" data-name="Rectangle 17042" width="1" height="1" transform="translate(3 3)"/>
  <rect id="Rectangle_17043" data-name="Rectangle 17043" width="1" height="1" transform="translate(3 4)"/>
  <rect id="Rectangle_17044" data-name="Rectangle 17044" width="1" height="1" transform="translate(2 5)"/>
  <rect id="Rectangle_17045" data-name="Rectangle 17045" width="1" height="1" transform="translate(2 6)"/>
  <rect id="Rectangle_17046" data-name="Rectangle 17046" width="1" height="1" transform="translate(3 6)"/>
  <rect id="Rectangle_17047" data-name="Rectangle 17047" width="1" height="1" transform="translate(3 5)"/>
  <rect id="Rectangle_17048" data-name="Rectangle 17048" width="1" height="1" transform="translate(4 5)"/>
  <rect id="Rectangle_17049" data-name="Rectangle 17049" width="1" height="1" transform="translate(4 4)"/>
  <rect id="Rectangle_17050" data-name="Rectangle 17050" width="1" height="1" transform="translate(5 4)"/>
  <rect id="Rectangle_17051" data-name="Rectangle 17051" width="1" height="1" transform="translate(5 5)"/>
  <rect id="Rectangle_17052" data-name="Rectangle 17052" width="1" height="1" transform="translate(4 6)"/>
  <rect id="Rectangle_17053" data-name="Rectangle 17053" width="1" height="1" transform="translate(3 7)"/>
  <rect id="Rectangle_17054" data-name="Rectangle 17054" width="1" height="1" transform="translate(4 7)"/>
  <rect id="Rectangle_17055" data-name="Rectangle 17055" width="1" height="1" transform="translate(3 8)"/>
  <rect id="Rectangle_17056" data-name="Rectangle 17056" width="1" height="1" transform="translate(6 9)"/>
  <rect id="Rectangle_17057" data-name="Rectangle 17057" width="1" height="1" transform="translate(8 8)"/>
  <rect id="Rectangle_17058" data-name="Rectangle 17058" width="1" height="1" transform="translate(7 8)"/>
  <rect id="Rectangle_17059" data-name="Rectangle 17059" width="1" height="1" transform="translate(8 7)"/>
  <rect id="Rectangle_17060" data-name="Rectangle 17060" width="1" height="1" transform="translate(9 6)"/>
  <rect id="Rectangle_17061" data-name="Rectangle 17061" width="1" height="1" transform="translate(9 5)"/>
  <rect id="Rectangle_17070" data-name="Rectangle 17070" width="1" height="1" transform="translate(8 6)"/>
  <rect id="Rectangle_17071" data-name="Rectangle 17071" width="1" height="1" transform="translate(8 6)"/>
  <rect id="Rectangle_17244" data-name="Rectangle 17244" width="1" height="1" transform="translate(7 7)"/>
  <rect id="Rectangle_17246" data-name="Rectangle 17246" width="1" height="1" transform="translate(6 8)"/>
  <rect id="Rectangle_17062" data-name="Rectangle 17062" width="1" height="1" transform="translate(6 2)"/>
  <rect id="Rectangle_17063" data-name="Rectangle 17063" width="1" height="1" transform="translate(6 3)"/>
  <rect id="Rectangle_17064" data-name="Rectangle 17064" width="1" height="1" transform="translate(7 4)"/>
  <rect id="Rectangle_17065" data-name="Rectangle 17065" width="1" height="1" transform="translate(6 4)"/>
  <rect id="Rectangle_17066" data-name="Rectangle 17066" width="1" height="1" transform="translate(8 3)"/>
  <rect id="Rectangle_17068" data-name="Rectangle 17068" width="1" height="1" transform="translate(6 5)"/>
  <rect id="Rectangle_17069" data-name="Rectangle 17069" width="1" height="2" transform="translate(5 5)"/>
  <rect id="Rectangle_16940" data-name="Rectangle 16940" width="1" height="1" transform="translate(1 5)"/>
  <rect id="Rectangle_16864" data-name="Rectangle 16864" width="1" height="1" transform="translate(8 2)"/>
  <rect id="Rectangle_16868" data-name="Rectangle 16868" width="1" height="1" transform="translate(4 2)"/>
  <rect id="Rectangle_17018" data-name="Rectangle 17018" width="1" height="1" transform="translate(3 9)"/>
  <rect id="Rectangle_16994" data-name="Rectangle 16994" width="1" height="1" transform="translate(9 7)"/>
  <rect id="Rectangle_17022" data-name="Rectangle 17022" width="1" height="1" transform="translate(8 9)"/>
  <rect id="Rectangle_16944" data-name="Rectangle 16944" width="1" height="1" transform="translate(10 5)"/>
  <rect id="Rectangle_17026" data-name="Rectangle 17026" width="1" height="1" transform="translate(4 9)"/>
  <rect id="Rectangle_17074" data-name="Rectangle 17074" width="1" height="1" transform="translate(5 9)"/>
  <rect id="Rectangle_16896" data-name="Rectangle 16896" width="1" height="1" transform="translate(9 3)"/>
  <rect id="Rectangle_17038" data-name="Rectangle 17038" width="1" height="1" transform="translate(6 10)"/>
  <rect id="Rectangle_17012" data-name="Rectangle 17012" width="1" height="1" transform="translate(9 8)"/>
  <rect id="Rectangle_17030" data-name="Rectangle 17030" width="1" height="1" transform="translate(7 9)"/>
</svg>
