<svg id="BallRotate6" xmlns="http://www.w3.org/2000/svg" width="12" height="12" viewBox="0 0 12 12">
  <rect id="Rectangle_17996" data-name="Rectangle 17996" width="1" height="1" transform="translate(8 2) rotate(90)"/>
  <rect id="Rectangle_17997" data-name="Rectangle 17997" width="1" height="1" transform="translate(9 2) rotate(90)"/>
  <rect id="Rectangle_18043" data-name="Rectangle 18043" width="1" height="1" transform="translate(6 10) rotate(90)"/>
  <rect id="Rectangle_18030" data-name="Rectangle 18030" width="1" height="1" transform="translate(4 2) rotate(90)"/>
  <rect id="Rectangle_18044" data-name="Rectangle 18044" width="1" height="1" transform="translate(8 9) rotate(90)"/>
  <rect id="Rectangle_18045" data-name="Rectangle 18045" width="1" height="1" transform="translate(8 8) rotate(90)"/>
  <rect id="Rectangle_18046" data-name="Rectangle 18046" width="1" height="1" transform="translate(2 5) rotate(90)"/>
  <rect id="Rectangle_18047" data-name="Rectangle 18047" width="1" height="1" transform="translate(1 3) rotate(90)"/>
  <rect id="Rectangle_18048" data-name="Rectangle 18048" width="1" height="1" transform="translate(1 8) rotate(90)"/>
  <rect id="Rectangle_18049" data-name="Rectangle 18049" width="1" height="1" transform="translate(4 11) rotate(90)"/>
  <rect id="Rectangle_18050" data-name="Rectangle 18050" width="1" height="1" transform="translate(9 11) rotate(90)"/>
  <rect id="Rectangle_18051" data-name="Rectangle 18051" width="1" height="1" transform="translate(12 8) rotate(90)"/>
  <rect id="Rectangle_17998" data-name="Rectangle 17998" width="1" height="1" transform="translate(12 3) rotate(90)"/>
  <rect id="Rectangle_17995" data-name="Rectangle 17995" width="1" height="1" transform="translate(9 0) rotate(90)"/>
  <rect id="Rectangle_18031" data-name="Rectangle 18031" width="1" height="1" transform="translate(4 0) rotate(90)"/>
  <rect id="Rectangle_18009" data-name="Rectangle 18009" width="1" height="1" transform="translate(6 1) rotate(90)"/>
  <rect id="Rectangle_18010" data-name="Rectangle 18010" width="1" height="1" transform="translate(5 2) rotate(90)"/>
  <rect id="Rectangle_18032" data-name="Rectangle 18032" width="1" height="1" transform="translate(10 7) rotate(90)"/>
  <rect id="Rectangle_18033" data-name="Rectangle 18033" width="1" height="1" transform="translate(9 7) rotate(90)"/>
  <rect id="Rectangle_17999" data-name="Rectangle 17999" width="1" height="1" transform="translate(10 3) rotate(90)"/>
  <rect id="Rectangle_18011" data-name="Rectangle 18011" width="1" height="1" transform="translate(11 6) rotate(90)"/>
  <rect id="Rectangle_18012" data-name="Rectangle 18012" width="1" height="1" transform="translate(11 5) rotate(90)"/>
  <rect id="Rectangle_18013" data-name="Rectangle 18013" width="1" height="1" transform="translate(10 5) rotate(90)"/>
  <rect id="Rectangle_18014" data-name="Rectangle 18014" width="1" height="1" transform="translate(9 5) rotate(90)"/>
  <rect id="Rectangle_18000" data-name="Rectangle 18000" width="1" height="1" transform="translate(9 4) rotate(90)"/>
  <rect id="Rectangle_18001" data-name="Rectangle 18001" width="1" height="1" transform="translate(9 3) rotate(90)"/>
  <rect id="Rectangle_18002" data-name="Rectangle 18002" width="1" height="1" transform="translate(8 3) rotate(90)"/>
  <rect id="Rectangle_18003" data-name="Rectangle 18003" width="1" height="1" transform="translate(7 2) rotate(90)"/>
  <rect id="Rectangle_18015" data-name="Rectangle 18015" width="1" height="1" transform="translate(6 2) rotate(90)"/>
  <rect id="Rectangle_18016" data-name="Rectangle 18016" width="1" height="1" transform="translate(6 3) rotate(90)"/>
  <rect id="Rectangle_18004" data-name="Rectangle 18004" width="1" height="1" transform="translate(7 3) rotate(90)"/>
  <rect id="Rectangle_18005" data-name="Rectangle 18005" width="1" height="1" transform="translate(7 4) rotate(90)"/>
  <rect id="Rectangle_18006" data-name="Rectangle 18006" width="1" height="1" transform="translate(8 4) rotate(90)"/>
  <rect id="Rectangle_18017" data-name="Rectangle 18017" width="1" height="1" transform="translate(8 5) rotate(90)"/>
  <rect id="Rectangle_18018" data-name="Rectangle 18018" width="1" height="1" transform="translate(7 5) rotate(90)"/>
  <rect id="Rectangle_18019" data-name="Rectangle 18019" width="1" height="1" transform="translate(6 4) rotate(90)"/>
  <rect id="Rectangle_18020" data-name="Rectangle 18020" width="1" height="1" transform="translate(5 3) rotate(90)"/>
  <rect id="Rectangle_18021" data-name="Rectangle 18021" width="1" height="1" transform="translate(5 4) rotate(90)"/>
  <rect id="Rectangle_18034" data-name="Rectangle 18034" width="1" height="1" transform="translate(4 3) rotate(90)"/>
  <rect id="Rectangle_18052" data-name="Rectangle 18052" width="1" height="1" transform="translate(3 6) rotate(90)"/>
  <rect id="Rectangle_18053" data-name="Rectangle 18053" width="1" height="1" transform="translate(4 8) rotate(90)"/>
  <rect id="Rectangle_18035" data-name="Rectangle 18035" width="1" height="1" transform="translate(4 7) rotate(90)"/>
  <rect id="Rectangle_18054" data-name="Rectangle 18054" width="1" height="1" transform="translate(5 8) rotate(90)"/>
  <rect id="Rectangle_18055" data-name="Rectangle 18055" width="1" height="1" transform="translate(6 9) rotate(90)"/>
  <rect id="Rectangle_18056" data-name="Rectangle 18056" width="1" height="1" transform="translate(7 9) rotate(90)"/>
  <rect id="Rectangle_18057" data-name="Rectangle 18057" width="1" height="1" transform="translate(6 8) rotate(90)"/>
  <rect id="Rectangle_18058" data-name="Rectangle 18058" width="1" height="1" transform="translate(6 8) rotate(90)"/>
  <rect id="Rectangle_18022" data-name="Rectangle 18022" width="1" height="1" transform="translate(10 6) rotate(90)"/>
  <rect id="Rectangle_18023" data-name="Rectangle 18023" width="1" height="1" transform="translate(9 6) rotate(90)"/>
  <rect id="Rectangle_18036" data-name="Rectangle 18036" width="1" height="1" transform="translate(8 7) rotate(90)"/>
  <rect id="Rectangle_18024" data-name="Rectangle 18024" width="1" height="1" transform="translate(8 6) rotate(90)"/>
  <rect id="Rectangle_18059" data-name="Rectangle 18059" width="1" height="1" transform="translate(9 8) rotate(90)"/>
  <rect id="Rectangle_18025" data-name="Rectangle 18025" width="1" height="1" transform="translate(7 6) rotate(90)"/>
  <rect id="Rectangle_18037" data-name="Rectangle 18037" width="1" height="1" transform="translate(7 7) rotate(90)"/>
  <rect id="Rectangle_18060" data-name="Rectangle 18060" width="1" height="1" transform="translate(7 8) rotate(90)"/>
  <rect id="Rectangle_18038" data-name="Rectangle 18038" width="1" height="1" transform="translate(6 7) rotate(90)"/>
  <rect id="Rectangle_18026" data-name="Rectangle 18026" width="1" height="1" transform="translate(6 6) rotate(90)"/>
  <rect id="Rectangle_18039" data-name="Rectangle 18039" width="1" height="1" transform="translate(5 7) rotate(90)"/>
  <rect id="Rectangle_18027" data-name="Rectangle 18027" width="1" height="1" transform="translate(5 6) rotate(90)"/>
  <rect id="Rectangle_18028" data-name="Rectangle 18028" width="1" height="1" transform="translate(5 5) rotate(90)"/>
  <rect id="Rectangle_18040" data-name="Rectangle 18040" width="1" height="1" transform="translate(4 4) rotate(90)"/>
  <rect id="Rectangle_18041" data-name="Rectangle 18041" width="1" height="1" transform="translate(4 6) rotate(90)"/>
  <rect id="Rectangle_18029" data-name="Rectangle 18029" width="1" height="2" transform="translate(7 5) rotate(90)"/>
  <rect id="Rectangle_18007" data-name="Rectangle 18007" width="1" height="1" transform="translate(7 1) rotate(90)"/>
  <rect id="Rectangle_18061" data-name="Rectangle 18061" width="1" height="1" transform="translate(10 8) rotate(90)"/>
  <rect id="Rectangle_18008" data-name="Rectangle 18008" width="1" height="1" transform="translate(10 4) rotate(90)"/>
  <rect id="Rectangle_18062" data-name="Rectangle 18062" width="1" height="1" transform="translate(3 3) rotate(90)"/>
  <rect id="Rectangle_18063" data-name="Rectangle 18063" width="1" height="1" transform="translate(5 9) rotate(90)"/>
  <rect id="Rectangle_18064" data-name="Rectangle 18064" width="1" height="1" transform="translate(3 8) rotate(90)"/>
  <rect id="Rectangle_18065" data-name="Rectangle 18065" width="1" height="1" transform="translate(7 10) rotate(90)"/>
  <rect id="Rectangle_18066" data-name="Rectangle 18066" width="1" height="1" transform="translate(3 4) rotate(90)"/>
  <rect id="Rectangle_18067" data-name="Rectangle 18067" width="1" height="1" transform="translate(3 5) rotate(90)"/>
  <rect id="Rectangle_18042" data-name="Rectangle 18042" width="1" height="1" transform="translate(4 5) rotate(90)"/>
  <rect id="Rectangle_18068" data-name="Rectangle 18068" width="1" height="1" transform="translate(9 9) rotate(90)"/>
  <rect id="Rectangle_18069" data-name="Rectangle 18069" width="1" height="1" transform="translate(2 6) rotate(90)"/>
  <rect id="Rectangle_18070" data-name="Rectangle 18070" width="1" height="1" transform="translate(4 9) rotate(90)"/>
  <rect id="Rectangle_18071" data-name="Rectangle 18071" width="1" height="1" transform="translate(3 7) rotate(90)"/>
</svg>
