<svg id="BallRotate2" xmlns="http://www.w3.org/2000/svg" width="13.144" height="13.145" viewBox="0 0 13.144 13.145">
  <path id="Union_23" data-name="Union 23" d="M-2003.477-124.543l.258-.966.966.258-.258.967Zm-4.83-1.294.259-.966.966.259-.258.966Zm3.157-.189.258-.966-.258.966-.967-.259.259-.966-.966-.259.258-.966.967.259-.259.966.259-.966.258-.967.966.259.967.259h0l.966.258-.966-.258-.967-.259-.966-.259.259-.966.259-.966h0l.259-.966.966.258.966.259-.258.966-.966-.259.966.259.966.259-.966-.259.258-.966.967.258-.259.967.259-.967.966.259.966.259-.258.966.258-.966.966.258-.258.966-.259.967-.966-.259-.966-.259-.259.967-.259.966-.966-.259-.966-.258-.259.966-.965-.259.965.259-.258.966Zm2.966-3.346-.966-.259-.966-.258.966.258Zm-.776,2.9-.967-.259.259-.966.966.258.966.259-.258.966Zm3.156-.19.259-.966.966.258-.259.967Zm-1.932-.518.259-.966.966.258-.258.967Zm-6.054-.587.259-.966.966.258-.258.966Zm6.313-.379.259-.967.966.259-.259.966Zm-5.089-.329.259-.966.966.258-.258.967Zm-.966-.258.259-.967.966.259-.259.966Zm-.966-.259.258-.966.259-.967.258-.966-.258.966-.966-.258.258-.966.259-.967.966.259.966.259-.258.966-.967-.259.967.259-.259.966-.258.966-.259.967Zm2.191-.448.258-.966.967.258-.259.966Zm-4.123-.069.259-.966.966.258-.259.966Zm3.157-.19.258-.966.966.259-.258.966Zm1.224-.706.259-.967.966.259-.258.966Zm-.966-.259.259-.966.258-.966.967.258-.259.966-.259.967Zm6.314-.379-.966-.259-.967-.258-.966-.259.259-.966.966.259.966.258-.966-.258-.966-.259.258-.966.966.258-.966-.258.259-.967.966.259-.966-.259-.967-.258.259-.966.966.258.967.259-.259.966.966.259-.258.966-.967-.259.967.259-.259.966.259-.966.258-.966.967.258-.259.966-.259.967.259-.967.966.259-.258.966-.259.967Zm-5.089-.328.259-.966.258-.966.966.258-.258.967-.259.966Zm7.279-.12.258-.966.967.258-.259.966Zm-6.054-.587.258-.967.967.259-.259.966Zm-1.932-.518.259-.967.966.259-.258.966Zm-.966-.259.259-.966.258-.967.966.259-.258.966-.259.967Zm3.156-.19-.966-.258-.966-.259.258-.966.967.259.258-.967.966.259.967.258-.259.967-.966-.259.966.259-.258.966Zm-4.829-1.293.259-.967.966.259-.259.966Zm3.157-.19.258-.966.966.258-.258.967Zm5.347-.638.258-.966.967.259-.259.966Zm-4.829-1.293.258-.967.966.259-.258.966Z" transform="translate(2010.428 137.428)"/>
</svg>
