<svg id="BallSolid2" xmlns="http://www.w3.org/2000/svg" width="12" height="12" viewBox="0 0 12 12">
  <rect id="Rectangle_17249" data-name="Rectangle 17249" width="1" height="1" transform="translate(2 4)"/>
  <rect id="Rectangle_17250" data-name="Rectangle 17250" width="1" height="1" transform="translate(2 3)"/>
  <rect id="Rectangle_17289" data-name="Rectangle 17289" width="1" height="1" transform="translate(10 6)"/>
  <rect id="Rectangle_17290" data-name="Rectangle 17290" width="1" height="1" transform="translate(2 8)"/>
  <rect id="Rectangle_17291" data-name="Rectangle 17291" width="1" height="1" transform="translate(9 4)"/>
  <rect id="Rectangle_17292" data-name="Rectangle 17292" width="1" height="1" transform="translate(5 10)"/>
  <rect id="Rectangle_17313" data-name="Rectangle 17313" width="1" height="1" transform="translate(3 11)"/>
  <rect id="Rectangle_17314" data-name="Rectangle 17314" width="1" height="1" transform="translate(8 11)"/>
  <rect id="Rectangle_17293" data-name="Rectangle 17293" width="1" height="1" transform="translate(11 8)"/>
  <rect id="Rectangle_17294" data-name="Rectangle 17294" width="1" height="1" transform="translate(11 3)"/>
  <rect id="Rectangle_17279" data-name="Rectangle 17279" width="1" height="1" transform="translate(8)"/>
  <rect id="Rectangle_17247" data-name="Rectangle 17247" width="1" height="1" transform="translate(3)"/>
  <rect id="Rectangle_17251" data-name="Rectangle 17251" width="1" height="1" transform="translate(0 3)"/>
  <rect id="Rectangle_17295" data-name="Rectangle 17295" width="1" height="1" transform="translate(0 8)"/>
  <rect id="Rectangle_17261" data-name="Rectangle 17261" width="1" height="1" transform="translate(1 6)"/>
  <rect id="Rectangle_17280" data-name="Rectangle 17280" width="1" height="1" transform="translate(2 7)"/>
  <rect id="Rectangle_17262" data-name="Rectangle 17262" width="1" height="1" transform="translate(7 2)"/>
  <rect id="Rectangle_17263" data-name="Rectangle 17263" width="1" height="1" transform="translate(7 3)"/>
  <rect id="Rectangle_17248" data-name="Rectangle 17248" width="1" height="1" transform="translate(3 2)"/>
  <rect id="Rectangle_17264" data-name="Rectangle 17264" width="1" height="1" transform="translate(6 1)"/>
  <rect id="Rectangle_17252" data-name="Rectangle 17252" width="1" height="1" transform="translate(5 1)"/>
  <rect id="Rectangle_17253" data-name="Rectangle 17253" width="1" height="1" transform="translate(5 2)"/>
  <rect id="Rectangle_17254" data-name="Rectangle 17254" width="1" height="1" transform="translate(5 3)"/>
  <rect id="Rectangle_17255" data-name="Rectangle 17255" width="1" height="1" transform="translate(4 3)"/>
  <rect id="Rectangle_17256" data-name="Rectangle 17256" width="1" height="1" transform="translate(3 3)"/>
  <rect id="Rectangle_17257" data-name="Rectangle 17257" width="1" height="1" transform="translate(3 4)"/>
  <rect id="Rectangle_17265" data-name="Rectangle 17265" width="1" height="1" transform="translate(2 5)"/>
  <rect id="Rectangle_17266" data-name="Rectangle 17266" width="1" height="1" transform="translate(2 6)"/>
  <rect id="Rectangle_17267" data-name="Rectangle 17267" width="1" height="1" transform="translate(3 6)"/>
  <rect id="Rectangle_17268" data-name="Rectangle 17268" width="1" height="1" transform="translate(3 5)"/>
  <rect id="Rectangle_17269" data-name="Rectangle 17269" width="1" height="1" transform="translate(4 5)"/>
  <rect id="Rectangle_17258" data-name="Rectangle 17258" width="1" height="1" transform="translate(4 4)"/>
  <rect id="Rectangle_17259" data-name="Rectangle 17259" width="1" height="1" transform="translate(5 4)"/>
  <rect id="Rectangle_17270" data-name="Rectangle 17270" width="1" height="1" transform="translate(5 5)"/>
  <rect id="Rectangle_17271" data-name="Rectangle 17271" width="1" height="1" transform="translate(4 6)"/>
  <rect id="Rectangle_17281" data-name="Rectangle 17281" width="1" height="1" transform="translate(3 7)"/>
  <rect id="Rectangle_17296" data-name="Rectangle 17296" width="1" height="1" transform="translate(3 8)"/>
  <rect id="Rectangle_17297" data-name="Rectangle 17297" width="1" height="1" transform="translate(6 9)"/>
  <rect id="Rectangle_17298" data-name="Rectangle 17298" width="1" height="1" transform="translate(8 8)"/>
  <rect id="Rectangle_17299" data-name="Rectangle 17299" width="1" height="1" transform="translate(7 8)"/>
  <rect id="Rectangle_17283" data-name="Rectangle 17283" width="1" height="1" transform="translate(8 7)"/>
  <rect id="Rectangle_17300" data-name="Rectangle 17300" width="1" height="1" transform="translate(9 6)"/>
  <rect id="Rectangle_17301" data-name="Rectangle 17301" width="1" height="1" transform="translate(9 5)"/>
  <rect id="Rectangle_17284" data-name="Rectangle 17284" width="1" height="1" transform="translate(8 6)"/>
  <rect id="Rectangle_17285" data-name="Rectangle 17285" width="1" height="1" transform="translate(8 6)"/>
  <rect id="Rectangle_17286" data-name="Rectangle 17286" width="1" height="1" transform="translate(7 7)"/>
  <rect id="Rectangle_17302" data-name="Rectangle 17302" width="1" height="1" transform="translate(6 8)"/>
  <rect id="Rectangle_17272" data-name="Rectangle 17272" width="1" height="1" transform="translate(6 2)"/>
  <rect id="Rectangle_17273" data-name="Rectangle 17273" width="1" height="1" transform="translate(6 3)"/>
  <rect id="Rectangle_17275" data-name="Rectangle 17275" width="1" height="1" transform="translate(6 4)"/>
  <rect id="Rectangle_17287" data-name="Rectangle 17287" width="1" height="1" transform="translate(8 3)"/>
  <rect id="Rectangle_17315" data-name="Rectangle 17315" width="1" height="1" transform="translate(5 8)"/>
  <rect id="Rectangle_17316" data-name="Rectangle 17316" width="1" height="1" transform="translate(6 7)"/>
  <rect id="Rectangle_17317" data-name="Rectangle 17317" width="1" height="1" transform="translate(7 6)"/>
  <rect id="Rectangle_17319" data-name="Rectangle 17319" width="1" height="1" transform="translate(8 5)"/>
  <rect id="Rectangle_17278" data-name="Rectangle 17278" width="1" height="1" transform="translate(1 5)"/>
  <rect id="Rectangle_17288" data-name="Rectangle 17288" width="1" height="1" transform="translate(8 2)"/>
  <rect id="Rectangle_17260" data-name="Rectangle 17260" width="1" height="1" transform="translate(4 2)"/>
  <rect id="Rectangle_17303" data-name="Rectangle 17303" width="1" height="1" transform="translate(3 9)"/>
  <rect id="Rectangle_17304" data-name="Rectangle 17304" width="1" height="1" transform="translate(9 7)"/>
  <rect id="Rectangle_17305" data-name="Rectangle 17305" width="1" height="1" transform="translate(8 9)"/>
  <rect id="Rectangle_17306" data-name="Rectangle 17306" width="1" height="1" transform="translate(10 5)"/>
  <rect id="Rectangle_17307" data-name="Rectangle 17307" width="1" height="1" transform="translate(4 9)"/>
  <rect id="Rectangle_17308" data-name="Rectangle 17308" width="1" height="1" transform="translate(5 9)"/>
  <rect id="Rectangle_17309" data-name="Rectangle 17309" width="1" height="1" transform="translate(9 3)"/>
  <rect id="Rectangle_17310" data-name="Rectangle 17310" width="1" height="1" transform="translate(6 10)"/>
  <rect id="Rectangle_17311" data-name="Rectangle 17311" width="1" height="1" transform="translate(9 8)"/>
  <rect id="Rectangle_17312" data-name="Rectangle 17312" width="1" height="1" transform="translate(7 9)"/>
</svg>
