<svg id="BallRotate4" xmlns="http://www.w3.org/2000/svg" width="13.271" height="13.271" viewBox="0 0 13.271 13.271">
  <path id="Union_25" data-name="Union 25" d="M-2039.318-124.912l.819-.574.573.819-.819.574Zm-4.179-.737.819-.573.574.819-.819.573Zm3.031-.9.819-.573.574.819-.819.573Zm-1.392-.246-.573-.819.819-.573.573.819.573.819-.819.574Zm3.6-.082-.573-.819-.574-.819.573.819-.819.573-.819.573-.573-.819-.573-.819.819-.573-.819.573h0l-.82.573-.573-.819-.819.573-.573-.819.819-.573-.574-.819.82-.574.573.82-.819.573.819-.573.819-.574.573.819.574.82-.573-.82.819-.573-.82.573-.573-.819.819-.573-.573-.819.819-.573.573.819h0l-.574-.818.819-.574.82-.573.573.819-.819.573.573.82.573.819-.819.573-.573-.819.573.819.573.819-.573-.819.819-.573.574.819-.82.573.82-.573.573.819.573.819-.819.574.819-.574.574.819-.82.574-.819.573Zm-1.148-1.639-.819.574.819-.573.819-.574-.819.573-.573-.819-.573-.819.573.819ZM-2039.4-128.516Zm-.246,1.392.82-.573.573.819-.819.573Zm4.424-.656.819-.573.573.819-.819.573Zm-8.6-.081.819-.573.573.819-.819.574Zm6.636-.984-.573-.819-.574-.819-.573-.819.819-.574.573.819.574.82-.574-.82-.573-.819.819-.573.574.819-.574-.819-.573-.819.573.819-.819.573-.573-.819-.573-.819-.574-.819.819-.574.574.82.819-.574.573.819.819-.573.574.819.573.82-.819.573.573.819-.819.573-.573-.819.573.819-.819.574.819-.574.819-.573.573.819-.819.573-.819.574.819-.574.574.82-.82.573-.819.573Zm1.31-3.359-.574-.819Zm-10.486,2.459.819-.573.573.819-.819.573Zm3.031-.9.819-.573.573.819-.819.574Zm-1.393-.245.819-.574.574.819-.82.574Zm2.212-.328.819-.573.573.819-.819.573Zm-1.393-.246-.573-.819.819-.573.819-.574.574.82-.573-.82.819-.573.573.819-.819.574-.819.573h0l.574.819-.819.573Zm9.421-.492.819-.574.574.82-.82.573Zm-8.6-.081.819-.573.573.819-.819.573Zm3.6-.083.819-.573.573.819-.819.574Zm-2.785-.491.819-.574.819-.573.573.819-.819.574-.819.573Zm1.638-1.147.819-.573.573.819-.819.573Zm-5-.163.82-.574.573.82-.819.573Zm3.605-.083.819-.573-.819.573h0l-.82.573-.573-.819.819-.573.819-.573.574.819.573.819-.819.573Zm.819-.573.819-.573.819-.574.573.819-.819.574-.819.573Zm2.211-.329.82-.573.573.819-.819.574Zm1.639-1.147.819-.573.573.819-.819.573Zm-4.179-.737.819-.573.574.819-.82.573Z" transform="translate(2046.364 137.364)"/>
</svg>
