<svg xmlns="http://www.w3.org/2000/svg" width="10" height="10" viewBox="0 0 10 10"><rect width="1" height="1" transform="translate(1 3)"/><rect width="1" height="1" transform="translate(1 2)"/><rect width="1" height="1" transform="translate(9 5)"/><rect width="1" height="1" transform="translate(1 7)"/><rect width="1" height="1" transform="translate(8 3)"/><rect width="1" height="1" transform="translate(4 9)"/><rect width="1" height="1" transform="translate(0 5)"/><rect width="1" height="1" transform="translate(1 6)"/><rect width="1" height="1" transform="translate(6 1)"/><rect width="1" height="1" transform="translate(2 1)"/><rect width="1" height="1" transform="translate(5)"/><rect width="1" height="1" transform="translate(4 2)"/><rect width="1" height="1" transform="translate(6 2)"/><rect width="1" height="1" transform="translate(3 3)"/><rect width="1" height="1" transform="translate(7 3)"/><rect width="1" height="1" transform="translate(5 4)"/><rect width="1" height="1" transform="translate(2 5)"/><rect width="1" height="1" transform="translate(4 6)"/><rect width="1" height="1" transform="translate(8 5)"/><rect width="1" height="1" transform="translate(6 6)"/><rect width="1" height="1" transform="translate(5 7)"/><rect width="1" height="1" transform="translate(4)"/><rect width="1" height="1" transform="translate(3 2)"/><rect width="1" height="1" transform="translate(5 2)"/><rect width="1" height="1" transform="translate(2 3)"/><rect width="1" height="1" transform="translate(6 3)"/><rect width="1" height="1" transform="translate(4 4)"/><rect width="1" height="1" transform="translate(1 5)"/><rect width="1" height="1" transform="translate(3 6)"/><rect width="1" height="1" transform="translate(7 5)"/><rect width="1" height="1" transform="translate(5 6)"/><rect width="1" height="1" transform="translate(4 7)"/><rect width="1" height="1" transform="translate(0 4)"/><rect width="1" height="1" transform="translate(7 1)"/><rect width="1" height="1" transform="translate(3 1)"/><rect width="1" height="1" transform="translate(2 8)"/><rect width="1" height="1" transform="translate(8 6)"/><rect width="1" height="1" transform="translate(7 8)"/><rect width="1" height="1" transform="translate(9 4)"/><rect width="1" height="1" transform="translate(3 8)"/><rect width="1" height="1" transform="translate(8 2)"/><rect width="1" height="1" transform="translate(5 9)"/><rect width="1" height="1" transform="translate(8 7)"/><rect width="1" height="1" transform="translate(6 8)"/></svg>