<svg id="BallRotate3" xmlns="http://www.w3.org/2000/svg" width="13.332" height="13.332" viewBox="0 0 13.332 13.332">
  <path id="Union_24" data-name="Union 24" d="M-2023.259-124.547l.545-.839.839.544-.545.839Zm4.15-.882.544-.839.839.545-.545.839Zm-3.061-.8-.839-.544.545-.839.838.545.839.545-.544.839Zm-2.222-.251.545-.838.838.545-.545.839Zm3.605-.043.545-.839.839.545-.545.838Zm-4.443-.5.544-.839-.839-.544.544-.839.839.545-.545.838.545-.838.544-.839.839.544.839.545-.839-.545-.839-.544.545-.839.545-.839h0l.545-.838h0l-.838-.544.838.544-.545.839-.544.839-.839-.544.545-.838h0l-.838-.544.838.544-.545.839-.544.839-.839-.545.545-.837h0l-.838-.545.838.545-.545.838-.544.839-.839-.545.545-.839.545-.839.544-.838-.544.838-.839-.544.545-.839.544-.838.839.544.839.544-.544.839-.839-.544.839.544.544-.839.839.545.544-.839.839.545.838.544-.545.839.839.545-.545.839-.839-.544.839.544.839.545-.839-.545.545-.839.839.545-.544.838.544-.838.839.545.839.544-.544.839.544-.839.839.544-.544.839-.839-.545.838.545-.545.839-.839-.545-.838-.545.838.545-.545.839-.839-.545.545-.838-.545.838-.545.839-.839-.545-.838-.545-.545.839-.838-.545-.545.838Zm4.694-1.721-.839-.544-.839-.544.839.544Zm-6.917,1.471.545-.839.839.545-.544.839Zm1.089-1.678.545-.839.839.544-.544.839Zm1.383-.294.545-.838.839.544-.544.839Zm8.594-.381.545-.839.839.545-.545.838Zm-9.433-.164.544-.839.839.545-.545.838Zm7.211-.086-.839-.545-.839-.545-.839-.545.545-.838h0l-.838-.544-.839-.545-.839-.544.544-.839.839.545.544-.839.839.545.839.545-.544.839-.839-.545.839.545.838.545-.545.839.545-.838h0l-.838-.544.544-.839.839.544-.839-.544-.839-.545.544-.839.839.544.839.544-.544.839.838.544-.545.839-.544.839.544-.839.545-.839.838.545-.544.839-.545.839.545-.839.839.545-.544.839-.545.839Zm-.294-1.383-.839-.545Zm-5.533,1.176.544-.839.839.544-.545.839Zm-3.9-1.34.544-.839.839.545-.545.839Zm4.694-1.721.545-.839.839.544-.544.839Zm-.839-.544.544-.839.545-.839.839.544-.544.839-.545.839Zm7.211-.087.544-.839.839.545-.545.839Zm-5.283-1.046.545-.839.839.544-.544.839Zm-3.061-.795.545-.839.838.545-.544.839Zm4.15-.883.545-.838.838.545-.544.839Z" transform="translate(2028.334 137.334)"/>
</svg>
