<svg id="BallSolid1" xmlns="http://www.w3.org/2000/svg" width="12" height="12" viewBox="0 0 12 12">
  <rect id="Rectangle_17168" data-name="Rectangle 17168" width="1" height="1" transform="translate(2 4)"/>
  <rect id="Rectangle_17162" data-name="Rectangle 17162" width="1" height="1" transform="translate(2 3)"/>
  <rect id="Rectangle_17230" data-name="Rectangle 17230" width="1" height="1" transform="translate(10 6)"/>
  <rect id="Rectangle_17202" data-name="Rectangle 17202" width="1" height="1" transform="translate(2 8)"/>
  <rect id="Rectangle_17203" data-name="Rectangle 17203" width="1" height="1" transform="translate(9 4)"/>
  <rect id="Rectangle_17204" data-name="Rectangle 17204" width="1" height="1" transform="translate(8 4)"/>
  <rect id="Rectangle_17232" data-name="Rectangle 17232" width="1" height="1" transform="translate(5 10)"/>
  <rect id="Rectangle_17236" data-name="Rectangle 17236" width="1" height="1" transform="translate(3 11)"/>
  <rect id="Rectangle_17237" data-name="Rectangle 17237" width="1" height="1" transform="translate(8 11)"/>
  <rect id="Rectangle_17233" data-name="Rectangle 17233" width="1" height="1" transform="translate(11 8)"/>
  <rect id="Rectangle_17234" data-name="Rectangle 17234" width="1" height="1" transform="translate(11 3)"/>
  <rect id="Rectangle_17205" data-name="Rectangle 17205" width="1" height="1" transform="translate(8)"/>
  <rect id="Rectangle_17161" data-name="Rectangle 17161" width="1" height="1" transform="translate(3)"/>
  <rect id="Rectangle_17163" data-name="Rectangle 17163" width="1" height="1" transform="translate(0 3)"/>
  <rect id="Rectangle_17206" data-name="Rectangle 17206" width="1" height="1" transform="translate(0 8)"/>
  <rect id="Rectangle_17169" data-name="Rectangle 17169" width="1" height="1" transform="translate(1 6)"/>
  <rect id="Rectangle_17170" data-name="Rectangle 17170" width="1" height="1" transform="translate(2 7)"/>
  <rect id="Rectangle_17171" data-name="Rectangle 17171" width="1" height="1" transform="translate(7 2)"/>
  <rect id="Rectangle_17172" data-name="Rectangle 17172" width="1" height="1" transform="translate(7 3)"/>
  <rect id="Rectangle_17164" data-name="Rectangle 17164" width="1" height="1" transform="translate(3 2)"/>
  <rect id="Rectangle_17173" data-name="Rectangle 17173" width="1" height="1" transform="translate(6 1)"/>
  <rect id="Rectangle_17174" data-name="Rectangle 17174" width="1" height="1" transform="translate(5 1)"/>
  <rect id="Rectangle_17175" data-name="Rectangle 17175" width="1" height="1" transform="translate(5 2)"/>
  <rect id="Rectangle_17176" data-name="Rectangle 17176" width="1" height="1" transform="translate(5 3)"/>
  <rect id="Rectangle_17165" data-name="Rectangle 17165" width="1" height="1" transform="translate(4 3)"/>
  <rect id="Rectangle_17166" data-name="Rectangle 17166" width="1" height="1" transform="translate(3 3)"/>
  <rect id="Rectangle_17177" data-name="Rectangle 17177" width="1" height="1" transform="translate(3 4)"/>
  <rect id="Rectangle_17178" data-name="Rectangle 17178" width="1" height="1" transform="translate(2 5)"/>
  <rect id="Rectangle_17179" data-name="Rectangle 17179" width="1" height="1" transform="translate(2 6)"/>
  <rect id="Rectangle_17180" data-name="Rectangle 17180" width="1" height="1" transform="translate(3 6)"/>
  <rect id="Rectangle_17181" data-name="Rectangle 17181" width="1" height="1" transform="translate(3 5)"/>
  <rect id="Rectangle_17182" data-name="Rectangle 17182" width="1" height="1" transform="translate(4 5)"/>
  <rect id="Rectangle_17183" data-name="Rectangle 17183" width="1" height="1" transform="translate(4 4)"/>
  <rect id="Rectangle_17184" data-name="Rectangle 17184" width="1" height="1" transform="translate(5 4)"/>
  <rect id="Rectangle_17185" data-name="Rectangle 17185" width="1" height="1" transform="translate(5 5)"/>
  <rect id="Rectangle_17186" data-name="Rectangle 17186" width="1" height="1" transform="translate(4 6)"/>
  <rect id="Rectangle_17187" data-name="Rectangle 17187" width="1" height="1" transform="translate(3 7)"/>
  <rect id="Rectangle_17188" data-name="Rectangle 17188" width="1" height="1" transform="translate(4 7)"/>
  <rect id="Rectangle_17207" data-name="Rectangle 17207" width="1" height="1" transform="translate(3 8)"/>
  <rect id="Rectangle_17208" data-name="Rectangle 17208" width="1" height="1" transform="translate(6 9)"/>
  <rect id="Rectangle_17209" data-name="Rectangle 17209" width="1" height="1" transform="translate(8 8)"/>
  <rect id="Rectangle_17210" data-name="Rectangle 17210" width="1" height="1" transform="translate(7 8)"/>
  <rect id="Rectangle_17211" data-name="Rectangle 17211" width="1" height="1" transform="translate(8 7)"/>
  <rect id="Rectangle_17212" data-name="Rectangle 17212" width="1" height="1" transform="translate(9 6)"/>
  <rect id="Rectangle_17213" data-name="Rectangle 17213" width="1" height="1" transform="translate(9 5)"/>
  <rect id="Rectangle_17214" data-name="Rectangle 17214" width="1" height="1" transform="translate(8 6)"/>
  <rect id="Rectangle_17215" data-name="Rectangle 17215" width="1" height="1" transform="translate(8 6)"/>
  <rect id="Rectangle_17189" data-name="Rectangle 17189" width="1" height="1" transform="translate(6 2)"/>
  <rect id="Rectangle_17190" data-name="Rectangle 17190" width="1" height="1" transform="translate(6 3)"/>
  <rect id="Rectangle_17191" data-name="Rectangle 17191" width="1" height="1" transform="translate(7 4)"/>
  <rect id="Rectangle_17192" data-name="Rectangle 17192" width="1" height="1" transform="translate(6 4)"/>
  <rect id="Rectangle_17216" data-name="Rectangle 17216" width="1" height="1" transform="translate(8 3)"/>
  <rect id="Rectangle_17193" data-name="Rectangle 17193" width="1" height="1" transform="translate(6 5)"/>
  <rect id="Rectangle_17194" data-name="Rectangle 17194" width="1" height="1" transform="translate(7 5)"/>
  <rect id="Rectangle_17217" data-name="Rectangle 17217" width="1" height="1" transform="translate(8 5)"/>
  <rect id="Rectangle_17195" data-name="Rectangle 17195" width="1" height="1" transform="translate(7 6)"/>
  <rect id="Rectangle_17196" data-name="Rectangle 17196" width="1" height="1" transform="translate(6 6)"/>
  <rect id="Rectangle_17197" data-name="Rectangle 17197" width="1" height="1" transform="translate(7 7)"/>
  <rect id="Rectangle_17198" data-name="Rectangle 17198" width="1" height="1" transform="translate(6 7)"/>
  <rect id="Rectangle_17199" data-name="Rectangle 17199" width="1" height="1" transform="translate(5 7)"/>
  <rect id="Rectangle_17218" data-name="Rectangle 17218" width="1" height="1" transform="translate(4 8)"/>
  <rect id="Rectangle_17219" data-name="Rectangle 17219" width="1" height="1" transform="translate(6 8)"/>
  <rect id="Rectangle_17200" data-name="Rectangle 17200" width="1" height="2" transform="translate(5 5)"/>
  <rect id="Rectangle_17201" data-name="Rectangle 17201" width="1" height="1" transform="translate(1 5)"/>
  <rect id="Rectangle_17220" data-name="Rectangle 17220" width="1" height="1" transform="translate(8 2)"/>
  <rect id="Rectangle_17167" data-name="Rectangle 17167" width="1" height="1" transform="translate(4 2)"/>
  <rect id="Rectangle_17221" data-name="Rectangle 17221" width="1" height="1" transform="translate(3 9)"/>
  <rect id="Rectangle_17222" data-name="Rectangle 17222" width="1" height="1" transform="translate(9 7)"/>
  <rect id="Rectangle_17223" data-name="Rectangle 17223" width="1" height="1" transform="translate(8 9)"/>
  <rect id="Rectangle_17231" data-name="Rectangle 17231" width="1" height="1" transform="translate(10 5)"/>
  <rect id="Rectangle_17224" data-name="Rectangle 17224" width="1" height="1" transform="translate(4 9)"/>
  <rect id="Rectangle_17225" data-name="Rectangle 17225" width="1" height="1" transform="translate(5 9)"/>
  <rect id="Rectangle_17226" data-name="Rectangle 17226" width="1" height="1" transform="translate(5 8)"/>
  <rect id="Rectangle_17227" data-name="Rectangle 17227" width="1" height="1" transform="translate(9 3)"/>
  <rect id="Rectangle_17235" data-name="Rectangle 17235" width="1" height="1" transform="translate(6 10)"/>
  <rect id="Rectangle_17228" data-name="Rectangle 17228" width="1" height="1" transform="translate(9 8)"/>
  <rect id="Rectangle_17229" data-name="Rectangle 17229" width="1" height="1" transform="translate(7 9)"/>
</svg>
