<svg id="BallRotate3" xmlns="http://www.w3.org/2000/svg" width="13.332" height="13.332" viewBox="0 0 13.332 13.332">
  <rect id="Rectangle_17765" data-name="Rectangle 17765" width="1" height="1" transform="matrix(0.839, 0.545, -0.545, 0.839, 4.401, 2.81)"/>
  <rect id="Rectangle_17766" data-name="Rectangle 17766" width="1" height="1" transform="matrix(0.839, 0.545, -0.545, 0.839, 4.945, 1.971)"/>
  <rect id="Rectangle_17812" data-name="Rectangle 17812" width="1" height="1" transform="matrix(0.839, 0.545, -0.545, 0.839, 10.021, 8.844)"/>
  <rect id="Rectangle_17799" data-name="Rectangle 17799" width="1" height="1" transform="matrix(0.839, 0.545, -0.545, 0.839, 2.222, 6.165)"/>
  <rect id="Rectangle_17813" data-name="Rectangle 17813" width="1" height="1" transform="matrix(0.839, 0.545, -0.545, 0.839, 10.271, 6.623)"/>
  <rect id="Rectangle_17814" data-name="Rectangle 17814" width="1" height="1" transform="matrix(0.839, 0.545, -0.545, 0.839, 9.433, 6.078)"/>
  <rect id="Rectangle_17815" data-name="Rectangle 17815" width="1" height="1" transform="matrix(0.839, 0.545, -0.545, 0.839, 3.649, 9.476)"/>
  <rect id="Rectangle_17816" data-name="Rectangle 17816" width="1" height="1" transform="matrix(0.839, 0.545, -0.545, 0.839, 1.427, 9.225)"/>
  <rect id="Rectangle_17817" data-name="Rectangle 17817" width="1" height="1" transform="matrix(0.839, 0.545, -0.545, 0.839, 5.62, 11.949)"/>
  <rect id="Rectangle_17818" data-name="Rectangle 17818" width="1" height="1" transform="matrix(0.839, 0.545, -0.545, 0.839, 9.77, 11.066)"/>
  <rect id="Rectangle_17819" data-name="Rectangle 17819" width="1" height="1" transform="matrix(0.839, 0.545, -0.545, 0.839, 12.493, 6.873)"/>
  <rect id="Rectangle_17820" data-name="Rectangle 17820" width="1" height="1" transform="matrix(0.839, 0.545, -0.545, 0.839, 11.611, 2.723)"/>
  <rect id="Rectangle_17767" data-name="Rectangle 17767" width="1" height="1" transform="matrix(0.839, 0.545, -0.545, 0.839, 7.418, 0)"/>
  <rect id="Rectangle_17764" data-name="Rectangle 17764" width="1" height="1" transform="matrix(0.839, 0.545, -0.545, 0.839, 3.268, 0.882)"/>
  <rect id="Rectangle_17800" data-name="Rectangle 17800" width="1" height="1" transform="matrix(0.839, 0.545, -0.545, 0.839, 0.545, 5.075)"/>
  <rect id="Rectangle_17778" data-name="Rectangle 17778" width="1" height="1" transform="matrix(0.839, 0.545, -0.545, 0.839, 2.473, 3.943)"/>
  <rect id="Rectangle_17779" data-name="Rectangle 17779" width="1" height="1" transform="matrix(0.839, 0.545, -0.545, 0.839, 2.767, 5.326)"/>
  <rect id="Rectangle_17801" data-name="Rectangle 17801" width="1" height="1" transform="matrix(0.839, 0.545, -0.545, 0.839, 9.683, 3.856)"/>
  <rect id="Rectangle_17802" data-name="Rectangle 17802" width="1" height="1" transform="matrix(0.839, 0.545, -0.545, 0.839, 9.139, 4.695)"/>
  <rect id="Rectangle_17768" data-name="Rectangle 17768" width="1" height="1" transform="matrix(0.839, 0.545, -0.545, 0.839, 6.329, 1.677)"/>
  <rect id="Rectangle_17780" data-name="Rectangle 17780" width="1" height="1" transform="matrix(0.839, 0.545, -0.545, 0.839, 9.389, 2.473)"/>
  <rect id="Rectangle_17781" data-name="Rectangle 17781" width="1" height="1" transform="matrix(0.839, 0.545, -0.545, 0.839, 8.55, 1.928)"/>
  <rect id="Rectangle_17782" data-name="Rectangle 17782" width="1" height="1" transform="matrix(0.839, 0.545, -0.545, 0.839, 8.006, 2.767)"/>
  <rect id="Rectangle_17783" data-name="Rectangle 17783" width="1" height="1" transform="matrix(0.839, 0.545, -0.545, 0.839, 7.461, 3.605)"/>
  <rect id="Rectangle_17769" data-name="Rectangle 17769" width="1" height="1" transform="matrix(0.839, 0.545, -0.545, 0.839, 6.623, 3.061)"/>
  <rect id="Rectangle_17770" data-name="Rectangle 17770" width="1" height="1" transform="matrix(0.839, 0.545, -0.545, 0.839, 5.784, 2.516)"/>
  <rect id="Rectangle_17771" data-name="Rectangle 17771" width="1" height="1" transform="matrix(0.839, 0.545, -0.545, 0.839, 5.239, 3.355)"/>
  <rect id="Rectangle_17772" data-name="Rectangle 17772" width="1" height="1" transform="matrix(0.839, 0.545, -0.545, 0.839, 3.856, 3.649)"/>
  <rect id="Rectangle_17784" data-name="Rectangle 17784" width="1" height="1" transform="matrix(0.839, 0.545, -0.545, 0.839, 3.311, 4.487)"/>
  <rect id="Rectangle_17785" data-name="Rectangle 17785" width="1" height="1" transform="matrix(0.839, 0.545, -0.545, 0.839, 4.15, 5.032)"/>
  <rect id="Rectangle_17773" data-name="Rectangle 17773" width="1" height="1" transform="matrix(0.839, 0.545, -0.545, 0.839, 4.695, 4.193)"/>
  <rect id="Rectangle_17774" data-name="Rectangle 17774" width="1" height="1" transform="matrix(0.839, 0.545, -0.545, 0.839, 5.533, 4.738)"/>
  <rect id="Rectangle_17775" data-name="Rectangle 17775" width="1" height="1" transform="matrix(0.839, 0.545, -0.545, 0.839, 6.078, 3.899)"/>
  <rect id="Rectangle_17786" data-name="Rectangle 17786" width="1" height="1" transform="matrix(0.839, 0.545, -0.545, 0.839, 6.917, 4.444)"/>
  <rect id="Rectangle_17787" data-name="Rectangle 17787" width="1" height="1" transform="matrix(0.839, 0.545, -0.545, 0.839, 6.372, 5.283)"/>
  <rect id="Rectangle_17788" data-name="Rectangle 17788" width="1" height="1" transform="matrix(0.839, 0.545, -0.545, 0.839, 4.989, 5.577)"/>
  <rect id="Rectangle_17789" data-name="Rectangle 17789" width="1" height="1" transform="matrix(0.839, 0.545, -0.545, 0.839, 3.605, 5.871)"/>
  <rect id="Rectangle_17790" data-name="Rectangle 17790" width="1" height="1" transform="matrix(0.839, 0.545, -0.545, 0.839, 4.444, 6.415)"/>
  <rect id="Rectangle_17803" data-name="Rectangle 17803" width="1" height="1" transform="matrix(0.839, 0.545, -0.545, 0.839, 3.061, 6.709)"/>
  <rect id="Rectangle_17821" data-name="Rectangle 17821" width="1" height="1" transform="matrix(0.839, 0.545, -0.545, 0.839, 5.032, 9.182)"/>
  <rect id="Rectangle_17822" data-name="Rectangle 17822" width="1" height="1" transform="matrix(0.839, 0.545, -0.545, 0.839, 7.254, 9.433)"/>
  <rect id="Rectangle_17804" data-name="Rectangle 17804" width="1" height="1" transform="matrix(0.839, 0.545, -0.545, 0.839, 6.415, 8.888)"/>
  <rect id="Rectangle_17823" data-name="Rectangle 17823" width="1" height="1" transform="matrix(0.839, 0.545, -0.545, 0.839, 7.799, 8.594)"/>
  <rect id="Rectangle_17824" data-name="Rectangle 17824" width="1" height="1" transform="matrix(0.839, 0.545, -0.545, 0.839, 9.182, 8.3)"/>
  <rect id="Rectangle_17825" data-name="Rectangle 17825" width="1" height="1" transform="matrix(0.839, 0.545, -0.545, 0.839, 9.727, 7.461)"/>
  <rect id="Rectangle_17826" data-name="Rectangle 17826" width="1" height="1" transform="matrix(0.839, 0.545, -0.545, 0.839, 8.343, 7.755)"/>
  <rect id="Rectangle_17827" data-name="Rectangle 17827" width="1" height="1" transform="matrix(0.839, 0.545, -0.545, 0.839, 8.343, 7.755)"/>
  <rect id="Rectangle_17791" data-name="Rectangle 17791" width="1" height="1" transform="matrix(0.839, 0.545, -0.545, 0.839, 8.845, 3.311)"/>
  <rect id="Rectangle_17792" data-name="Rectangle 17792" width="1" height="1" transform="matrix(0.839, 0.545, -0.545, 0.839, 8.3, 4.15)"/>
  <rect id="Rectangle_17805" data-name="Rectangle 17805" width="1" height="1" transform="matrix(0.839, 0.545, -0.545, 0.839, 8.594, 5.533)"/>
  <rect id="Rectangle_17793" data-name="Rectangle 17793" width="1" height="1" transform="matrix(0.839, 0.545, -0.545, 0.839, 7.755, 4.989)"/>
  <rect id="Rectangle_17828" data-name="Rectangle 17828" width="1" height="1" transform="matrix(0.839, 0.545, -0.545, 0.839, 9.977, 5.239)"/>
  <rect id="Rectangle_17794" data-name="Rectangle 17794" width="1" height="1" transform="matrix(0.839, 0.545, -0.545, 0.839, 7.211, 5.827)"/>
  <rect id="Rectangle_17806" data-name="Rectangle 17806" width="1" height="1" transform="matrix(0.839, 0.545, -0.545, 0.839, 8.049, 6.372)"/>
  <rect id="Rectangle_17829" data-name="Rectangle 17829" width="1" height="1" transform="matrix(0.839, 0.545, -0.545, 0.839, 8.888, 6.917)"/>
  <rect id="Rectangle_17807" data-name="Rectangle 17807" width="1" height="1" transform="matrix(0.839, 0.545, -0.545, 0.839, 7.505, 7.211)"/>
  <rect id="Rectangle_17795" data-name="Rectangle 17795" width="1" height="1" transform="matrix(0.839, 0.545, -0.545, 0.839, 6.666, 6.666)"/>
  <rect id="Rectangle_17808" data-name="Rectangle 17808" width="1" height="1" transform="matrix(0.839, 0.545, -0.545, 0.839, 6.96, 8.049)"/>
  <rect id="Rectangle_17796" data-name="Rectangle 17796" width="1" height="1" transform="matrix(0.839, 0.545, -0.545, 0.839, 6.121, 7.505)"/>
  <rect id="Rectangle_17797" data-name="Rectangle 17797" width="1" height="1" transform="matrix(0.839, 0.545, -0.545, 0.839, 5.283, 6.96)"/>
  <rect id="Rectangle_17809" data-name="Rectangle 17809" width="1" height="1" transform="matrix(0.839, 0.545, -0.545, 0.839, 3.899, 7.254)"/>
  <rect id="Rectangle_17810" data-name="Rectangle 17810" width="1" height="1" transform="matrix(0.839, 0.545, -0.545, 0.839, 5.577, 8.343)"/>
  <rect id="Rectangle_17798" data-name="Rectangle 17798" width="1" height="2" transform="matrix(0.839, 0.545, -0.545, 0.839, 6.372, 5.283)"/>
  <rect id="Rectangle_17776" data-name="Rectangle 17776" width="1" height="1" transform="matrix(0.839, 0.545, -0.545, 0.839, 3.017, 3.104)"/>
  <rect id="Rectangle_17830" data-name="Rectangle 17830" width="1" height="1" transform="matrix(0.839, 0.545, -0.545, 0.839, 10.522, 4.401)"/>
  <rect id="Rectangle_17777" data-name="Rectangle 17777" width="1" height="1" transform="matrix(0.839, 0.545, -0.545, 0.839, 7.167, 2.222)"/>
  <rect id="Rectangle_17831" data-name="Rectangle 17831" width="1" height="1" transform="matrix(0.839, 0.545, -0.545, 0.839, 2.516, 7.548)"/>
  <rect id="Rectangle_17832" data-name="Rectangle 17832" width="1" height="1" transform="matrix(0.839, 0.545, -0.545, 0.839, 8.637, 9.139)"/>
  <rect id="Rectangle_17833" data-name="Rectangle 17833" width="1" height="1" transform="matrix(0.839, 0.545, -0.545, 0.839, 6.709, 10.271)"/>
  <rect id="Rectangle_17834" data-name="Rectangle 17834" width="1" height="1" transform="matrix(0.839, 0.545, -0.545, 0.839, 10.565, 8.006)"/>
  <rect id="Rectangle_17835" data-name="Rectangle 17835" width="1" height="1" transform="matrix(0.839, 0.545, -0.545, 0.839, 3.355, 8.093)"/>
  <rect id="Rectangle_17836" data-name="Rectangle 17836" width="1" height="1" transform="matrix(0.839, 0.545, -0.545, 0.839, 4.193, 8.637)"/>
  <rect id="Rectangle_17811" data-name="Rectangle 17811" width="1" height="1" transform="matrix(0.839, 0.545, -0.545, 0.839, 4.738, 7.799)"/>
  <rect id="Rectangle_17837" data-name="Rectangle 17837" width="1" height="1" transform="matrix(0.839, 0.545, -0.545, 0.839, 10.816, 5.784)"/>
  <rect id="Rectangle_17838" data-name="Rectangle 17838" width="1" height="1" transform="matrix(0.839, 0.545, -0.545, 0.839, 4.487, 10.021)"/>
  <rect id="Rectangle_17839" data-name="Rectangle 17839" width="1" height="1" transform="matrix(0.839, 0.545, -0.545, 0.839, 8.093, 9.977)"/>
  <rect id="Rectangle_17840" data-name="Rectangle 17840" width="1" height="1" transform="matrix(0.839, 0.545, -0.545, 0.839, 5.871, 9.727)"/>
</svg>
