<svg id="BallRotate1" xmlns="http://www.w3.org/2000/svg" width="12" height="12" viewBox="0 0 12 12">
  <rect id="Rectangle_17615" data-name="Rectangle 17615" width="1" height="1" transform="translate(2 4)"/>
  <rect id="Rectangle_17610" data-name="Rectangle 17610" width="1" height="1" transform="translate(2 3)"/>
  <rect id="Rectangle_17683" data-name="Rectangle 17683" width="1" height="1" transform="translate(10 6)"/>
  <rect id="Rectangle_17634" data-name="Rectangle 17634" width="1" height="1" transform="translate(2 8)"/>
  <rect id="Rectangle_17635" data-name="Rectangle 17635" width="1" height="1" transform="translate(9 4)"/>
  <rect id="Rectangle_17636" data-name="Rectangle 17636" width="1" height="1" transform="translate(8 4)"/>
  <rect id="Rectangle_17637" data-name="Rectangle 17637" width="1" height="1" transform="translate(5 10)"/>
  <rect id="Rectangle_17638" data-name="Rectangle 17638" width="1" height="1" transform="translate(3 11)"/>
  <rect id="Rectangle_17639" data-name="Rectangle 17639" width="1" height="1" transform="translate(8 11)"/>
  <rect id="Rectangle_17685" data-name="Rectangle 17685" width="1" height="1" transform="translate(11 8)"/>
  <rect id="Rectangle_17686" data-name="Rectangle 17686" width="1" height="1" transform="translate(11 3)"/>
  <rect id="Rectangle_17640" data-name="Rectangle 17640" width="1" height="1" transform="translate(8)"/>
  <rect id="Rectangle_17611" data-name="Rectangle 17611" width="1" height="1" transform="translate(3)"/>
  <rect id="Rectangle_17612" data-name="Rectangle 17612" width="1" height="1" transform="translate(0 3)"/>
  <rect id="Rectangle_17641" data-name="Rectangle 17641" width="1" height="1" transform="translate(0 8)"/>
  <rect id="Rectangle_17616" data-name="Rectangle 17616" width="1" height="1" transform="translate(1 6)"/>
  <rect id="Rectangle_17642" data-name="Rectangle 17642" width="1" height="1" transform="translate(2 7)"/>
  <rect id="Rectangle_17643" data-name="Rectangle 17643" width="1" height="1" transform="translate(7 2)"/>
  <rect id="Rectangle_17644" data-name="Rectangle 17644" width="1" height="1" transform="translate(7 3)"/>
  <rect id="Rectangle_17613" data-name="Rectangle 17613" width="1" height="1" transform="translate(3 2)"/>
  <rect id="Rectangle_17645" data-name="Rectangle 17645" width="1" height="1" transform="translate(6 1)"/>
  <rect id="Rectangle_17617" data-name="Rectangle 17617" width="1" height="1" transform="translate(5 1)"/>
  <rect id="Rectangle_17618" data-name="Rectangle 17618" width="1" height="1" transform="translate(5 2)"/>
  <rect id="Rectangle_17619" data-name="Rectangle 17619" width="1" height="1" transform="translate(5 3)"/>
  <rect id="Rectangle_17620" data-name="Rectangle 17620" width="1" height="1" transform="translate(4 3)"/>
  <rect id="Rectangle_17614" data-name="Rectangle 17614" width="1" height="1" transform="translate(3 3)"/>
  <rect id="Rectangle_17621" data-name="Rectangle 17621" width="1" height="1" transform="translate(3 4)"/>
  <rect id="Rectangle_17622" data-name="Rectangle 17622" width="1" height="1" transform="translate(2 5)"/>
  <rect id="Rectangle_17623" data-name="Rectangle 17623" width="1" height="1" transform="translate(2 6)"/>
  <rect id="Rectangle_17624" data-name="Rectangle 17624" width="1" height="1" transform="translate(3 6)"/>
  <rect id="Rectangle_17625" data-name="Rectangle 17625" width="1" height="1" transform="translate(3 5)"/>
  <rect id="Rectangle_17626" data-name="Rectangle 17626" width="1" height="1" transform="translate(4 5)"/>
  <rect id="Rectangle_17627" data-name="Rectangle 17627" width="1" height="1" transform="translate(4 4)"/>
  <rect id="Rectangle_17628" data-name="Rectangle 17628" width="1" height="1" transform="translate(5 4)"/>
  <rect id="Rectangle_17629" data-name="Rectangle 17629" width="1" height="1" transform="translate(5 5)"/>
  <rect id="Rectangle_17630" data-name="Rectangle 17630" width="1" height="1" transform="translate(4 6)"/>
  <rect id="Rectangle_17646" data-name="Rectangle 17646" width="1" height="1" transform="translate(3 7)"/>
  <rect id="Rectangle_17647" data-name="Rectangle 17647" width="1" height="1" transform="translate(4 7)"/>
  <rect id="Rectangle_17648" data-name="Rectangle 17648" width="1" height="1" transform="translate(3 8)"/>
  <rect id="Rectangle_17649" data-name="Rectangle 17649" width="1" height="1" transform="translate(6 9)"/>
  <rect id="Rectangle_17650" data-name="Rectangle 17650" width="1" height="1" transform="translate(8 8)"/>
  <rect id="Rectangle_17651" data-name="Rectangle 17651" width="1" height="1" transform="translate(7 8)"/>
  <rect id="Rectangle_17652" data-name="Rectangle 17652" width="1" height="1" transform="translate(8 7)"/>
  <rect id="Rectangle_17653" data-name="Rectangle 17653" width="1" height="1" transform="translate(9 6)"/>
  <rect id="Rectangle_17654" data-name="Rectangle 17654" width="1" height="1" transform="translate(9 5)"/>
  <rect id="Rectangle_17655" data-name="Rectangle 17655" width="1" height="1" transform="translate(8 6)"/>
  <rect id="Rectangle_17656" data-name="Rectangle 17656" width="1" height="1" transform="translate(8 6)"/>
  <rect id="Rectangle_17657" data-name="Rectangle 17657" width="1" height="1" transform="translate(6 2)"/>
  <rect id="Rectangle_17658" data-name="Rectangle 17658" width="1" height="1" transform="translate(6 3)"/>
  <rect id="Rectangle_17659" data-name="Rectangle 17659" width="1" height="1" transform="translate(7 4)"/>
  <rect id="Rectangle_17660" data-name="Rectangle 17660" width="1" height="1" transform="translate(6 4)"/>
  <rect id="Rectangle_17661" data-name="Rectangle 17661" width="1" height="1" transform="translate(8 3)"/>
  <rect id="Rectangle_17662" data-name="Rectangle 17662" width="1" height="1" transform="translate(6 5)"/>
  <rect id="Rectangle_17663" data-name="Rectangle 17663" width="1" height="1" transform="translate(7 5)"/>
  <rect id="Rectangle_17664" data-name="Rectangle 17664" width="1" height="1" transform="translate(8 5)"/>
  <rect id="Rectangle_17665" data-name="Rectangle 17665" width="1" height="1" transform="translate(7 6)"/>
  <rect id="Rectangle_17666" data-name="Rectangle 17666" width="1" height="1" transform="translate(6 6)"/>
  <rect id="Rectangle_17667" data-name="Rectangle 17667" width="1" height="1" transform="translate(7 7)"/>
  <rect id="Rectangle_17668" data-name="Rectangle 17668" width="1" height="1" transform="translate(6 7)"/>
  <rect id="Rectangle_17669" data-name="Rectangle 17669" width="1" height="1" transform="translate(5 7)"/>
  <rect id="Rectangle_17670" data-name="Rectangle 17670" width="1" height="1" transform="translate(4 8)"/>
  <rect id="Rectangle_17671" data-name="Rectangle 17671" width="1" height="1" transform="translate(6 8)"/>
  <rect id="Rectangle_17631" data-name="Rectangle 17631" width="1" height="2" transform="translate(5 5)"/>
  <rect id="Rectangle_17632" data-name="Rectangle 17632" width="1" height="1" transform="translate(1 5)"/>
  <rect id="Rectangle_17672" data-name="Rectangle 17672" width="1" height="1" transform="translate(8 2)"/>
  <rect id="Rectangle_17633" data-name="Rectangle 17633" width="1" height="1" transform="translate(4 2)"/>
  <rect id="Rectangle_17673" data-name="Rectangle 17673" width="1" height="1" transform="translate(3 9)"/>
  <rect id="Rectangle_17674" data-name="Rectangle 17674" width="1" height="1" transform="translate(9 7)"/>
  <rect id="Rectangle_17675" data-name="Rectangle 17675" width="1" height="1" transform="translate(8 9)"/>
  <rect id="Rectangle_17684" data-name="Rectangle 17684" width="1" height="1" transform="translate(10 5)"/>
  <rect id="Rectangle_17676" data-name="Rectangle 17676" width="1" height="1" transform="translate(4 9)"/>
  <rect id="Rectangle_17677" data-name="Rectangle 17677" width="1" height="1" transform="translate(5 9)"/>
  <rect id="Rectangle_17678" data-name="Rectangle 17678" width="1" height="1" transform="translate(5 8)"/>
  <rect id="Rectangle_17679" data-name="Rectangle 17679" width="1" height="1" transform="translate(9 3)"/>
  <rect id="Rectangle_17680" data-name="Rectangle 17680" width="1" height="1" transform="translate(6 10)"/>
  <rect id="Rectangle_17681" data-name="Rectangle 17681" width="1" height="1" transform="translate(9 8)"/>
  <rect id="Rectangle_17682" data-name="Rectangle 17682" width="1" height="1" transform="translate(7 9)"/>
</svg>
