<svg id="Bg" xmlns="http://www.w3.org/2000/svg" width="39" height="18" viewBox="0 0 39 18">
  <rect id="Rectangle_16539" data-name="Rectangle 16539" width="1" height="1" transform="translate(18 3)"/>
  <rect id="Rectangle_16723" data-name="Rectangle 16723" width="1" height="1" transform="translate(37 2)"/>
  <rect id="Rectangle_16604" data-name="Rectangle 16604" width="1" height="1" transform="translate(28 11)"/>
  <rect id="Rectangle_16516" data-name="Rectangle 16516" width="1" height="1" transform="translate(8 11)"/>
  <rect id="Rectangle_16544" data-name="Rectangle 16544" width="1" height="1" transform="translate(19 3)"/>
  <rect id="Rectangle_16753" data-name="Rectangle 16753" width="1" height="1" transform="translate(38 2)"/>
  <rect id="Rectangle_16611" data-name="Rectangle 16611" width="1" height="1" transform="translate(29 11)"/>
  <rect id="Rectangle_16517" data-name="Rectangle 16517" width="1" height="1" transform="translate(9 11)"/>
  <rect id="Rectangle_16558" data-name="Rectangle 16558" width="1" height="1" transform="translate(20 3)"/>
  <rect id="Rectangle_16617" data-name="Rectangle 16617" width="1" height="1" transform="translate(30 11)"/>
  <rect id="Rectangle_16518" data-name="Rectangle 16518" width="1" height="1" transform="translate(10 11)"/>
  <rect id="Rectangle_16445" data-name="Rectangle 16445" width="1" height="1" transform="translate(2 2)"/>
  <rect id="Rectangle_16563" data-name="Rectangle 16563" width="1" height="1" transform="translate(21 3)"/>
  <rect id="Rectangle_16640" data-name="Rectangle 16640" width="1" height="1" transform="translate(31 11)"/>
  <rect id="Rectangle_16519" data-name="Rectangle 16519" width="1" height="1" transform="translate(11 11)"/>
  <rect id="Rectangle_16449" data-name="Rectangle 16449" width="1" height="1" transform="translate(3 3)"/>
  <rect id="Rectangle_16570" data-name="Rectangle 16570" width="1" height="1" transform="translate(22 4)"/>
  <rect id="Rectangle_16650" data-name="Rectangle 16650" width="1" height="1" transform="translate(32 12)"/>
  <rect id="Rectangle_16547" data-name="Rectangle 16547" width="1" height="1" transform="translate(12 12)"/>
  <rect id="Rectangle_16452" data-name="Rectangle 16452" width="1" height="1" transform="translate(4 4)"/>
  <rect id="Rectangle_16575" data-name="Rectangle 16575" width="1" height="1" transform="translate(23 5)"/>
  <rect id="Rectangle_16673" data-name="Rectangle 16673" width="1" height="1" transform="translate(33 13)"/>
  <rect id="Rectangle_16623" data-name="Rectangle 16623" width="1" height="1" transform="translate(13 13)"/>
  <rect id="Rectangle_16460" data-name="Rectangle 16460" width="1" height="1" transform="translate(5 5)"/>
  <rect id="Rectangle_16580" data-name="Rectangle 16580" width="1" height="1" transform="translate(24 6)"/>
  <rect id="Rectangle_16680" data-name="Rectangle 16680" width="1" height="1" transform="translate(34 14)"/>
  <rect id="Rectangle_16655" data-name="Rectangle 16655" width="1" height="1" transform="translate(14 14)"/>
  <rect id="Rectangle_16466" data-name="Rectangle 16466" width="1" height="1" transform="translate(6 6)"/>
  <rect id="Rectangle_16585" data-name="Rectangle 16585" width="1" height="1" transform="translate(25 7)"/>
  <rect id="Rectangle_16695" data-name="Rectangle 16695" width="1" height="1" transform="translate(35 15)"/>
  <rect id="Rectangle_16696" data-name="Rectangle 16696" width="1" height="1" transform="translate(15 15)"/>
  <rect id="Rectangle_16474" data-name="Rectangle 16474" width="1" height="1" transform="translate(7 7)"/>
  <rect id="Rectangle_16590" data-name="Rectangle 16590" width="1" height="1" transform="translate(26 8)"/>
  <rect id="Rectangle_16731" data-name="Rectangle 16731" width="1" height="1" transform="translate(36 16)"/>
  <rect id="Rectangle_16732" data-name="Rectangle 16732" width="1" height="1" transform="translate(16 16)"/>
  <rect id="Rectangle_16686" data-name="Rectangle 16686" width="1" height="1" transform="translate(35)"/>
  <rect id="Rectangle_16520" data-name="Rectangle 16520" width="1" height="1" transform="translate(17)"/>
  <rect id="Rectangle_16488" data-name="Rectangle 16488" width="1" height="1" transform="translate(7 8)"/>
  <rect id="Rectangle_16591" data-name="Rectangle 16591" width="1" height="1" transform="translate(26 9)"/>
  <rect id="Rectangle_16759" data-name="Rectangle 16759" width="1" height="1" transform="translate(36 17)"/>
  <rect id="Rectangle_16760" data-name="Rectangle 16760" width="1" height="1" transform="translate(16 17)"/>
  <rect id="Rectangle_16687" data-name="Rectangle 16687" width="1" height="1" transform="translate(35 1)"/>
  <rect id="Rectangle_16521" data-name="Rectangle 16521" width="1" height="1" transform="translate(17 1)"/>
  <rect id="Rectangle_16497" data-name="Rectangle 16497" width="1" height="1" transform="translate(7 9)"/>
  <rect id="Rectangle_16592" data-name="Rectangle 16592" width="1" height="1" transform="translate(26 10)"/>
  <rect id="Rectangle_16688" data-name="Rectangle 16688" width="1" height="1" transform="translate(35 2)"/>
  <rect id="Rectangle_16522" data-name="Rectangle 16522" width="1" height="1" transform="translate(17 2)"/>
  <rect id="Rectangle_16503" data-name="Rectangle 16503" width="1" height="1" transform="translate(7 10)"/>
  <rect id="Rectangle_16593" data-name="Rectangle 16593" width="1" height="1" transform="translate(26 11)"/>
  <rect id="Rectangle_16681" data-name="Rectangle 16681" width="1" height="1" transform="translate(34 3)"/>
  <rect id="Rectangle_16512" data-name="Rectangle 16512" width="1" height="1" transform="translate(16 3)"/>
  <rect id="Rectangle_16523" data-name="Rectangle 16523" width="1" height="1" transform="translate(6 11)"/>
  <rect id="Rectangle_16586" data-name="Rectangle 16586" width="1" height="1" transform="translate(25 12)"/>
  <rect id="Rectangle_16674" data-name="Rectangle 16674" width="1" height="1" transform="translate(33 4)"/>
  <rect id="Rectangle_16504" data-name="Rectangle 16504" width="1" height="1" transform="translate(15 4)"/>
  <rect id="Rectangle_16548" data-name="Rectangle 16548" width="1" height="1" transform="translate(5 12)"/>
  <rect id="Rectangle_16624" data-name="Rectangle 16624" width="1" height="1" transform="translate(24 13)"/>
  <rect id="Rectangle_16651" data-name="Rectangle 16651" width="1" height="1" transform="translate(32 5)"/>
  <rect id="Rectangle_16498" data-name="Rectangle 16498" width="1" height="1" transform="translate(14 5)"/>
  <rect id="Rectangle_16625" data-name="Rectangle 16625" width="1" height="1" transform="translate(4 13)"/>
  <rect id="Rectangle_16656" data-name="Rectangle 16656" width="1" height="1" transform="translate(23 14)"/>
  <rect id="Rectangle_16641" data-name="Rectangle 16641" width="1" height="1" transform="translate(31 6)"/>
  <rect id="Rectangle_16489" data-name="Rectangle 16489" width="1" height="1" transform="translate(13 6)"/>
  <rect id="Rectangle_16657" data-name="Rectangle 16657" width="1" height="1" transform="translate(3 14)"/>
  <rect id="Rectangle_16697" data-name="Rectangle 16697" width="1" height="1" transform="translate(22 15)"/>
  <rect id="Rectangle_16618" data-name="Rectangle 16618" width="1" height="1" transform="translate(30 7)"/>
  <rect id="Rectangle_16490" data-name="Rectangle 16490" width="1" height="1" transform="translate(12 7)"/>
  <rect id="Rectangle_16698" data-name="Rectangle 16698" width="1" height="1" transform="translate(2 15)"/>
  <rect id="Rectangle_16733" data-name="Rectangle 16733" width="1" height="1" transform="translate(21 16)"/>
  <rect id="Rectangle_16612" data-name="Rectangle 16612" width="1" height="1" transform="translate(29 7)"/>
  <rect id="Rectangle_16484" data-name="Rectangle 16484" width="1" height="1" transform="translate(11 7)"/>
  <rect id="Rectangle_16734" data-name="Rectangle 16734" width="1" height="1" transform="translate(20 16)"/>
  <rect id="Rectangle_16642" data-name="Rectangle 16642" width="1" height="1" transform="translate(31 11)"/>
  <rect id="Rectangle_16524" data-name="Rectangle 16524" width="1" height="1" transform="translate(11 11)"/>
  <rect id="Rectangle_16605" data-name="Rectangle 16605" width="1" height="1" transform="translate(28 7)"/>
  <rect id="Rectangle_16475" data-name="Rectangle 16475" width="1" height="1" transform="translate(10 7)"/>
  <rect id="Rectangle_16735" data-name="Rectangle 16735" width="1" height="1" transform="translate(19 16)"/>
  <rect id="Rectangle_16754" data-name="Rectangle 16754" width="1" height="1" transform="translate(38 15)"/>
  <rect id="Rectangle_16619" data-name="Rectangle 16619" width="1" height="1" transform="translate(30 11)"/>
  <rect id="Rectangle_16525" data-name="Rectangle 16525" width="1" height="1" transform="translate(10 11)"/>
  <rect id="Rectangle_16599" data-name="Rectangle 16599" width="1" height="1" transform="translate(27 7)"/>
  <rect id="Rectangle_16476" data-name="Rectangle 16476" width="1" height="1" transform="translate(9 7)"/>
  <rect id="Rectangle_16736" data-name="Rectangle 16736" width="1" height="1" transform="translate(18 16)"/>
  <rect id="Rectangle_16724" data-name="Rectangle 16724" width="1" height="1" transform="translate(37 15)"/>
  <rect id="Rectangle_16613" data-name="Rectangle 16613" width="1" height="1" transform="translate(29 11)"/>
  <rect id="Rectangle_16526" data-name="Rectangle 16526" width="1" height="1" transform="translate(9 11)"/>
  <rect id="Rectangle_16594" data-name="Rectangle 16594" width="1" height="1" transform="translate(26 7)"/>
  <rect id="Rectangle_16477" data-name="Rectangle 16477" width="1" height="1" transform="translate(8 7)"/>
  <rect id="Rectangle_16737" data-name="Rectangle 16737" width="1" height="1" transform="translate(17 16)"/>
  <rect id="Rectangle_16716" data-name="Rectangle 16716" width="1" height="1" transform="translate(36 15)"/>
  <rect id="Rectangle_16606" data-name="Rectangle 16606" width="1" height="1" transform="translate(28 11)"/>
  <rect id="Rectangle_16527" data-name="Rectangle 16527" width="1" height="1" transform="translate(8 11)"/>
  <rect id="Rectangle_16595" data-name="Rectangle 16595" width="1" height="1" transform="translate(26 7)"/>
  <rect id="Rectangle_16478" data-name="Rectangle 16478" width="1" height="1" transform="translate(8 7)"/>
  <rect id="Rectangle_16738" data-name="Rectangle 16738" width="1" height="1" transform="translate(17 16)"/>
  <rect id="Rectangle_16717" data-name="Rectangle 16717" width="1" height="1" transform="translate(36 15)"/>
  <rect id="Rectangle_16607" data-name="Rectangle 16607" width="1" height="1" transform="translate(28 11)"/>
  <rect id="Rectangle_16528" data-name="Rectangle 16528" width="1" height="1" transform="translate(8 11)"/>
  <rect id="Rectangle_16587" data-name="Rectangle 16587" width="1" height="1" transform="translate(25 6)"/>
  <rect id="Rectangle_16467" data-name="Rectangle 16467" width="1" height="1" transform="translate(7 6)"/>
  <rect id="Rectangle_16701" data-name="Rectangle 16701" width="1" height="1" transform="translate(16 15)"/>
  <rect id="Rectangle_16689" data-name="Rectangle 16689" width="1" height="1" transform="translate(35 14)"/>
  <rect id="Rectangle_16581" data-name="Rectangle 16581" width="1" height="1" transform="translate(24 5)"/>
  <rect id="Rectangle_16461" data-name="Rectangle 16461" width="1" height="1" transform="translate(6 5)"/>
  <rect id="Rectangle_16658" data-name="Rectangle 16658" width="1" height="1" transform="translate(15 14)"/>
  <rect id="Rectangle_16682" data-name="Rectangle 16682" width="1" height="1" transform="translate(34 13)"/>
  <rect id="Rectangle_16576" data-name="Rectangle 16576" width="1" height="1" transform="translate(23 4)"/>
  <rect id="Rectangle_16453" data-name="Rectangle 16453" width="1" height="1" transform="translate(5 4)"/>
  <rect id="Rectangle_16626" data-name="Rectangle 16626" width="1" height="1" transform="translate(14 13)"/>
  <rect id="Rectangle_16675" data-name="Rectangle 16675" width="1" height="1" transform="translate(33 12)"/>
  <rect id="Rectangle_16571" data-name="Rectangle 16571" width="1" height="1" transform="translate(22 3)"/>
  <rect id="Rectangle_16450" data-name="Rectangle 16450" width="1" height="1" transform="translate(4 3)"/>
  <rect id="Rectangle_16549" data-name="Rectangle 16549" width="1" height="1" transform="translate(13 12)"/>
  <rect id="Rectangle_16652" data-name="Rectangle 16652" width="1" height="1" transform="translate(32 11)"/>
  <rect id="Rectangle_16564" data-name="Rectangle 16564" width="1" height="1" transform="translate(21 2)"/>
  <rect id="Rectangle_16446" data-name="Rectangle 16446" width="1" height="1" transform="translate(3 2)"/>
  <rect id="Rectangle_16529" data-name="Rectangle 16529" width="1" height="1" transform="translate(12 11)"/>
  <rect id="Rectangle_16643" data-name="Rectangle 16643" width="1" height="1" transform="translate(31 10)"/>
  <rect id="Rectangle_16565" data-name="Rectangle 16565" width="1" height="1" transform="translate(21 1)"/>
  <rect id="Rectangle_16447" data-name="Rectangle 16447" width="1" height="1" transform="translate(3 1)"/>
  <rect id="Rectangle_16505" data-name="Rectangle 16505" width="1" height="1" transform="translate(12 10)"/>
  <rect id="Rectangle_16644" data-name="Rectangle 16644" width="1" height="1" transform="translate(31 9)"/>
  <rect id="Rectangle_16566" data-name="Rectangle 16566" width="1" height="1" transform="translate(21)"/>
  <rect id="Rectangle_16448" data-name="Rectangle 16448" width="1" height="1" transform="translate(3)"/>
  <rect id="Rectangle_16499" data-name="Rectangle 16499" width="1" height="1" transform="translate(12 9)"/>
  <rect id="Rectangle_16645" data-name="Rectangle 16645" width="1" height="1" transform="translate(31 8)"/>
  <rect id="Rectangle_16761" data-name="Rectangle 16761" width="1" height="1" transform="translate(22 17)"/>
  <rect id="Rectangle_16762" data-name="Rectangle 16762" width="1" height="1" transform="translate(2 17)"/>
  <rect id="Rectangle_16491" data-name="Rectangle 16491" width="1" height="1" transform="translate(12 8)"/>
  <rect id="Rectangle_16646" data-name="Rectangle 16646" width="1" height="1" transform="translate(31 7)"/>
  <rect id="Rectangle_16739" data-name="Rectangle 16739" width="1" height="1" transform="translate(22 16)"/>
  <rect id="Rectangle_16740" data-name="Rectangle 16740" width="1" height="1" transform="translate(2 16)"/>
  <rect id="Rectangle_16492" data-name="Rectangle 16492" width="1" height="1" transform="translate(13 7)"/>
  <rect id="Rectangle_16653" data-name="Rectangle 16653" width="1" height="1" transform="translate(32 6)"/>
  <rect id="Rectangle_16702" data-name="Rectangle 16702" width="1" height="1" transform="translate(23 15)"/>
  <rect id="Rectangle_16703" data-name="Rectangle 16703" width="1" height="1" transform="translate(3 15)"/>
  <rect id="Rectangle_16530" data-name="Rectangle 16530" width="1" height="1" transform="translate(17 7)"/>
  <rect id="Rectangle_16718" data-name="Rectangle 16718" width="1" height="1" transform="translate(36 6)"/>
  <rect id="Rectangle_16704" data-name="Rectangle 16704" width="1" height="1" transform="translate(27 15)"/>
  <rect id="Rectangle_16705" data-name="Rectangle 16705" width="1" height="1" transform="translate(7 15)"/>
  <rect id="Rectangle_16577" data-name="Rectangle 16577" width="1" height="1" transform="translate(23 2)"/>
  <rect id="Rectangle_16454" data-name="Rectangle 16454" width="1" height="1" transform="translate(5 2)"/>
  <rect id="Rectangle_16531" data-name="Rectangle 16531" width="1" height="1" transform="translate(14 11)"/>
  <rect id="Rectangle_16676" data-name="Rectangle 16676" width="1" height="1" transform="translate(33 10)"/>
  <rect id="Rectangle_16540" data-name="Rectangle 16540" width="1" height="1" transform="translate(18 8)"/>
  <rect id="Rectangle_16725" data-name="Rectangle 16725" width="1" height="1" transform="translate(37 7)"/>
  <rect id="Rectangle_16741" data-name="Rectangle 16741" width="1" height="1" transform="translate(28 16)"/>
  <rect id="Rectangle_16742" data-name="Rectangle 16742" width="1" height="1" transform="translate(8 16)"/>
  <rect id="Rectangle_16559" data-name="Rectangle 16559" width="1" height="1" transform="translate(20 8)"/>
  <rect id="Rectangle_16743" data-name="Rectangle 16743" width="1" height="1" transform="translate(30 16)"/>
  <rect id="Rectangle_16744" data-name="Rectangle 16744" width="1" height="1" transform="translate(10 16)"/>
  <rect id="Rectangle_16480" data-name="Rectangle 16480" width="1" height="1" transform="translate(3 7)"/>
  <rect id="Rectangle_16572" data-name="Rectangle 16572" width="1" height="1" transform="translate(22 8)"/>
  <rect id="Rectangle_16745" data-name="Rectangle 16745" width="1" height="1" transform="translate(32 16)"/>
  <rect id="Rectangle_16746" data-name="Rectangle 16746" width="1" height="1" transform="translate(12 16)"/>
  <rect id="Rectangle_16582" data-name="Rectangle 16582" width="1" height="1" transform="translate(24 3)"/>
  <rect id="Rectangle_16455" data-name="Rectangle 16455" width="1" height="1" transform="translate(6 3)"/>
  <rect id="Rectangle_16550" data-name="Rectangle 16550" width="1" height="1" transform="translate(15 12)"/>
  <rect id="Rectangle_16683" data-name="Rectangle 16683" width="1" height="1" transform="translate(34 11)"/>
  <rect id="Rectangle_16588" data-name="Rectangle 16588" width="1" height="1" transform="translate(25 4)"/>
  <rect id="Rectangle_16456" data-name="Rectangle 16456" width="1" height="1" transform="translate(7 4)"/>
  <rect id="Rectangle_16627" data-name="Rectangle 16627" width="1" height="1" transform="translate(16 13)"/>
  <rect id="Rectangle_16690" data-name="Rectangle 16690" width="1" height="1" transform="translate(35 12)"/>
  <rect id="Rectangle_16596" data-name="Rectangle 16596" width="1" height="1" transform="translate(26 5)"/>
  <rect id="Rectangle_16462" data-name="Rectangle 16462" width="1" height="1" transform="translate(8 5)"/>
  <rect id="Rectangle_16659" data-name="Rectangle 16659" width="1" height="1" transform="translate(17 14)"/>
  <rect id="Rectangle_16719" data-name="Rectangle 16719" width="1" height="1" transform="translate(36 13)"/>
  <rect id="Rectangle_16600" data-name="Rectangle 16600" width="1" height="1" transform="translate(27 6)"/>
  <rect id="Rectangle_16468" data-name="Rectangle 16468" width="1" height="1" transform="translate(9 6)"/>
  <rect id="Rectangle_16706" data-name="Rectangle 16706" width="1" height="1" transform="translate(18 15)"/>
  <rect id="Rectangle_16726" data-name="Rectangle 16726" width="1" height="1" transform="translate(37 14)"/>
  <rect id="Rectangle_16614" data-name="Rectangle 16614" width="1" height="1" transform="translate(29 6)"/>
  <rect id="Rectangle_16485" data-name="Rectangle 16485" width="1" height="1" transform="translate(11 6)"/>
  <rect id="Rectangle_16707" data-name="Rectangle 16707" width="1" height="1" transform="translate(20 15)"/>
  <rect id="Rectangle_16647" data-name="Rectangle 16647" width="1" height="1" transform="translate(31 2)"/>
  <rect id="Rectangle_16493" data-name="Rectangle 16493" width="1" height="1" transform="translate(13 2)"/>
  <rect id="Rectangle_16506" data-name="Rectangle 16506" width="1" height="1" transform="translate(3 10)"/>
  <rect id="Rectangle_16573" data-name="Rectangle 16573" width="1" height="1" transform="translate(22 11)"/>
  <rect id="Rectangle_16532" data-name="Rectangle 16532" width="1" height="1" transform="translate(17 5)"/>
  <rect id="Rectangle_16720" data-name="Rectangle 16720" width="1" height="1" transform="translate(36 4)"/>
  <rect id="Rectangle_16628" data-name="Rectangle 16628" width="1" height="1" transform="translate(27 13)"/>
  <rect id="Rectangle_16629" data-name="Rectangle 16629" width="1" height="1" transform="translate(7 13)"/>
  <rect id="Rectangle_16541" data-name="Rectangle 16541" width="1" height="1" transform="translate(18 4)"/>
  <rect id="Rectangle_16727" data-name="Rectangle 16727" width="1" height="1" transform="translate(37 3)"/>
  <rect id="Rectangle_16608" data-name="Rectangle 16608" width="1" height="1" transform="translate(28 12)"/>
  <rect id="Rectangle_16551" data-name="Rectangle 16551" width="1" height="1" transform="translate(8 12)"/>
  <rect id="Rectangle_16513" data-name="Rectangle 16513" width="1" height="1" transform="translate(16 8)"/>
  <rect id="Rectangle_16691" data-name="Rectangle 16691" width="1" height="1" transform="translate(35 7)"/>
  <rect id="Rectangle_16747" data-name="Rectangle 16747" width="1" height="1" transform="translate(26 16)"/>
  <rect id="Rectangle_16748" data-name="Rectangle 16748" width="1" height="1" transform="translate(6 16)"/>
  <rect id="Rectangle_16463" data-name="Rectangle 16463" width="1" height="1" transform="translate(3 5)"/>
  <rect id="Rectangle_16574" data-name="Rectangle 16574" width="1" height="1" transform="translate(22 6)"/>
  <rect id="Rectangle_16661" data-name="Rectangle 16661" width="1" height="1" transform="translate(32 14)"/>
  <rect id="Rectangle_16662" data-name="Rectangle 16662" width="1" height="1" transform="translate(12 14)"/>
  <rect id="Rectangle_16469" data-name="Rectangle 16469" width="1" height="1" transform="translate(4 6)"/>
  <rect id="Rectangle_16578" data-name="Rectangle 16578" width="1" height="1" transform="translate(23 7)"/>
  <rect id="Rectangle_16708" data-name="Rectangle 16708" width="1" height="1" transform="translate(33 15)"/>
  <rect id="Rectangle_16709" data-name="Rectangle 16709" width="1" height="1" transform="translate(13 15)"/>
  <rect id="Rectangle_16470" data-name="Rectangle 16470" width="1" height="1" transform="translate(2 6)"/>
  <rect id="Rectangle_16567" data-name="Rectangle 16567" width="1" height="1" transform="translate(21 7)"/>
  <rect id="Rectangle_16710" data-name="Rectangle 16710" width="1" height="1" transform="translate(31 15)"/>
  <rect id="Rectangle_16711" data-name="Rectangle 16711" width="1" height="1" transform="translate(11 15)"/>
  <rect id="Rectangle_16500" data-name="Rectangle 16500" width="1" height="1" transform="translate(14 6)"/>
  <rect id="Rectangle_16677" data-name="Rectangle 16677" width="1" height="1" transform="translate(33 5)"/>
  <rect id="Rectangle_16663" data-name="Rectangle 16663" width="1" height="1" transform="translate(24 14)"/>
  <rect id="Rectangle_16664" data-name="Rectangle 16664" width="1" height="1" transform="translate(4 14)"/>
  <rect id="Rectangle_16501" data-name="Rectangle 16501" width="1" height="1" transform="translate(14 8)"/>
  <rect id="Rectangle_16678" data-name="Rectangle 16678" width="1" height="1" transform="translate(33 7)"/>
  <rect id="Rectangle_16749" data-name="Rectangle 16749" width="1" height="1" transform="translate(24 16)"/>
  <rect id="Rectangle_16750" data-name="Rectangle 16750" width="1" height="1" transform="translate(4 16)"/>
  <rect id="Rectangle_16542" data-name="Rectangle 16542" width="1" height="1" transform="translate(18 6)"/>
  <rect id="Rectangle_16728" data-name="Rectangle 16728" width="1" height="1" transform="translate(37 5)"/>
  <rect id="Rectangle_16665" data-name="Rectangle 16665" width="1" height="1" transform="translate(28 14)"/>
  <rect id="Rectangle_16666" data-name="Rectangle 16666" width="1" height="1" transform="translate(8 14)"/>
  <rect id="Rectangle_16545" data-name="Rectangle 16545" width="1" height="1" transform="translate(19 7)"/>
  <rect id="Rectangle_16755" data-name="Rectangle 16755" width="1" height="1" transform="translate(38 6)"/>
  <rect id="Rectangle_16712" data-name="Rectangle 16712" width="1" height="1" transform="translate(29 15)"/>
  <rect id="Rectangle_16713" data-name="Rectangle 16713" width="1" height="1" transform="translate(9 15)"/>
  <rect id="Rectangle_16589" data-name="Rectangle 16589" width="1" height="1" transform="translate(25 2)"/>
  <rect id="Rectangle_16457" data-name="Rectangle 16457" width="1" height="1" transform="translate(7 2)"/>
  <rect id="Rectangle_16533" data-name="Rectangle 16533" width="1" height="1" transform="translate(16 11)"/>
  <rect id="Rectangle_16692" data-name="Rectangle 16692" width="1" height="1" transform="translate(35 10)"/>
  <rect id="Rectangle_16597" data-name="Rectangle 16597" width="1" height="1" transform="translate(26 3)"/>
  <rect id="Rectangle_16464" data-name="Rectangle 16464" width="1" height="1" transform="translate(8 3)"/>
  <rect id="Rectangle_16552" data-name="Rectangle 16552" width="1" height="1" transform="translate(17 12)"/>
  <rect id="Rectangle_16721" data-name="Rectangle 16721" width="1" height="1" transform="translate(36 11)"/>
  <rect id="Rectangle_16601" data-name="Rectangle 16601" width="1" height="1" transform="translate(27 4)"/>
  <rect id="Rectangle_16472" data-name="Rectangle 16472" width="1" height="1" transform="translate(9 4)"/>
  <rect id="Rectangle_16630" data-name="Rectangle 16630" width="1" height="1" transform="translate(18 13)"/>
  <rect id="Rectangle_16729" data-name="Rectangle 16729" width="1" height="1" transform="translate(37 12)"/>
  <rect id="Rectangle_16609" data-name="Rectangle 16609" width="1" height="1" transform="translate(28 5)"/>
  <rect id="Rectangle_16481" data-name="Rectangle 16481" width="1" height="1" transform="translate(10 5)"/>
  <rect id="Rectangle_16667" data-name="Rectangle 16667" width="1" height="1" transform="translate(19 14)"/>
  <rect id="Rectangle_16756" data-name="Rectangle 16756" width="1" height="1" transform="translate(38 13)"/>
  <rect id="Rectangle_16620" data-name="Rectangle 16620" width="1" height="1" transform="translate(30 5)"/>
  <rect id="Rectangle_16494" data-name="Rectangle 16494" width="1" height="1" transform="translate(12 5)"/>
  <rect id="Rectangle_16632" data-name="Rectangle 16632" width="1" height="1" transform="translate(2 13)"/>
  <rect id="Rectangle_16668" data-name="Rectangle 16668" width="1" height="1" transform="translate(21 14)"/>
  <rect id="Rectangle_16482" data-name="Rectangle 16482" width="1" height="1" transform="translate(5 7)"/>
  <rect id="Rectangle_16583" data-name="Rectangle 16583" width="1" height="1" transform="translate(24 8)"/>
  <rect id="Rectangle_16751" data-name="Rectangle 16751" width="1" height="1" transform="translate(34 16)"/>
  <rect id="Rectangle_16752" data-name="Rectangle 16752" width="1" height="1" transform="translate(14 16)"/>
  <rect id="Rectangle_16679" data-name="Rectangle 16679" width="1" height="1" transform="translate(33 2)"/>
  <rect id="Rectangle_16507" data-name="Rectangle 16507" width="1" height="1" transform="translate(15 2)"/>
  <rect id="Rectangle_16508" data-name="Rectangle 16508" width="1" height="1" transform="translate(5 10)"/>
  <rect id="Rectangle_16584" data-name="Rectangle 16584" width="1" height="1" transform="translate(24 11)"/>
  <rect id="Rectangle_16509" data-name="Rectangle 16509" width="1" height="1" transform="translate(15 5)"/>
  <rect id="Rectangle_16684" data-name="Rectangle 16684" width="1" height="1" transform="translate(34 4)"/>
  <rect id="Rectangle_16633" data-name="Rectangle 16633" width="1" height="1" transform="translate(25 13)"/>
  <rect id="Rectangle_16634" data-name="Rectangle 16634" width="1" height="1" transform="translate(5 13)"/>
  <rect id="Rectangle_16510" data-name="Rectangle 16510" width="1" height="1" transform="translate(15 7)"/>
  <rect id="Rectangle_16685" data-name="Rectangle 16685" width="1" height="1" transform="translate(34 6)"/>
  <rect id="Rectangle_16714" data-name="Rectangle 16714" width="1" height="1" transform="translate(25 15)"/>
  <rect id="Rectangle_16715" data-name="Rectangle 16715" width="1" height="1" transform="translate(5 15)"/>
  <rect id="Rectangle_16546" data-name="Rectangle 16546" width="1" height="1" transform="translate(19 5)"/>
  <rect id="Rectangle_16757" data-name="Rectangle 16757" width="1" height="1" transform="translate(38 4)"/>
  <rect id="Rectangle_16635" data-name="Rectangle 16635" width="1" height="1" transform="translate(29 13)"/>
  <rect id="Rectangle_16636" data-name="Rectangle 16636" width="1" height="1" transform="translate(9 13)"/>
  <rect id="Rectangle_16560" data-name="Rectangle 16560" width="1" height="1" transform="translate(20 6)"/>
  <rect id="Rectangle_16669" data-name="Rectangle 16669" width="1" height="1" transform="translate(30 14)"/>
  <rect id="Rectangle_16670" data-name="Rectangle 16670" width="1" height="1" transform="translate(10 14)"/>
  <rect id="Rectangle_16602" data-name="Rectangle 16602" width="1" height="1" transform="translate(27 2)"/>
  <rect id="Rectangle_16473" data-name="Rectangle 16473" width="1" height="1" transform="translate(9 2)"/>
  <rect id="Rectangle_16543" data-name="Rectangle 16543" width="1" height="1" transform="translate(18 11)"/>
  <rect id="Rectangle_16730" data-name="Rectangle 16730" width="1" height="1" transform="translate(37 10)"/>
  <rect id="Rectangle_16610" data-name="Rectangle 16610" width="1" height="1" transform="translate(28 3)"/>
  <rect id="Rectangle_16483" data-name="Rectangle 16483" width="1" height="1" transform="translate(10 3)"/>
  <rect id="Rectangle_16553" data-name="Rectangle 16553" width="1" height="1" transform="translate(19 12)"/>
  <rect id="Rectangle_16758" data-name="Rectangle 16758" width="1" height="1" transform="translate(38 11)"/>
  <rect id="Rectangle_16615" data-name="Rectangle 16615" width="1" height="1" transform="translate(29 4)"/>
  <rect id="Rectangle_16486" data-name="Rectangle 16486" width="1" height="1" transform="translate(11 4)"/>
  <rect id="Rectangle_16637" data-name="Rectangle 16637" width="1" height="1" transform="translate(20 13)"/>
  <rect id="Rectangle_16648" data-name="Rectangle 16648" width="1" height="1" transform="translate(31 4)"/>
  <rect id="Rectangle_16495" data-name="Rectangle 16495" width="1" height="1" transform="translate(13 4)"/>
  <rect id="Rectangle_16555" data-name="Rectangle 16555" width="1" height="1" transform="translate(3 12)"/>
  <rect id="Rectangle_16638" data-name="Rectangle 16638" width="1" height="1" transform="translate(22 13)"/>
  <rect id="Rectangle_16514" data-name="Rectangle 16514" width="1" height="1" transform="translate(16 4)"/>
  <rect id="Rectangle_16693" data-name="Rectangle 16693" width="1" height="1" transform="translate(35 3)"/>
  <rect id="Rectangle_16598" data-name="Rectangle 16598" width="1" height="1" transform="translate(26 12)"/>
  <rect id="Rectangle_16556" data-name="Rectangle 16556" width="1" height="1" transform="translate(6 12)"/>
  <rect id="Rectangle_16515" data-name="Rectangle 16515" width="1" height="1" transform="translate(16 6)"/>
  <rect id="Rectangle_16694" data-name="Rectangle 16694" width="1" height="1" transform="translate(35 5)"/>
  <rect id="Rectangle_16671" data-name="Rectangle 16671" width="1" height="1" transform="translate(26 14)"/>
  <rect id="Rectangle_16672" data-name="Rectangle 16672" width="1" height="1" transform="translate(6 14)"/>
  <rect id="Rectangle_16561" data-name="Rectangle 16561" width="1" height="1" transform="translate(20 4)"/>
  <rect id="Rectangle_16621" data-name="Rectangle 16621" width="1" height="1" transform="translate(30 12)"/>
  <rect id="Rectangle_16557" data-name="Rectangle 16557" width="1" height="1" transform="translate(10 12)"/>
  <rect id="Rectangle_16459" data-name="Rectangle 16459" width="1" height="1" transform="translate(2 4)"/>
  <rect id="Rectangle_16568" data-name="Rectangle 16568" width="1" height="1" transform="translate(21 5)"/>
  <rect id="Rectangle_16649" data-name="Rectangle 16649" width="1" height="1" transform="translate(31 13)"/>
  <rect id="Rectangle_16639" data-name="Rectangle 16639" width="1" height="1" transform="translate(11 13)"/>
  <rect id="Rectangle_16616" data-name="Rectangle 16616" width="1" height="1" transform="translate(29 2)"/>
  <rect id="Rectangle_16487" data-name="Rectangle 16487" width="1" height="1" transform="translate(11 2)"/>
  <rect id="Rectangle_16562" data-name="Rectangle 16562" width="1" height="1" transform="translate(20 11)"/>
  <rect id="Rectangle_16622" data-name="Rectangle 16622" width="1" height="1" transform="translate(30 3)"/>
  <rect id="Rectangle_16496" data-name="Rectangle 16496" width="1" height="1" transform="translate(12 3)"/>
  <rect id="Rectangle_16535" data-name="Rectangle 16535" width="1" height="1" transform="translate(2 11)"/>
  <rect id="Rectangle_16569" data-name="Rectangle 16569" width="1" height="1" transform="translate(21 12)"/>
  <rect id="Rectangle_16654" data-name="Rectangle 16654" width="1" height="1" transform="translate(32 3)"/>
  <rect id="Rectangle_16502" data-name="Rectangle 16502" width="1" height="1" transform="translate(14 3)"/>
  <rect id="Rectangle_16536" data-name="Rectangle 16536" width="1" height="1" transform="translate(4 11)"/>
  <rect id="Rectangle_16579" data-name="Rectangle 16579" width="1" height="1" transform="translate(23 12)"/>
  <rect id="Rectangle_16537" data-name="Rectangle 16537" width="1" height="1" transform="translate(17 3)"/>
  <rect id="Rectangle_16722" data-name="Rectangle 16722" width="1" height="1" transform="translate(36 2)"/>
  <rect id="Rectangle_16603" data-name="Rectangle 16603" width="1" height="1" transform="translate(27 11)"/>
  <rect id="Rectangle_16538" data-name="Rectangle 16538" width="1" height="1" transform="translate(7 11)"/>
  <rect id="Rectangle_16443" data-name="Rectangle 16443" width="1" height="1" transform="translate(0 2)"/>
  <rect id="Rectangle_16444" data-name="Rectangle 16444" width="1" height="1" transform="translate(1 2)"/>
  <rect id="Rectangle_16699" data-name="Rectangle 16699" width="1" height="1" transform="translate(1 15)"/>
  <rect id="Rectangle_16700" data-name="Rectangle 16700" width="1" height="1" transform="translate(0 15)"/>
  <rect id="Rectangle_16479" data-name="Rectangle 16479" width="1" height="1" transform="translate(1 7)"/>
  <rect id="Rectangle_16660" data-name="Rectangle 16660" width="1" height="1" transform="translate(1 14)"/>
  <rect id="Rectangle_16471" data-name="Rectangle 16471" width="1" height="1" transform="translate(0 6)"/>
  <rect id="Rectangle_16631" data-name="Rectangle 16631" width="1" height="1" transform="translate(0 13)"/>
  <rect id="Rectangle_16458" data-name="Rectangle 16458" width="1" height="1" transform="translate(0 4)"/>
  <rect id="Rectangle_16465" data-name="Rectangle 16465" width="1" height="1" transform="translate(1 5)"/>
  <rect id="Rectangle_16534" data-name="Rectangle 16534" width="1" height="1" transform="translate(0 11)"/>
  <rect id="Rectangle_16554" data-name="Rectangle 16554" width="1" height="1" transform="translate(1 12)"/>
  <rect id="Rectangle_16451" data-name="Rectangle 16451" width="1" height="1" transform="translate(1 3)"/>
  <rect id="Rectangle_16511" data-name="Rectangle 16511" width="1" height="1" transform="translate(1 10)"/>
</svg>
