<svg xmlns="http://www.w3.org/2000/svg" width="39" height="18" viewBox="0 0 39 18"><rect width="1" height="1" transform="translate(18 3)"/><rect width="1" height="1" transform="translate(37 2)"/><rect width="1" height="1" transform="translate(28 11)"/><rect width="1" height="1" transform="translate(8 11)"/><rect width="1" height="1" transform="translate(19 3)"/><rect width="1" height="1" transform="translate(38 2)"/><rect width="1" height="1" transform="translate(29 11)"/><rect width="1" height="1" transform="translate(9 11)"/><rect width="1" height="1" transform="translate(20 3)"/><rect width="1" height="1" transform="translate(30 11)"/><rect width="1" height="1" transform="translate(10 11)"/><rect width="1" height="1" transform="translate(2 2)"/><rect width="1" height="1" transform="translate(21 3)"/><rect width="1" height="1" transform="translate(31 11)"/><rect width="1" height="1" transform="translate(11 11)"/><rect width="1" height="1" transform="translate(3 3)"/><rect width="1" height="1" transform="translate(22 4)"/><rect width="1" height="1" transform="translate(32 12)"/><rect width="1" height="1" transform="translate(12 12)"/><rect width="1" height="1" transform="translate(4 4)"/><rect width="1" height="1" transform="translate(23 5)"/><rect width="1" height="1" transform="translate(33 13)"/><rect width="1" height="1" transform="translate(13 13)"/><rect width="1" height="1" transform="translate(5 5)"/><rect width="1" height="1" transform="translate(24 6)"/><rect width="1" height="1" transform="translate(34 14)"/><rect width="1" height="1" transform="translate(14 14)"/><rect width="1" height="1" transform="translate(6 6)"/><rect width="1" height="1" transform="translate(25 7)"/><rect width="1" height="1" transform="translate(35 15)"/><rect width="1" height="1" transform="translate(15 15)"/><rect width="1" height="1" transform="translate(7 7)"/><rect width="1" height="1" transform="translate(26 8)"/><rect width="1" height="1" transform="translate(36 16)"/><rect width="1" height="1" transform="translate(16 16)"/><rect width="1" height="1" transform="translate(35)"/><rect width="1" height="1" transform="translate(17)"/><rect width="1" height="1" transform="translate(7 8)"/><rect width="1" height="1" transform="translate(26 9)"/><rect width="1" height="1" transform="translate(36 17)"/><rect width="1" height="1" transform="translate(16 17)"/><rect width="1" height="1" transform="translate(35 1)"/><rect width="1" height="1" transform="translate(17 1)"/><rect width="1" height="1" transform="translate(7 9)"/><rect width="1" height="1" transform="translate(26 10)"/><rect width="1" height="1" transform="translate(35 2)"/><rect width="1" height="1" transform="translate(17 2)"/><rect width="1" height="1" transform="translate(7 10)"/><rect width="1" height="1" transform="translate(26 11)"/><rect width="1" height="1" transform="translate(34 3)"/><rect width="1" height="1" transform="translate(16 3)"/><rect width="1" height="1" transform="translate(6 11)"/><rect width="1" height="1" transform="translate(25 12)"/><rect width="1" height="1" transform="translate(33 4)"/><rect width="1" height="1" transform="translate(15 4)"/><rect width="1" height="1" transform="translate(5 12)"/><rect width="1" height="1" transform="translate(24 13)"/><rect width="1" height="1" transform="translate(32 5)"/><rect width="1" height="1" transform="translate(14 5)"/><rect width="1" height="1" transform="translate(4 13)"/><rect width="1" height="1" transform="translate(23 14)"/><rect width="1" height="1" transform="translate(31 6)"/><rect width="1" height="1" transform="translate(13 6)"/><rect width="1" height="1" transform="translate(3 14)"/><rect width="1" height="1" transform="translate(22 15)"/><rect width="1" height="1" transform="translate(30 7)"/><rect width="1" height="1" transform="translate(12 7)"/><rect width="1" height="1" transform="translate(2 15)"/><rect width="1" height="1" transform="translate(21 16)"/><rect width="1" height="1" transform="translate(29 7)"/><rect width="1" height="1" transform="translate(11 7)"/><rect width="1" height="1" transform="translate(20 16)"/><rect width="1" height="1" transform="translate(31 11)"/><rect width="1" height="1" transform="translate(11 11)"/><rect width="1" height="1" transform="translate(28 7)"/><rect width="1" height="1" transform="translate(10 7)"/><rect width="1" height="1" transform="translate(19 16)"/><rect width="1" height="1" transform="translate(38 15)"/><rect width="1" height="1" transform="translate(30 11)"/><rect width="1" height="1" transform="translate(10 11)"/><rect width="1" height="1" transform="translate(27 7)"/><rect width="1" height="1" transform="translate(9 7)"/><rect width="1" height="1" transform="translate(18 16)"/><rect width="1" height="1" transform="translate(37 15)"/><rect width="1" height="1" transform="translate(29 11)"/><rect width="1" height="1" transform="translate(9 11)"/><rect width="1" height="1" transform="translate(26 7)"/><rect width="1" height="1" transform="translate(8 7)"/><rect width="1" height="1" transform="translate(17 16)"/><rect width="1" height="1" transform="translate(36 15)"/><rect width="1" height="1" transform="translate(28 11)"/><rect width="1" height="1" transform="translate(8 11)"/><rect width="1" height="1" transform="translate(26 7)"/><rect width="1" height="1" transform="translate(8 7)"/><rect width="1" height="1" transform="translate(17 16)"/><rect width="1" height="1" transform="translate(36 15)"/><rect width="1" height="1" transform="translate(28 11)"/><rect width="1" height="1" transform="translate(8 11)"/><rect width="1" height="1" transform="translate(25 6)"/><rect width="1" height="1" transform="translate(7 6)"/><rect width="1" height="1" transform="translate(16 15)"/><rect width="1" height="1" transform="translate(35 14)"/><rect width="1" height="1" transform="translate(24 5)"/><rect width="1" height="1" transform="translate(6 5)"/><rect width="1" height="1" transform="translate(15 14)"/><rect width="1" height="1" transform="translate(34 13)"/><rect width="1" height="1" transform="translate(23 4)"/><rect width="1" height="1" transform="translate(5 4)"/><rect width="1" height="1" transform="translate(14 13)"/><rect width="1" height="1" transform="translate(33 12)"/><rect width="1" height="1" transform="translate(22 3)"/><rect width="1" height="1" transform="translate(4 3)"/><rect width="1" height="1" transform="translate(13 12)"/><rect width="1" height="1" transform="translate(32 11)"/><rect width="1" height="1" transform="translate(21 2)"/><rect width="1" height="1" transform="translate(3 2)"/><rect width="1" height="1" transform="translate(12 11)"/><rect width="1" height="1" transform="translate(31 10)"/><rect width="1" height="1" transform="translate(21 1)"/><rect width="1" height="1" transform="translate(3 1)"/><rect width="1" height="1" transform="translate(12 10)"/><rect width="1" height="1" transform="translate(31 9)"/><rect width="1" height="1" transform="translate(21)"/><rect width="1" height="1" transform="translate(3)"/><rect width="1" height="1" transform="translate(12 9)"/><rect width="1" height="1" transform="translate(31 8)"/><rect width="1" height="1" transform="translate(22 17)"/><rect width="1" height="1" transform="translate(2 17)"/><rect width="1" height="1" transform="translate(12 8)"/><rect width="1" height="1" transform="translate(31 7)"/><rect width="1" height="1" transform="translate(22 16)"/><rect width="1" height="1" transform="translate(2 16)"/><rect width="1" height="1" transform="translate(13 7)"/><rect width="1" height="1" transform="translate(32 6)"/><rect width="1" height="1" transform="translate(23 15)"/><rect width="1" height="1" transform="translate(3 15)"/><rect width="1" height="1" transform="translate(17 7)"/><rect width="1" height="1" transform="translate(36 6)"/><rect width="1" height="1" transform="translate(27 15)"/><rect width="1" height="1" transform="translate(7 15)"/><rect width="1" height="1" transform="translate(23 2)"/><rect width="1" height="1" transform="translate(5 2)"/><rect width="1" height="1" transform="translate(14 11)"/><rect width="1" height="1" transform="translate(33 10)"/><rect width="1" height="1" transform="translate(18 8)"/><rect width="1" height="1" transform="translate(37 7)"/><rect width="1" height="1" transform="translate(28 16)"/><rect width="1" height="1" transform="translate(8 16)"/><rect width="1" height="1" transform="translate(20 8)"/><rect width="1" height="1" transform="translate(30 16)"/><rect width="1" height="1" transform="translate(10 16)"/><rect width="1" height="1" transform="translate(3 7)"/><rect width="1" height="1" transform="translate(22 8)"/><rect width="1" height="1" transform="translate(32 16)"/><rect width="1" height="1" transform="translate(12 16)"/><rect width="1" height="1" transform="translate(24 3)"/><rect width="1" height="1" transform="translate(6 3)"/><rect width="1" height="1" transform="translate(15 12)"/><rect width="1" height="1" transform="translate(34 11)"/><rect width="1" height="1" transform="translate(25 4)"/><rect width="1" height="1" transform="translate(7 4)"/><rect width="1" height="1" transform="translate(16 13)"/><rect width="1" height="1" transform="translate(35 12)"/><rect width="1" height="1" transform="translate(26 5)"/><rect width="1" height="1" transform="translate(8 5)"/><rect width="1" height="1" transform="translate(17 14)"/><rect width="1" height="1" transform="translate(36 13)"/><rect width="1" height="1" transform="translate(27 6)"/><rect width="1" height="1" transform="translate(9 6)"/><rect width="1" height="1" transform="translate(18 15)"/><rect width="1" height="1" transform="translate(37 14)"/><rect width="1" height="1" transform="translate(29 6)"/><rect width="1" height="1" transform="translate(11 6)"/><rect width="1" height="1" transform="translate(20 15)"/><rect width="1" height="1" transform="translate(31 2)"/><rect width="1" height="1" transform="translate(13 2)"/><rect width="1" height="1" transform="translate(3 10)"/><rect width="1" height="1" transform="translate(22 11)"/><rect width="1" height="1" transform="translate(17 5)"/><rect width="1" height="1" transform="translate(36 4)"/><rect width="1" height="1" transform="translate(27 13)"/><rect width="1" height="1" transform="translate(7 13)"/><rect width="1" height="1" transform="translate(18 4)"/><rect width="1" height="1" transform="translate(37 3)"/><rect width="1" height="1" transform="translate(28 12)"/><rect width="1" height="1" transform="translate(8 12)"/><rect width="1" height="1" transform="translate(16 8)"/><rect width="1" height="1" transform="translate(35 7)"/><rect width="1" height="1" transform="translate(26 16)"/><rect width="1" height="1" transform="translate(6 16)"/><rect width="1" height="1" transform="translate(3 5)"/><rect width="1" height="1" transform="translate(22 6)"/><rect width="1" height="1" transform="translate(32 14)"/><rect width="1" height="1" transform="translate(12 14)"/><rect width="1" height="1" transform="translate(4 6)"/><rect width="1" height="1" transform="translate(23 7)"/><rect width="1" height="1" transform="translate(33 15)"/><rect width="1" height="1" transform="translate(13 15)"/><rect width="1" height="1" transform="translate(2 6)"/><rect width="1" height="1" transform="translate(21 7)"/><rect width="1" height="1" transform="translate(31 15)"/><rect width="1" height="1" transform="translate(11 15)"/><rect width="1" height="1" transform="translate(14 6)"/><rect width="1" height="1" transform="translate(33 5)"/><rect width="1" height="1" transform="translate(24 14)"/><rect width="1" height="1" transform="translate(4 14)"/><rect width="1" height="1" transform="translate(14 8)"/><rect width="1" height="1" transform="translate(33 7)"/><rect width="1" height="1" transform="translate(24 16)"/><rect width="1" height="1" transform="translate(4 16)"/><rect width="1" height="1" transform="translate(18 6)"/><rect width="1" height="1" transform="translate(37 5)"/><rect width="1" height="1" transform="translate(28 14)"/><rect width="1" height="1" transform="translate(8 14)"/><rect width="1" height="1" transform="translate(19 7)"/><rect width="1" height="1" transform="translate(38 6)"/><rect width="1" height="1" transform="translate(29 15)"/><rect width="1" height="1" transform="translate(9 15)"/><rect width="1" height="1" transform="translate(25 2)"/><rect width="1" height="1" transform="translate(7 2)"/><rect width="1" height="1" transform="translate(16 11)"/><rect width="1" height="1" transform="translate(35 10)"/><rect width="1" height="1" transform="translate(26 3)"/><rect width="1" height="1" transform="translate(8 3)"/><rect width="1" height="1" transform="translate(17 12)"/><rect width="1" height="1" transform="translate(36 11)"/><rect width="1" height="1" transform="translate(27 4)"/><rect width="1" height="1" transform="translate(9 4)"/><rect width="1" height="1" transform="translate(18 13)"/><rect width="1" height="1" transform="translate(37 12)"/><rect width="1" height="1" transform="translate(28 5)"/><rect width="1" height="1" transform="translate(10 5)"/><rect width="1" height="1" transform="translate(19 14)"/><rect width="1" height="1" transform="translate(38 13)"/><rect width="1" height="1" transform="translate(30 5)"/><rect width="1" height="1" transform="translate(12 5)"/><rect width="1" height="1" transform="translate(2 13)"/><rect width="1" height="1" transform="translate(21 14)"/><rect width="1" height="1" transform="translate(5 7)"/><rect width="1" height="1" transform="translate(24 8)"/><rect width="1" height="1" transform="translate(34 16)"/><rect width="1" height="1" transform="translate(14 16)"/><rect width="1" height="1" transform="translate(33 2)"/><rect width="1" height="1" transform="translate(15 2)"/><rect width="1" height="1" transform="translate(5 10)"/><rect width="1" height="1" transform="translate(24 11)"/><rect width="1" height="1" transform="translate(15 5)"/><rect width="1" height="1" transform="translate(34 4)"/><rect width="1" height="1" transform="translate(25 13)"/><rect width="1" height="1" transform="translate(5 13)"/><rect width="1" height="1" transform="translate(15 7)"/><rect width="1" height="1" transform="translate(34 6)"/><rect width="1" height="1" transform="translate(25 15)"/><rect width="1" height="1" transform="translate(5 15)"/><rect width="1" height="1" transform="translate(19 5)"/><rect width="1" height="1" transform="translate(38 4)"/><rect width="1" height="1" transform="translate(29 13)"/><rect width="1" height="1" transform="translate(9 13)"/><rect width="1" height="1" transform="translate(20 6)"/><rect width="1" height="1" transform="translate(30 14)"/><rect width="1" height="1" transform="translate(10 14)"/><rect width="1" height="1" transform="translate(27 2)"/><rect width="1" height="1" transform="translate(9 2)"/><rect width="1" height="1" transform="translate(18 11)"/><rect width="1" height="1" transform="translate(37 10)"/><rect width="1" height="1" transform="translate(28 3)"/><rect width="1" height="1" transform="translate(10 3)"/><rect width="1" height="1" transform="translate(19 12)"/><rect width="1" height="1" transform="translate(38 11)"/><rect width="1" height="1" transform="translate(29 4)"/><rect width="1" height="1" transform="translate(11 4)"/><rect width="1" height="1" transform="translate(20 13)"/><rect width="1" height="1" transform="translate(31 4)"/><rect width="1" height="1" transform="translate(13 4)"/><rect width="1" height="1" transform="translate(3 12)"/><rect width="1" height="1" transform="translate(22 13)"/><rect width="1" height="1" transform="translate(16 4)"/><rect width="1" height="1" transform="translate(35 3)"/><rect width="1" height="1" transform="translate(26 12)"/><rect width="1" height="1" transform="translate(6 12)"/><rect width="1" height="1" transform="translate(16 6)"/><rect width="1" height="1" transform="translate(35 5)"/><rect width="1" height="1" transform="translate(26 14)"/><rect width="1" height="1" transform="translate(6 14)"/><rect width="1" height="1" transform="translate(20 4)"/><rect width="1" height="1" transform="translate(30 12)"/><rect width="1" height="1" transform="translate(10 12)"/><rect width="1" height="1" transform="translate(2 4)"/><rect width="1" height="1" transform="translate(21 5)"/><rect width="1" height="1" transform="translate(31 13)"/><rect width="1" height="1" transform="translate(11 13)"/><rect width="1" height="1" transform="translate(29 2)"/><rect width="1" height="1" transform="translate(11 2)"/><rect width="1" height="1" transform="translate(20 11)"/><rect width="1" height="1" transform="translate(30 3)"/><rect width="1" height="1" transform="translate(12 3)"/><rect width="1" height="1" transform="translate(2 11)"/><rect width="1" height="1" transform="translate(21 12)"/><rect width="1" height="1" transform="translate(32 3)"/><rect width="1" height="1" transform="translate(14 3)"/><rect width="1" height="1" transform="translate(4 11)"/><rect width="1" height="1" transform="translate(23 12)"/><rect width="1" height="1" transform="translate(17 3)"/><rect width="1" height="1" transform="translate(36 2)"/><rect width="1" height="1" transform="translate(27 11)"/><rect width="1" height="1" transform="translate(7 11)"/><rect width="1" height="1" transform="translate(0 2)"/><rect width="1" height="1" transform="translate(1 2)"/><rect width="1" height="1" transform="translate(1 15)"/><rect width="1" height="1" transform="translate(0 15)"/><rect width="1" height="1" transform="translate(1 7)"/><rect width="1" height="1" transform="translate(1 14)"/><rect width="1" height="1" transform="translate(0 6)"/><rect width="1" height="1" transform="translate(0 13)"/><rect width="1" height="1" transform="translate(0 4)"/><rect width="1" height="1" transform="translate(1 5)"/><rect width="1" height="1" transform="translate(0 11)"/><rect width="1" height="1" transform="translate(1 12)"/><rect width="1" height="1" transform="translate(1 3)"/><rect width="1" height="1" transform="translate(1 10)"/></svg>