<svg xmlns="http://www.w3.org/2000/svg" width="72" height="22" viewBox="0 0 72 22"><rect width="1" height="1" transform="translate(8 18)"/><rect width="1" height="1" transform="translate(59 18)"/><rect width="1" height="1" transform="translate(14 11)"/><rect width="1" height="1" transform="translate(14 10)"/><rect width="1" height="1" transform="translate(14 9)"/><rect width="1" height="1" transform="translate(14 8)"/><rect width="1" height="1" transform="translate(14 7)"/><rect width="1" height="1" transform="translate(14 6)"/><rect width="1" height="1" transform="translate(14 6)"/><rect width="1" height="1" transform="translate(14 5)"/><rect width="1" height="1" transform="translate(9 4)"/><rect width="1" height="1" transform="translate(66 4)"/><rect width="1" height="1" transform="translate(4 3)"/><rect width="1" height="1" transform="translate(70 3)"/><rect width="1" height="1" transform="translate(19 5)"/><rect width="1" height="1" transform="translate(16 4)"/><rect width="1" height="1" transform="translate(19 3)"/><rect width="1" height="1" transform="translate(25 5)"/><rect width="1" height="1" transform="translate(22 4)"/><rect width="1" height="1" transform="translate(25 3)"/><rect width="1" height="1" transform="translate(31 5)"/><rect width="1" height="1" transform="translate(28 4)"/><rect width="1" height="1" transform="translate(31 3)"/><rect width="1" height="1" transform="translate(37 5)"/><rect width="1" height="1" transform="translate(34 4)"/><rect width="1" height="1" transform="translate(37 3)"/><rect width="1" height="1" transform="translate(43 5)"/><rect width="1" height="1" transform="translate(40 4)"/><rect width="1" height="1" transform="translate(43 3)"/><rect width="1" height="1" transform="translate(49 5)"/><rect width="1" height="1" transform="translate(61 14)"/><rect width="1" height="1" transform="translate(46 4)"/><rect width="1" height="1" transform="translate(49 3)"/><rect width="1" height="1" transform="translate(61 12)"/><rect width="1" height="1" transform="translate(55 5)"/><rect width="1" height="1" transform="translate(52 4)"/><rect width="1" height="1" transform="translate(55 3)"/><rect width="1" height="1" transform="translate(60 5)"/><rect width="1" height="1" transform="translate(14 3)"/><rect width="1" height="1" transform="translate(9 2)"/><rect width="1" height="1" transform="translate(66 2)"/><rect width="1" height="1" transform="translate(4 1)"/><rect width="1" height="1" transform="translate(70 1)"/><rect width="1" height="1" transform="translate(14 4)"/><rect width="1" height="1" transform="translate(9 3)"/><rect width="1" height="1" transform="translate(66 3)"/><rect width="1" height="1" transform="translate(4 2)"/><rect width="1" height="1" transform="translate(70 2)"/><rect width="1" height="1" transform="translate(14 2)"/><rect width="1" height="1" transform="translate(9 1)"/><rect width="1" height="1" transform="translate(66 1)"/><rect width="1" height="1" transform="translate(4)"/><rect width="1" height="1" transform="translate(70)"/><rect width="1" height="1" transform="translate(17 8)"/><rect width="1" height="1" transform="translate(18 10)"/><rect width="1" height="1" transform="translate(19 8)"/><rect width="1" height="1" transform="translate(20 10)"/><rect width="1" height="1" transform="translate(21 8)"/><rect width="1" height="1" transform="translate(22 10)"/><rect width="1" height="1" transform="translate(23 8)"/><rect width="1" height="1" transform="translate(24 10)"/><rect width="1" height="1" transform="translate(25 8)"/><rect width="1" height="1" transform="translate(26 10)"/><rect width="1" height="1" transform="translate(27 8)"/><rect width="1" height="1" transform="translate(28 10)"/><rect width="1" height="1" transform="translate(29 8)"/><rect width="1" height="1" transform="translate(30 10)"/><rect width="1" height="1" transform="translate(31 8)"/><rect width="1" height="1" transform="translate(32 10)"/><rect width="1" height="1" transform="translate(33 8)"/><rect width="1" height="1" transform="translate(34 10)"/><rect width="1" height="1" transform="translate(35 8)"/><rect width="1" height="1" transform="translate(36 10)"/><rect width="1" height="1" transform="translate(38 10)"/><rect width="1" height="1" transform="translate(40 10)"/><rect width="1" height="1" transform="translate(42 10)"/><rect width="1" height="1" transform="translate(44 10)"/><rect width="1" height="1" transform="translate(46 10)"/><rect width="1" height="1" transform="translate(48 10)"/><rect width="1" height="1" transform="translate(50 10)"/><rect width="1" height="1" transform="translate(52 10)"/><rect width="1" height="1" transform="translate(54 10)"/><rect width="1" height="1" transform="translate(37 8)"/><rect width="1" height="1" transform="translate(39 8)"/><rect width="1" height="1" transform="translate(41 8)"/><rect width="1" height="1" transform="translate(43 8)"/><rect width="1" height="1" transform="translate(45 8)"/><rect width="1" height="1" transform="translate(47 8)"/><rect width="1" height="1" transform="translate(49 8)"/><rect width="1" height="1" transform="translate(51 8)"/><rect width="1" height="1" transform="translate(53 8)"/><rect width="1" height="1" transform="translate(55 8)"/><rect width="1" height="1" transform="translate(57 9)"/><rect width="1" height="1" transform="translate(57 9)"/><rect width="2" height="1" transform="translate(18 7)"/><rect width="1" height="1" transform="translate(17 9)"/><rect width="1" height="1" transform="translate(18 11)"/><rect width="1" height="1" transform="translate(19 9)"/><rect width="1" height="1" transform="translate(20 11)"/><rect width="1" height="1" transform="translate(21 9)"/><rect width="1" height="1" transform="translate(22 11)"/><rect width="1" height="1" transform="translate(23 9)"/><rect width="1" height="1" transform="translate(24 11)"/><rect width="1" height="1" transform="translate(25 9)"/><rect width="1" height="1" transform="translate(26 11)"/><rect width="1" height="1" transform="translate(27 9)"/><rect width="1" height="1" transform="translate(28 11)"/><rect width="1" height="1" transform="translate(29 9)"/><rect width="1" height="1" transform="translate(30 11)"/><rect width="1" height="1" transform="translate(31 9)"/><rect width="1" height="1" transform="translate(32 11)"/><rect width="1" height="1" transform="translate(33 9)"/><rect width="1" height="1" transform="translate(34 11)"/><rect width="1" height="1" transform="translate(35 9)"/><rect width="1" height="1" transform="translate(36 11)"/><rect width="1" height="1" transform="translate(38 11)"/><rect width="1" height="1" transform="translate(40 11)"/><rect width="1" height="1" transform="translate(42 11)"/><rect width="1" height="1" transform="translate(44 11)"/><rect width="1" height="1" transform="translate(46 11)"/><rect width="1" height="1" transform="translate(48 11)"/><rect width="1" height="1" transform="translate(50 11)"/><rect width="1" height="1" transform="translate(52 11)"/><rect width="1" height="1" transform="translate(54 11)"/><rect width="1" height="1" transform="translate(37 9)"/><rect width="1" height="1" transform="translate(39 9)"/><rect width="1" height="1" transform="translate(41 9)"/><rect width="1" height="1" transform="translate(43 9)"/><rect width="1" height="1" transform="translate(45 9)"/><rect width="1" height="1" transform="translate(47 9)"/><rect width="1" height="1" transform="translate(49 9)"/><rect width="1" height="1" transform="translate(51 9)"/><rect width="1" height="1" transform="translate(53 9)"/><rect width="1" height="1" transform="translate(55 9)"/><rect width="1" height="1" transform="translate(57 10)"/><rect width="1" height="1" transform="translate(57 10)"/><rect width="2" height="1" transform="translate(22 7)"/><rect width="2" height="1" transform="translate(34 7)"/><rect width="2" height="1" transform="translate(37 7)"/><rect width="2" height="1" transform="translate(41 7)"/><rect width="2" height="1" transform="translate(45 7)"/><rect width="2" height="1" transform="translate(49 7)"/><rect width="2" height="1" transform="translate(53 7)"/><rect width="2" height="1" transform="translate(56 8)"/><rect width="2" height="1" transform="translate(26 7)"/><rect width="2" height="1" transform="translate(30 7)"/><rect width="1" height="1" transform="translate(13 19)"/><rect width="1" height="1" transform="translate(64 19)"/><rect width="1" height="1" transform="translate(12 11)"/><rect width="1" height="1" transform="translate(12 10)"/><rect width="1" height="1" transform="translate(12 9)"/><rect width="1" height="1" transform="translate(12 8)"/><rect width="1" height="1" transform="translate(12 7)"/><rect width="1" height="1" transform="translate(12 6)"/><rect width="1" height="1" transform="translate(12 6)"/><rect width="1" height="1" transform="translate(12 5)"/><rect width="1" height="1" transform="translate(68 7)"/><rect width="1" height="1" transform="translate(7 4)"/><rect width="1" height="1" transform="translate(64 4)"/><rect width="1" height="1" transform="translate(2 3)"/><rect width="1" height="1" transform="translate(68 3)"/><rect width="1" height="1" transform="translate(17 5)"/><rect width="1" height="1" transform="translate(14 4)"/><rect width="1" height="1" transform="translate(9 3)"/><rect width="1" height="1" transform="translate(66 3)"/><rect width="1" height="1" transform="translate(4 2)"/><rect width="1" height="1" transform="translate(70 2)"/><rect width="1" height="1" transform="translate(17 3)"/><rect width="1" height="1" transform="translate(23 5)"/><rect width="1" height="1" transform="translate(20 4)"/><rect width="1" height="1" transform="translate(23 3)"/><rect width="1" height="1" transform="translate(29 5)"/><rect width="1" height="1" transform="translate(26 4)"/><rect width="1" height="1" transform="translate(29 3)"/><rect width="1" height="1" transform="translate(35 5)"/><rect width="1" height="1" transform="translate(32 4)"/><rect width="1" height="1" transform="translate(35 3)"/><rect width="1" height="1" transform="translate(41 5)"/><rect width="1" height="1" transform="translate(38 4)"/><rect width="1" height="1" transform="translate(41 3)"/><rect width="1" height="1" transform="translate(47 5)"/><rect width="1" height="1" transform="translate(44 4)"/><rect width="1" height="1" transform="translate(47 3)"/><rect width="1" height="1" transform="translate(53 5)"/><rect width="1" height="1" transform="translate(50 4)"/><rect width="1" height="1" transform="translate(53 3)"/><rect width="1" height="1" transform="translate(58 5)"/><rect width="1" height="1" transform="translate(12 3)"/><rect width="1" height="1" transform="translate(68 5)"/><rect width="1" height="1" transform="translate(7 2)"/><rect width="1" height="1" transform="translate(64 2)"/><rect width="1" height="1" transform="translate(2 1)"/><rect width="1" height="1" transform="translate(68 1)"/><rect width="1" height="1" transform="translate(12 4)"/><rect width="1" height="1" transform="translate(68 6)"/><rect width="1" height="1" transform="translate(7 3)"/><rect width="1" height="1" transform="translate(64 3)"/><rect width="1" height="1" transform="translate(2 2)"/><rect width="1" height="1" transform="translate(68 2)"/><rect width="1" height="1" transform="translate(12 2)"/><rect width="1" height="1" transform="translate(68 4)"/><rect width="1" height="1" transform="translate(7 1)"/><rect width="1" height="1" transform="translate(64 1)"/><rect width="1" height="1" transform="translate(2)"/><rect width="1" height="1" transform="translate(68)"/><rect width="1" height="1" transform="translate(15 10)"/><rect width="1" height="1" transform="translate(12 17)"/><rect width="1" height="1" transform="translate(63 17)"/><rect width="1" height="1" transform="translate(16 8)"/><rect width="1" height="1" transform="translate(16 7)"/><rect width="1" height="1" transform="translate(57 7)"/><rect width="1" height="1" transform="translate(16 6)"/><rect width="1" height="1" transform="translate(57 6)"/><rect width="1" height="1" transform="translate(9 17)"/><rect width="1" height="1" transform="translate(60 17)"/><rect width="1" height="1" transform="translate(13 11)"/><rect width="1" height="1" transform="translate(13 10)"/><rect width="1" height="1" transform="translate(13 9)"/><rect width="1" height="1" transform="translate(13 8)"/><rect width="1" height="1" transform="translate(13 7)"/><rect width="1" height="1" transform="translate(13 6)"/><rect width="1" height="1" transform="translate(13 6)"/><rect width="1" height="1" transform="translate(13 5)"/><rect width="1" height="1" transform="translate(8 4)"/><rect width="1" height="1" transform="translate(65 4)"/><rect width="1" height="1" transform="translate(3 3)"/><rect width="1" height="1" transform="translate(69 3)"/><rect width="1" height="1" transform="translate(18 5)"/><rect width="1" height="1" transform="translate(15 4)"/><rect width="1" height="1" transform="translate(10 3)"/><rect width="1" height="1" transform="translate(66 5)"/><rect width="1" height="1" transform="translate(5 2)"/><rect width="1" height="1" transform="translate(62 2)"/><rect width="1" height="1" transform="translate(11 13)"/><rect width="1" height="1" transform="translate(18 3)"/><rect width="1" height="1" transform="translate(24 5)"/><rect width="1" height="1" transform="translate(21 4)"/><rect width="1" height="1" transform="translate(24 3)"/><rect width="1" height="1" transform="translate(30 5)"/><rect width="1" height="1" transform="translate(27 4)"/><rect width="1" height="1" transform="translate(30 3)"/><rect width="1" height="1" transform="translate(36 5)"/><rect width="1" height="1" transform="translate(33 4)"/><rect width="1" height="1" transform="translate(36 3)"/><rect width="1" height="1" transform="translate(42 5)"/><rect width="1" height="1" transform="translate(39 4)"/><rect width="1" height="1" transform="translate(42 3)"/><rect width="1" height="1" transform="translate(48 5)"/><rect width="1" height="1" transform="translate(59 12)"/><rect width="1" height="1" transform="translate(45 4)"/><rect width="1" height="1" transform="translate(48 3)"/><rect width="1" height="1" transform="translate(60 12)"/><rect width="1" height="1" transform="translate(54 5)"/><rect width="1" height="1" transform="translate(51 4)"/><rect width="1" height="1" transform="translate(54 3)"/><rect width="1" height="1" transform="translate(59 5)"/><rect width="1" height="1" transform="translate(13 3)"/><rect width="1" height="1" transform="translate(8 2)"/><rect width="1" height="1" transform="translate(65 2)"/><rect width="1" height="1" transform="translate(3 1)"/><rect width="1" height="1" transform="translate(69 1)"/><rect width="1" height="1" transform="translate(13 4)"/><rect width="1" height="1" transform="translate(8 3)"/><rect width="1" height="1" transform="translate(65 3)"/><rect width="1" height="1" transform="translate(3 2)"/><rect width="1" height="1" transform="translate(69 2)"/><rect width="1" height="1" transform="translate(13 2)"/><rect width="1" height="1" transform="translate(8 1)"/><rect width="1" height="1" transform="translate(65 1)"/><rect width="1" height="1" transform="translate(3)"/><rect width="1" height="1" transform="translate(69)"/><rect width="1" height="1" transform="translate(16 11)"/><rect width="1" height="1" transform="translate(8 9)"/><rect width="1" height="1" transform="translate(8 14)"/><rect width="1" height="1" transform="translate(65 8)"/><rect width="1" height="1" transform="translate(65 13)"/><rect width="1" height="1" transform="translate(7 8)"/><rect width="1" height="1" transform="translate(7 13)"/><rect width="1" height="1" transform="translate(56 11)"/><rect width="1" height="1" transform="translate(13 18)"/><rect width="1" height="1" transform="translate(64 18)"/><rect width="1" height="1" transform="translate(11 16)"/><rect width="1" height="1" transform="translate(62 16)"/><rect width="1" height="1" transform="translate(11 11)"/><rect width="1" height="1" transform="translate(11 10)"/><rect width="1" height="1" transform="translate(10 10)"/><rect width="1" height="1" transform="translate(10 15)"/><rect width="1" height="1" transform="translate(62 10)"/><rect width="1" height="1" transform="translate(62 15)"/><rect width="1" height="1" transform="translate(11 9)"/><rect width="1" height="1" transform="translate(10 9)"/><rect width="1" height="1" transform="translate(10 14)"/><rect width="1" height="1" transform="translate(62 9)"/><rect width="1" height="1" transform="translate(62 14)"/><rect width="1" height="1" transform="translate(9 9)"/><rect width="1" height="1" transform="translate(9 14)"/><rect width="1" height="1" transform="translate(63 9)"/><rect width="1" height="1" transform="translate(63 14)"/><rect width="1" height="1" transform="translate(11 8)"/><rect width="1" height="1" transform="translate(10 8)"/><rect width="1" height="1" transform="translate(10 13)"/><rect width="1" height="1" transform="translate(62 8)"/><rect width="1" height="1" transform="translate(62 13)"/><rect width="1" height="1" transform="translate(9 8)"/><rect width="1" height="1" transform="translate(9 13)"/><rect width="1" height="1" transform="translate(63 8)"/><rect width="1" height="1" transform="translate(63 13)"/><rect width="1" height="1" transform="translate(64 9)"/><rect width="1" height="1" transform="translate(64 14)"/><rect width="1" height="1" transform="translate(11 7)"/><rect width="1" height="1" transform="translate(10 7)"/><rect width="1" height="1" transform="translate(10 12)"/><rect width="1" height="1" transform="translate(62 7)"/><rect width="1" height="1" transform="translate(62 12)"/><rect width="1" height="1" transform="translate(9 7)"/><rect width="1" height="1" transform="translate(9 12)"/><rect width="1" height="1" transform="translate(63 7)"/><rect width="1" height="1" transform="translate(63 12)"/><rect width="1" height="1" transform="translate(8 7)"/><rect width="1" height="1" transform="translate(8 12)"/><rect width="1" height="1" transform="translate(64 7)"/><rect width="1" height="1" transform="translate(64 12)"/><rect width="1" height="1" transform="translate(11 6)"/><rect width="1" height="1" transform="translate(10 6)"/><rect width="1" height="1" transform="translate(10 11)"/><rect width="1" height="1" transform="translate(62 6)"/><rect width="1" height="1" transform="translate(62 11)"/><rect width="1" height="1" transform="translate(9 6)"/><rect width="1" height="1" transform="translate(9 11)"/><rect width="1" height="1" transform="translate(63 6)"/><rect width="1" height="1" transform="translate(63 11)"/><rect width="1" height="1" transform="translate(11 6)"/><rect width="1" height="1" transform="translate(10 6)"/><rect width="1" height="1" transform="translate(10 11)"/><rect width="1" height="1" transform="translate(62 6)"/><rect width="1" height="1" transform="translate(62 11)"/><rect width="1" height="1" transform="translate(9 6)"/><rect width="1" height="1" transform="translate(9 11)"/><rect width="1" height="1" transform="translate(63 6)"/><rect width="1" height="1" transform="translate(63 11)"/><rect width="1" height="1" transform="translate(11 5)"/><rect width="1" height="1" transform="translate(67 7)"/><rect width="1" height="1" transform="translate(6 4)"/><rect width="1" height="1" transform="translate(63 4)"/><rect width="1" height="1" transform="translate(1 3)"/><rect width="1" height="1" transform="translate(67 3)"/><rect width="1" height="1" transform="translate(16 5)"/><rect width="1" height="1" transform="translate(13 4)"/><rect width="1" height="1" transform="translate(8 3)"/><rect width="1" height="1" transform="translate(65 3)"/><rect width="1" height="1" transform="translate(3 2)"/><rect width="1" height="1" transform="translate(69 2)"/><rect width="1" height="1" transform="translate(16 3)"/><rect width="1" height="1" transform="translate(22 5)"/><rect width="1" height="1" transform="translate(19 4)"/><rect width="1" height="1" transform="translate(22 3)"/><rect width="1" height="1" transform="translate(28 5)"/><rect width="1" height="1" transform="translate(25 4)"/><rect width="1" height="1" transform="translate(28 3)"/><rect width="1" height="1" transform="translate(34 5)"/><rect width="1" height="1" transform="translate(31 4)"/><rect width="1" height="1" transform="translate(34 3)"/><rect width="1" height="1" transform="translate(40 5)"/><rect width="1" height="1" transform="translate(37 4)"/><rect width="1" height="1" transform="translate(40 3)"/><rect width="1" height="1" transform="translate(46 5)"/><rect width="1" height="1" transform="translate(43 4)"/><rect width="1" height="1" transform="translate(46 3)"/><rect width="1" height="1" transform="translate(52 5)"/><rect width="1" height="1" transform="translate(49 4)"/><rect width="1" height="1" transform="translate(61 13)"/><rect width="1" height="1" transform="translate(52 3)"/><rect width="1" height="1" transform="translate(57 5)"/><rect width="1" height="1" transform="translate(54 4)"/><rect width="1" height="1" transform="translate(57 3)"/><rect width="1" height="1" transform="translate(11 3)"/><rect width="1" height="1" transform="translate(67 5)"/><rect width="1" height="1" transform="translate(6 2)"/><rect width="1" height="1" transform="translate(63 2)"/><rect width="1" height="1" transform="translate(1 1)"/><rect width="1" height="1" transform="translate(67 1)"/><rect width="1" height="1" transform="translate(10 5)"/><rect width="1" height="1" transform="translate(66 7)"/><rect width="1" height="1" transform="translate(5 4)"/><rect width="1" height="1" transform="translate(62 4)"/><rect width="1" height="1" transform="translate(71 3)"/><rect width="1" height="1" transform="translate(10 10)"/><rect width="1" height="1" transform="translate(15 5)"/><rect width="1" height="1" transform="translate(10 4)"/><rect width="1" height="1" transform="translate(66 6)"/><rect width="1" height="1" transform="translate(5 3)"/><rect width="1" height="1" transform="translate(62 3)"/><rect width="1" height="1" transform="translate(11 14)"/><rect width="1" height="1" transform="translate(12 4)"/><rect width="1" height="1" transform="translate(68 6)"/><rect width="1" height="1" transform="translate(7 3)"/><rect width="1" height="1" transform="translate(64 3)"/><rect width="1" height="1" transform="translate(2 2)"/><rect width="1" height="1" transform="translate(68 2)"/><rect width="1" height="1" transform="translate(15 3)"/><rect width="1" height="1" transform="translate(10 2)"/><rect width="1" height="1" transform="translate(66 4)"/><rect width="1" height="1" transform="translate(5 1)"/><rect width="1" height="1" transform="translate(62 1)"/><rect width="1" height="1" transform="translate(11 12)"/><rect width="1" height="1" transform="translate(12 12)"/><rect width="1" height="1" transform="translate(13 12)"/><rect width="1" height="1" transform="translate(12 13)"/><rect width="1" height="1" transform="translate(12 13)"/><rect width="1" height="1" transform="translate(12 14)"/><rect width="1" height="1" transform="translate(13 13)"/><rect width="1" height="1" transform="translate(14 12)"/><rect width="1" height="1" transform="translate(21 5)"/><rect width="1" height="1" transform="translate(18 4)"/><rect width="1" height="1" transform="translate(21 3)"/><rect width="1" height="1" transform="translate(27 5)"/><rect width="1" height="1" transform="translate(24 4)"/><rect width="1" height="1" transform="translate(27 3)"/><rect width="1" height="1" transform="translate(33 5)"/><rect width="1" height="1" transform="translate(30 4)"/><rect width="1" height="1" transform="translate(33 3)"/><rect width="1" height="1" transform="translate(39 5)"/><rect width="1" height="1" transform="translate(36 4)"/><rect width="1" height="1" transform="translate(39 3)"/><rect width="1" height="1" transform="translate(45 5)"/><rect width="1" height="1" transform="translate(42 4)"/><rect width="1" height="1" transform="translate(45 3)"/><rect width="1" height="1" transform="translate(51 5)"/><rect width="1" height="1" transform="translate(48 4)"/><rect width="1" height="1" transform="translate(60 13)"/><rect width="1" height="1" transform="translate(51 3)"/><rect width="1" height="1" transform="translate(56 5)"/><rect width="1" height="1" transform="translate(55 4)"/><rect width="1" height="1" transform="translate(56 3)"/><rect width="1" height="1" transform="translate(10 3)"/><rect width="1" height="1" transform="translate(66 5)"/><rect width="1" height="1" transform="translate(5 2)"/><rect width="1" height="1" transform="translate(62 2)"/><rect width="1" height="1" transform="translate(71 1)"/><rect width="1" height="1" transform="translate(10 8)"/><rect width="1" height="1" transform="translate(62 5)"/><rect width="1" height="1" transform="translate(62 10)"/><rect width="1" height="1" transform="translate(62 3)"/><rect width="1" height="1" transform="translate(11 4)"/><rect width="1" height="1" transform="translate(67 6)"/><rect width="1" height="1" transform="translate(6 3)"/><rect width="1" height="1" transform="translate(63 3)"/><rect width="1" height="1" transform="translate(1 2)"/><rect width="1" height="1" transform="translate(67 2)"/><rect width="1" height="1" transform="translate(11 2)"/><rect width="1" height="1" transform="translate(67 4)"/><rect width="1" height="1" transform="translate(6 1)"/><rect width="1" height="1" transform="translate(63 1)"/><rect width="1" height="1" transform="translate(1)"/><rect width="1" height="1" transform="translate(67)"/><rect width="1" height="1" transform="translate(15 9)"/><rect width="1" height="1" transform="translate(10 16)"/><rect width="1" height="1" transform="translate(61 16)"/><rect width="1" height="1" transform="translate(15 8)"/><rect width="1" height="1" transform="translate(15 7)"/><rect width="1" height="1" transform="translate(56 7)"/><rect width="1" height="1" transform="translate(15 6)"/><rect width="1" height="1" transform="translate(56 6)"/><rect width="1" height="1" transform="translate(8 19)"/><rect width="1" height="1" transform="translate(59 19)"/><rect width="1" height="1" transform="translate(9 20)"/><rect width="1" height="1" transform="translate(60 20)"/><rect width="1" height="1" transform="translate(10 21)"/><rect width="1" height="1" transform="translate(61 21)"/><rect width="1" height="1" transform="translate(11 21)"/><rect width="1" height="1" transform="translate(62 21)"/><rect width="1" height="1" transform="translate(12 20)"/><rect width="1" height="1" transform="translate(63 20)"/><rect width="1" height="1" transform="translate(59 11)"/><rect width="1" height="1" transform="translate(59 10)"/><rect width="1" height="1" transform="translate(59 9)"/><rect width="1" height="1" transform="translate(59 8)"/><rect width="1" height="1" transform="translate(59 7)"/><rect width="1" height="1" transform="translate(59 6)"/><rect width="1" height="1" transform="translate(59 6)"/><rect width="1" height="1" transform="translate(59 5)"/><rect width="1" height="1" transform="translate(59 3)"/><rect width="1" height="1" transform="translate(59 4)"/><rect width="1" height="1" transform="translate(59 2)"/><rect width="1" height="1" transform="translate(61 11)"/><rect width="1" height="1" transform="translate(61 10)"/><rect width="1" height="1" transform="translate(61 9)"/><rect width="1" height="1" transform="translate(61 8)"/><rect width="1" height="1" transform="translate(61 7)"/><rect width="1" height="1" transform="translate(61 6)"/><rect width="1" height="1" transform="translate(61 6)"/><rect width="1" height="1" transform="translate(61 5)"/><rect width="1" height="1" transform="translate(61 3)"/><rect width="1" height="1" transform="translate(61 4)"/><rect width="1" height="1" transform="translate(61 2)"/><rect width="1" height="1" transform="translate(58 11)"/><rect width="1" height="1" transform="translate(58 10)"/><rect width="1" height="1" transform="translate(58 9)"/><rect width="1" height="1" transform="translate(58 8)"/><rect width="1" height="1" transform="translate(58 7)"/><rect width="1" height="1" transform="translate(58 6)"/><rect width="1" height="1" transform="translate(58 6)"/><rect width="1" height="1" transform="translate(58 5)"/><rect width="1" height="1" transform="translate(58 3)"/><rect width="1" height="1" transform="translate(58 4)"/><rect width="1" height="1" transform="translate(58 2)"/><rect width="1" height="1" transform="translate(60 11)"/><rect width="1" height="1" transform="translate(60 10)"/><rect width="1" height="1" transform="translate(60 9)"/><rect width="1" height="1" transform="translate(60 8)"/><rect width="1" height="1" transform="translate(60 7)"/><rect width="1" height="1" transform="translate(60 6)"/><rect width="1" height="1" transform="translate(60 6)"/><rect width="1" height="1" transform="translate(60 5)"/><rect width="1" height="1" transform="translate(60 3)"/><rect width="1" height="1" transform="translate(60 4)"/><rect width="1" height="1" transform="translate(56 4)"/><rect width="1" height="1" transform="translate(60 2)"/><rect width="1" height="1" transform="translate(0 3)"/><rect width="1" height="1" transform="translate(0 1)"/></svg>