<svg id="Brick_-_Large_-_Weakest" data-name="Brick - Large - Weakest" xmlns="http://www.w3.org/2000/svg" width="35" height="15" viewBox="0 0 35 15">
  <path id="Union_9" data-name="Union 9" d="M-2007-27v-1h1v1Zm-1,0v-1h1v1Zm-1,0v-1h1v1Zm-1,0v-1h1v1Zm-1,0v-1h1v1Zm-1,0v-1h1v1Zm-1,0v-1h1v1Zm-1,0v-1h1v1Zm-1,0v-1h1v1Zm-3,0v-1h1v1Zm-1,0v-1h1v1Zm-1,0v-1h1v1Zm-1,0v-1h1v1Zm-1,0v-1h1v1Zm-1,0v-1h1v1Zm-1,0v-1h1v1Zm-1,0v-1h1v1Zm-1,0v-1h1v1Zm-3,0v-1h1v1Zm-1,0v-1h1v1Zm-1,0v-1h1v1Zm-1,0v-1h1v1Zm-1,0v-1h1v1Zm-1,0v-1h1v1Zm-1,0v-1h1v1Zm-1,0v-1h1v1Zm-1,0v-1h1v1Zm30-1v-1h1v1Zm-1,0v-1h1v1Zm-1,0v-1h1v1Zm-1,0v-1h1v1Zm-1,0v-1h1v1Zm-1,0v-1h1v1Zm-1,0v-1h1v1Zm-1,0v-1h1v1Zm-1,0h-1v-1h2v1Zm-2,0h-1v-1h2v1Zm-2,0v-1h1v1Zm-1,0v-1h1v1Zm-1,0v-1h1v1Zm-1,0v-1h1v1Zm-1,0v-1h1v1Zm-1,0v-1h1v1Zm-1,0v-1h1v1Zm-1,0h-1v-1h-1v-1h2v1h1v1Zm-2,0h-1v-1h2v1Zm-2,0v-1h1v1Zm-1,0v-1h1v1Zm-1,0v-1h1v1Zm-1,0v-1h1v1Zm-1,0v-1h1v1Zm-1,0v-1h1v1Zm-1,0v-1h1v1Zm-1,0v-1h-2v-1h2v1h1v1Zm32-1h-1v-1h2v1Zm0-1h-1v-9h2v9Zm-33,0h-1v-9h2v9Zm33-9h-1v-1h-1v-1h1v1h2v1Zm-11,0v-1h1v1Zm-1,0v-1h-1v-1h0v-1h1v1h3v1h-2v1Zm-10,0v-1h1v1Zm-1,0v-1h-1v-1h0v-1h1v1h3v1h-2v1Zm-10,0h-1v-1h2v1Zm30-1v-1h1v1Zm-1,0v-1h1v1Zm-1,0v-1h1v1Zm-1,0v-1h1v1Zm-1,0v-1h1v1Zm-1,0v-1h1v1Zm-1,0v-1h1v1Zm-5,0v-1h1v1Zm-1,0v-1h1v1Zm-1,0v-1h1v1Zm-1,0v-1h1v1Zm-1,0v-1h1v1Zm-1,0v-1h1v1Zm-1,0v-1h1v1Zm-5,0v-1h1v1Zm-1,0v-1h1v1Zm-1,0v-1h1v1Zm-1,0v-1h1v1Zm-1,0v-1h1v1Zm-1,0v-1h1v1Zm-1,0v-1h1v1Zm-1,0v-1h1v1Zm30-1v-1h1v1Zm-1,0v-1h1v1Zm-1,0v-1h1v1Zm-1,0v-1h1v1Zm-1,0v-1h1v1Zm-1,0v-1h1v1Zm-1,0v-1h1v1Zm-1,0v-1h1v1Zm-1,0v-1h1v1Zm-4,0v-1h1v1Zm-1,0v-1h1v1Zm-1,0v-1h1v1Zm-1,0v-1h1v1Zm-1,0v-1h1v1Zm-1,0v-1h1v1Zm-1,0v-1h1v1Zm-1,0v-1h1v1Zm-4,0v-1h1v1Zm-1,0v-1h1v1Zm-1,0v-1h1v1Zm-1,0v-1h1v1Zm-1,0v-1h1v1Zm-1,0v-1h1v1Zm-1,0v-1h1v1Zm-1,0v-1h1v1Z" transform="translate(2039 42)"/>
</svg>
