<svg xmlns="http://www.w3.org/2000/svg" width="35" height="15" viewBox="0 0 35 15"><rect width="1" height="1" transform="translate(1 2)"/><rect width="1" height="1" transform="translate(34 2)"/><rect width="1" height="1" transform="translate(1 2)"/><rect width="1" height="1" transform="translate(34 2)"/><rect width="1" height="1" transform="translate(0 2)"/><rect width="1" height="1" transform="translate(33 2)"/><rect width="1" height="1" transform="translate(0 2)"/><rect width="1" height="1" transform="translate(33 2)"/><rect width="1" height="1" transform="translate(1 11)"/><rect width="1" height="1" transform="translate(34 11)"/><rect width="1" height="1" transform="translate(1 11)"/><rect width="1" height="1" transform="translate(34 11)"/><rect width="1" height="1" transform="translate(0 11)"/><rect width="1" height="1" transform="translate(33 11)"/><rect width="1" height="1" transform="translate(0 11)"/><rect width="1" height="1" transform="translate(33 11)"/><rect width="1" height="1" transform="translate(1 10)"/><rect width="1" height="1" transform="translate(34 10)"/><rect width="1" height="1" transform="translate(1 10)"/><rect width="1" height="1" transform="translate(34 10)"/><rect width="1" height="1" transform="translate(0 10)"/><rect width="1" height="1" transform="translate(33 10)"/><rect width="1" height="1" transform="translate(0 10)"/><rect width="1" height="1" transform="translate(33 10)"/><rect width="1" height="1" transform="translate(1 9)"/><rect width="1" height="1" transform="translate(34 9)"/><rect width="1" height="1" transform="translate(1 9)"/><rect width="1" height="1" transform="translate(34 9)"/><rect width="1" height="1" transform="translate(0 9)"/><rect width="1" height="1" transform="translate(33 9)"/><rect width="1" height="1" transform="translate(0 9)"/><rect width="1" height="1" transform="translate(33 9)"/><rect width="1" height="1" transform="translate(1 8)"/><rect width="1" height="1" transform="translate(34 8)"/><rect width="1" height="1" transform="translate(1 8)"/><rect width="1" height="1" transform="translate(34 8)"/><rect width="1" height="1" transform="translate(0 8)"/><rect width="1" height="1" transform="translate(33 8)"/><rect width="1" height="1" transform="translate(0 8)"/><rect width="1" height="1" transform="translate(33 8)"/><rect width="1" height="1" transform="translate(1 7)"/><rect width="1" height="1" transform="translate(34 7)"/><rect width="1" height="1" transform="translate(1 7)"/><rect width="1" height="1" transform="translate(34 7)"/><rect width="1" height="1" transform="translate(0 7)"/><rect width="1" height="1" transform="translate(33 7)"/><rect width="1" height="1" transform="translate(0 7)"/><rect width="1" height="1" transform="translate(33 7)"/><rect width="1" height="1" transform="translate(1 6)"/><rect width="1" height="1" transform="translate(34 6)"/><rect width="1" height="1" transform="translate(1 6)"/><rect width="1" height="1" transform="translate(34 6)"/><rect width="1" height="1" transform="translate(0 6)"/><rect width="1" height="1" transform="translate(33 6)"/><rect width="1" height="1" transform="translate(0 6)"/><rect width="1" height="1" transform="translate(33 6)"/><rect width="1" height="1" transform="translate(1 5)"/><rect width="1" height="1" transform="translate(34 5)"/><rect width="1" height="1" transform="translate(1 5)"/><rect width="1" height="1" transform="translate(34 5)"/><rect width="1" height="1" transform="translate(0 5)"/><rect width="1" height="1" transform="translate(33 5)"/><rect width="1" height="1" transform="translate(0 5)"/><rect width="1" height="1" transform="translate(33 5)"/><rect width="1" height="1" transform="translate(1 4)"/><rect width="1" height="1" transform="translate(34 4)"/><rect width="1" height="1" transform="translate(1 4)"/><rect width="1" height="1" transform="translate(34 4)"/><rect width="1" height="1" transform="translate(0 4)"/><rect width="1" height="1" transform="translate(33 4)"/><rect width="1" height="1" transform="translate(0 4)"/><rect width="1" height="1" transform="translate(33 4)"/><rect width="1" height="1" transform="translate(1 3)"/><rect width="1" height="1" transform="translate(34 3)"/><rect width="1" height="1" transform="translate(1 3)"/><rect width="1" height="1" transform="translate(34 3)"/><rect width="1" height="1" transform="translate(0 3)"/><rect width="1" height="1" transform="translate(33 3)"/><rect width="1" height="1" transform="translate(0 3)"/><rect width="1" height="1" transform="translate(33 3)"/><rect width="1" height="1" transform="translate(2)"/><rect width="1" height="1" transform="translate(13)"/><rect width="1" height="1" transform="translate(24)"/><rect width="1" height="1" transform="translate(13 13)"/><rect width="1" height="1" transform="translate(24 13)"/><rect width="1" height="1" transform="translate(2 13)"/><rect width="1" height="1" transform="translate(2 14)"/><rect width="1" height="1" transform="translate(2 1)"/><rect width="1" height="1" transform="translate(13 1)"/><rect width="1" height="1" transform="translate(24 1)"/><rect width="1" height="1" transform="translate(12 1)"/><rect width="1" height="1" transform="translate(23 1)"/><rect width="1" height="1" transform="translate(12 12)"/><rect width="1" height="1" transform="translate(11 1)"/><rect width="1" height="1" transform="translate(22 1)"/><rect width="1" height="1" transform="translate(11 12)"/><rect width="1" height="1" transform="translate(11 2)"/><rect width="1" height="1" transform="translate(22 2)"/><rect width="1" height="1" transform="translate(11 13)"/><rect width="1" height="1" transform="translate(22 13)"/><rect width="1" height="1" transform="translate(12 2)"/><rect width="1" height="1" transform="translate(23 2)"/><rect width="1" height="1" transform="translate(12 13)"/><rect width="1" height="1" transform="translate(23 13)"/><rect width="1" height="1" transform="translate(13 14)"/><rect width="1" height="1" transform="translate(24 14)"/><rect width="1" height="1" transform="translate(3)"/><rect width="1" height="1" transform="translate(14)"/><rect width="1" height="1" transform="translate(25)"/><rect width="1" height="1" transform="translate(14 13)"/><rect width="1" height="1" transform="translate(25 13)"/><rect width="1" height="1" transform="translate(3 13)"/><rect width="1" height="1" transform="translate(3 14)"/><rect width="1" height="1" transform="translate(3 1)"/><rect width="1" height="1" transform="translate(14 1)"/><rect width="1" height="1" transform="translate(25 1)"/><rect width="1" height="1" transform="translate(14 14)"/><rect width="1" height="1" transform="translate(25 14)"/><rect width="1" height="1" transform="translate(4)"/><rect width="1" height="1" transform="translate(15)"/><rect width="1" height="1" transform="translate(26)"/><rect width="1" height="1" transform="translate(15 13)"/><rect width="1" height="1" transform="translate(26 13)"/><rect width="1" height="1" transform="translate(4 13)"/><rect width="1" height="1" transform="translate(4 14)"/><rect width="1" height="1" transform="translate(4 1)"/><rect width="1" height="1" transform="translate(15 1)"/><rect width="1" height="1" transform="translate(26 1)"/><rect width="1" height="1" transform="translate(15 14)"/><rect width="1" height="1" transform="translate(26 14)"/><rect width="1" height="1" transform="translate(5)"/><rect width="1" height="1" transform="translate(16)"/><rect width="1" height="1" transform="translate(27)"/><rect width="1" height="1" transform="translate(16 13)"/><rect width="1" height="1" transform="translate(27 13)"/><rect width="1" height="1" transform="translate(5 13)"/><rect width="1" height="1" transform="translate(5 14)"/><rect width="1" height="1" transform="translate(5 1)"/><rect width="1" height="1" transform="translate(16 1)"/><rect width="1" height="1" transform="translate(27 1)"/><rect width="1" height="1" transform="translate(16 14)"/><rect width="1" height="1" transform="translate(27 14)"/><rect width="1" height="1" transform="translate(6)"/><rect width="1" height="1" transform="translate(17)"/><rect width="1" height="1" transform="translate(28)"/><rect width="1" height="1" transform="translate(17 13)"/><rect width="1" height="1" transform="translate(28 13)"/><rect width="1" height="1" transform="translate(6 13)"/><rect width="1" height="1" transform="translate(6 14)"/><rect width="1" height="1" transform="translate(6 1)"/><rect width="1" height="1" transform="translate(17 1)"/><rect width="1" height="1" transform="translate(28 1)"/><rect width="1" height="1" transform="translate(17 14)"/><rect width="1" height="1" transform="translate(28 14)"/><rect width="1" height="1" transform="translate(7)"/><rect width="1" height="1" transform="translate(18)"/><rect width="1" height="1" transform="translate(29)"/><rect width="1" height="1" transform="translate(18 13)"/><rect width="1" height="1" transform="translate(29 13)"/><rect width="1" height="1" transform="translate(7 13)"/><rect width="1" height="1" transform="translate(7 14)"/><rect width="1" height="1" transform="translate(7 1)"/><rect width="1" height="1" transform="translate(18 1)"/><rect width="1" height="1" transform="translate(29 1)"/><rect width="1" height="1" transform="translate(18 14)"/><rect width="1" height="1" transform="translate(29 14)"/><rect width="1" height="1" transform="translate(8)"/><rect width="1" height="1" transform="translate(19)"/><rect width="1" height="1" transform="translate(30)"/><rect width="1" height="1" transform="translate(19 13)"/><rect width="1" height="1" transform="translate(30 13)"/><rect width="1" height="1" transform="translate(8 13)"/><rect width="1" height="1" transform="translate(8 14)"/><rect width="1" height="1" transform="translate(8 1)"/><rect width="1" height="1" transform="translate(19 1)"/><rect width="1" height="1" transform="translate(30 1)"/><rect width="1" height="1" transform="translate(19 14)"/><rect width="1" height="1" transform="translate(30 14)"/><rect width="1" height="1" transform="translate(9)"/><rect width="1" height="1" transform="translate(20)"/><rect width="1" height="1" transform="translate(31)"/><rect width="1" height="1" transform="translate(20 13)"/><rect width="1" height="1" transform="translate(31 13)"/><rect width="1" height="1" transform="translate(9 13)"/><rect width="1" height="1" transform="translate(9 14)"/><rect width="1" height="1" transform="translate(9 1)"/><rect width="1" height="1" transform="translate(20 1)"/><rect width="1" height="1" transform="translate(31 1)"/><rect width="1" height="1" transform="translate(20 14)"/><rect width="1" height="1" transform="translate(31 14)"/><rect width="1" height="1" transform="translate(10)"/><rect width="1" height="1" transform="translate(21)"/><rect width="1" height="1" transform="translate(32)"/><rect width="1" height="1" transform="translate(21 13)"/><rect width="1" height="1" transform="translate(32 13)"/><rect width="1" height="1" transform="translate(10 13)"/><rect width="1" height="1" transform="translate(10 14)"/><rect width="1" height="1" transform="translate(10 1)"/><rect width="1" height="1" transform="translate(21 1)"/><rect width="1" height="1" transform="translate(32 1)"/><rect width="1" height="1" transform="translate(21 14)"/><rect width="1" height="1" transform="translate(32 14)"/><rect width="1" height="1" transform="translate(1 12)"/><rect width="1" height="1" transform="translate(34 12)"/><rect width="1" height="1" transform="translate(1 12)"/><rect width="1" height="1" transform="translate(34 12)"/><rect width="1" height="1" transform="translate(0 12)"/><rect width="1" height="1" transform="translate(33 12)"/><rect width="1" height="1" transform="translate(0 12)"/><rect width="1" height="1" transform="translate(33 12)"/></svg>