<svg id="Brick_-_Small_-_Strong" data-name="Brick - Small - Strong" xmlns="http://www.w3.org/2000/svg" width="13" height="14.999" viewBox="0 0 13 14.999">
  <path id="Union_1" data-name="Union 1" d="M-1984,11V10h1v1Zm-1,0V10h1v1Zm-1,0V10h1v1Zm-1,0V10h1v1Zm-1,0V10h1v1Zm-1,0V10h1v1Zm-1,0V10h1v1Zm-1,0V10h1v1Zm-1,0V10h1v1Zm8-1v0h-1v0h-1v0h-1v0h-1v0h-1V0h6V-1h2V8h0V9h-2v1Zm-6,0V9h1v1Zm-1,0V9h1v1Zm-1,0V9h-2V8h2V9h1v1Zm-1-2h-1V-1h2V8Zm11-9h-1V-2h-1V-3h1v1h2v1Zm-11,0h-1V-2h2v1Zm8-1V-3h1v1Zm-1,0V-3h1v1Zm-1,0V-3h1v1Zm-1,0V-3h1v1Zm-1,0V-3h1v1Zm-1,0V-3h1v1Zm-1,0V-3h1v1Zm-1,0V-3h1v1Zm8-1V-4h1v1Zm-1,0V-4h1v1Zm-1,0V-4h1v1Zm-1,0V-4h1v1Zm-1,0V-4h1v1Zm-1,0V-4h1v1Zm-1,0V-4h1v1Zm-1,0V-4h1v1Zm-1,0V-4h1v1Z" transform="translate(1994 4)"/>
</svg>
