<svg id="Brick_-_Medium_-_Weak" data-name="Brick - Medium - Weak" xmlns="http://www.w3.org/2000/svg" width="24" height="15" viewBox="0 0 24 15">
  <rect id="Rectangle_13962" data-name="Rectangle 13962" width="1" height="1" transform="translate(1 2)"/>
  <rect id="Rectangle_13968" data-name="Rectangle 13968" width="1" height="1" transform="translate(23 2)"/>
  <rect id="Rectangle_13977" data-name="Rectangle 13977" width="1" height="1" transform="translate(1 2)"/>
  <rect id="Rectangle_13983" data-name="Rectangle 13983" width="1" height="1" transform="translate(23 2)"/>
  <rect id="Rectangle_13992" data-name="Rectangle 13992" width="1" height="1" transform="translate(0 2)"/>
  <rect id="Rectangle_13998" data-name="Rectangle 13998" width="1" height="1" transform="translate(22 2)"/>
  <rect id="Rectangle_14007" data-name="Rectangle 14007" width="1" height="1" transform="translate(0 2)"/>
  <rect id="Rectangle_14013" data-name="Rectangle 14013" width="1" height="1" transform="translate(22 2)"/>
  <rect id="Rectangle_14038" data-name="Rectangle 14038" width="1" height="1" transform="translate(1 11)"/>
  <rect id="Rectangle_14044" data-name="Rectangle 14044" width="1" height="1" transform="translate(23 11)"/>
  <rect id="Rectangle_14053" data-name="Rectangle 14053" width="1" height="1" transform="translate(1 11)"/>
  <rect id="Rectangle_14059" data-name="Rectangle 14059" width="1" height="1" transform="translate(23 11)"/>
  <rect id="Rectangle_14068" data-name="Rectangle 14068" width="1" height="1" transform="translate(0 11)"/>
  <rect id="Rectangle_14074" data-name="Rectangle 14074" width="1" height="1" transform="translate(22 11)"/>
  <rect id="Rectangle_14083" data-name="Rectangle 14083" width="1" height="1" transform="translate(0 11)"/>
  <rect id="Rectangle_14089" data-name="Rectangle 14089" width="1" height="1" transform="translate(22 11)"/>
  <rect id="Rectangle_14114" data-name="Rectangle 14114" width="1" height="1" transform="translate(1 10)"/>
  <rect id="Rectangle_14120" data-name="Rectangle 14120" width="1" height="1" transform="translate(23 10)"/>
  <rect id="Rectangle_14129" data-name="Rectangle 14129" width="1" height="1" transform="translate(1 10)"/>
  <rect id="Rectangle_14135" data-name="Rectangle 14135" width="1" height="1" transform="translate(23 10)"/>
  <rect id="Rectangle_14144" data-name="Rectangle 14144" width="1" height="1" transform="translate(0 10)"/>
  <rect id="Rectangle_14150" data-name="Rectangle 14150" width="1" height="1" transform="translate(22 10)"/>
  <rect id="Rectangle_14159" data-name="Rectangle 14159" width="1" height="1" transform="translate(0 10)"/>
  <rect id="Rectangle_14165" data-name="Rectangle 14165" width="1" height="1" transform="translate(22 10)"/>
  <rect id="Rectangle_14190" data-name="Rectangle 14190" width="1" height="1" transform="translate(1 9)"/>
  <rect id="Rectangle_14196" data-name="Rectangle 14196" width="1" height="1" transform="translate(23 9)"/>
  <rect id="Rectangle_14205" data-name="Rectangle 14205" width="1" height="1" transform="translate(1 9)"/>
  <rect id="Rectangle_14211" data-name="Rectangle 14211" width="1" height="1" transform="translate(23 9)"/>
  <rect id="Rectangle_14220" data-name="Rectangle 14220" width="1" height="1" transform="translate(0 9)"/>
  <rect id="Rectangle_14226" data-name="Rectangle 14226" width="1" height="1" transform="translate(22 9)"/>
  <rect id="Rectangle_14235" data-name="Rectangle 14235" width="1" height="1" transform="translate(0 9)"/>
  <rect id="Rectangle_14241" data-name="Rectangle 14241" width="1" height="1" transform="translate(22 9)"/>
  <rect id="Rectangle_14266" data-name="Rectangle 14266" width="1" height="1" transform="translate(1 8)"/>
  <rect id="Rectangle_14272" data-name="Rectangle 14272" width="1" height="1" transform="translate(23 8)"/>
  <rect id="Rectangle_14281" data-name="Rectangle 14281" width="1" height="1" transform="translate(1 8)"/>
  <rect id="Rectangle_14287" data-name="Rectangle 14287" width="1" height="1" transform="translate(23 8)"/>
  <rect id="Rectangle_14296" data-name="Rectangle 14296" width="1" height="1" transform="translate(0 8)"/>
  <rect id="Rectangle_14302" data-name="Rectangle 14302" width="1" height="1" transform="translate(22 8)"/>
  <rect id="Rectangle_14311" data-name="Rectangle 14311" width="1" height="1" transform="translate(0 8)"/>
  <rect id="Rectangle_14317" data-name="Rectangle 14317" width="1" height="1" transform="translate(22 8)"/>
  <rect id="Rectangle_14342" data-name="Rectangle 14342" width="1" height="1" transform="translate(1 7)"/>
  <rect id="Rectangle_14348" data-name="Rectangle 14348" width="1" height="1" transform="translate(23 7)"/>
  <rect id="Rectangle_14357" data-name="Rectangle 14357" width="1" height="1" transform="translate(1 7)"/>
  <rect id="Rectangle_14363" data-name="Rectangle 14363" width="1" height="1" transform="translate(23 7)"/>
  <rect id="Rectangle_14372" data-name="Rectangle 14372" width="1" height="1" transform="translate(0 7)"/>
  <rect id="Rectangle_14378" data-name="Rectangle 14378" width="1" height="1" transform="translate(22 7)"/>
  <rect id="Rectangle_14387" data-name="Rectangle 14387" width="1" height="1" transform="translate(0 7)"/>
  <rect id="Rectangle_14393" data-name="Rectangle 14393" width="1" height="1" transform="translate(22 7)"/>
  <rect id="Rectangle_14418" data-name="Rectangle 14418" width="1" height="1" transform="translate(1 6)"/>
  <rect id="Rectangle_14424" data-name="Rectangle 14424" width="1" height="1" transform="translate(23 6)"/>
  <rect id="Rectangle_14433" data-name="Rectangle 14433" width="1" height="1" transform="translate(1 6)"/>
  <rect id="Rectangle_14439" data-name="Rectangle 14439" width="1" height="1" transform="translate(23 6)"/>
  <rect id="Rectangle_14448" data-name="Rectangle 14448" width="1" height="1" transform="translate(0 6)"/>
  <rect id="Rectangle_14454" data-name="Rectangle 14454" width="1" height="1" transform="translate(22 6)"/>
  <rect id="Rectangle_14463" data-name="Rectangle 14463" width="1" height="1" transform="translate(0 6)"/>
  <rect id="Rectangle_14469" data-name="Rectangle 14469" width="1" height="1" transform="translate(22 6)"/>
  <rect id="Rectangle_14494" data-name="Rectangle 14494" width="1" height="1" transform="translate(1 5)"/>
  <rect id="Rectangle_14500" data-name="Rectangle 14500" width="1" height="1" transform="translate(23 5)"/>
  <rect id="Rectangle_14509" data-name="Rectangle 14509" width="1" height="1" transform="translate(1 5)"/>
  <rect id="Rectangle_14515" data-name="Rectangle 14515" width="1" height="1" transform="translate(23 5)"/>
  <rect id="Rectangle_14524" data-name="Rectangle 14524" width="1" height="1" transform="translate(0 5)"/>
  <rect id="Rectangle_14530" data-name="Rectangle 14530" width="1" height="1" transform="translate(22 5)"/>
  <rect id="Rectangle_14539" data-name="Rectangle 14539" width="1" height="1" transform="translate(0 5)"/>
  <rect id="Rectangle_14545" data-name="Rectangle 14545" width="1" height="1" transform="translate(22 5)"/>
  <rect id="Rectangle_14570" data-name="Rectangle 14570" width="1" height="1" transform="translate(1 4)"/>
  <rect id="Rectangle_14576" data-name="Rectangle 14576" width="1" height="1" transform="translate(23 4)"/>
  <rect id="Rectangle_14585" data-name="Rectangle 14585" width="1" height="1" transform="translate(1 4)"/>
  <rect id="Rectangle_14591" data-name="Rectangle 14591" width="1" height="1" transform="translate(23 4)"/>
  <rect id="Rectangle_14600" data-name="Rectangle 14600" width="1" height="1" transform="translate(0 4)"/>
  <rect id="Rectangle_14606" data-name="Rectangle 14606" width="1" height="1" transform="translate(22 4)"/>
  <rect id="Rectangle_14615" data-name="Rectangle 14615" width="1" height="1" transform="translate(0 4)"/>
  <rect id="Rectangle_14621" data-name="Rectangle 14621" width="1" height="1" transform="translate(22 4)"/>
  <rect id="Rectangle_14646" data-name="Rectangle 14646" width="1" height="1" transform="translate(1 3)"/>
  <rect id="Rectangle_14652" data-name="Rectangle 14652" width="1" height="1" transform="translate(23 3)"/>
  <rect id="Rectangle_14661" data-name="Rectangle 14661" width="1" height="1" transform="translate(1 3)"/>
  <rect id="Rectangle_14667" data-name="Rectangle 14667" width="1" height="1" transform="translate(23 3)"/>
  <rect id="Rectangle_14676" data-name="Rectangle 14676" width="1" height="1" transform="translate(0 3)"/>
  <rect id="Rectangle_14682" data-name="Rectangle 14682" width="1" height="1" transform="translate(22 3)"/>
  <rect id="Rectangle_14691" data-name="Rectangle 14691" width="1" height="1" transform="translate(0 3)"/>
  <rect id="Rectangle_14697" data-name="Rectangle 14697" width="1" height="1" transform="translate(22 3)"/>
  <rect id="Rectangle_14722" data-name="Rectangle 14722" width="1" height="1" transform="translate(2)"/>
  <rect id="Rectangle_14727" data-name="Rectangle 14727" width="1" height="1" transform="translate(13)"/>
  <rect id="Rectangle_14735" data-name="Rectangle 14735" width="1" height="1" transform="translate(13 13)"/>
  <rect id="Rectangle_14747" data-name="Rectangle 14747" width="1" height="1" transform="translate(2 13)"/>
  <rect id="Rectangle_14756" data-name="Rectangle 14756" width="1" height="1" transform="translate(2 14)"/>
  <rect id="Rectangle_14765" data-name="Rectangle 14765" width="1" height="1" transform="translate(2 1)"/>
  <rect id="Rectangle_14770" data-name="Rectangle 14770" width="1" height="1" transform="translate(13 1)"/>
  <rect id="Rectangle_14778" data-name="Rectangle 14778" width="1" height="1" transform="translate(12 1)"/>
  <rect id="Rectangle_14786" data-name="Rectangle 14786" width="1" height="1" transform="translate(12 12)"/>
  <rect id="Rectangle_14791" data-name="Rectangle 14791" width="1" height="1" transform="translate(11 1)"/>
  <rect id="Rectangle_14799" data-name="Rectangle 14799" width="1" height="1" transform="translate(11 12)"/>
  <rect id="Rectangle_14804" data-name="Rectangle 14804" width="1" height="1" transform="translate(11 2)"/>
  <rect id="Rectangle_14812" data-name="Rectangle 14812" width="1" height="1" transform="translate(11 13)"/>
  <rect id="Rectangle_14820" data-name="Rectangle 14820" width="1" height="1" transform="translate(12 2)"/>
  <rect id="Rectangle_14828" data-name="Rectangle 14828" width="1" height="1" transform="translate(12 13)"/>
  <rect id="Rectangle_14836" data-name="Rectangle 14836" width="1" height="1" transform="translate(13 14)"/>
  <rect id="Rectangle_14848" data-name="Rectangle 14848" width="1" height="1" transform="translate(3)"/>
  <rect id="Rectangle_14853" data-name="Rectangle 14853" width="1" height="1" transform="translate(14)"/>
  <rect id="Rectangle_14861" data-name="Rectangle 14861" width="1" height="1" transform="translate(14 13)"/>
  <rect id="Rectangle_14873" data-name="Rectangle 14873" width="1" height="1" transform="translate(3 13)"/>
  <rect id="Rectangle_14882" data-name="Rectangle 14882" width="1" height="1" transform="translate(3 14)"/>
  <rect id="Rectangle_14891" data-name="Rectangle 14891" width="1" height="1" transform="translate(3 1)"/>
  <rect id="Rectangle_14896" data-name="Rectangle 14896" width="1" height="1" transform="translate(14 1)"/>
  <rect id="Rectangle_14904" data-name="Rectangle 14904" width="1" height="1" transform="translate(14 14)"/>
  <rect id="Rectangle_14916" data-name="Rectangle 14916" width="1" height="1" transform="translate(4)"/>
  <rect id="Rectangle_14922" data-name="Rectangle 14922" width="1" height="1" transform="translate(15)"/>
  <rect id="Rectangle_14931" data-name="Rectangle 14931" width="1" height="1" transform="translate(15 13)"/>
  <rect id="Rectangle_14943" data-name="Rectangle 14943" width="1" height="1" transform="translate(4 13)"/>
  <rect id="Rectangle_14952" data-name="Rectangle 14952" width="1" height="1" transform="translate(4 14)"/>
  <rect id="Rectangle_14961" data-name="Rectangle 14961" width="1" height="1" transform="translate(4 1)"/>
  <rect id="Rectangle_14967" data-name="Rectangle 14967" width="1" height="1" transform="translate(15 1)"/>
  <rect id="Rectangle_14976" data-name="Rectangle 14976" width="1" height="1" transform="translate(15 14)"/>
  <rect id="Rectangle_14988" data-name="Rectangle 14988" width="1" height="1" transform="translate(5)"/>
  <rect id="Rectangle_14994" data-name="Rectangle 14994" width="1" height="1" transform="translate(16)"/>
  <rect id="Rectangle_15003" data-name="Rectangle 15003" width="1" height="1" transform="translate(16 13)"/>
  <rect id="Rectangle_15015" data-name="Rectangle 15015" width="1" height="1" transform="translate(5 13)"/>
  <rect id="Rectangle_15024" data-name="Rectangle 15024" width="1" height="1" transform="translate(5 14)"/>
  <rect id="Rectangle_15033" data-name="Rectangle 15033" width="1" height="1" transform="translate(5 1)"/>
  <rect id="Rectangle_15039" data-name="Rectangle 15039" width="1" height="1" transform="translate(16 1)"/>
  <rect id="Rectangle_15048" data-name="Rectangle 15048" width="1" height="1" transform="translate(16 14)"/>
  <rect id="Rectangle_15060" data-name="Rectangle 15060" width="1" height="1" transform="translate(6)"/>
  <rect id="Rectangle_15066" data-name="Rectangle 15066" width="1" height="1" transform="translate(17)"/>
  <rect id="Rectangle_15075" data-name="Rectangle 15075" width="1" height="1" transform="translate(17 13)"/>
  <rect id="Rectangle_15087" data-name="Rectangle 15087" width="1" height="1" transform="translate(6 13)"/>
  <rect id="Rectangle_15096" data-name="Rectangle 15096" width="1" height="1" transform="translate(6 14)"/>
  <rect id="Rectangle_15105" data-name="Rectangle 15105" width="1" height="1" transform="translate(10 4)"/>
  <rect id="Rectangle_15106" data-name="Rectangle 15106" width="1" height="1" transform="translate(16 4)"/>
  <rect id="Rectangle_15107" data-name="Rectangle 15107" width="1" height="1" transform="translate(22 4)"/>
  <rect id="Rectangle_15113" data-name="Rectangle 15113" width="1" height="1" transform="translate(9 5)"/>
  <rect id="Rectangle_15114" data-name="Rectangle 15114" width="1" height="1" transform="translate(15 5)"/>
  <rect id="Rectangle_15115" data-name="Rectangle 15115" width="1" height="1" transform="translate(21 5)"/>
  <rect id="Rectangle_15121" data-name="Rectangle 15121" width="1" height="1" transform="translate(8 4)"/>
  <rect id="Rectangle_15122" data-name="Rectangle 15122" width="1" height="1" transform="translate(14 4)"/>
  <rect id="Rectangle_15123" data-name="Rectangle 15123" width="1" height="1" transform="translate(20 4)"/>
  <rect id="Rectangle_15131" data-name="Rectangle 15131" width="1" height="1" transform="translate(7 5)"/>
  <rect id="Rectangle_15132" data-name="Rectangle 15132" width="1" height="1" transform="translate(13 5)"/>
  <rect id="Rectangle_15133" data-name="Rectangle 15133" width="1" height="1" transform="translate(19 5)"/>
  <rect id="Rectangle_15141" data-name="Rectangle 15141" width="1" height="1" transform="translate(6 4)"/>
  <rect id="Rectangle_15142" data-name="Rectangle 15142" width="1" height="1" transform="translate(12 4)"/>
  <rect id="Rectangle_15143" data-name="Rectangle 15143" width="1" height="1" transform="translate(18 4)"/>
  <rect id="Rectangle_15149" data-name="Rectangle 15149" width="1" height="1" transform="translate(5 5)"/>
  <rect id="Rectangle_15150" data-name="Rectangle 15150" width="1" height="1" transform="translate(11 5)"/>
  <rect id="Rectangle_15151" data-name="Rectangle 15151" width="1" height="1" transform="translate(17 5)"/>
  <rect id="Rectangle_15157" data-name="Rectangle 15157" width="1" height="1" transform="translate(6 6)"/>
  <rect id="Rectangle_15158" data-name="Rectangle 15158" width="1" height="1" transform="translate(12 6)"/>
  <rect id="Rectangle_15159" data-name="Rectangle 15159" width="1" height="1" transform="translate(18 6)"/>
  <rect id="Rectangle_15165" data-name="Rectangle 15165" width="1" height="1" transform="translate(5 7)"/>
  <rect id="Rectangle_15166" data-name="Rectangle 15166" width="1" height="1" transform="translate(11 7)"/>
  <rect id="Rectangle_15167" data-name="Rectangle 15167" width="1" height="1" transform="translate(17 7)"/>
  <rect id="Rectangle_15173" data-name="Rectangle 15173" width="1" height="1" transform="translate(6 8)"/>
  <rect id="Rectangle_15174" data-name="Rectangle 15174" width="1" height="1" transform="translate(12 8)"/>
  <rect id="Rectangle_15175" data-name="Rectangle 15175" width="1" height="1" transform="translate(18 8)"/>
  <rect id="Rectangle_15181" data-name="Rectangle 15181" width="1" height="1" transform="translate(10 8)"/>
  <rect id="Rectangle_15182" data-name="Rectangle 15182" width="1" height="1" transform="translate(16 8)"/>
  <rect id="Rectangle_15183" data-name="Rectangle 15183" width="1" height="1" transform="translate(22 8)"/>
  <rect id="Rectangle_15189" data-name="Rectangle 15189" width="1" height="1" transform="translate(9 9)"/>
  <rect id="Rectangle_15190" data-name="Rectangle 15190" width="1" height="1" transform="translate(15 9)"/>
  <rect id="Rectangle_15191" data-name="Rectangle 15191" width="1" height="1" transform="translate(21 9)"/>
  <rect id="Rectangle_15197" data-name="Rectangle 15197" width="1" height="1" transform="translate(5 9)"/>
  <rect id="Rectangle_15198" data-name="Rectangle 15198" width="1" height="1" transform="translate(11 9)"/>
  <rect id="Rectangle_15199" data-name="Rectangle 15199" width="1" height="1" transform="translate(17 9)"/>
  <rect id="Rectangle_15205" data-name="Rectangle 15205" width="1" height="1" transform="translate(7 7)"/>
  <rect id="Rectangle_15206" data-name="Rectangle 15206" width="1" height="1" transform="translate(13 7)"/>
  <rect id="Rectangle_15207" data-name="Rectangle 15207" width="1" height="1" transform="translate(19 7)"/>
  <rect id="Rectangle_15215" data-name="Rectangle 15215" width="1" height="1" transform="translate(8 6)"/>
  <rect id="Rectangle_15216" data-name="Rectangle 15216" width="1" height="1" transform="translate(14 6)"/>
  <rect id="Rectangle_15217" data-name="Rectangle 15217" width="1" height="1" transform="translate(20 6)"/>
  <rect id="Rectangle_15225" data-name="Rectangle 15225" width="1" height="1" transform="translate(9 7)"/>
  <rect id="Rectangle_15226" data-name="Rectangle 15226" width="1" height="1" transform="translate(15 7)"/>
  <rect id="Rectangle_15227" data-name="Rectangle 15227" width="1" height="1" transform="translate(21 7)"/>
  <rect id="Rectangle_15233" data-name="Rectangle 15233" width="1" height="1" transform="translate(8 8)"/>
  <rect id="Rectangle_15234" data-name="Rectangle 15234" width="1" height="1" transform="translate(14 8)"/>
  <rect id="Rectangle_15235" data-name="Rectangle 15235" width="1" height="1" transform="translate(20 8)"/>
  <rect id="Rectangle_15243" data-name="Rectangle 15243" width="1" height="1" transform="translate(7 9)"/>
  <rect id="Rectangle_15244" data-name="Rectangle 15244" width="1" height="1" transform="translate(13 9)"/>
  <rect id="Rectangle_15245" data-name="Rectangle 15245" width="1" height="1" transform="translate(19 9)"/>
  <rect id="Rectangle_15253" data-name="Rectangle 15253" width="1" height="1" transform="translate(6 10)"/>
  <rect id="Rectangle_15254" data-name="Rectangle 15254" width="1" height="1" transform="translate(12 10)"/>
  <rect id="Rectangle_15255" data-name="Rectangle 15255" width="1" height="1" transform="translate(18 10)"/>
  <rect id="Rectangle_15261" data-name="Rectangle 15261" width="1" height="1" transform="translate(5 11)"/>
  <rect id="Rectangle_15262" data-name="Rectangle 15262" width="1" height="1" transform="translate(11 11)"/>
  <rect id="Rectangle_15263" data-name="Rectangle 15263" width="1" height="1" transform="translate(17 11)"/>
  <rect id="Rectangle_15269" data-name="Rectangle 15269" width="1" height="1" transform="translate(6 12)"/>
  <rect id="Rectangle_15270" data-name="Rectangle 15270" width="1" height="1" transform="translate(12 12)"/>
  <rect id="Rectangle_15271" data-name="Rectangle 15271" width="1" height="1" transform="translate(18 12)"/>
  <rect id="Rectangle_15277" data-name="Rectangle 15277" width="1" height="1" transform="translate(7 11)"/>
  <rect id="Rectangle_15278" data-name="Rectangle 15278" width="1" height="1" transform="translate(13 11)"/>
  <rect id="Rectangle_15279" data-name="Rectangle 15279" width="1" height="1" transform="translate(19 11)"/>
  <rect id="Rectangle_15287" data-name="Rectangle 15287" width="1" height="1" transform="translate(8 12)"/>
  <rect id="Rectangle_15288" data-name="Rectangle 15288" width="1" height="1" transform="translate(14 12)"/>
  <rect id="Rectangle_15289" data-name="Rectangle 15289" width="1" height="1" transform="translate(20 12)"/>
  <rect id="Rectangle_15297" data-name="Rectangle 15297" width="1" height="1" transform="translate(9 11)"/>
  <rect id="Rectangle_15298" data-name="Rectangle 15298" width="1" height="1" transform="translate(15 11)"/>
  <rect id="Rectangle_15299" data-name="Rectangle 15299" width="1" height="1" transform="translate(21 11)"/>
  <rect id="Rectangle_15305" data-name="Rectangle 15305" width="1" height="1" transform="translate(10 12)"/>
  <rect id="Rectangle_15306" data-name="Rectangle 15306" width="1" height="1" transform="translate(16 12)"/>
  <rect id="Rectangle_15307" data-name="Rectangle 15307" width="1" height="1" transform="translate(22 12)"/>
  <rect id="Rectangle_15313" data-name="Rectangle 15313" width="1" height="1" transform="translate(10 10)"/>
  <rect id="Rectangle_15314" data-name="Rectangle 15314" width="1" height="1" transform="translate(16 10)"/>
  <rect id="Rectangle_15315" data-name="Rectangle 15315" width="1" height="1" transform="translate(22 10)"/>
  <rect id="Rectangle_15321" data-name="Rectangle 15321" width="1" height="1" transform="translate(8 10)"/>
  <rect id="Rectangle_15322" data-name="Rectangle 15322" width="1" height="1" transform="translate(14 10)"/>
  <rect id="Rectangle_15323" data-name="Rectangle 15323" width="1" height="1" transform="translate(20 10)"/>
  <rect id="Rectangle_15331" data-name="Rectangle 15331" width="1" height="1" transform="translate(10 6)"/>
  <rect id="Rectangle_15332" data-name="Rectangle 15332" width="1" height="1" transform="translate(16 6)"/>
  <rect id="Rectangle_15333" data-name="Rectangle 15333" width="1" height="1" transform="translate(22 6)"/>
  <rect id="Rectangle_15339" data-name="Rectangle 15339" width="1" height="1" transform="translate(6 1)"/>
  <rect id="Rectangle_15345" data-name="Rectangle 15345" width="1" height="1" transform="translate(17 1)"/>
  <rect id="Rectangle_15354" data-name="Rectangle 15354" width="1" height="1" transform="translate(17 14)"/>
  <rect id="Rectangle_15366" data-name="Rectangle 15366" width="1" height="1" transform="translate(7)"/>
  <rect id="Rectangle_15372" data-name="Rectangle 15372" width="1" height="1" transform="translate(18)"/>
  <rect id="Rectangle_15381" data-name="Rectangle 15381" width="1" height="1" transform="translate(18 13)"/>
  <rect id="Rectangle_15393" data-name="Rectangle 15393" width="1" height="1" transform="translate(7 13)"/>
  <rect id="Rectangle_15402" data-name="Rectangle 15402" width="1" height="1" transform="translate(7 14)"/>
  <rect id="Rectangle_15411" data-name="Rectangle 15411" width="1" height="1" transform="translate(7 1)"/>
  <rect id="Rectangle_15417" data-name="Rectangle 15417" width="1" height="1" transform="translate(18 1)"/>
  <rect id="Rectangle_15426" data-name="Rectangle 15426" width="1" height="1" transform="translate(18 14)"/>
  <rect id="Rectangle_15438" data-name="Rectangle 15438" width="1" height="1" transform="translate(8)"/>
  <rect id="Rectangle_15444" data-name="Rectangle 15444" width="1" height="1" transform="translate(19)"/>
  <rect id="Rectangle_15453" data-name="Rectangle 15453" width="1" height="1" transform="translate(19 13)"/>
  <rect id="Rectangle_15465" data-name="Rectangle 15465" width="1" height="1" transform="translate(8 13)"/>
  <rect id="Rectangle_15474" data-name="Rectangle 15474" width="1" height="1" transform="translate(8 14)"/>
  <rect id="Rectangle_15483" data-name="Rectangle 15483" width="1" height="1" transform="translate(8 1)"/>
  <rect id="Rectangle_15489" data-name="Rectangle 15489" width="1" height="1" transform="translate(19 1)"/>
  <rect id="Rectangle_15498" data-name="Rectangle 15498" width="1" height="1" transform="translate(19 14)"/>
  <rect id="Rectangle_15510" data-name="Rectangle 15510" width="1" height="1" transform="translate(9)"/>
  <rect id="Rectangle_15516" data-name="Rectangle 15516" width="1" height="1" transform="translate(20)"/>
  <rect id="Rectangle_15525" data-name="Rectangle 15525" width="1" height="1" transform="translate(20 13)"/>
  <rect id="Rectangle_15537" data-name="Rectangle 15537" width="1" height="1" transform="translate(9 13)"/>
  <rect id="Rectangle_15546" data-name="Rectangle 15546" width="1" height="1" transform="translate(9 14)"/>
  <rect id="Rectangle_15555" data-name="Rectangle 15555" width="1" height="1" transform="translate(9 1)"/>
  <rect id="Rectangle_15561" data-name="Rectangle 15561" width="1" height="1" transform="translate(20 1)"/>
  <rect id="Rectangle_15570" data-name="Rectangle 15570" width="1" height="1" transform="translate(20 14)"/>
  <rect id="Rectangle_15582" data-name="Rectangle 15582" width="1" height="1" transform="translate(10)"/>
  <rect id="Rectangle_15588" data-name="Rectangle 15588" width="1" height="1" transform="translate(21)"/>
  <rect id="Rectangle_15597" data-name="Rectangle 15597" width="1" height="1" transform="translate(21 13)"/>
  <rect id="Rectangle_15609" data-name="Rectangle 15609" width="1" height="1" transform="translate(10 13)"/>
  <rect id="Rectangle_15618" data-name="Rectangle 15618" width="1" height="1" transform="translate(10 14)"/>
  <rect id="Rectangle_15627" data-name="Rectangle 15627" width="1" height="1" transform="translate(10 1)"/>
  <rect id="Rectangle_15633" data-name="Rectangle 15633" width="1" height="1" transform="translate(21 1)"/>
  <rect id="Rectangle_15642" data-name="Rectangle 15642" width="1" height="1" transform="translate(21 14)"/>
  <rect id="Rectangle_15654" data-name="Rectangle 15654" width="1" height="1" transform="translate(1 12)"/>
  <rect id="Rectangle_15660" data-name="Rectangle 15660" width="1" height="1" transform="translate(23 12)"/>
  <rect id="Rectangle_15669" data-name="Rectangle 15669" width="1" height="1" transform="translate(1 12)"/>
  <rect id="Rectangle_15675" data-name="Rectangle 15675" width="1" height="1" transform="translate(23 12)"/>
  <rect id="Rectangle_15684" data-name="Rectangle 15684" width="1" height="1" transform="translate(0 12)"/>
  <rect id="Rectangle_15690" data-name="Rectangle 15690" width="1" height="1" transform="translate(22 12)"/>
  <rect id="Rectangle_15699" data-name="Rectangle 15699" width="1" height="1" transform="translate(0 12)"/>
  <rect id="Rectangle_15705" data-name="Rectangle 15705" width="1" height="1" transform="translate(22 12)"/>
</svg>
