<svg id="Brick_-_Small_-_Strong" data-name="Brick - Small - Strong" xmlns="http://www.w3.org/2000/svg" width="13" height="15" viewBox="0 0 13 15">
  <rect id="Rectangle_13624" data-name="Rectangle 13624" width="1" height="1" transform="translate(1 2)"/>
  <rect id="Rectangle_13625" data-name="Rectangle 13625" width="1" height="1" transform="translate(1 2)"/>
  <rect id="Rectangle_13627" data-name="Rectangle 13627" width="1" height="1" transform="translate(1 2)"/>
  <rect id="Rectangle_13628" data-name="Rectangle 13628" width="1" height="1" transform="translate(1 2)"/>
  <rect id="Rectangle_13630" data-name="Rectangle 13630" width="1" height="1" transform="translate(0 2)"/>
  <rect id="Rectangle_13631" data-name="Rectangle 13631" width="1" height="1" transform="translate(0 2)"/>
  <rect id="Rectangle_13633" data-name="Rectangle 13633" width="1" height="1" transform="translate(0 2)"/>
  <rect id="Rectangle_13634" data-name="Rectangle 13634" width="1" height="1" transform="translate(0 2)"/>
  <rect id="Rectangle_13636" data-name="Rectangle 13636" width="1" height="1" transform="translate(11 2)"/>
  <rect id="Rectangle_13637" data-name="Rectangle 13637" width="1" height="1" transform="translate(11 2)"/>
  <rect id="Rectangle_13638" data-name="Rectangle 13638" width="1" height="1" transform="translate(12 2)"/>
  <rect id="Rectangle_13639" data-name="Rectangle 13639" width="1" height="1" transform="translate(12 2)"/>
  <rect id="Rectangle_13640" data-name="Rectangle 13640" width="1" height="1" transform="translate(11 2)"/>
  <rect id="Rectangle_13641" data-name="Rectangle 13641" width="1" height="1" transform="translate(11 2)"/>
  <rect id="Rectangle_13642" data-name="Rectangle 13642" width="1" height="1" transform="translate(12 2)"/>
  <rect id="Rectangle_13643" data-name="Rectangle 13643" width="1" height="1" transform="translate(12 2)"/>
  <rect id="Rectangle_13789" data-name="Rectangle 13789" width="1" height="1" transform="translate(1 11)"/>
  <rect id="Rectangle_13790" data-name="Rectangle 13790" width="1" height="1" transform="translate(1 11)"/>
  <rect id="Rectangle_13792" data-name="Rectangle 13792" width="1" height="1" transform="translate(1 11)"/>
  <rect id="Rectangle_13793" data-name="Rectangle 13793" width="1" height="1" transform="translate(1 11)"/>
  <rect id="Rectangle_13795" data-name="Rectangle 13795" width="1" height="1" transform="translate(0 11)"/>
  <rect id="Rectangle_13796" data-name="Rectangle 13796" width="1" height="1" transform="translate(0 11)"/>
  <rect id="Rectangle_13798" data-name="Rectangle 13798" width="1" height="1" transform="translate(0 11)"/>
  <rect id="Rectangle_13799" data-name="Rectangle 13799" width="1" height="1" transform="translate(0 11)"/>
  <rect id="Rectangle_13801" data-name="Rectangle 13801" width="1" height="1" transform="translate(11 11)"/>
  <rect id="Rectangle_13802" data-name="Rectangle 13802" width="1" height="1" transform="translate(11 11)"/>
  <rect id="Rectangle_13803" data-name="Rectangle 13803" width="1" height="1" transform="translate(12 11)"/>
  <rect id="Rectangle_13804" data-name="Rectangle 13804" width="1" height="1" transform="translate(12 11)"/>
  <rect id="Rectangle_13805" data-name="Rectangle 13805" width="1" height="1" transform="translate(11 11)"/>
  <rect id="Rectangle_13806" data-name="Rectangle 13806" width="1" height="1" transform="translate(11 11)"/>
  <rect id="Rectangle_13807" data-name="Rectangle 13807" width="1" height="1" transform="translate(12 11)"/>
  <rect id="Rectangle_13808" data-name="Rectangle 13808" width="1" height="1" transform="translate(12 11)"/>
  <rect id="Rectangle_13809" data-name="Rectangle 13809" width="1" height="1" transform="translate(1 10)"/>
  <rect id="Rectangle_13810" data-name="Rectangle 13810" width="1" height="1" transform="translate(1 10)"/>
  <rect id="Rectangle_13812" data-name="Rectangle 13812" width="1" height="1" transform="translate(1 10)"/>
  <rect id="Rectangle_13813" data-name="Rectangle 13813" width="1" height="1" transform="translate(1 10)"/>
  <rect id="Rectangle_13815" data-name="Rectangle 13815" width="1" height="1" transform="translate(0 10)"/>
  <rect id="Rectangle_13816" data-name="Rectangle 13816" width="1" height="1" transform="translate(0 10)"/>
  <rect id="Rectangle_13818" data-name="Rectangle 13818" width="1" height="1" transform="translate(0 10)"/>
  <rect id="Rectangle_13819" data-name="Rectangle 13819" width="1" height="1" transform="translate(0 10)"/>
  <rect id="Rectangle_13821" data-name="Rectangle 13821" width="1" height="1" transform="translate(11 10)"/>
  <rect id="Rectangle_13822" data-name="Rectangle 13822" width="1" height="1" transform="translate(11 10)"/>
  <rect id="Rectangle_13823" data-name="Rectangle 13823" width="1" height="1" transform="translate(12 10)"/>
  <rect id="Rectangle_13824" data-name="Rectangle 13824" width="1" height="1" transform="translate(12 10)"/>
  <rect id="Rectangle_13825" data-name="Rectangle 13825" width="1" height="1" transform="translate(11 10)"/>
  <rect id="Rectangle_13826" data-name="Rectangle 13826" width="1" height="1" transform="translate(11 10)"/>
  <rect id="Rectangle_13827" data-name="Rectangle 13827" width="1" height="1" transform="translate(12 10)"/>
  <rect id="Rectangle_13828" data-name="Rectangle 13828" width="1" height="1" transform="translate(12 10)"/>
  <rect id="Rectangle_13829" data-name="Rectangle 13829" width="1" height="1" transform="translate(1 9)"/>
  <rect id="Rectangle_13830" data-name="Rectangle 13830" width="1" height="1" transform="translate(1 9)"/>
  <rect id="Rectangle_13832" data-name="Rectangle 13832" width="1" height="1" transform="translate(1 9)"/>
  <rect id="Rectangle_13833" data-name="Rectangle 13833" width="1" height="1" transform="translate(1 9)"/>
  <rect id="Rectangle_13835" data-name="Rectangle 13835" width="1" height="1" transform="translate(0 9)"/>
  <rect id="Rectangle_13836" data-name="Rectangle 13836" width="1" height="1" transform="translate(0 9)"/>
  <rect id="Rectangle_13838" data-name="Rectangle 13838" width="1" height="1" transform="translate(0 9)"/>
  <rect id="Rectangle_13839" data-name="Rectangle 13839" width="1" height="1" transform="translate(0 9)"/>
  <rect id="Rectangle_13841" data-name="Rectangle 13841" width="1" height="1" transform="translate(11 9)"/>
  <rect id="Rectangle_13842" data-name="Rectangle 13842" width="1" height="1" transform="translate(11 9)"/>
  <rect id="Rectangle_13843" data-name="Rectangle 13843" width="1" height="1" transform="translate(12 9)"/>
  <rect id="Rectangle_13844" data-name="Rectangle 13844" width="1" height="1" transform="translate(12 9)"/>
  <rect id="Rectangle_13845" data-name="Rectangle 13845" width="1" height="1" transform="translate(11 9)"/>
  <rect id="Rectangle_13846" data-name="Rectangle 13846" width="1" height="1" transform="translate(11 9)"/>
  <rect id="Rectangle_13847" data-name="Rectangle 13847" width="1" height="1" transform="translate(12 9)"/>
  <rect id="Rectangle_13848" data-name="Rectangle 13848" width="1" height="1" transform="translate(12 9)"/>
  <rect id="Rectangle_13644" data-name="Rectangle 13644" width="1" height="1" transform="translate(1 8)"/>
  <rect id="Rectangle_13645" data-name="Rectangle 13645" width="1" height="1" transform="translate(1 8)"/>
  <rect id="Rectangle_13647" data-name="Rectangle 13647" width="1" height="1" transform="translate(1 8)"/>
  <rect id="Rectangle_13648" data-name="Rectangle 13648" width="1" height="1" transform="translate(1 8)"/>
  <rect id="Rectangle_13650" data-name="Rectangle 13650" width="1" height="1" transform="translate(0 8)"/>
  <rect id="Rectangle_13651" data-name="Rectangle 13651" width="1" height="1" transform="translate(0 8)"/>
  <rect id="Rectangle_13653" data-name="Rectangle 13653" width="1" height="1" transform="translate(0 8)"/>
  <rect id="Rectangle_13654" data-name="Rectangle 13654" width="1" height="1" transform="translate(0 8)"/>
  <rect id="Rectangle_13656" data-name="Rectangle 13656" width="1" height="1" transform="translate(11 8)"/>
  <rect id="Rectangle_13657" data-name="Rectangle 13657" width="1" height="1" transform="translate(11 8)"/>
  <rect id="Rectangle_13658" data-name="Rectangle 13658" width="1" height="1" transform="translate(12 8)"/>
  <rect id="Rectangle_13659" data-name="Rectangle 13659" width="1" height="1" transform="translate(12 8)"/>
  <rect id="Rectangle_13660" data-name="Rectangle 13660" width="1" height="1" transform="translate(11 8)"/>
  <rect id="Rectangle_13661" data-name="Rectangle 13661" width="1" height="1" transform="translate(11 8)"/>
  <rect id="Rectangle_13662" data-name="Rectangle 13662" width="1" height="1" transform="translate(12 8)"/>
  <rect id="Rectangle_13663" data-name="Rectangle 13663" width="1" height="1" transform="translate(12 8)"/>
  <rect id="Rectangle_13664" data-name="Rectangle 13664" width="1" height="1" transform="translate(1 7)"/>
  <rect id="Rectangle_13665" data-name="Rectangle 13665" width="1" height="1" transform="translate(1 7)"/>
  <rect id="Rectangle_13667" data-name="Rectangle 13667" width="1" height="1" transform="translate(1 7)"/>
  <rect id="Rectangle_13668" data-name="Rectangle 13668" width="1" height="1" transform="translate(1 7)"/>
  <rect id="Rectangle_13670" data-name="Rectangle 13670" width="1" height="1" transform="translate(0 7)"/>
  <rect id="Rectangle_13671" data-name="Rectangle 13671" width="1" height="1" transform="translate(0 7)"/>
  <rect id="Rectangle_13673" data-name="Rectangle 13673" width="1" height="1" transform="translate(0 7)"/>
  <rect id="Rectangle_13674" data-name="Rectangle 13674" width="1" height="1" transform="translate(0 7)"/>
  <rect id="Rectangle_13676" data-name="Rectangle 13676" width="1" height="1" transform="translate(11 7)"/>
  <rect id="Rectangle_13677" data-name="Rectangle 13677" width="1" height="1" transform="translate(11 7)"/>
  <rect id="Rectangle_13678" data-name="Rectangle 13678" width="1" height="1" transform="translate(12 7)"/>
  <rect id="Rectangle_13679" data-name="Rectangle 13679" width="1" height="1" transform="translate(12 7)"/>
  <rect id="Rectangle_13680" data-name="Rectangle 13680" width="1" height="1" transform="translate(11 7)"/>
  <rect id="Rectangle_13681" data-name="Rectangle 13681" width="1" height="1" transform="translate(11 7)"/>
  <rect id="Rectangle_13682" data-name="Rectangle 13682" width="1" height="1" transform="translate(12 7)"/>
  <rect id="Rectangle_13683" data-name="Rectangle 13683" width="1" height="1" transform="translate(12 7)"/>
  <rect id="Rectangle_13684" data-name="Rectangle 13684" width="1" height="1" transform="translate(1 6)"/>
  <rect id="Rectangle_13685" data-name="Rectangle 13685" width="1" height="1" transform="translate(1 6)"/>
  <rect id="Rectangle_13687" data-name="Rectangle 13687" width="1" height="1" transform="translate(1 6)"/>
  <rect id="Rectangle_13688" data-name="Rectangle 13688" width="1" height="1" transform="translate(1 6)"/>
  <rect id="Rectangle_13690" data-name="Rectangle 13690" width="1" height="1" transform="translate(0 6)"/>
  <rect id="Rectangle_13691" data-name="Rectangle 13691" width="1" height="1" transform="translate(0 6)"/>
  <rect id="Rectangle_13693" data-name="Rectangle 13693" width="1" height="1" transform="translate(0 6)"/>
  <rect id="Rectangle_13694" data-name="Rectangle 13694" width="1" height="1" transform="translate(0 6)"/>
  <rect id="Rectangle_13696" data-name="Rectangle 13696" width="1" height="1" transform="translate(11 6)"/>
  <rect id="Rectangle_13697" data-name="Rectangle 13697" width="1" height="1" transform="translate(11 6)"/>
  <rect id="Rectangle_13698" data-name="Rectangle 13698" width="1" height="1" transform="translate(12 6)"/>
  <rect id="Rectangle_13699" data-name="Rectangle 13699" width="1" height="1" transform="translate(12 6)"/>
  <rect id="Rectangle_13700" data-name="Rectangle 13700" width="1" height="1" transform="translate(11 6)"/>
  <rect id="Rectangle_13701" data-name="Rectangle 13701" width="1" height="1" transform="translate(11 6)"/>
  <rect id="Rectangle_13702" data-name="Rectangle 13702" width="1" height="1" transform="translate(12 6)"/>
  <rect id="Rectangle_13703" data-name="Rectangle 13703" width="1" height="1" transform="translate(12 6)"/>
  <rect id="Rectangle_13704" data-name="Rectangle 13704" width="1" height="1" transform="translate(1 5)"/>
  <rect id="Rectangle_13705" data-name="Rectangle 13705" width="1" height="1" transform="translate(1 5)"/>
  <rect id="Rectangle_13707" data-name="Rectangle 13707" width="1" height="1" transform="translate(1 5)"/>
  <rect id="Rectangle_13708" data-name="Rectangle 13708" width="1" height="1" transform="translate(1 5)"/>
  <rect id="Rectangle_13710" data-name="Rectangle 13710" width="1" height="1" transform="translate(0 5)"/>
  <rect id="Rectangle_13711" data-name="Rectangle 13711" width="1" height="1" transform="translate(0 5)"/>
  <rect id="Rectangle_13713" data-name="Rectangle 13713" width="1" height="1" transform="translate(0 5)"/>
  <rect id="Rectangle_13714" data-name="Rectangle 13714" width="1" height="1" transform="translate(0 5)"/>
  <rect id="Rectangle_13716" data-name="Rectangle 13716" width="1" height="1" transform="translate(11 5)"/>
  <rect id="Rectangle_13717" data-name="Rectangle 13717" width="1" height="1" transform="translate(11 5)"/>
  <rect id="Rectangle_13718" data-name="Rectangle 13718" width="1" height="1" transform="translate(12 5)"/>
  <rect id="Rectangle_13719" data-name="Rectangle 13719" width="1" height="1" transform="translate(12 5)"/>
  <rect id="Rectangle_13720" data-name="Rectangle 13720" width="1" height="1" transform="translate(11 5)"/>
  <rect id="Rectangle_13721" data-name="Rectangle 13721" width="1" height="1" transform="translate(11 5)"/>
  <rect id="Rectangle_13722" data-name="Rectangle 13722" width="1" height="1" transform="translate(12 5)"/>
  <rect id="Rectangle_13723" data-name="Rectangle 13723" width="1" height="1" transform="translate(12 5)"/>
  <rect id="Rectangle_13724" data-name="Rectangle 13724" width="1" height="1" transform="translate(1 4)"/>
  <rect id="Rectangle_13725" data-name="Rectangle 13725" width="1" height="1" transform="translate(1 4)"/>
  <rect id="Rectangle_13727" data-name="Rectangle 13727" width="1" height="1" transform="translate(1 4)"/>
  <rect id="Rectangle_13728" data-name="Rectangle 13728" width="1" height="1" transform="translate(1 4)"/>
  <rect id="Rectangle_13730" data-name="Rectangle 13730" width="1" height="1" transform="translate(0 4)"/>
  <rect id="Rectangle_13731" data-name="Rectangle 13731" width="1" height="1" transform="translate(0 4)"/>
  <rect id="Rectangle_13733" data-name="Rectangle 13733" width="1" height="1" transform="translate(0 4)"/>
  <rect id="Rectangle_13734" data-name="Rectangle 13734" width="1" height="1" transform="translate(0 4)"/>
  <rect id="Rectangle_13736" data-name="Rectangle 13736" width="1" height="1" transform="translate(11 4)"/>
  <rect id="Rectangle_13737" data-name="Rectangle 13737" width="1" height="1" transform="translate(11 4)"/>
  <rect id="Rectangle_13738" data-name="Rectangle 13738" width="1" height="1" transform="translate(12 4)"/>
  <rect id="Rectangle_13739" data-name="Rectangle 13739" width="1" height="1" transform="translate(12 4)"/>
  <rect id="Rectangle_13740" data-name="Rectangle 13740" width="1" height="1" transform="translate(11 4)"/>
  <rect id="Rectangle_13741" data-name="Rectangle 13741" width="1" height="1" transform="translate(11 4)"/>
  <rect id="Rectangle_13742" data-name="Rectangle 13742" width="1" height="1" transform="translate(12 4)"/>
  <rect id="Rectangle_13743" data-name="Rectangle 13743" width="1" height="1" transform="translate(12 4)"/>
  <rect id="Rectangle_13744" data-name="Rectangle 13744" width="1" height="1" transform="translate(1 3)"/>
  <rect id="Rectangle_13745" data-name="Rectangle 13745" width="1" height="1" transform="translate(1 3)"/>
  <rect id="Rectangle_13747" data-name="Rectangle 13747" width="1" height="1" transform="translate(1 3)"/>
  <rect id="Rectangle_13748" data-name="Rectangle 13748" width="1" height="1" transform="translate(1 3)"/>
  <rect id="Rectangle_13750" data-name="Rectangle 13750" width="1" height="1" transform="translate(0 3)"/>
  <rect id="Rectangle_13751" data-name="Rectangle 13751" width="1" height="1" transform="translate(0 3)"/>
  <rect id="Rectangle_13753" data-name="Rectangle 13753" width="1" height="1" transform="translate(0 3)"/>
  <rect id="Rectangle_13754" data-name="Rectangle 13754" width="1" height="1" transform="translate(0 3)"/>
  <rect id="Rectangle_13756" data-name="Rectangle 13756" width="1" height="1" transform="translate(11 3)"/>
  <rect id="Rectangle_13757" data-name="Rectangle 13757" width="1" height="1" transform="translate(11 3)"/>
  <rect id="Rectangle_13758" data-name="Rectangle 13758" width="1" height="1" transform="translate(12 3)"/>
  <rect id="Rectangle_13759" data-name="Rectangle 13759" width="1" height="1" transform="translate(12 3)"/>
  <rect id="Rectangle_13760" data-name="Rectangle 13760" width="1" height="1" transform="translate(11 3)"/>
  <rect id="Rectangle_13761" data-name="Rectangle 13761" width="1" height="1" transform="translate(11 3)"/>
  <rect id="Rectangle_13762" data-name="Rectangle 13762" width="1" height="1" transform="translate(12 3)"/>
  <rect id="Rectangle_13763" data-name="Rectangle 13763" width="1" height="1" transform="translate(12 3)"/>
  <rect id="Rectangle_13612" data-name="Rectangle 13612" width="1" height="1" transform="translate(2)"/>
  <rect id="Rectangle_13613" data-name="Rectangle 13613" width="1" height="1" transform="translate(2)"/>
  <rect id="Rectangle_13852" data-name="Rectangle 13852" width="1" height="1" transform="translate(2 13)"/>
  <rect id="Rectangle_13853" data-name="Rectangle 13853" width="1" height="1" transform="translate(2 13)"/>
  <rect id="Rectangle_13855" data-name="Rectangle 13855" width="1" height="1" transform="translate(2 14)"/>
  <rect id="Rectangle_13856" data-name="Rectangle 13856" width="1" height="1" transform="translate(2 14)"/>
  <rect id="Rectangle_13764" data-name="Rectangle 13764" width="1" height="1" transform="translate(2 1)"/>
  <rect id="Rectangle_13765" data-name="Rectangle 13765" width="1" height="1" transform="translate(2 1)"/>
  <rect id="Rectangle_13614" data-name="Rectangle 13614" width="1" height="1" transform="translate(3)"/>
  <rect id="Rectangle_13615" data-name="Rectangle 13615" width="1" height="1" transform="translate(3)"/>
  <rect id="Rectangle_13872" data-name="Rectangle 13872" width="1" height="1" transform="translate(3 13)"/>
  <rect id="Rectangle_13873" data-name="Rectangle 13873" width="1" height="1" transform="translate(3 13)"/>
  <rect id="Rectangle_13875" data-name="Rectangle 13875" width="1" height="1" transform="translate(3 14)"/>
  <rect id="Rectangle_13876" data-name="Rectangle 13876" width="1" height="1" transform="translate(3 14)"/>
  <rect id="Rectangle_13766" data-name="Rectangle 13766" width="1" height="1" transform="translate(3 1)"/>
  <rect id="Rectangle_13767" data-name="Rectangle 13767" width="1" height="1" transform="translate(3 1)"/>
  <rect id="Rectangle_13616" data-name="Rectangle 13616" width="1" height="1" transform="translate(4)"/>
  <rect id="Rectangle_13617" data-name="Rectangle 13617" width="1" height="1" transform="translate(4)"/>
  <rect id="Rectangle_13882" data-name="Rectangle 13882" width="1" height="1" transform="translate(4 13)"/>
  <rect id="Rectangle_13883" data-name="Rectangle 13883" width="1" height="1" transform="translate(4 13)"/>
  <rect id="Rectangle_13885" data-name="Rectangle 13885" width="1" height="1" transform="translate(4 14)"/>
  <rect id="Rectangle_13886" data-name="Rectangle 13886" width="1" height="1" transform="translate(4 14)"/>
  <rect id="Rectangle_13768" data-name="Rectangle 13768" width="1" height="1" transform="translate(4 1)"/>
  <rect id="Rectangle_13769" data-name="Rectangle 13769" width="1" height="1" transform="translate(4 1)"/>
  <rect id="Rectangle_13618" data-name="Rectangle 13618" width="1" height="1" transform="translate(5)"/>
  <rect id="Rectangle_13619" data-name="Rectangle 13619" width="1" height="1" transform="translate(5)"/>
  <rect id="Rectangle_13890" data-name="Rectangle 13890" width="1" height="1" transform="translate(5 13)"/>
  <rect id="Rectangle_13891" data-name="Rectangle 13891" width="1" height="1" transform="translate(5 13)"/>
  <rect id="Rectangle_13893" data-name="Rectangle 13893" width="1" height="1" transform="translate(5 14)"/>
  <rect id="Rectangle_13894" data-name="Rectangle 13894" width="1" height="1" transform="translate(5 14)"/>
  <rect id="Rectangle_13770" data-name="Rectangle 13770" width="1" height="1" transform="translate(5 1)"/>
  <rect id="Rectangle_13771" data-name="Rectangle 13771" width="1" height="1" transform="translate(5 1)"/>
  <rect id="Rectangle_13620" data-name="Rectangle 13620" width="1" height="1" transform="translate(6)"/>
  <rect id="Rectangle_13621" data-name="Rectangle 13621" width="1" height="1" transform="translate(6)"/>
  <rect id="Rectangle_13898" data-name="Rectangle 13898" width="1" height="1" transform="translate(6 13)"/>
  <rect id="Rectangle_13899" data-name="Rectangle 13899" width="1" height="1" transform="translate(6 13)"/>
  <rect id="Rectangle_13901" data-name="Rectangle 13901" width="1" height="1" transform="translate(6 14)"/>
  <rect id="Rectangle_13902" data-name="Rectangle 13902" width="1" height="1" transform="translate(6 14)"/>
  <rect id="Rectangle_13772" data-name="Rectangle 13772" width="1" height="1" transform="translate(6 1)"/>
  <rect id="Rectangle_13773" data-name="Rectangle 13773" width="1" height="1" transform="translate(6 1)"/>
  <rect id="Rectangle_13622" data-name="Rectangle 13622" width="1" height="1" transform="translate(7)"/>
  <rect id="Rectangle_13623" data-name="Rectangle 13623" width="1" height="1" transform="translate(7)"/>
  <rect id="Rectangle_13906" data-name="Rectangle 13906" width="1" height="1" transform="translate(7 13)"/>
  <rect id="Rectangle_13907" data-name="Rectangle 13907" width="1" height="1" transform="translate(7 13)"/>
  <rect id="Rectangle_13909" data-name="Rectangle 13909" width="1" height="1" transform="translate(7 14)"/>
  <rect id="Rectangle_13910" data-name="Rectangle 13910" width="1" height="1" transform="translate(7 14)"/>
  <rect id="Rectangle_13774" data-name="Rectangle 13774" width="1" height="1" transform="translate(7 1)"/>
  <rect id="Rectangle_13775" data-name="Rectangle 13775" width="1" height="1" transform="translate(7 1)"/>
  <rect id="Rectangle_13776" data-name="Rectangle 13776" width="1" height="1" transform="translate(8)"/>
  <rect id="Rectangle_13777" data-name="Rectangle 13777" width="1" height="1" transform="translate(8)"/>
  <rect id="Rectangle_13914" data-name="Rectangle 13914" width="1" height="1" transform="translate(8 13)"/>
  <rect id="Rectangle_13915" data-name="Rectangle 13915" width="1" height="1" transform="translate(8 13)"/>
  <rect id="Rectangle_13917" data-name="Rectangle 13917" width="1" height="1" transform="translate(8 14)"/>
  <rect id="Rectangle_13918" data-name="Rectangle 13918" width="1" height="1" transform="translate(8 14)"/>
  <rect id="Rectangle_13778" data-name="Rectangle 13778" width="1" height="1" transform="translate(8 1)"/>
  <rect id="Rectangle_13779" data-name="Rectangle 13779" width="1" height="1" transform="translate(8 1)"/>
  <rect id="Rectangle_13780" data-name="Rectangle 13780" width="1" height="1" transform="translate(9)"/>
  <rect id="Rectangle_13781" data-name="Rectangle 13781" width="1" height="1" transform="translate(9)"/>
  <rect id="Rectangle_13922" data-name="Rectangle 13922" width="1" height="1" transform="translate(9 13)"/>
  <rect id="Rectangle_13923" data-name="Rectangle 13923" width="1" height="1" transform="translate(9 13)"/>
  <rect id="Rectangle_13925" data-name="Rectangle 13925" width="1" height="1" transform="translate(9 14)"/>
  <rect id="Rectangle_13926" data-name="Rectangle 13926" width="1" height="1" transform="translate(9 14)"/>
  <rect id="Rectangle_13782" data-name="Rectangle 13782" width="1" height="1" transform="translate(9 1)"/>
  <rect id="Rectangle_13783" data-name="Rectangle 13783" width="1" height="1" transform="translate(9 1)"/>
  <rect id="Rectangle_13784" data-name="Rectangle 13784" width="1" height="1" transform="translate(10)"/>
  <rect id="Rectangle_13785" data-name="Rectangle 13785" width="1" height="1" transform="translate(10)"/>
  <rect id="Rectangle_13930" data-name="Rectangle 13930" width="1" height="1" transform="translate(10 13)"/>
  <rect id="Rectangle_13931" data-name="Rectangle 13931" width="1" height="1" transform="translate(10 13)"/>
  <rect id="Rectangle_13933" data-name="Rectangle 13933" width="1" height="1" transform="translate(10 14)"/>
  <rect id="Rectangle_13934" data-name="Rectangle 13934" width="1" height="1" transform="translate(10 14)"/>
  <rect id="Rectangle_13786" data-name="Rectangle 13786" width="1" height="1" transform="translate(10 1)"/>
  <rect id="Rectangle_13787" data-name="Rectangle 13787" width="1" height="1" transform="translate(10 1)"/>
  <rect id="Rectangle_13937" data-name="Rectangle 13937" width="1" height="1" transform="translate(1 12)"/>
  <rect id="Rectangle_13938" data-name="Rectangle 13938" width="1" height="1" transform="translate(1 12)"/>
  <rect id="Rectangle_13940" data-name="Rectangle 13940" width="1" height="1" transform="translate(1 12)"/>
  <rect id="Rectangle_13941" data-name="Rectangle 13941" width="1" height="1" transform="translate(1 12)"/>
  <rect id="Rectangle_13943" data-name="Rectangle 13943" width="1" height="1" transform="translate(0 12)"/>
  <rect id="Rectangle_13944" data-name="Rectangle 13944" width="1" height="1" transform="translate(0 12)"/>
  <rect id="Rectangle_13946" data-name="Rectangle 13946" width="1" height="1" transform="translate(0 12)"/>
  <rect id="Rectangle_13947" data-name="Rectangle 13947" width="1" height="1" transform="translate(0 12)"/>
  <rect id="Rectangle_13949" data-name="Rectangle 13949" width="1" height="1" transform="translate(11 12)"/>
  <rect id="Rectangle_13950" data-name="Rectangle 13950" width="1" height="1" transform="translate(11 12)"/>
  <rect id="Rectangle_13951" data-name="Rectangle 13951" width="1" height="1" transform="translate(12 12)"/>
  <rect id="Rectangle_13952" data-name="Rectangle 13952" width="1" height="1" transform="translate(12 12)"/>
  <rect id="Rectangle_13953" data-name="Rectangle 13953" width="1" height="1" transform="translate(11 12)"/>
  <rect id="Rectangle_13954" data-name="Rectangle 13954" width="1" height="1" transform="translate(11 12)"/>
  <rect id="Rectangle_13955" data-name="Rectangle 13955" width="1" height="1" transform="translate(12 12)"/>
  <rect id="Rectangle_13956" data-name="Rectangle 13956" width="1" height="1" transform="translate(12 12)"/>
  <rect id="Rectangle_13788" data-name="Rectangle 13788" width="6" height="9" transform="translate(5 4)"/>
</svg>
