<svg id="Brick_-_Medium_-_Strong" data-name="Brick - Medium - Strong" xmlns="http://www.w3.org/2000/svg" width="23.999" height="14.999" viewBox="0 0 23.999 14.999">
  <path id="Union_2" data-name="Union 2" d="M-1990,11V10h1v1Zm-1,0V10h1v1Zm-1,0V10h1v1Zm-1,0V10h1v1Zm-1,0V10h1v1Zm-1,0V10h1v1Zm-1,0V10h1v1Zm-1,0V10h1v1Zm-1,0V10h1v1Zm-3,0V10h1v1Zm-1,0V10h1v1Zm-1,0V10h1v1Zm-1,0V10h1v1Zm-1,0V10h1v1Zm-1,0V10h1v1Zm-1,0V10h1v1Zm-1,0V10h1v1Zm-1,0V10h1v1Zm19-1v0h-1v0h-1v0h-1v0h-1v0h-1v0h-1v0h-1v0h-2v0h-2v0h-1v0h-1v0h-1v0h-1V0h16V-1h2V8h0V9h-2v1Zm-16,0V9h1v1Zm-1,0V9h1v1Zm-1,0V9h1v1Zm-1,0V9h-2V8h2V9h1v1Zm-1-2h-1V-1h2V8Zm22-9h-1V-2h-1V-3h1v1h2v1Zm-11,0V-2h1v1Zm-1,0V-2h-1V-3h0V-4h1v1h3v1h-2v1Zm-10,0h-1V-2h2v1Zm19-1V-3h1v1Zm-1,0V-3h1v1Zm-1,0V-3h1v1Zm-1,0V-3h1v1Zm-1,0V-3h1v1Zm-1,0V-3h1v1Zm-1,0V-3h1v1Zm-5,0V-3h1v1Zm-1,0V-3h1v1Zm-1,0V-3h1v1Zm-1,0V-3h1v1Zm-1,0V-3h1v1Zm-1,0V-3h1v1Zm-1,0V-3h1v1Zm-1,0V-3h1v1Zm19-1V-4h1v1Zm-1,0V-4h1v1Zm-1,0V-4h1v1Zm-1,0V-4h1v1Zm-1,0V-4h1v1Zm-1,0V-4h1v1Zm-1,0V-4h1v1Zm-1,0V-4h1v1Zm-1,0V-4h1v1Zm-4,0V-4h1v1Zm-1,0V-4h1v1Zm-1,0V-4h1v1Zm-1,0V-4h1v1Zm-1,0V-4h1v1Zm-1,0V-4h1v1Zm-1,0V-4h1v1Zm-1,0V-4h1v1Z" transform="translate(2011 4)"/>
</svg>
