<svg id="Brick_-_Small_-_Weakest" data-name="Brick - Small - Weakest" xmlns="http://www.w3.org/2000/svg" width="13" height="15" viewBox="0 0 13 15">
  <rect id="Rectangle_13959" data-name="Rectangle 13959" width="1" height="1" transform="translate(1 2)"/>
  <rect id="Rectangle_13961" data-name="Rectangle 13961" width="1" height="1" transform="translate(1 2)"/>
  <rect id="Rectangle_13974" data-name="Rectangle 13974" width="1" height="1" transform="translate(1 2)"/>
  <rect id="Rectangle_13976" data-name="Rectangle 13976" width="1" height="1" transform="translate(1 2)"/>
  <rect id="Rectangle_13989" data-name="Rectangle 13989" width="1" height="1" transform="translate(0 2)"/>
  <rect id="Rectangle_13991" data-name="Rectangle 13991" width="1" height="1" transform="translate(0 2)"/>
  <rect id="Rectangle_14004" data-name="Rectangle 14004" width="1" height="1" transform="translate(0 2)"/>
  <rect id="Rectangle_14006" data-name="Rectangle 14006" width="1" height="1" transform="translate(0 2)"/>
  <rect id="Rectangle_14019" data-name="Rectangle 14019" width="1" height="1" transform="translate(11 2)"/>
  <rect id="Rectangle_14021" data-name="Rectangle 14021" width="1" height="1" transform="translate(11 2)"/>
  <rect id="Rectangle_14023" data-name="Rectangle 14023" width="1" height="1" transform="translate(12 2)"/>
  <rect id="Rectangle_14025" data-name="Rectangle 14025" width="1" height="1" transform="translate(12 2)"/>
  <rect id="Rectangle_14027" data-name="Rectangle 14027" width="1" height="1" transform="translate(11 2)"/>
  <rect id="Rectangle_14029" data-name="Rectangle 14029" width="1" height="1" transform="translate(11 2)"/>
  <rect id="Rectangle_14031" data-name="Rectangle 14031" width="1" height="1" transform="translate(12 2)"/>
  <rect id="Rectangle_14033" data-name="Rectangle 14033" width="1" height="1" transform="translate(12 2)"/>
  <rect id="Rectangle_14035" data-name="Rectangle 14035" width="1" height="1" transform="translate(1 11)"/>
  <rect id="Rectangle_14037" data-name="Rectangle 14037" width="1" height="1" transform="translate(1 11)"/>
  <rect id="Rectangle_14050" data-name="Rectangle 14050" width="1" height="1" transform="translate(1 11)"/>
  <rect id="Rectangle_14052" data-name="Rectangle 14052" width="1" height="1" transform="translate(1 11)"/>
  <rect id="Rectangle_14065" data-name="Rectangle 14065" width="1" height="1" transform="translate(0 11)"/>
  <rect id="Rectangle_14067" data-name="Rectangle 14067" width="1" height="1" transform="translate(0 11)"/>
  <rect id="Rectangle_14080" data-name="Rectangle 14080" width="1" height="1" transform="translate(0 11)"/>
  <rect id="Rectangle_14082" data-name="Rectangle 14082" width="1" height="1" transform="translate(0 11)"/>
  <rect id="Rectangle_14095" data-name="Rectangle 14095" width="1" height="1" transform="translate(11 11)"/>
  <rect id="Rectangle_14097" data-name="Rectangle 14097" width="1" height="1" transform="translate(11 11)"/>
  <rect id="Rectangle_14099" data-name="Rectangle 14099" width="1" height="1" transform="translate(12 11)"/>
  <rect id="Rectangle_14101" data-name="Rectangle 14101" width="1" height="1" transform="translate(12 11)"/>
  <rect id="Rectangle_14103" data-name="Rectangle 14103" width="1" height="1" transform="translate(11 11)"/>
  <rect id="Rectangle_14105" data-name="Rectangle 14105" width="1" height="1" transform="translate(11 11)"/>
  <rect id="Rectangle_14107" data-name="Rectangle 14107" width="1" height="1" transform="translate(12 11)"/>
  <rect id="Rectangle_14109" data-name="Rectangle 14109" width="1" height="1" transform="translate(12 11)"/>
  <rect id="Rectangle_14111" data-name="Rectangle 14111" width="1" height="1" transform="translate(1 10)"/>
  <rect id="Rectangle_14113" data-name="Rectangle 14113" width="1" height="1" transform="translate(1 10)"/>
  <rect id="Rectangle_14126" data-name="Rectangle 14126" width="1" height="1" transform="translate(1 10)"/>
  <rect id="Rectangle_14128" data-name="Rectangle 14128" width="1" height="1" transform="translate(1 10)"/>
  <rect id="Rectangle_14141" data-name="Rectangle 14141" width="1" height="1" transform="translate(0 10)"/>
  <rect id="Rectangle_14143" data-name="Rectangle 14143" width="1" height="1" transform="translate(0 10)"/>
  <rect id="Rectangle_14156" data-name="Rectangle 14156" width="1" height="1" transform="translate(0 10)"/>
  <rect id="Rectangle_14158" data-name="Rectangle 14158" width="1" height="1" transform="translate(0 10)"/>
  <rect id="Rectangle_14171" data-name="Rectangle 14171" width="1" height="1" transform="translate(11 10)"/>
  <rect id="Rectangle_14173" data-name="Rectangle 14173" width="1" height="1" transform="translate(11 10)"/>
  <rect id="Rectangle_14175" data-name="Rectangle 14175" width="1" height="1" transform="translate(12 10)"/>
  <rect id="Rectangle_14177" data-name="Rectangle 14177" width="1" height="1" transform="translate(12 10)"/>
  <rect id="Rectangle_14179" data-name="Rectangle 14179" width="1" height="1" transform="translate(11 10)"/>
  <rect id="Rectangle_14181" data-name="Rectangle 14181" width="1" height="1" transform="translate(11 10)"/>
  <rect id="Rectangle_14183" data-name="Rectangle 14183" width="1" height="1" transform="translate(12 10)"/>
  <rect id="Rectangle_14185" data-name="Rectangle 14185" width="1" height="1" transform="translate(12 10)"/>
  <rect id="Rectangle_14187" data-name="Rectangle 14187" width="1" height="1" transform="translate(1 9)"/>
  <rect id="Rectangle_14189" data-name="Rectangle 14189" width="1" height="1" transform="translate(1 9)"/>
  <rect id="Rectangle_14202" data-name="Rectangle 14202" width="1" height="1" transform="translate(1 9)"/>
  <rect id="Rectangle_14204" data-name="Rectangle 14204" width="1" height="1" transform="translate(1 9)"/>
  <rect id="Rectangle_14217" data-name="Rectangle 14217" width="1" height="1" transform="translate(0 9)"/>
  <rect id="Rectangle_14219" data-name="Rectangle 14219" width="1" height="1" transform="translate(0 9)"/>
  <rect id="Rectangle_14232" data-name="Rectangle 14232" width="1" height="1" transform="translate(0 9)"/>
  <rect id="Rectangle_14234" data-name="Rectangle 14234" width="1" height="1" transform="translate(0 9)"/>
  <rect id="Rectangle_14247" data-name="Rectangle 14247" width="1" height="1" transform="translate(11 9)"/>
  <rect id="Rectangle_14249" data-name="Rectangle 14249" width="1" height="1" transform="translate(11 9)"/>
  <rect id="Rectangle_14251" data-name="Rectangle 14251" width="1" height="1" transform="translate(12 9)"/>
  <rect id="Rectangle_14253" data-name="Rectangle 14253" width="1" height="1" transform="translate(12 9)"/>
  <rect id="Rectangle_14255" data-name="Rectangle 14255" width="1" height="1" transform="translate(11 9)"/>
  <rect id="Rectangle_14257" data-name="Rectangle 14257" width="1" height="1" transform="translate(11 9)"/>
  <rect id="Rectangle_14259" data-name="Rectangle 14259" width="1" height="1" transform="translate(12 9)"/>
  <rect id="Rectangle_14261" data-name="Rectangle 14261" width="1" height="1" transform="translate(12 9)"/>
  <rect id="Rectangle_14263" data-name="Rectangle 14263" width="1" height="1" transform="translate(1 8)"/>
  <rect id="Rectangle_14265" data-name="Rectangle 14265" width="1" height="1" transform="translate(1 8)"/>
  <rect id="Rectangle_14278" data-name="Rectangle 14278" width="1" height="1" transform="translate(1 8)"/>
  <rect id="Rectangle_14280" data-name="Rectangle 14280" width="1" height="1" transform="translate(1 8)"/>
  <rect id="Rectangle_14293" data-name="Rectangle 14293" width="1" height="1" transform="translate(0 8)"/>
  <rect id="Rectangle_14295" data-name="Rectangle 14295" width="1" height="1" transform="translate(0 8)"/>
  <rect id="Rectangle_14308" data-name="Rectangle 14308" width="1" height="1" transform="translate(0 8)"/>
  <rect id="Rectangle_14310" data-name="Rectangle 14310" width="1" height="1" transform="translate(0 8)"/>
  <rect id="Rectangle_14323" data-name="Rectangle 14323" width="1" height="1" transform="translate(11 8)"/>
  <rect id="Rectangle_14325" data-name="Rectangle 14325" width="1" height="1" transform="translate(11 8)"/>
  <rect id="Rectangle_14327" data-name="Rectangle 14327" width="1" height="1" transform="translate(12 8)"/>
  <rect id="Rectangle_14329" data-name="Rectangle 14329" width="1" height="1" transform="translate(12 8)"/>
  <rect id="Rectangle_14331" data-name="Rectangle 14331" width="1" height="1" transform="translate(11 8)"/>
  <rect id="Rectangle_14333" data-name="Rectangle 14333" width="1" height="1" transform="translate(11 8)"/>
  <rect id="Rectangle_14335" data-name="Rectangle 14335" width="1" height="1" transform="translate(12 8)"/>
  <rect id="Rectangle_14337" data-name="Rectangle 14337" width="1" height="1" transform="translate(12 8)"/>
  <rect id="Rectangle_14339" data-name="Rectangle 14339" width="1" height="1" transform="translate(1 7)"/>
  <rect id="Rectangle_14341" data-name="Rectangle 14341" width="1" height="1" transform="translate(1 7)"/>
  <rect id="Rectangle_14354" data-name="Rectangle 14354" width="1" height="1" transform="translate(1 7)"/>
  <rect id="Rectangle_14356" data-name="Rectangle 14356" width="1" height="1" transform="translate(1 7)"/>
  <rect id="Rectangle_14369" data-name="Rectangle 14369" width="1" height="1" transform="translate(0 7)"/>
  <rect id="Rectangle_14371" data-name="Rectangle 14371" width="1" height="1" transform="translate(0 7)"/>
  <rect id="Rectangle_14384" data-name="Rectangle 14384" width="1" height="1" transform="translate(0 7)"/>
  <rect id="Rectangle_14386" data-name="Rectangle 14386" width="1" height="1" transform="translate(0 7)"/>
  <rect id="Rectangle_14399" data-name="Rectangle 14399" width="1" height="1" transform="translate(11 7)"/>
  <rect id="Rectangle_14401" data-name="Rectangle 14401" width="1" height="1" transform="translate(11 7)"/>
  <rect id="Rectangle_14403" data-name="Rectangle 14403" width="1" height="1" transform="translate(12 7)"/>
  <rect id="Rectangle_14405" data-name="Rectangle 14405" width="1" height="1" transform="translate(12 7)"/>
  <rect id="Rectangle_14407" data-name="Rectangle 14407" width="1" height="1" transform="translate(11 7)"/>
  <rect id="Rectangle_14409" data-name="Rectangle 14409" width="1" height="1" transform="translate(11 7)"/>
  <rect id="Rectangle_14411" data-name="Rectangle 14411" width="1" height="1" transform="translate(12 7)"/>
  <rect id="Rectangle_14413" data-name="Rectangle 14413" width="1" height="1" transform="translate(12 7)"/>
  <rect id="Rectangle_14415" data-name="Rectangle 14415" width="1" height="1" transform="translate(1 6)"/>
  <rect id="Rectangle_14417" data-name="Rectangle 14417" width="1" height="1" transform="translate(1 6)"/>
  <rect id="Rectangle_14430" data-name="Rectangle 14430" width="1" height="1" transform="translate(1 6)"/>
  <rect id="Rectangle_14432" data-name="Rectangle 14432" width="1" height="1" transform="translate(1 6)"/>
  <rect id="Rectangle_14445" data-name="Rectangle 14445" width="1" height="1" transform="translate(0 6)"/>
  <rect id="Rectangle_14447" data-name="Rectangle 14447" width="1" height="1" transform="translate(0 6)"/>
  <rect id="Rectangle_14460" data-name="Rectangle 14460" width="1" height="1" transform="translate(0 6)"/>
  <rect id="Rectangle_14462" data-name="Rectangle 14462" width="1" height="1" transform="translate(0 6)"/>
  <rect id="Rectangle_14475" data-name="Rectangle 14475" width="1" height="1" transform="translate(11 6)"/>
  <rect id="Rectangle_14477" data-name="Rectangle 14477" width="1" height="1" transform="translate(11 6)"/>
  <rect id="Rectangle_14479" data-name="Rectangle 14479" width="1" height="1" transform="translate(12 6)"/>
  <rect id="Rectangle_14481" data-name="Rectangle 14481" width="1" height="1" transform="translate(12 6)"/>
  <rect id="Rectangle_14483" data-name="Rectangle 14483" width="1" height="1" transform="translate(11 6)"/>
  <rect id="Rectangle_14485" data-name="Rectangle 14485" width="1" height="1" transform="translate(11 6)"/>
  <rect id="Rectangle_14487" data-name="Rectangle 14487" width="1" height="1" transform="translate(12 6)"/>
  <rect id="Rectangle_14489" data-name="Rectangle 14489" width="1" height="1" transform="translate(12 6)"/>
  <rect id="Rectangle_14491" data-name="Rectangle 14491" width="1" height="1" transform="translate(1 5)"/>
  <rect id="Rectangle_14493" data-name="Rectangle 14493" width="1" height="1" transform="translate(1 5)"/>
  <rect id="Rectangle_14506" data-name="Rectangle 14506" width="1" height="1" transform="translate(1 5)"/>
  <rect id="Rectangle_14508" data-name="Rectangle 14508" width="1" height="1" transform="translate(1 5)"/>
  <rect id="Rectangle_14521" data-name="Rectangle 14521" width="1" height="1" transform="translate(0 5)"/>
  <rect id="Rectangle_14523" data-name="Rectangle 14523" width="1" height="1" transform="translate(0 5)"/>
  <rect id="Rectangle_14536" data-name="Rectangle 14536" width="1" height="1" transform="translate(0 5)"/>
  <rect id="Rectangle_14538" data-name="Rectangle 14538" width="1" height="1" transform="translate(0 5)"/>
  <rect id="Rectangle_14551" data-name="Rectangle 14551" width="1" height="1" transform="translate(11 5)"/>
  <rect id="Rectangle_14553" data-name="Rectangle 14553" width="1" height="1" transform="translate(11 5)"/>
  <rect id="Rectangle_14555" data-name="Rectangle 14555" width="1" height="1" transform="translate(12 5)"/>
  <rect id="Rectangle_14557" data-name="Rectangle 14557" width="1" height="1" transform="translate(12 5)"/>
  <rect id="Rectangle_14559" data-name="Rectangle 14559" width="1" height="1" transform="translate(11 5)"/>
  <rect id="Rectangle_14561" data-name="Rectangle 14561" width="1" height="1" transform="translate(11 5)"/>
  <rect id="Rectangle_14563" data-name="Rectangle 14563" width="1" height="1" transform="translate(12 5)"/>
  <rect id="Rectangle_14565" data-name="Rectangle 14565" width="1" height="1" transform="translate(12 5)"/>
  <rect id="Rectangle_14567" data-name="Rectangle 14567" width="1" height="1" transform="translate(1 4)"/>
  <rect id="Rectangle_14569" data-name="Rectangle 14569" width="1" height="1" transform="translate(1 4)"/>
  <rect id="Rectangle_14582" data-name="Rectangle 14582" width="1" height="1" transform="translate(1 4)"/>
  <rect id="Rectangle_14584" data-name="Rectangle 14584" width="1" height="1" transform="translate(1 4)"/>
  <rect id="Rectangle_14597" data-name="Rectangle 14597" width="1" height="1" transform="translate(0 4)"/>
  <rect id="Rectangle_14599" data-name="Rectangle 14599" width="1" height="1" transform="translate(0 4)"/>
  <rect id="Rectangle_14612" data-name="Rectangle 14612" width="1" height="1" transform="translate(0 4)"/>
  <rect id="Rectangle_14614" data-name="Rectangle 14614" width="1" height="1" transform="translate(0 4)"/>
  <rect id="Rectangle_14627" data-name="Rectangle 14627" width="1" height="1" transform="translate(11 4)"/>
  <rect id="Rectangle_14629" data-name="Rectangle 14629" width="1" height="1" transform="translate(11 4)"/>
  <rect id="Rectangle_14631" data-name="Rectangle 14631" width="1" height="1" transform="translate(12 4)"/>
  <rect id="Rectangle_14633" data-name="Rectangle 14633" width="1" height="1" transform="translate(12 4)"/>
  <rect id="Rectangle_14635" data-name="Rectangle 14635" width="1" height="1" transform="translate(11 4)"/>
  <rect id="Rectangle_14637" data-name="Rectangle 14637" width="1" height="1" transform="translate(11 4)"/>
  <rect id="Rectangle_14639" data-name="Rectangle 14639" width="1" height="1" transform="translate(12 4)"/>
  <rect id="Rectangle_14641" data-name="Rectangle 14641" width="1" height="1" transform="translate(12 4)"/>
  <rect id="Rectangle_14643" data-name="Rectangle 14643" width="1" height="1" transform="translate(1 3)"/>
  <rect id="Rectangle_14645" data-name="Rectangle 14645" width="1" height="1" transform="translate(1 3)"/>
  <rect id="Rectangle_14658" data-name="Rectangle 14658" width="1" height="1" transform="translate(1 3)"/>
  <rect id="Rectangle_14660" data-name="Rectangle 14660" width="1" height="1" transform="translate(1 3)"/>
  <rect id="Rectangle_14673" data-name="Rectangle 14673" width="1" height="1" transform="translate(0 3)"/>
  <rect id="Rectangle_14675" data-name="Rectangle 14675" width="1" height="1" transform="translate(0 3)"/>
  <rect id="Rectangle_14688" data-name="Rectangle 14688" width="1" height="1" transform="translate(0 3)"/>
  <rect id="Rectangle_14690" data-name="Rectangle 14690" width="1" height="1" transform="translate(0 3)"/>
  <rect id="Rectangle_14703" data-name="Rectangle 14703" width="1" height="1" transform="translate(11 3)"/>
  <rect id="Rectangle_14705" data-name="Rectangle 14705" width="1" height="1" transform="translate(11 3)"/>
  <rect id="Rectangle_14707" data-name="Rectangle 14707" width="1" height="1" transform="translate(12 3)"/>
  <rect id="Rectangle_14709" data-name="Rectangle 14709" width="1" height="1" transform="translate(12 3)"/>
  <rect id="Rectangle_14711" data-name="Rectangle 14711" width="1" height="1" transform="translate(11 3)"/>
  <rect id="Rectangle_14713" data-name="Rectangle 14713" width="1" height="1" transform="translate(11 3)"/>
  <rect id="Rectangle_14715" data-name="Rectangle 14715" width="1" height="1" transform="translate(12 3)"/>
  <rect id="Rectangle_14717" data-name="Rectangle 14717" width="1" height="1" transform="translate(12 3)"/>
  <rect id="Rectangle_14719" data-name="Rectangle 14719" width="1" height="1" transform="translate(2)"/>
  <rect id="Rectangle_14721" data-name="Rectangle 14721" width="1" height="1" transform="translate(2)"/>
  <rect id="Rectangle_14744" data-name="Rectangle 14744" width="1" height="1" transform="translate(2 13)"/>
  <rect id="Rectangle_14746" data-name="Rectangle 14746" width="1" height="1" transform="translate(2 13)"/>
  <rect id="Rectangle_14753" data-name="Rectangle 14753" width="1" height="1" transform="translate(2 14)"/>
  <rect id="Rectangle_14755" data-name="Rectangle 14755" width="1" height="1" transform="translate(2 14)"/>
  <rect id="Rectangle_14762" data-name="Rectangle 14762" width="1" height="1" transform="translate(2 1)"/>
  <rect id="Rectangle_14764" data-name="Rectangle 14764" width="1" height="1" transform="translate(2 1)"/>
  <rect id="Rectangle_14845" data-name="Rectangle 14845" width="1" height="1" transform="translate(3)"/>
  <rect id="Rectangle_14847" data-name="Rectangle 14847" width="1" height="1" transform="translate(3)"/>
  <rect id="Rectangle_14870" data-name="Rectangle 14870" width="1" height="1" transform="translate(3 13)"/>
  <rect id="Rectangle_14872" data-name="Rectangle 14872" width="1" height="1" transform="translate(3 13)"/>
  <rect id="Rectangle_14879" data-name="Rectangle 14879" width="1" height="1" transform="translate(3 14)"/>
  <rect id="Rectangle_14881" data-name="Rectangle 14881" width="1" height="1" transform="translate(3 14)"/>
  <rect id="Rectangle_14888" data-name="Rectangle 14888" width="1" height="1" transform="translate(3 1)"/>
  <rect id="Rectangle_14890" data-name="Rectangle 14890" width="1" height="1" transform="translate(3 1)"/>
  <rect id="Rectangle_14913" data-name="Rectangle 14913" width="1" height="1" transform="translate(4)"/>
  <rect id="Rectangle_14915" data-name="Rectangle 14915" width="1" height="1" transform="translate(4)"/>
  <rect id="Rectangle_14940" data-name="Rectangle 14940" width="1" height="1" transform="translate(4 13)"/>
  <rect id="Rectangle_14942" data-name="Rectangle 14942" width="1" height="1" transform="translate(4 13)"/>
  <rect id="Rectangle_14949" data-name="Rectangle 14949" width="1" height="1" transform="translate(4 14)"/>
  <rect id="Rectangle_14951" data-name="Rectangle 14951" width="1" height="1" transform="translate(4 14)"/>
  <rect id="Rectangle_14958" data-name="Rectangle 14958" width="1" height="1" transform="translate(4 1)"/>
  <rect id="Rectangle_14960" data-name="Rectangle 14960" width="1" height="1" transform="translate(4 1)"/>
  <rect id="Rectangle_14985" data-name="Rectangle 14985" width="1" height="1" transform="translate(5)"/>
  <rect id="Rectangle_14987" data-name="Rectangle 14987" width="1" height="1" transform="translate(5)"/>
  <rect id="Rectangle_15012" data-name="Rectangle 15012" width="1" height="1" transform="translate(5 13)"/>
  <rect id="Rectangle_15014" data-name="Rectangle 15014" width="1" height="1" transform="translate(5 13)"/>
  <rect id="Rectangle_15021" data-name="Rectangle 15021" width="1" height="1" transform="translate(5 14)"/>
  <rect id="Rectangle_15023" data-name="Rectangle 15023" width="1" height="1" transform="translate(5 14)"/>
  <rect id="Rectangle_15030" data-name="Rectangle 15030" width="1" height="1" transform="translate(5 1)"/>
  <rect id="Rectangle_15032" data-name="Rectangle 15032" width="1" height="1" transform="translate(5 1)"/>
  <rect id="Rectangle_15057" data-name="Rectangle 15057" width="1" height="1" transform="translate(6)"/>
  <rect id="Rectangle_15059" data-name="Rectangle 15059" width="1" height="1" transform="translate(6)"/>
  <rect id="Rectangle_15084" data-name="Rectangle 15084" width="1" height="1" transform="translate(6 13)"/>
  <rect id="Rectangle_15086" data-name="Rectangle 15086" width="1" height="1" transform="translate(6 13)"/>
  <rect id="Rectangle_15093" data-name="Rectangle 15093" width="1" height="1" transform="translate(6 14)"/>
  <rect id="Rectangle_15095" data-name="Rectangle 15095" width="1" height="1" transform="translate(6 14)"/>
  <rect id="Rectangle_15102" data-name="Rectangle 15102" width="1" height="1" transform="translate(6 1)"/>
  <rect id="Rectangle_15338" data-name="Rectangle 15338" width="1" height="1" transform="translate(6 1)"/>
  <rect id="Rectangle_15363" data-name="Rectangle 15363" width="1" height="1" transform="translate(7)"/>
  <rect id="Rectangle_15365" data-name="Rectangle 15365" width="1" height="1" transform="translate(7)"/>
  <rect id="Rectangle_15390" data-name="Rectangle 15390" width="1" height="1" transform="translate(7 13)"/>
  <rect id="Rectangle_15392" data-name="Rectangle 15392" width="1" height="1" transform="translate(7 13)"/>
  <rect id="Rectangle_15399" data-name="Rectangle 15399" width="1" height="1" transform="translate(7 14)"/>
  <rect id="Rectangle_15401" data-name="Rectangle 15401" width="1" height="1" transform="translate(7 14)"/>
  <rect id="Rectangle_15408" data-name="Rectangle 15408" width="1" height="1" transform="translate(7 1)"/>
  <rect id="Rectangle_15410" data-name="Rectangle 15410" width="1" height="1" transform="translate(7 1)"/>
  <rect id="Rectangle_15435" data-name="Rectangle 15435" width="1" height="1" transform="translate(8)"/>
  <rect id="Rectangle_15437" data-name="Rectangle 15437" width="1" height="1" transform="translate(8)"/>
  <rect id="Rectangle_15462" data-name="Rectangle 15462" width="1" height="1" transform="translate(8 13)"/>
  <rect id="Rectangle_15464" data-name="Rectangle 15464" width="1" height="1" transform="translate(8 13)"/>
  <rect id="Rectangle_15471" data-name="Rectangle 15471" width="1" height="1" transform="translate(8 14)"/>
  <rect id="Rectangle_15473" data-name="Rectangle 15473" width="1" height="1" transform="translate(8 14)"/>
  <rect id="Rectangle_15480" data-name="Rectangle 15480" width="1" height="1" transform="translate(8 1)"/>
  <rect id="Rectangle_15482" data-name="Rectangle 15482" width="1" height="1" transform="translate(8 1)"/>
  <rect id="Rectangle_15507" data-name="Rectangle 15507" width="1" height="1" transform="translate(9)"/>
  <rect id="Rectangle_15509" data-name="Rectangle 15509" width="1" height="1" transform="translate(9)"/>
  <rect id="Rectangle_15534" data-name="Rectangle 15534" width="1" height="1" transform="translate(9 13)"/>
  <rect id="Rectangle_15536" data-name="Rectangle 15536" width="1" height="1" transform="translate(9 13)"/>
  <rect id="Rectangle_15543" data-name="Rectangle 15543" width="1" height="1" transform="translate(9 14)"/>
  <rect id="Rectangle_15545" data-name="Rectangle 15545" width="1" height="1" transform="translate(9 14)"/>
  <rect id="Rectangle_15552" data-name="Rectangle 15552" width="1" height="1" transform="translate(9 1)"/>
  <rect id="Rectangle_15554" data-name="Rectangle 15554" width="1" height="1" transform="translate(9 1)"/>
  <rect id="Rectangle_15579" data-name="Rectangle 15579" width="1" height="1" transform="translate(10)"/>
  <rect id="Rectangle_15581" data-name="Rectangle 15581" width="1" height="1" transform="translate(10)"/>
  <rect id="Rectangle_15606" data-name="Rectangle 15606" width="1" height="1" transform="translate(10 13)"/>
  <rect id="Rectangle_15608" data-name="Rectangle 15608" width="1" height="1" transform="translate(10 13)"/>
  <rect id="Rectangle_15615" data-name="Rectangle 15615" width="1" height="1" transform="translate(10 14)"/>
  <rect id="Rectangle_15617" data-name="Rectangle 15617" width="1" height="1" transform="translate(10 14)"/>
  <rect id="Rectangle_15624" data-name="Rectangle 15624" width="1" height="1" transform="translate(10 1)"/>
  <rect id="Rectangle_15626" data-name="Rectangle 15626" width="1" height="1" transform="translate(10 1)"/>
  <rect id="Rectangle_15651" data-name="Rectangle 15651" width="1" height="1" transform="translate(1 12)"/>
  <rect id="Rectangle_15653" data-name="Rectangle 15653" width="1" height="1" transform="translate(1 12)"/>
  <rect id="Rectangle_15666" data-name="Rectangle 15666" width="1" height="1" transform="translate(1 12)"/>
  <rect id="Rectangle_15668" data-name="Rectangle 15668" width="1" height="1" transform="translate(1 12)"/>
  <rect id="Rectangle_15681" data-name="Rectangle 15681" width="1" height="1" transform="translate(0 12)"/>
  <rect id="Rectangle_15683" data-name="Rectangle 15683" width="1" height="1" transform="translate(0 12)"/>
  <rect id="Rectangle_15696" data-name="Rectangle 15696" width="1" height="1" transform="translate(0 12)"/>
  <rect id="Rectangle_15698" data-name="Rectangle 15698" width="1" height="1" transform="translate(0 12)"/>
  <rect id="Rectangle_15711" data-name="Rectangle 15711" width="1" height="1" transform="translate(11 12)"/>
  <rect id="Rectangle_15713" data-name="Rectangle 15713" width="1" height="1" transform="translate(11 12)"/>
  <rect id="Rectangle_15715" data-name="Rectangle 15715" width="1" height="1" transform="translate(12 12)"/>
  <rect id="Rectangle_15717" data-name="Rectangle 15717" width="1" height="1" transform="translate(12 12)"/>
  <rect id="Rectangle_15719" data-name="Rectangle 15719" width="1" height="1" transform="translate(11 12)"/>
  <rect id="Rectangle_15721" data-name="Rectangle 15721" width="1" height="1" transform="translate(11 12)"/>
  <rect id="Rectangle_15723" data-name="Rectangle 15723" width="1" height="1" transform="translate(12 12)"/>
  <rect id="Rectangle_15725" data-name="Rectangle 15725" width="1" height="1" transform="translate(12 12)"/>
</svg>
