<svg id="Brick_-_Medium_-_Strong" data-name="Brick - Medium - Strong" xmlns="http://www.w3.org/2000/svg" width="24" height="15" viewBox="0 0 24 15">
  <rect id="Rectangle_13626" data-name="Rectangle 13626" width="1" height="1" transform="translate(1 2)"/>
  <rect id="Rectangle_13967" data-name="Rectangle 13967" width="1" height="1" transform="translate(23 2)"/>
  <rect id="Rectangle_13629" data-name="Rectangle 13629" width="1" height="1" transform="translate(1 2)"/>
  <rect id="Rectangle_13982" data-name="Rectangle 13982" width="1" height="1" transform="translate(23 2)"/>
  <rect id="Rectangle_13632" data-name="Rectangle 13632" width="1" height="1" transform="translate(0 2)"/>
  <rect id="Rectangle_13997" data-name="Rectangle 13997" width="1" height="1" transform="translate(22 2)"/>
  <rect id="Rectangle_13635" data-name="Rectangle 13635" width="1" height="1" transform="translate(0 2)"/>
  <rect id="Rectangle_14012" data-name="Rectangle 14012" width="1" height="1" transform="translate(22 2)"/>
  <rect id="Rectangle_13791" data-name="Rectangle 13791" width="1" height="1" transform="translate(1 11)"/>
  <rect id="Rectangle_14043" data-name="Rectangle 14043" width="1" height="1" transform="translate(23 11)"/>
  <rect id="Rectangle_13794" data-name="Rectangle 13794" width="1" height="1" transform="translate(1 11)"/>
  <rect id="Rectangle_14058" data-name="Rectangle 14058" width="1" height="1" transform="translate(23 11)"/>
  <rect id="Rectangle_13797" data-name="Rectangle 13797" width="1" height="1" transform="translate(0 11)"/>
  <rect id="Rectangle_14073" data-name="Rectangle 14073" width="1" height="1" transform="translate(22 11)"/>
  <rect id="Rectangle_13800" data-name="Rectangle 13800" width="1" height="1" transform="translate(0 11)"/>
  <rect id="Rectangle_14088" data-name="Rectangle 14088" width="1" height="1" transform="translate(22 11)"/>
  <rect id="Rectangle_13811" data-name="Rectangle 13811" width="1" height="1" transform="translate(1 10)"/>
  <rect id="Rectangle_14119" data-name="Rectangle 14119" width="1" height="1" transform="translate(23 10)"/>
  <rect id="Rectangle_13814" data-name="Rectangle 13814" width="1" height="1" transform="translate(1 10)"/>
  <rect id="Rectangle_14134" data-name="Rectangle 14134" width="1" height="1" transform="translate(23 10)"/>
  <rect id="Rectangle_13817" data-name="Rectangle 13817" width="1" height="1" transform="translate(0 10)"/>
  <rect id="Rectangle_14149" data-name="Rectangle 14149" width="1" height="1" transform="translate(22 10)"/>
  <rect id="Rectangle_13820" data-name="Rectangle 13820" width="1" height="1" transform="translate(0 10)"/>
  <rect id="Rectangle_14164" data-name="Rectangle 14164" width="1" height="1" transform="translate(22 10)"/>
  <rect id="Rectangle_13831" data-name="Rectangle 13831" width="1" height="1" transform="translate(1 9)"/>
  <rect id="Rectangle_14195" data-name="Rectangle 14195" width="1" height="1" transform="translate(23 9)"/>
  <rect id="Rectangle_13834" data-name="Rectangle 13834" width="1" height="1" transform="translate(1 9)"/>
  <rect id="Rectangle_14210" data-name="Rectangle 14210" width="1" height="1" transform="translate(23 9)"/>
  <rect id="Rectangle_13837" data-name="Rectangle 13837" width="1" height="1" transform="translate(0 9)"/>
  <rect id="Rectangle_14225" data-name="Rectangle 14225" width="1" height="1" transform="translate(22 9)"/>
  <rect id="Rectangle_13840" data-name="Rectangle 13840" width="1" height="1" transform="translate(0 9)"/>
  <rect id="Rectangle_14240" data-name="Rectangle 14240" width="1" height="1" transform="translate(22 9)"/>
  <rect id="Rectangle_13646" data-name="Rectangle 13646" width="1" height="1" transform="translate(1 8)"/>
  <rect id="Rectangle_14271" data-name="Rectangle 14271" width="1" height="1" transform="translate(23 8)"/>
  <rect id="Rectangle_13649" data-name="Rectangle 13649" width="1" height="1" transform="translate(1 8)"/>
  <rect id="Rectangle_14286" data-name="Rectangle 14286" width="1" height="1" transform="translate(23 8)"/>
  <rect id="Rectangle_13652" data-name="Rectangle 13652" width="1" height="1" transform="translate(0 8)"/>
  <rect id="Rectangle_14301" data-name="Rectangle 14301" width="1" height="1" transform="translate(22 8)"/>
  <rect id="Rectangle_13655" data-name="Rectangle 13655" width="1" height="1" transform="translate(0 8)"/>
  <rect id="Rectangle_14316" data-name="Rectangle 14316" width="1" height="1" transform="translate(22 8)"/>
  <rect id="Rectangle_13666" data-name="Rectangle 13666" width="1" height="1" transform="translate(1 7)"/>
  <rect id="Rectangle_14347" data-name="Rectangle 14347" width="1" height="1" transform="translate(23 7)"/>
  <rect id="Rectangle_13669" data-name="Rectangle 13669" width="1" height="1" transform="translate(1 7)"/>
  <rect id="Rectangle_14362" data-name="Rectangle 14362" width="1" height="1" transform="translate(23 7)"/>
  <rect id="Rectangle_13672" data-name="Rectangle 13672" width="1" height="1" transform="translate(0 7)"/>
  <rect id="Rectangle_14377" data-name="Rectangle 14377" width="1" height="1" transform="translate(22 7)"/>
  <rect id="Rectangle_13675" data-name="Rectangle 13675" width="1" height="1" transform="translate(0 7)"/>
  <rect id="Rectangle_14392" data-name="Rectangle 14392" width="1" height="1" transform="translate(22 7)"/>
  <rect id="Rectangle_13686" data-name="Rectangle 13686" width="1" height="1" transform="translate(1 6)"/>
  <rect id="Rectangle_14423" data-name="Rectangle 14423" width="1" height="1" transform="translate(23 6)"/>
  <rect id="Rectangle_13689" data-name="Rectangle 13689" width="1" height="1" transform="translate(1 6)"/>
  <rect id="Rectangle_14438" data-name="Rectangle 14438" width="1" height="1" transform="translate(23 6)"/>
  <rect id="Rectangle_13692" data-name="Rectangle 13692" width="1" height="1" transform="translate(0 6)"/>
  <rect id="Rectangle_14453" data-name="Rectangle 14453" width="1" height="1" transform="translate(22 6)"/>
  <rect id="Rectangle_13695" data-name="Rectangle 13695" width="1" height="1" transform="translate(0 6)"/>
  <rect id="Rectangle_14468" data-name="Rectangle 14468" width="1" height="1" transform="translate(22 6)"/>
  <rect id="Rectangle_13706" data-name="Rectangle 13706" width="1" height="1" transform="translate(1 5)"/>
  <rect id="Rectangle_14499" data-name="Rectangle 14499" width="1" height="1" transform="translate(23 5)"/>
  <rect id="Rectangle_13709" data-name="Rectangle 13709" width="1" height="1" transform="translate(1 5)"/>
  <rect id="Rectangle_14514" data-name="Rectangle 14514" width="1" height="1" transform="translate(23 5)"/>
  <rect id="Rectangle_13712" data-name="Rectangle 13712" width="1" height="1" transform="translate(0 5)"/>
  <rect id="Rectangle_14529" data-name="Rectangle 14529" width="1" height="1" transform="translate(22 5)"/>
  <rect id="Rectangle_13715" data-name="Rectangle 13715" width="1" height="1" transform="translate(0 5)"/>
  <rect id="Rectangle_14544" data-name="Rectangle 14544" width="1" height="1" transform="translate(22 5)"/>
  <rect id="Rectangle_13726" data-name="Rectangle 13726" width="1" height="1" transform="translate(1 4)"/>
  <rect id="Rectangle_14575" data-name="Rectangle 14575" width="1" height="1" transform="translate(23 4)"/>
  <rect id="Rectangle_13729" data-name="Rectangle 13729" width="1" height="1" transform="translate(1 4)"/>
  <rect id="Rectangle_14590" data-name="Rectangle 14590" width="1" height="1" transform="translate(23 4)"/>
  <rect id="Rectangle_13732" data-name="Rectangle 13732" width="1" height="1" transform="translate(0 4)"/>
  <rect id="Rectangle_14605" data-name="Rectangle 14605" width="1" height="1" transform="translate(22 4)"/>
  <rect id="Rectangle_13735" data-name="Rectangle 13735" width="1" height="1" transform="translate(0 4)"/>
  <rect id="Rectangle_14620" data-name="Rectangle 14620" width="1" height="1" transform="translate(22 4)"/>
  <rect id="Rectangle_13746" data-name="Rectangle 13746" width="1" height="1" transform="translate(1 3)"/>
  <rect id="Rectangle_14651" data-name="Rectangle 14651" width="1" height="1" transform="translate(23 3)"/>
  <rect id="Rectangle_13749" data-name="Rectangle 13749" width="1" height="1" transform="translate(1 3)"/>
  <rect id="Rectangle_14666" data-name="Rectangle 14666" width="1" height="1" transform="translate(23 3)"/>
  <rect id="Rectangle_13752" data-name="Rectangle 13752" width="1" height="1" transform="translate(0 3)"/>
  <rect id="Rectangle_14681" data-name="Rectangle 14681" width="1" height="1" transform="translate(22 3)"/>
  <rect id="Rectangle_13755" data-name="Rectangle 13755" width="1" height="1" transform="translate(0 3)"/>
  <rect id="Rectangle_14696" data-name="Rectangle 14696" width="1" height="1" transform="translate(22 3)"/>
  <rect id="Rectangle_13849" data-name="Rectangle 13849" width="1" height="1" transform="translate(2)"/>
  <rect id="Rectangle_13850" data-name="Rectangle 13850" width="1" height="1" transform="translate(13)"/>
  <rect id="Rectangle_13851" data-name="Rectangle 13851" width="1" height="1" transform="translate(13 13)"/>
  <rect id="Rectangle_13854" data-name="Rectangle 13854" width="1" height="1" transform="translate(2 13)"/>
  <rect id="Rectangle_13857" data-name="Rectangle 13857" width="1" height="1" transform="translate(2 14)"/>
  <rect id="Rectangle_13858" data-name="Rectangle 13858" width="1" height="1" transform="translate(2 1)"/>
  <rect id="Rectangle_13859" data-name="Rectangle 13859" width="1" height="1" transform="translate(13 1)"/>
  <rect id="Rectangle_13860" data-name="Rectangle 13860" width="1" height="1" transform="translate(12 1)"/>
  <rect id="Rectangle_13861" data-name="Rectangle 13861" width="1" height="1" transform="translate(12 12)"/>
  <rect id="Rectangle_13862" data-name="Rectangle 13862" width="1" height="1" transform="translate(11 1)"/>
  <rect id="Rectangle_13863" data-name="Rectangle 13863" width="1" height="1" transform="translate(11 12)"/>
  <rect id="Rectangle_13864" data-name="Rectangle 13864" width="1" height="1" transform="translate(11 2)"/>
  <rect id="Rectangle_13865" data-name="Rectangle 13865" width="1" height="1" transform="translate(11 13)"/>
  <rect id="Rectangle_13866" data-name="Rectangle 13866" width="1" height="1" transform="translate(12 2)"/>
  <rect id="Rectangle_13867" data-name="Rectangle 13867" width="1" height="1" transform="translate(12 13)"/>
  <rect id="Rectangle_13868" data-name="Rectangle 13868" width="1" height="1" transform="translate(13 14)"/>
  <rect id="Rectangle_13869" data-name="Rectangle 13869" width="1" height="1" transform="translate(3)"/>
  <rect id="Rectangle_13870" data-name="Rectangle 13870" width="1" height="1" transform="translate(14)"/>
  <rect id="Rectangle_13871" data-name="Rectangle 13871" width="1" height="1" transform="translate(14 13)"/>
  <rect id="Rectangle_13874" data-name="Rectangle 13874" width="1" height="1" transform="translate(3 13)"/>
  <rect id="Rectangle_13877" data-name="Rectangle 13877" width="1" height="1" transform="translate(3 14)"/>
  <rect id="Rectangle_13878" data-name="Rectangle 13878" width="1" height="1" transform="translate(3 1)"/>
  <rect id="Rectangle_13879" data-name="Rectangle 13879" width="1" height="1" transform="translate(14 1)"/>
  <rect id="Rectangle_13880" data-name="Rectangle 13880" width="1" height="1" transform="translate(14 14)"/>
  <rect id="Rectangle_13881" data-name="Rectangle 13881" width="1" height="1" transform="translate(4)"/>
  <rect id="Rectangle_14921" data-name="Rectangle 14921" width="1" height="1" transform="translate(15)"/>
  <rect id="Rectangle_14930" data-name="Rectangle 14930" width="1" height="1" transform="translate(15 13)"/>
  <rect id="Rectangle_13884" data-name="Rectangle 13884" width="1" height="1" transform="translate(4 13)"/>
  <rect id="Rectangle_13887" data-name="Rectangle 13887" width="1" height="1" transform="translate(4 14)"/>
  <rect id="Rectangle_13888" data-name="Rectangle 13888" width="1" height="1" transform="translate(4 1)"/>
  <rect id="Rectangle_14966" data-name="Rectangle 14966" width="1" height="1" transform="translate(15 1)"/>
  <rect id="Rectangle_14975" data-name="Rectangle 14975" width="1" height="1" transform="translate(15 14)"/>
  <rect id="Rectangle_13889" data-name="Rectangle 13889" width="1" height="1" transform="translate(5)"/>
  <rect id="Rectangle_14993" data-name="Rectangle 14993" width="1" height="1" transform="translate(16)"/>
  <rect id="Rectangle_15002" data-name="Rectangle 15002" width="1" height="1" transform="translate(16 13)"/>
  <rect id="Rectangle_13892" data-name="Rectangle 13892" width="1" height="1" transform="translate(5 13)"/>
  <rect id="Rectangle_13895" data-name="Rectangle 13895" width="1" height="1" transform="translate(5 14)"/>
  <rect id="Rectangle_13896" data-name="Rectangle 13896" width="1" height="1" transform="translate(5 1)"/>
  <rect id="Rectangle_15038" data-name="Rectangle 15038" width="1" height="1" transform="translate(16 1)"/>
  <rect id="Rectangle_15047" data-name="Rectangle 15047" width="1" height="1" transform="translate(16 14)"/>
  <rect id="Rectangle_13897" data-name="Rectangle 13897" width="1" height="1" transform="translate(6)"/>
  <rect id="Rectangle_15065" data-name="Rectangle 15065" width="1" height="1" transform="translate(17)"/>
  <rect id="Rectangle_15074" data-name="Rectangle 15074" width="1" height="1" transform="translate(17 13)"/>
  <rect id="Rectangle_13900" data-name="Rectangle 13900" width="1" height="1" transform="translate(6 13)"/>
  <rect id="Rectangle_13903" data-name="Rectangle 13903" width="1" height="1" transform="translate(6 14)"/>
  <rect id="Rectangle_13904" data-name="Rectangle 13904" width="1" height="1" transform="translate(6 1)"/>
  <rect id="Rectangle_15344" data-name="Rectangle 15344" width="1" height="1" transform="translate(17 1)"/>
  <rect id="Rectangle_15353" data-name="Rectangle 15353" width="1" height="1" transform="translate(17 14)"/>
  <rect id="Rectangle_13905" data-name="Rectangle 13905" width="1" height="1" transform="translate(7)"/>
  <rect id="Rectangle_15371" data-name="Rectangle 15371" width="1" height="1" transform="translate(18)"/>
  <rect id="Rectangle_15380" data-name="Rectangle 15380" width="1" height="1" transform="translate(18 13)"/>
  <rect id="Rectangle_13908" data-name="Rectangle 13908" width="1" height="1" transform="translate(7 13)"/>
  <rect id="Rectangle_13911" data-name="Rectangle 13911" width="1" height="1" transform="translate(7 14)"/>
  <rect id="Rectangle_13912" data-name="Rectangle 13912" width="1" height="1" transform="translate(7 1)"/>
  <rect id="Rectangle_15416" data-name="Rectangle 15416" width="1" height="1" transform="translate(18 1)"/>
  <rect id="Rectangle_15425" data-name="Rectangle 15425" width="1" height="1" transform="translate(18 14)"/>
  <rect id="Rectangle_13913" data-name="Rectangle 13913" width="1" height="1" transform="translate(8)"/>
  <rect id="Rectangle_15443" data-name="Rectangle 15443" width="1" height="1" transform="translate(19)"/>
  <rect id="Rectangle_15452" data-name="Rectangle 15452" width="1" height="1" transform="translate(19 13)"/>
  <rect id="Rectangle_13916" data-name="Rectangle 13916" width="1" height="1" transform="translate(8 13)"/>
  <rect id="Rectangle_13919" data-name="Rectangle 13919" width="1" height="1" transform="translate(8 14)"/>
  <rect id="Rectangle_13920" data-name="Rectangle 13920" width="1" height="1" transform="translate(8 1)"/>
  <rect id="Rectangle_15488" data-name="Rectangle 15488" width="1" height="1" transform="translate(19 1)"/>
  <rect id="Rectangle_15497" data-name="Rectangle 15497" width="1" height="1" transform="translate(19 14)"/>
  <rect id="Rectangle_13921" data-name="Rectangle 13921" width="1" height="1" transform="translate(9)"/>
  <rect id="Rectangle_15515" data-name="Rectangle 15515" width="1" height="1" transform="translate(20)"/>
  <rect id="Rectangle_15524" data-name="Rectangle 15524" width="1" height="1" transform="translate(20 13)"/>
  <rect id="Rectangle_13924" data-name="Rectangle 13924" width="1" height="1" transform="translate(9 13)"/>
  <rect id="Rectangle_13927" data-name="Rectangle 13927" width="1" height="1" transform="translate(9 14)"/>
  <rect id="Rectangle_13928" data-name="Rectangle 13928" width="1" height="1" transform="translate(9 1)"/>
  <rect id="Rectangle_15560" data-name="Rectangle 15560" width="1" height="1" transform="translate(20 1)"/>
  <rect id="Rectangle_15569" data-name="Rectangle 15569" width="1" height="1" transform="translate(20 14)"/>
  <rect id="Rectangle_13929" data-name="Rectangle 13929" width="1" height="1" transform="translate(10)"/>
  <rect id="Rectangle_15587" data-name="Rectangle 15587" width="1" height="1" transform="translate(21)"/>
  <rect id="Rectangle_15596" data-name="Rectangle 15596" width="1" height="1" transform="translate(21 13)"/>
  <rect id="Rectangle_13932" data-name="Rectangle 13932" width="1" height="1" transform="translate(10 13)"/>
  <rect id="Rectangle_13935" data-name="Rectangle 13935" width="1" height="1" transform="translate(10 14)"/>
  <rect id="Rectangle_13936" data-name="Rectangle 13936" width="1" height="1" transform="translate(10 1)"/>
  <rect id="Rectangle_15632" data-name="Rectangle 15632" width="1" height="1" transform="translate(21 1)"/>
  <rect id="Rectangle_15641" data-name="Rectangle 15641" width="1" height="1" transform="translate(21 14)"/>
  <rect id="Rectangle_13939" data-name="Rectangle 13939" width="1" height="1" transform="translate(1 12)"/>
  <rect id="Rectangle_15659" data-name="Rectangle 15659" width="1" height="1" transform="translate(23 12)"/>
  <rect id="Rectangle_13942" data-name="Rectangle 13942" width="1" height="1" transform="translate(1 12)"/>
  <rect id="Rectangle_15674" data-name="Rectangle 15674" width="1" height="1" transform="translate(23 12)"/>
  <rect id="Rectangle_13945" data-name="Rectangle 13945" width="1" height="1" transform="translate(0 12)"/>
  <rect id="Rectangle_15689" data-name="Rectangle 15689" width="1" height="1" transform="translate(22 12)"/>
  <rect id="Rectangle_13948" data-name="Rectangle 13948" width="1" height="1" transform="translate(0 12)"/>
  <rect id="Rectangle_15704" data-name="Rectangle 15704" width="1" height="1" transform="translate(22 12)"/>
  <rect id="Rectangle_13957" data-name="Rectangle 13957" width="16" height="9" transform="translate(6 4)"/>
</svg>
