<svg id="Brick_-_Small_-_Weakest" data-name="Brick - Small - Weakest" xmlns="http://www.w3.org/2000/svg" width="13" height="15" viewBox="0 0 13 15">
  <path id="Union_7" data-name="Union 7" d="M-1984-27v-1h1v1Zm-1,0v-1h1v1Zm-1,0v-1h1v1Zm-1,0v-1h1v1Zm-1,0v-1h1v1Zm-1,0v-1h1v1Zm-1,0v-1h1v1Zm-1,0v-1h1v1Zm-1,0v-1h1v1Zm8-1v-1h1v1Zm-1,0v-1h1v1Zm-1,0v-1h1v1Zm-1,0v-1h1v1Zm-1,0v-1h1v1Zm-1,0v-1h1v1Zm-1,0v-1h1v1Zm-1,0v-1h1v1Zm-1,0v-1h-2v-1h2v1h1v1Zm10-1h-1v-1h2v1Zm0-1h-1v-9h2v9Zm-11,0h-1v-9h2v9Zm11-9h-1v-1h-1v-1h1v1h2v1Zm-11,0h-1v-1h2v1Zm8-1v-1h1v1Zm-1,0v-1h1v1Zm-1,0v-1h1v1Zm-1,0v-1h1v1Zm-1,0v-1h1v1Zm-1,0v-1h1v1Zm-1,0v-1h1v1Zm-1,0v-1h1v1Zm8-1v-1h1v1Zm-1,0v-1h1v1Zm-1,0v-1h1v1Zm-1,0v-1h1v1Zm-1,0v-1h1v1Zm-1,0v-1h1v1Zm-1,0v-1h1v1Zm-1,0v-1h1v1Zm-1,0v-1h1v1Z" transform="translate(1994 42)"/>
</svg>
