<svg id="Brick_-_Large_-_Weak" data-name="Brick - Large - Weak" xmlns="http://www.w3.org/2000/svg" width="35" height="15" viewBox="0 0 35 15">
  <rect id="Rectangle_13965" data-name="Rectangle 13965" width="1" height="1" transform="translate(1 2)"/>
  <rect id="Rectangle_13971" data-name="Rectangle 13971" width="1" height="1" transform="translate(34 2)"/>
  <rect id="Rectangle_13980" data-name="Rectangle 13980" width="1" height="1" transform="translate(1 2)"/>
  <rect id="Rectangle_13986" data-name="Rectangle 13986" width="1" height="1" transform="translate(34 2)"/>
  <rect id="Rectangle_13995" data-name="Rectangle 13995" width="1" height="1" transform="translate(0 2)"/>
  <rect id="Rectangle_14001" data-name="Rectangle 14001" width="1" height="1" transform="translate(33 2)"/>
  <rect id="Rectangle_14010" data-name="Rectangle 14010" width="1" height="1" transform="translate(0 2)"/>
  <rect id="Rectangle_14016" data-name="Rectangle 14016" width="1" height="1" transform="translate(33 2)"/>
  <rect id="Rectangle_14041" data-name="Rectangle 14041" width="1" height="1" transform="translate(1 11)"/>
  <rect id="Rectangle_14047" data-name="Rectangle 14047" width="1" height="1" transform="translate(34 11)"/>
  <rect id="Rectangle_14056" data-name="Rectangle 14056" width="1" height="1" transform="translate(1 11)"/>
  <rect id="Rectangle_14062" data-name="Rectangle 14062" width="1" height="1" transform="translate(34 11)"/>
  <rect id="Rectangle_14071" data-name="Rectangle 14071" width="1" height="1" transform="translate(0 11)"/>
  <rect id="Rectangle_14077" data-name="Rectangle 14077" width="1" height="1" transform="translate(33 11)"/>
  <rect id="Rectangle_14086" data-name="Rectangle 14086" width="1" height="1" transform="translate(0 11)"/>
  <rect id="Rectangle_14092" data-name="Rectangle 14092" width="1" height="1" transform="translate(33 11)"/>
  <rect id="Rectangle_14117" data-name="Rectangle 14117" width="1" height="1" transform="translate(1 10)"/>
  <rect id="Rectangle_14123" data-name="Rectangle 14123" width="1" height="1" transform="translate(34 10)"/>
  <rect id="Rectangle_14132" data-name="Rectangle 14132" width="1" height="1" transform="translate(1 10)"/>
  <rect id="Rectangle_14138" data-name="Rectangle 14138" width="1" height="1" transform="translate(34 10)"/>
  <rect id="Rectangle_14147" data-name="Rectangle 14147" width="1" height="1" transform="translate(0 10)"/>
  <rect id="Rectangle_14153" data-name="Rectangle 14153" width="1" height="1" transform="translate(33 10)"/>
  <rect id="Rectangle_14162" data-name="Rectangle 14162" width="1" height="1" transform="translate(0 10)"/>
  <rect id="Rectangle_14168" data-name="Rectangle 14168" width="1" height="1" transform="translate(33 10)"/>
  <rect id="Rectangle_14193" data-name="Rectangle 14193" width="1" height="1" transform="translate(1 9)"/>
  <rect id="Rectangle_14199" data-name="Rectangle 14199" width="1" height="1" transform="translate(34 9)"/>
  <rect id="Rectangle_14208" data-name="Rectangle 14208" width="1" height="1" transform="translate(1 9)"/>
  <rect id="Rectangle_14214" data-name="Rectangle 14214" width="1" height="1" transform="translate(34 9)"/>
  <rect id="Rectangle_14223" data-name="Rectangle 14223" width="1" height="1" transform="translate(0 9)"/>
  <rect id="Rectangle_14229" data-name="Rectangle 14229" width="1" height="1" transform="translate(33 9)"/>
  <rect id="Rectangle_14238" data-name="Rectangle 14238" width="1" height="1" transform="translate(0 9)"/>
  <rect id="Rectangle_14244" data-name="Rectangle 14244" width="1" height="1" transform="translate(33 9)"/>
  <rect id="Rectangle_14269" data-name="Rectangle 14269" width="1" height="1" transform="translate(1 8)"/>
  <rect id="Rectangle_14275" data-name="Rectangle 14275" width="1" height="1" transform="translate(34 8)"/>
  <rect id="Rectangle_14284" data-name="Rectangle 14284" width="1" height="1" transform="translate(1 8)"/>
  <rect id="Rectangle_14290" data-name="Rectangle 14290" width="1" height="1" transform="translate(34 8)"/>
  <rect id="Rectangle_14299" data-name="Rectangle 14299" width="1" height="1" transform="translate(0 8)"/>
  <rect id="Rectangle_14305" data-name="Rectangle 14305" width="1" height="1" transform="translate(33 8)"/>
  <rect id="Rectangle_14314" data-name="Rectangle 14314" width="1" height="1" transform="translate(0 8)"/>
  <rect id="Rectangle_14320" data-name="Rectangle 14320" width="1" height="1" transform="translate(33 8)"/>
  <rect id="Rectangle_14345" data-name="Rectangle 14345" width="1" height="1" transform="translate(1 7)"/>
  <rect id="Rectangle_14351" data-name="Rectangle 14351" width="1" height="1" transform="translate(34 7)"/>
  <rect id="Rectangle_14360" data-name="Rectangle 14360" width="1" height="1" transform="translate(1 7)"/>
  <rect id="Rectangle_14366" data-name="Rectangle 14366" width="1" height="1" transform="translate(34 7)"/>
  <rect id="Rectangle_14375" data-name="Rectangle 14375" width="1" height="1" transform="translate(0 7)"/>
  <rect id="Rectangle_14381" data-name="Rectangle 14381" width="1" height="1" transform="translate(33 7)"/>
  <rect id="Rectangle_14390" data-name="Rectangle 14390" width="1" height="1" transform="translate(0 7)"/>
  <rect id="Rectangle_14396" data-name="Rectangle 14396" width="1" height="1" transform="translate(33 7)"/>
  <rect id="Rectangle_14421" data-name="Rectangle 14421" width="1" height="1" transform="translate(1 6)"/>
  <rect id="Rectangle_14427" data-name="Rectangle 14427" width="1" height="1" transform="translate(34 6)"/>
  <rect id="Rectangle_14436" data-name="Rectangle 14436" width="1" height="1" transform="translate(1 6)"/>
  <rect id="Rectangle_14442" data-name="Rectangle 14442" width="1" height="1" transform="translate(34 6)"/>
  <rect id="Rectangle_14451" data-name="Rectangle 14451" width="1" height="1" transform="translate(0 6)"/>
  <rect id="Rectangle_14457" data-name="Rectangle 14457" width="1" height="1" transform="translate(33 6)"/>
  <rect id="Rectangle_14466" data-name="Rectangle 14466" width="1" height="1" transform="translate(0 6)"/>
  <rect id="Rectangle_14472" data-name="Rectangle 14472" width="1" height="1" transform="translate(33 6)"/>
  <rect id="Rectangle_14497" data-name="Rectangle 14497" width="1" height="1" transform="translate(1 5)"/>
  <rect id="Rectangle_14503" data-name="Rectangle 14503" width="1" height="1" transform="translate(34 5)"/>
  <rect id="Rectangle_14512" data-name="Rectangle 14512" width="1" height="1" transform="translate(1 5)"/>
  <rect id="Rectangle_14518" data-name="Rectangle 14518" width="1" height="1" transform="translate(34 5)"/>
  <rect id="Rectangle_14527" data-name="Rectangle 14527" width="1" height="1" transform="translate(0 5)"/>
  <rect id="Rectangle_14533" data-name="Rectangle 14533" width="1" height="1" transform="translate(33 5)"/>
  <rect id="Rectangle_14542" data-name="Rectangle 14542" width="1" height="1" transform="translate(0 5)"/>
  <rect id="Rectangle_14548" data-name="Rectangle 14548" width="1" height="1" transform="translate(33 5)"/>
  <rect id="Rectangle_14573" data-name="Rectangle 14573" width="1" height="1" transform="translate(1 4)"/>
  <rect id="Rectangle_14579" data-name="Rectangle 14579" width="1" height="1" transform="translate(34 4)"/>
  <rect id="Rectangle_14588" data-name="Rectangle 14588" width="1" height="1" transform="translate(1 4)"/>
  <rect id="Rectangle_14594" data-name="Rectangle 14594" width="1" height="1" transform="translate(34 4)"/>
  <rect id="Rectangle_14603" data-name="Rectangle 14603" width="1" height="1" transform="translate(0 4)"/>
  <rect id="Rectangle_14609" data-name="Rectangle 14609" width="1" height="1" transform="translate(33 4)"/>
  <rect id="Rectangle_14618" data-name="Rectangle 14618" width="1" height="1" transform="translate(0 4)"/>
  <rect id="Rectangle_14624" data-name="Rectangle 14624" width="1" height="1" transform="translate(33 4)"/>
  <rect id="Rectangle_14649" data-name="Rectangle 14649" width="1" height="1" transform="translate(1 3)"/>
  <rect id="Rectangle_14655" data-name="Rectangle 14655" width="1" height="1" transform="translate(34 3)"/>
  <rect id="Rectangle_14664" data-name="Rectangle 14664" width="1" height="1" transform="translate(1 3)"/>
  <rect id="Rectangle_14670" data-name="Rectangle 14670" width="1" height="1" transform="translate(34 3)"/>
  <rect id="Rectangle_14679" data-name="Rectangle 14679" width="1" height="1" transform="translate(0 3)"/>
  <rect id="Rectangle_14685" data-name="Rectangle 14685" width="1" height="1" transform="translate(33 3)"/>
  <rect id="Rectangle_14694" data-name="Rectangle 14694" width="1" height="1" transform="translate(0 3)"/>
  <rect id="Rectangle_14700" data-name="Rectangle 14700" width="1" height="1" transform="translate(33 3)"/>
  <rect id="Rectangle_14725" data-name="Rectangle 14725" width="1" height="1" transform="translate(2)"/>
  <rect id="Rectangle_14730" data-name="Rectangle 14730" width="1" height="1" transform="translate(13)"/>
  <rect id="Rectangle_14733" data-name="Rectangle 14733" width="1" height="1" transform="translate(24)"/>
  <rect id="Rectangle_14738" data-name="Rectangle 14738" width="1" height="1" transform="translate(13 13)"/>
  <rect id="Rectangle_14741" data-name="Rectangle 14741" width="1" height="1" transform="translate(24 13)"/>
  <rect id="Rectangle_14750" data-name="Rectangle 14750" width="1" height="1" transform="translate(2 13)"/>
  <rect id="Rectangle_14759" data-name="Rectangle 14759" width="1" height="1" transform="translate(2 14)"/>
  <rect id="Rectangle_14768" data-name="Rectangle 14768" width="1" height="1" transform="translate(2 1)"/>
  <rect id="Rectangle_14773" data-name="Rectangle 14773" width="1" height="1" transform="translate(13 1)"/>
  <rect id="Rectangle_14776" data-name="Rectangle 14776" width="1" height="1" transform="translate(24 1)"/>
  <rect id="Rectangle_14781" data-name="Rectangle 14781" width="1" height="1" transform="translate(12 1)"/>
  <rect id="Rectangle_14784" data-name="Rectangle 14784" width="1" height="1" transform="translate(23 1)"/>
  <rect id="Rectangle_14789" data-name="Rectangle 14789" width="1" height="1" transform="translate(12 12)"/>
  <rect id="Rectangle_14794" data-name="Rectangle 14794" width="1" height="1" transform="translate(11 1)"/>
  <rect id="Rectangle_14797" data-name="Rectangle 14797" width="1" height="1" transform="translate(22 1)"/>
  <rect id="Rectangle_14802" data-name="Rectangle 14802" width="1" height="1" transform="translate(11 12)"/>
  <rect id="Rectangle_14807" data-name="Rectangle 14807" width="1" height="1" transform="translate(11 2)"/>
  <rect id="Rectangle_14810" data-name="Rectangle 14810" width="1" height="1" transform="translate(22 2)"/>
  <rect id="Rectangle_14815" data-name="Rectangle 14815" width="1" height="1" transform="translate(11 13)"/>
  <rect id="Rectangle_14818" data-name="Rectangle 14818" width="1" height="1" transform="translate(22 13)"/>
  <rect id="Rectangle_14823" data-name="Rectangle 14823" width="1" height="1" transform="translate(12 2)"/>
  <rect id="Rectangle_14826" data-name="Rectangle 14826" width="1" height="1" transform="translate(23 2)"/>
  <rect id="Rectangle_14831" data-name="Rectangle 14831" width="1" height="1" transform="translate(12 13)"/>
  <rect id="Rectangle_14834" data-name="Rectangle 14834" width="1" height="1" transform="translate(23 13)"/>
  <rect id="Rectangle_14839" data-name="Rectangle 14839" width="1" height="1" transform="translate(13 14)"/>
  <rect id="Rectangle_14842" data-name="Rectangle 14842" width="1" height="1" transform="translate(24 14)"/>
  <rect id="Rectangle_14851" data-name="Rectangle 14851" width="1" height="1" transform="translate(3)"/>
  <rect id="Rectangle_14856" data-name="Rectangle 14856" width="1" height="1" transform="translate(14)"/>
  <rect id="Rectangle_14859" data-name="Rectangle 14859" width="1" height="1" transform="translate(25)"/>
  <rect id="Rectangle_14864" data-name="Rectangle 14864" width="1" height="1" transform="translate(14 13)"/>
  <rect id="Rectangle_14867" data-name="Rectangle 14867" width="1" height="1" transform="translate(25 13)"/>
  <rect id="Rectangle_14876" data-name="Rectangle 14876" width="1" height="1" transform="translate(3 13)"/>
  <rect id="Rectangle_14885" data-name="Rectangle 14885" width="1" height="1" transform="translate(3 14)"/>
  <rect id="Rectangle_14894" data-name="Rectangle 14894" width="1" height="1" transform="translate(3 1)"/>
  <rect id="Rectangle_14899" data-name="Rectangle 14899" width="1" height="1" transform="translate(14 1)"/>
  <rect id="Rectangle_14902" data-name="Rectangle 14902" width="1" height="1" transform="translate(25 1)"/>
  <rect id="Rectangle_14907" data-name="Rectangle 14907" width="1" height="1" transform="translate(14 14)"/>
  <rect id="Rectangle_14910" data-name="Rectangle 14910" width="1" height="1" transform="translate(25 14)"/>
  <rect id="Rectangle_14919" data-name="Rectangle 14919" width="1" height="1" transform="translate(4)"/>
  <rect id="Rectangle_14925" data-name="Rectangle 14925" width="1" height="1" transform="translate(15)"/>
  <rect id="Rectangle_14928" data-name="Rectangle 14928" width="1" height="1" transform="translate(26)"/>
  <rect id="Rectangle_14934" data-name="Rectangle 14934" width="1" height="1" transform="translate(15 13)"/>
  <rect id="Rectangle_14937" data-name="Rectangle 14937" width="1" height="1" transform="translate(26 13)"/>
  <rect id="Rectangle_14946" data-name="Rectangle 14946" width="1" height="1" transform="translate(4 13)"/>
  <rect id="Rectangle_14955" data-name="Rectangle 14955" width="1" height="1" transform="translate(4 14)"/>
  <rect id="Rectangle_14964" data-name="Rectangle 14964" width="1" height="1" transform="translate(4 1)"/>
  <rect id="Rectangle_14970" data-name="Rectangle 14970" width="1" height="1" transform="translate(15 1)"/>
  <rect id="Rectangle_14973" data-name="Rectangle 14973" width="1" height="1" transform="translate(26 1)"/>
  <rect id="Rectangle_14979" data-name="Rectangle 14979" width="1" height="1" transform="translate(15 14)"/>
  <rect id="Rectangle_14982" data-name="Rectangle 14982" width="1" height="1" transform="translate(26 14)"/>
  <rect id="Rectangle_14991" data-name="Rectangle 14991" width="1" height="1" transform="translate(5)"/>
  <rect id="Rectangle_14997" data-name="Rectangle 14997" width="1" height="1" transform="translate(16)"/>
  <rect id="Rectangle_15000" data-name="Rectangle 15000" width="1" height="1" transform="translate(27)"/>
  <rect id="Rectangle_15006" data-name="Rectangle 15006" width="1" height="1" transform="translate(16 13)"/>
  <rect id="Rectangle_15009" data-name="Rectangle 15009" width="1" height="1" transform="translate(27 13)"/>
  <rect id="Rectangle_15018" data-name="Rectangle 15018" width="1" height="1" transform="translate(5 13)"/>
  <rect id="Rectangle_15027" data-name="Rectangle 15027" width="1" height="1" transform="translate(5 14)"/>
  <rect id="Rectangle_15036" data-name="Rectangle 15036" width="1" height="1" transform="translate(5 1)"/>
  <rect id="Rectangle_15042" data-name="Rectangle 15042" width="1" height="1" transform="translate(16 1)"/>
  <rect id="Rectangle_15045" data-name="Rectangle 15045" width="1" height="1" transform="translate(27 1)"/>
  <rect id="Rectangle_15051" data-name="Rectangle 15051" width="1" height="1" transform="translate(16 14)"/>
  <rect id="Rectangle_15054" data-name="Rectangle 15054" width="1" height="1" transform="translate(27 14)"/>
  <rect id="Rectangle_15063" data-name="Rectangle 15063" width="1" height="1" transform="translate(6)"/>
  <rect id="Rectangle_15069" data-name="Rectangle 15069" width="1" height="1" transform="translate(17)"/>
  <rect id="Rectangle_15072" data-name="Rectangle 15072" width="1" height="1" transform="translate(28)"/>
  <rect id="Rectangle_15078" data-name="Rectangle 15078" width="1" height="1" transform="translate(17 13)"/>
  <rect id="Rectangle_15081" data-name="Rectangle 15081" width="1" height="1" transform="translate(28 13)"/>
  <rect id="Rectangle_15090" data-name="Rectangle 15090" width="1" height="1" transform="translate(6 13)"/>
  <rect id="Rectangle_15099" data-name="Rectangle 15099" width="1" height="1" transform="translate(6 14)"/>
  <rect id="Rectangle_15108" data-name="Rectangle 15108" width="1" height="1" transform="translate(11 4)"/>
  <rect id="Rectangle_15109" data-name="Rectangle 15109" width="1" height="1" transform="translate(17 4)"/>
  <rect id="Rectangle_15110" data-name="Rectangle 15110" width="1" height="1" transform="translate(23 4)"/>
  <rect id="Rectangle_15111" data-name="Rectangle 15111" width="1" height="1" transform="translate(29 4)"/>
  <rect id="Rectangle_15116" data-name="Rectangle 15116" width="1" height="1" transform="translate(10 5)"/>
  <rect id="Rectangle_15117" data-name="Rectangle 15117" width="1" height="1" transform="translate(16 5)"/>
  <rect id="Rectangle_15118" data-name="Rectangle 15118" width="1" height="1" transform="translate(22 5)"/>
  <rect id="Rectangle_15119" data-name="Rectangle 15119" width="1" height="1" transform="translate(28 5)"/>
  <rect id="Rectangle_15124" data-name="Rectangle 15124" width="1" height="1" transform="translate(9 4)"/>
  <rect id="Rectangle_15125" data-name="Rectangle 15125" width="1" height="1" transform="translate(15 4)"/>
  <rect id="Rectangle_15126" data-name="Rectangle 15126" width="1" height="1" transform="translate(21 4)"/>
  <rect id="Rectangle_15127" data-name="Rectangle 15127" width="1" height="1" transform="translate(27 4)"/>
  <rect id="Rectangle_15128" data-name="Rectangle 15128" width="1" height="1" transform="translate(31 4)"/>
  <rect id="Rectangle_15129" data-name="Rectangle 15129" width="1" height="1" transform="translate(33 4)"/>
  <rect id="Rectangle_15134" data-name="Rectangle 15134" width="1" height="1" transform="translate(8 5)"/>
  <rect id="Rectangle_15135" data-name="Rectangle 15135" width="1" height="1" transform="translate(14 5)"/>
  <rect id="Rectangle_15136" data-name="Rectangle 15136" width="1" height="1" transform="translate(20 5)"/>
  <rect id="Rectangle_15137" data-name="Rectangle 15137" width="1" height="1" transform="translate(26 5)"/>
  <rect id="Rectangle_15138" data-name="Rectangle 15138" width="1" height="1" transform="translate(30 5)"/>
  <rect id="Rectangle_15139" data-name="Rectangle 15139" width="1" height="1" transform="translate(32 5)"/>
  <rect id="Rectangle_15144" data-name="Rectangle 15144" width="1" height="1" transform="translate(7 4)"/>
  <rect id="Rectangle_15145" data-name="Rectangle 15145" width="1" height="1" transform="translate(13 4)"/>
  <rect id="Rectangle_15146" data-name="Rectangle 15146" width="1" height="1" transform="translate(19 4)"/>
  <rect id="Rectangle_15147" data-name="Rectangle 15147" width="1" height="1" transform="translate(25 4)"/>
  <rect id="Rectangle_15152" data-name="Rectangle 15152" width="1" height="1" transform="translate(6 5)"/>
  <rect id="Rectangle_15153" data-name="Rectangle 15153" width="1" height="1" transform="translate(12 5)"/>
  <rect id="Rectangle_15154" data-name="Rectangle 15154" width="1" height="1" transform="translate(18 5)"/>
  <rect id="Rectangle_15155" data-name="Rectangle 15155" width="1" height="1" transform="translate(24 5)"/>
  <rect id="Rectangle_15160" data-name="Rectangle 15160" width="1" height="1" transform="translate(7 6)"/>
  <rect id="Rectangle_15161" data-name="Rectangle 15161" width="1" height="1" transform="translate(13 6)"/>
  <rect id="Rectangle_15162" data-name="Rectangle 15162" width="1" height="1" transform="translate(19 6)"/>
  <rect id="Rectangle_15163" data-name="Rectangle 15163" width="1" height="1" transform="translate(25 6)"/>
  <rect id="Rectangle_15168" data-name="Rectangle 15168" width="1" height="1" transform="translate(6 7)"/>
  <rect id="Rectangle_15169" data-name="Rectangle 15169" width="1" height="1" transform="translate(12 7)"/>
  <rect id="Rectangle_15170" data-name="Rectangle 15170" width="1" height="1" transform="translate(18 7)"/>
  <rect id="Rectangle_15171" data-name="Rectangle 15171" width="1" height="1" transform="translate(24 7)"/>
  <rect id="Rectangle_15176" data-name="Rectangle 15176" width="1" height="1" transform="translate(7 8)"/>
  <rect id="Rectangle_15177" data-name="Rectangle 15177" width="1" height="1" transform="translate(13 8)"/>
  <rect id="Rectangle_15178" data-name="Rectangle 15178" width="1" height="1" transform="translate(19 8)"/>
  <rect id="Rectangle_15179" data-name="Rectangle 15179" width="1" height="1" transform="translate(25 8)"/>
  <rect id="Rectangle_15184" data-name="Rectangle 15184" width="1" height="1" transform="translate(11 8)"/>
  <rect id="Rectangle_15185" data-name="Rectangle 15185" width="1" height="1" transform="translate(17 8)"/>
  <rect id="Rectangle_15186" data-name="Rectangle 15186" width="1" height="1" transform="translate(23 8)"/>
  <rect id="Rectangle_15187" data-name="Rectangle 15187" width="1" height="1" transform="translate(29 8)"/>
  <rect id="Rectangle_15192" data-name="Rectangle 15192" width="1" height="1" transform="translate(10 9)"/>
  <rect id="Rectangle_15193" data-name="Rectangle 15193" width="1" height="1" transform="translate(16 9)"/>
  <rect id="Rectangle_15194" data-name="Rectangle 15194" width="1" height="1" transform="translate(22 9)"/>
  <rect id="Rectangle_15195" data-name="Rectangle 15195" width="1" height="1" transform="translate(28 9)"/>
  <rect id="Rectangle_15200" data-name="Rectangle 15200" width="1" height="1" transform="translate(6 9)"/>
  <rect id="Rectangle_15201" data-name="Rectangle 15201" width="1" height="1" transform="translate(12 9)"/>
  <rect id="Rectangle_15202" data-name="Rectangle 15202" width="1" height="1" transform="translate(18 9)"/>
  <rect id="Rectangle_15203" data-name="Rectangle 15203" width="1" height="1" transform="translate(24 9)"/>
  <rect id="Rectangle_15208" data-name="Rectangle 15208" width="1" height="1" transform="translate(8 7)"/>
  <rect id="Rectangle_15209" data-name="Rectangle 15209" width="1" height="1" transform="translate(14 7)"/>
  <rect id="Rectangle_15210" data-name="Rectangle 15210" width="1" height="1" transform="translate(20 7)"/>
  <rect id="Rectangle_15211" data-name="Rectangle 15211" width="1" height="1" transform="translate(26 7)"/>
  <rect id="Rectangle_15212" data-name="Rectangle 15212" width="1" height="1" transform="translate(30 7)"/>
  <rect id="Rectangle_15213" data-name="Rectangle 15213" width="1" height="1" transform="translate(32 7)"/>
  <rect id="Rectangle_15218" data-name="Rectangle 15218" width="1" height="1" transform="translate(9 6)"/>
  <rect id="Rectangle_15219" data-name="Rectangle 15219" width="1" height="1" transform="translate(15 6)"/>
  <rect id="Rectangle_15220" data-name="Rectangle 15220" width="1" height="1" transform="translate(21 6)"/>
  <rect id="Rectangle_15221" data-name="Rectangle 15221" width="1" height="1" transform="translate(27 6)"/>
  <rect id="Rectangle_15222" data-name="Rectangle 15222" width="1" height="1" transform="translate(31 6)"/>
  <rect id="Rectangle_15223" data-name="Rectangle 15223" width="1" height="1" transform="translate(33 6)"/>
  <rect id="Rectangle_15228" data-name="Rectangle 15228" width="1" height="1" transform="translate(10 7)"/>
  <rect id="Rectangle_15229" data-name="Rectangle 15229" width="1" height="1" transform="translate(16 7)"/>
  <rect id="Rectangle_15230" data-name="Rectangle 15230" width="1" height="1" transform="translate(22 7)"/>
  <rect id="Rectangle_15231" data-name="Rectangle 15231" width="1" height="1" transform="translate(28 7)"/>
  <rect id="Rectangle_15236" data-name="Rectangle 15236" width="1" height="1" transform="translate(9 8)"/>
  <rect id="Rectangle_15237" data-name="Rectangle 15237" width="1" height="1" transform="translate(15 8)"/>
  <rect id="Rectangle_15238" data-name="Rectangle 15238" width="1" height="1" transform="translate(21 8)"/>
  <rect id="Rectangle_15239" data-name="Rectangle 15239" width="1" height="1" transform="translate(27 8)"/>
  <rect id="Rectangle_15240" data-name="Rectangle 15240" width="1" height="1" transform="translate(31 8)"/>
  <rect id="Rectangle_15241" data-name="Rectangle 15241" width="1" height="1" transform="translate(33 8)"/>
  <rect id="Rectangle_15246" data-name="Rectangle 15246" width="1" height="1" transform="translate(8 9)"/>
  <rect id="Rectangle_15247" data-name="Rectangle 15247" width="1" height="1" transform="translate(14 9)"/>
  <rect id="Rectangle_15248" data-name="Rectangle 15248" width="1" height="1" transform="translate(20 9)"/>
  <rect id="Rectangle_15249" data-name="Rectangle 15249" width="1" height="1" transform="translate(26 9)"/>
  <rect id="Rectangle_15250" data-name="Rectangle 15250" width="1" height="1" transform="translate(30 9)"/>
  <rect id="Rectangle_15251" data-name="Rectangle 15251" width="1" height="1" transform="translate(32 9)"/>
  <rect id="Rectangle_15256" data-name="Rectangle 15256" width="1" height="1" transform="translate(7 10)"/>
  <rect id="Rectangle_15257" data-name="Rectangle 15257" width="1" height="1" transform="translate(13 10)"/>
  <rect id="Rectangle_15258" data-name="Rectangle 15258" width="1" height="1" transform="translate(19 10)"/>
  <rect id="Rectangle_15259" data-name="Rectangle 15259" width="1" height="1" transform="translate(25 10)"/>
  <rect id="Rectangle_15264" data-name="Rectangle 15264" width="1" height="1" transform="translate(6 11)"/>
  <rect id="Rectangle_15265" data-name="Rectangle 15265" width="1" height="1" transform="translate(12 11)"/>
  <rect id="Rectangle_15266" data-name="Rectangle 15266" width="1" height="1" transform="translate(18 11)"/>
  <rect id="Rectangle_15267" data-name="Rectangle 15267" width="1" height="1" transform="translate(24 11)"/>
  <rect id="Rectangle_15272" data-name="Rectangle 15272" width="1" height="1" transform="translate(7 12)"/>
  <rect id="Rectangle_15273" data-name="Rectangle 15273" width="1" height="1" transform="translate(13 12)"/>
  <rect id="Rectangle_15274" data-name="Rectangle 15274" width="1" height="1" transform="translate(19 12)"/>
  <rect id="Rectangle_15275" data-name="Rectangle 15275" width="1" height="1" transform="translate(25 12)"/>
  <rect id="Rectangle_15280" data-name="Rectangle 15280" width="1" height="1" transform="translate(8 11)"/>
  <rect id="Rectangle_15281" data-name="Rectangle 15281" width="1" height="1" transform="translate(14 11)"/>
  <rect id="Rectangle_15282" data-name="Rectangle 15282" width="1" height="1" transform="translate(20 11)"/>
  <rect id="Rectangle_15283" data-name="Rectangle 15283" width="1" height="1" transform="translate(26 11)"/>
  <rect id="Rectangle_15284" data-name="Rectangle 15284" width="1" height="1" transform="translate(30 11)"/>
  <rect id="Rectangle_15285" data-name="Rectangle 15285" width="1" height="1" transform="translate(32 11)"/>
  <rect id="Rectangle_15290" data-name="Rectangle 15290" width="1" height="1" transform="translate(9 12)"/>
  <rect id="Rectangle_15291" data-name="Rectangle 15291" width="1" height="1" transform="translate(15 12)"/>
  <rect id="Rectangle_15292" data-name="Rectangle 15292" width="1" height="1" transform="translate(21 12)"/>
  <rect id="Rectangle_15293" data-name="Rectangle 15293" width="1" height="1" transform="translate(27 12)"/>
  <rect id="Rectangle_15294" data-name="Rectangle 15294" width="1" height="1" transform="translate(31 12)"/>
  <rect id="Rectangle_15295" data-name="Rectangle 15295" width="1" height="1" transform="translate(33 12)"/>
  <rect id="Rectangle_15300" data-name="Rectangle 15300" width="1" height="1" transform="translate(10 11)"/>
  <rect id="Rectangle_15301" data-name="Rectangle 15301" width="1" height="1" transform="translate(16 11)"/>
  <rect id="Rectangle_15302" data-name="Rectangle 15302" width="1" height="1" transform="translate(22 11)"/>
  <rect id="Rectangle_15303" data-name="Rectangle 15303" width="1" height="1" transform="translate(28 11)"/>
  <rect id="Rectangle_15308" data-name="Rectangle 15308" width="1" height="1" transform="translate(11 12)"/>
  <rect id="Rectangle_15309" data-name="Rectangle 15309" width="1" height="1" transform="translate(17 12)"/>
  <rect id="Rectangle_15310" data-name="Rectangle 15310" width="1" height="1" transform="translate(23 12)"/>
  <rect id="Rectangle_15311" data-name="Rectangle 15311" width="1" height="1" transform="translate(29 12)"/>
  <rect id="Rectangle_15316" data-name="Rectangle 15316" width="1" height="1" transform="translate(11 10)"/>
  <rect id="Rectangle_15317" data-name="Rectangle 15317" width="1" height="1" transform="translate(17 10)"/>
  <rect id="Rectangle_15318" data-name="Rectangle 15318" width="1" height="1" transform="translate(23 10)"/>
  <rect id="Rectangle_15319" data-name="Rectangle 15319" width="1" height="1" transform="translate(29 10)"/>
  <rect id="Rectangle_15324" data-name="Rectangle 15324" width="1" height="1" transform="translate(9 10)"/>
  <rect id="Rectangle_15325" data-name="Rectangle 15325" width="1" height="1" transform="translate(15 10)"/>
  <rect id="Rectangle_15326" data-name="Rectangle 15326" width="1" height="1" transform="translate(21 10)"/>
  <rect id="Rectangle_15327" data-name="Rectangle 15327" width="1" height="1" transform="translate(27 10)"/>
  <rect id="Rectangle_15328" data-name="Rectangle 15328" width="1" height="1" transform="translate(31 10)"/>
  <rect id="Rectangle_15329" data-name="Rectangle 15329" width="1" height="1" transform="translate(33 10)"/>
  <rect id="Rectangle_15334" data-name="Rectangle 15334" width="1" height="1" transform="translate(11 6)"/>
  <rect id="Rectangle_15335" data-name="Rectangle 15335" width="1" height="1" transform="translate(17 6)"/>
  <rect id="Rectangle_15336" data-name="Rectangle 15336" width="1" height="1" transform="translate(23 6)"/>
  <rect id="Rectangle_15337" data-name="Rectangle 15337" width="1" height="1" transform="translate(29 6)"/>
  <rect id="Rectangle_15342" data-name="Rectangle 15342" width="1" height="1" transform="translate(6 1)"/>
  <rect id="Rectangle_15348" data-name="Rectangle 15348" width="1" height="1" transform="translate(17 1)"/>
  <rect id="Rectangle_15351" data-name="Rectangle 15351" width="1" height="1" transform="translate(28 1)"/>
  <rect id="Rectangle_15357" data-name="Rectangle 15357" width="1" height="1" transform="translate(17 14)"/>
  <rect id="Rectangle_15360" data-name="Rectangle 15360" width="1" height="1" transform="translate(28 14)"/>
  <rect id="Rectangle_15369" data-name="Rectangle 15369" width="1" height="1" transform="translate(7)"/>
  <rect id="Rectangle_15375" data-name="Rectangle 15375" width="1" height="1" transform="translate(18)"/>
  <rect id="Rectangle_15378" data-name="Rectangle 15378" width="1" height="1" transform="translate(29)"/>
  <rect id="Rectangle_15384" data-name="Rectangle 15384" width="1" height="1" transform="translate(18 13)"/>
  <rect id="Rectangle_15387" data-name="Rectangle 15387" width="1" height="1" transform="translate(29 13)"/>
  <rect id="Rectangle_15396" data-name="Rectangle 15396" width="1" height="1" transform="translate(7 13)"/>
  <rect id="Rectangle_15405" data-name="Rectangle 15405" width="1" height="1" transform="translate(7 14)"/>
  <rect id="Rectangle_15414" data-name="Rectangle 15414" width="1" height="1" transform="translate(7 1)"/>
  <rect id="Rectangle_15420" data-name="Rectangle 15420" width="1" height="1" transform="translate(18 1)"/>
  <rect id="Rectangle_15423" data-name="Rectangle 15423" width="1" height="1" transform="translate(29 1)"/>
  <rect id="Rectangle_15429" data-name="Rectangle 15429" width="1" height="1" transform="translate(18 14)"/>
  <rect id="Rectangle_15432" data-name="Rectangle 15432" width="1" height="1" transform="translate(29 14)"/>
  <rect id="Rectangle_15441" data-name="Rectangle 15441" width="1" height="1" transform="translate(8)"/>
  <rect id="Rectangle_15447" data-name="Rectangle 15447" width="1" height="1" transform="translate(19)"/>
  <rect id="Rectangle_15450" data-name="Rectangle 15450" width="1" height="1" transform="translate(30)"/>
  <rect id="Rectangle_15456" data-name="Rectangle 15456" width="1" height="1" transform="translate(19 13)"/>
  <rect id="Rectangle_15459" data-name="Rectangle 15459" width="1" height="1" transform="translate(30 13)"/>
  <rect id="Rectangle_15468" data-name="Rectangle 15468" width="1" height="1" transform="translate(8 13)"/>
  <rect id="Rectangle_15477" data-name="Rectangle 15477" width="1" height="1" transform="translate(8 14)"/>
  <rect id="Rectangle_15486" data-name="Rectangle 15486" width="1" height="1" transform="translate(8 1)"/>
  <rect id="Rectangle_15492" data-name="Rectangle 15492" width="1" height="1" transform="translate(19 1)"/>
  <rect id="Rectangle_15495" data-name="Rectangle 15495" width="1" height="1" transform="translate(30 1)"/>
  <rect id="Rectangle_15501" data-name="Rectangle 15501" width="1" height="1" transform="translate(19 14)"/>
  <rect id="Rectangle_15504" data-name="Rectangle 15504" width="1" height="1" transform="translate(30 14)"/>
  <rect id="Rectangle_15513" data-name="Rectangle 15513" width="1" height="1" transform="translate(9)"/>
  <rect id="Rectangle_15519" data-name="Rectangle 15519" width="1" height="1" transform="translate(20)"/>
  <rect id="Rectangle_15522" data-name="Rectangle 15522" width="1" height="1" transform="translate(31)"/>
  <rect id="Rectangle_15528" data-name="Rectangle 15528" width="1" height="1" transform="translate(20 13)"/>
  <rect id="Rectangle_15531" data-name="Rectangle 15531" width="1" height="1" transform="translate(31 13)"/>
  <rect id="Rectangle_15540" data-name="Rectangle 15540" width="1" height="1" transform="translate(9 13)"/>
  <rect id="Rectangle_15549" data-name="Rectangle 15549" width="1" height="1" transform="translate(9 14)"/>
  <rect id="Rectangle_15558" data-name="Rectangle 15558" width="1" height="1" transform="translate(9 1)"/>
  <rect id="Rectangle_15564" data-name="Rectangle 15564" width="1" height="1" transform="translate(20 1)"/>
  <rect id="Rectangle_15567" data-name="Rectangle 15567" width="1" height="1" transform="translate(31 1)"/>
  <rect id="Rectangle_15573" data-name="Rectangle 15573" width="1" height="1" transform="translate(20 14)"/>
  <rect id="Rectangle_15576" data-name="Rectangle 15576" width="1" height="1" transform="translate(31 14)"/>
  <rect id="Rectangle_15585" data-name="Rectangle 15585" width="1" height="1" transform="translate(10)"/>
  <rect id="Rectangle_15591" data-name="Rectangle 15591" width="1" height="1" transform="translate(21)"/>
  <rect id="Rectangle_15594" data-name="Rectangle 15594" width="1" height="1" transform="translate(32)"/>
  <rect id="Rectangle_15600" data-name="Rectangle 15600" width="1" height="1" transform="translate(21 13)"/>
  <rect id="Rectangle_15603" data-name="Rectangle 15603" width="1" height="1" transform="translate(32 13)"/>
  <rect id="Rectangle_15612" data-name="Rectangle 15612" width="1" height="1" transform="translate(10 13)"/>
  <rect id="Rectangle_15621" data-name="Rectangle 15621" width="1" height="1" transform="translate(10 14)"/>
  <rect id="Rectangle_15630" data-name="Rectangle 15630" width="1" height="1" transform="translate(10 1)"/>
  <rect id="Rectangle_15636" data-name="Rectangle 15636" width="1" height="1" transform="translate(21 1)"/>
  <rect id="Rectangle_15639" data-name="Rectangle 15639" width="1" height="1" transform="translate(32 1)"/>
  <rect id="Rectangle_15645" data-name="Rectangle 15645" width="1" height="1" transform="translate(21 14)"/>
  <rect id="Rectangle_15648" data-name="Rectangle 15648" width="1" height="1" transform="translate(32 14)"/>
  <rect id="Rectangle_15657" data-name="Rectangle 15657" width="1" height="1" transform="translate(1 12)"/>
  <rect id="Rectangle_15663" data-name="Rectangle 15663" width="1" height="1" transform="translate(34 12)"/>
  <rect id="Rectangle_15672" data-name="Rectangle 15672" width="1" height="1" transform="translate(1 12)"/>
  <rect id="Rectangle_15678" data-name="Rectangle 15678" width="1" height="1" transform="translate(34 12)"/>
  <rect id="Rectangle_15687" data-name="Rectangle 15687" width="1" height="1" transform="translate(0 12)"/>
  <rect id="Rectangle_15693" data-name="Rectangle 15693" width="1" height="1" transform="translate(33 12)"/>
  <rect id="Rectangle_15702" data-name="Rectangle 15702" width="1" height="1" transform="translate(0 12)"/>
  <rect id="Rectangle_15708" data-name="Rectangle 15708" width="1" height="1" transform="translate(33 12)"/>
</svg>
