<svg xmlns="http://www.w3.org/2000/svg" width="24" height="15" viewBox="0 0 24 15"><rect width="1" height="1" transform="translate(1 2)"/><rect width="1" height="1" transform="translate(23 2)"/><rect width="1" height="1" transform="translate(1 2)"/><rect width="1" height="1" transform="translate(23 2)"/><rect width="1" height="1" transform="translate(0 2)"/><rect width="1" height="1" transform="translate(22 2)"/><rect width="1" height="1" transform="translate(0 2)"/><rect width="1" height="1" transform="translate(22 2)"/><rect width="1" height="1" transform="translate(1 11)"/><rect width="1" height="1" transform="translate(23 11)"/><rect width="1" height="1" transform="translate(1 11)"/><rect width="1" height="1" transform="translate(23 11)"/><rect width="1" height="1" transform="translate(0 11)"/><rect width="1" height="1" transform="translate(22 11)"/><rect width="1" height="1" transform="translate(0 11)"/><rect width="1" height="1" transform="translate(22 11)"/><rect width="1" height="1" transform="translate(1 10)"/><rect width="1" height="1" transform="translate(23 10)"/><rect width="1" height="1" transform="translate(1 10)"/><rect width="1" height="1" transform="translate(23 10)"/><rect width="1" height="1" transform="translate(0 10)"/><rect width="1" height="1" transform="translate(22 10)"/><rect width="1" height="1" transform="translate(0 10)"/><rect width="1" height="1" transform="translate(22 10)"/><rect width="1" height="1" transform="translate(1 9)"/><rect width="1" height="1" transform="translate(23 9)"/><rect width="1" height="1" transform="translate(1 9)"/><rect width="1" height="1" transform="translate(23 9)"/><rect width="1" height="1" transform="translate(0 9)"/><rect width="1" height="1" transform="translate(22 9)"/><rect width="1" height="1" transform="translate(0 9)"/><rect width="1" height="1" transform="translate(22 9)"/><rect width="1" height="1" transform="translate(1 8)"/><rect width="1" height="1" transform="translate(23 8)"/><rect width="1" height="1" transform="translate(1 8)"/><rect width="1" height="1" transform="translate(23 8)"/><rect width="1" height="1" transform="translate(0 8)"/><rect width="1" height="1" transform="translate(22 8)"/><rect width="1" height="1" transform="translate(0 8)"/><rect width="1" height="1" transform="translate(22 8)"/><rect width="1" height="1" transform="translate(1 7)"/><rect width="1" height="1" transform="translate(23 7)"/><rect width="1" height="1" transform="translate(1 7)"/><rect width="1" height="1" transform="translate(23 7)"/><rect width="1" height="1" transform="translate(0 7)"/><rect width="1" height="1" transform="translate(22 7)"/><rect width="1" height="1" transform="translate(0 7)"/><rect width="1" height="1" transform="translate(22 7)"/><rect width="1" height="1" transform="translate(1 6)"/><rect width="1" height="1" transform="translate(23 6)"/><rect width="1" height="1" transform="translate(1 6)"/><rect width="1" height="1" transform="translate(23 6)"/><rect width="1" height="1" transform="translate(0 6)"/><rect width="1" height="1" transform="translate(22 6)"/><rect width="1" height="1" transform="translate(0 6)"/><rect width="1" height="1" transform="translate(22 6)"/><rect width="1" height="1" transform="translate(1 5)"/><rect width="1" height="1" transform="translate(23 5)"/><rect width="1" height="1" transform="translate(1 5)"/><rect width="1" height="1" transform="translate(23 5)"/><rect width="1" height="1" transform="translate(0 5)"/><rect width="1" height="1" transform="translate(22 5)"/><rect width="1" height="1" transform="translate(0 5)"/><rect width="1" height="1" transform="translate(22 5)"/><rect width="1" height="1" transform="translate(1 4)"/><rect width="1" height="1" transform="translate(23 4)"/><rect width="1" height="1" transform="translate(1 4)"/><rect width="1" height="1" transform="translate(23 4)"/><rect width="1" height="1" transform="translate(0 4)"/><rect width="1" height="1" transform="translate(22 4)"/><rect width="1" height="1" transform="translate(0 4)"/><rect width="1" height="1" transform="translate(22 4)"/><rect width="1" height="1" transform="translate(1 3)"/><rect width="1" height="1" transform="translate(23 3)"/><rect width="1" height="1" transform="translate(1 3)"/><rect width="1" height="1" transform="translate(23 3)"/><rect width="1" height="1" transform="translate(0 3)"/><rect width="1" height="1" transform="translate(22 3)"/><rect width="1" height="1" transform="translate(0 3)"/><rect width="1" height="1" transform="translate(22 3)"/><rect width="1" height="1" transform="translate(2)"/><rect width="1" height="1" transform="translate(13)"/><rect width="1" height="1" transform="translate(13 13)"/><rect width="1" height="1" transform="translate(2 13)"/><rect width="1" height="1" transform="translate(2 14)"/><rect width="1" height="1" transform="translate(2 1)"/><rect width="1" height="1" transform="translate(13 1)"/><rect width="1" height="1" transform="translate(12 1)"/><rect width="1" height="1" transform="translate(12 12)"/><rect width="1" height="1" transform="translate(11 1)"/><rect width="1" height="1" transform="translate(11 12)"/><rect width="1" height="1" transform="translate(11 2)"/><rect width="1" height="1" transform="translate(11 13)"/><rect width="1" height="1" transform="translate(12 2)"/><rect width="1" height="1" transform="translate(12 13)"/><rect width="1" height="1" transform="translate(13 14)"/><rect width="1" height="1" transform="translate(3)"/><rect width="1" height="1" transform="translate(14)"/><rect width="1" height="1" transform="translate(14 13)"/><rect width="1" height="1" transform="translate(3 13)"/><rect width="1" height="1" transform="translate(3 14)"/><rect width="1" height="1" transform="translate(3 1)"/><rect width="1" height="1" transform="translate(14 1)"/><rect width="1" height="1" transform="translate(14 14)"/><rect width="1" height="1" transform="translate(4)"/><rect width="1" height="1" transform="translate(15)"/><rect width="1" height="1" transform="translate(15 13)"/><rect width="1" height="1" transform="translate(4 13)"/><rect width="1" height="1" transform="translate(4 14)"/><rect width="1" height="1" transform="translate(4 1)"/><rect width="1" height="1" transform="translate(15 1)"/><rect width="1" height="1" transform="translate(15 14)"/><rect width="1" height="1" transform="translate(5)"/><rect width="1" height="1" transform="translate(16)"/><rect width="1" height="1" transform="translate(16 13)"/><rect width="1" height="1" transform="translate(5 13)"/><rect width="1" height="1" transform="translate(5 14)"/><rect width="1" height="1" transform="translate(5 1)"/><rect width="1" height="1" transform="translate(16 1)"/><rect width="1" height="1" transform="translate(16 14)"/><rect width="1" height="1" transform="translate(6)"/><rect width="1" height="1" transform="translate(17)"/><rect width="1" height="1" transform="translate(17 13)"/><rect width="1" height="1" transform="translate(6 13)"/><rect width="1" height="1" transform="translate(6 14)"/><rect width="1" height="1" transform="translate(6 1)"/><rect width="1" height="1" transform="translate(17 1)"/><rect width="1" height="1" transform="translate(17 14)"/><rect width="1" height="1" transform="translate(7)"/><rect width="1" height="1" transform="translate(18)"/><rect width="1" height="1" transform="translate(18 13)"/><rect width="1" height="1" transform="translate(7 13)"/><rect width="1" height="1" transform="translate(7 14)"/><rect width="1" height="1" transform="translate(7 1)"/><rect width="1" height="1" transform="translate(18 1)"/><rect width="1" height="1" transform="translate(18 14)"/><rect width="1" height="1" transform="translate(8)"/><rect width="1" height="1" transform="translate(19)"/><rect width="1" height="1" transform="translate(19 13)"/><rect width="1" height="1" transform="translate(8 13)"/><rect width="1" height="1" transform="translate(8 14)"/><rect width="1" height="1" transform="translate(8 1)"/><rect width="1" height="1" transform="translate(19 1)"/><rect width="1" height="1" transform="translate(19 14)"/><rect width="1" height="1" transform="translate(9)"/><rect width="1" height="1" transform="translate(20)"/><rect width="1" height="1" transform="translate(20 13)"/><rect width="1" height="1" transform="translate(9 13)"/><rect width="1" height="1" transform="translate(9 14)"/><rect width="1" height="1" transform="translate(9 1)"/><rect width="1" height="1" transform="translate(20 1)"/><rect width="1" height="1" transform="translate(20 14)"/><rect width="1" height="1" transform="translate(10)"/><rect width="1" height="1" transform="translate(21)"/><rect width="1" height="1" transform="translate(21 13)"/><rect width="1" height="1" transform="translate(10 13)"/><rect width="1" height="1" transform="translate(10 14)"/><rect width="1" height="1" transform="translate(10 1)"/><rect width="1" height="1" transform="translate(21 1)"/><rect width="1" height="1" transform="translate(21 14)"/><rect width="1" height="1" transform="translate(1 12)"/><rect width="1" height="1" transform="translate(23 12)"/><rect width="1" height="1" transform="translate(1 12)"/><rect width="1" height="1" transform="translate(23 12)"/><rect width="1" height="1" transform="translate(0 12)"/><rect width="1" height="1" transform="translate(22 12)"/><rect width="1" height="1" transform="translate(0 12)"/><rect width="1" height="1" transform="translate(22 12)"/><rect width="16" height="9" transform="translate(6 4)"/></svg>