<svg xmlns="http://www.w3.org/2000/svg" width="13" height="15" viewBox="0 0 13 15"><rect width="1" height="1" transform="translate(1 2)"/><rect width="1" height="1" transform="translate(1 2)"/><rect width="1" height="1" transform="translate(1 2)"/><rect width="1" height="1" transform="translate(1 2)"/><rect width="1" height="1" transform="translate(0 2)"/><rect width="1" height="1" transform="translate(0 2)"/><rect width="1" height="1" transform="translate(0 2)"/><rect width="1" height="1" transform="translate(0 2)"/><rect width="1" height="1" transform="translate(11 2)"/><rect width="1" height="1" transform="translate(11 2)"/><rect width="1" height="1" transform="translate(12 2)"/><rect width="1" height="1" transform="translate(12 2)"/><rect width="1" height="1" transform="translate(11 2)"/><rect width="1" height="1" transform="translate(11 2)"/><rect width="1" height="1" transform="translate(12 2)"/><rect width="1" height="1" transform="translate(12 2)"/><rect width="1" height="1" transform="translate(1 11)"/><rect width="1" height="1" transform="translate(1 11)"/><rect width="1" height="1" transform="translate(1 11)"/><rect width="1" height="1" transform="translate(1 11)"/><rect width="1" height="1" transform="translate(0 11)"/><rect width="1" height="1" transform="translate(0 11)"/><rect width="1" height="1" transform="translate(0 11)"/><rect width="1" height="1" transform="translate(0 11)"/><rect width="1" height="1" transform="translate(11 11)"/><rect width="1" height="1" transform="translate(11 11)"/><rect width="1" height="1" transform="translate(12 11)"/><rect width="1" height="1" transform="translate(12 11)"/><rect width="1" height="1" transform="translate(11 11)"/><rect width="1" height="1" transform="translate(11 11)"/><rect width="1" height="1" transform="translate(12 11)"/><rect width="1" height="1" transform="translate(12 11)"/><rect width="1" height="1" transform="translate(1 10)"/><rect width="1" height="1" transform="translate(1 10)"/><rect width="1" height="1" transform="translate(1 10)"/><rect width="1" height="1" transform="translate(1 10)"/><rect width="1" height="1" transform="translate(0 10)"/><rect width="1" height="1" transform="translate(0 10)"/><rect width="1" height="1" transform="translate(0 10)"/><rect width="1" height="1" transform="translate(0 10)"/><rect width="1" height="1" transform="translate(11 10)"/><rect width="1" height="1" transform="translate(11 10)"/><rect width="1" height="1" transform="translate(12 10)"/><rect width="1" height="1" transform="translate(12 10)"/><rect width="1" height="1" transform="translate(11 10)"/><rect width="1" height="1" transform="translate(11 10)"/><rect width="1" height="1" transform="translate(12 10)"/><rect width="1" height="1" transform="translate(12 10)"/><rect width="1" height="1" transform="translate(1 9)"/><rect width="1" height="1" transform="translate(1 9)"/><rect width="1" height="1" transform="translate(1 9)"/><rect width="1" height="1" transform="translate(1 9)"/><rect width="1" height="1" transform="translate(0 9)"/><rect width="1" height="1" transform="translate(0 9)"/><rect width="1" height="1" transform="translate(0 9)"/><rect width="1" height="1" transform="translate(0 9)"/><rect width="1" height="1" transform="translate(11 9)"/><rect width="1" height="1" transform="translate(11 9)"/><rect width="1" height="1" transform="translate(12 9)"/><rect width="1" height="1" transform="translate(12 9)"/><rect width="1" height="1" transform="translate(11 9)"/><rect width="1" height="1" transform="translate(11 9)"/><rect width="1" height="1" transform="translate(12 9)"/><rect width="1" height="1" transform="translate(12 9)"/><rect width="1" height="1" transform="translate(1 8)"/><rect width="1" height="1" transform="translate(1 8)"/><rect width="1" height="1" transform="translate(1 8)"/><rect width="1" height="1" transform="translate(1 8)"/><rect width="1" height="1" transform="translate(0 8)"/><rect width="1" height="1" transform="translate(0 8)"/><rect width="1" height="1" transform="translate(0 8)"/><rect width="1" height="1" transform="translate(0 8)"/><rect width="1" height="1" transform="translate(11 8)"/><rect width="1" height="1" transform="translate(11 8)"/><rect width="1" height="1" transform="translate(12 8)"/><rect width="1" height="1" transform="translate(12 8)"/><rect width="1" height="1" transform="translate(11 8)"/><rect width="1" height="1" transform="translate(11 8)"/><rect width="1" height="1" transform="translate(12 8)"/><rect width="1" height="1" transform="translate(12 8)"/><rect width="1" height="1" transform="translate(1 7)"/><rect width="1" height="1" transform="translate(1 7)"/><rect width="1" height="1" transform="translate(1 7)"/><rect width="1" height="1" transform="translate(1 7)"/><rect width="1" height="1" transform="translate(0 7)"/><rect width="1" height="1" transform="translate(0 7)"/><rect width="1" height="1" transform="translate(0 7)"/><rect width="1" height="1" transform="translate(0 7)"/><rect width="1" height="1" transform="translate(11 7)"/><rect width="1" height="1" transform="translate(11 7)"/><rect width="1" height="1" transform="translate(12 7)"/><rect width="1" height="1" transform="translate(12 7)"/><rect width="1" height="1" transform="translate(11 7)"/><rect width="1" height="1" transform="translate(11 7)"/><rect width="1" height="1" transform="translate(12 7)"/><rect width="1" height="1" transform="translate(12 7)"/><rect width="1" height="1" transform="translate(1 6)"/><rect width="1" height="1" transform="translate(1 6)"/><rect width="1" height="1" transform="translate(1 6)"/><rect width="1" height="1" transform="translate(1 6)"/><rect width="1" height="1" transform="translate(0 6)"/><rect width="1" height="1" transform="translate(0 6)"/><rect width="1" height="1" transform="translate(0 6)"/><rect width="1" height="1" transform="translate(0 6)"/><rect width="1" height="1" transform="translate(11 6)"/><rect width="1" height="1" transform="translate(11 6)"/><rect width="1" height="1" transform="translate(12 6)"/><rect width="1" height="1" transform="translate(12 6)"/><rect width="1" height="1" transform="translate(11 6)"/><rect width="1" height="1" transform="translate(11 6)"/><rect width="1" height="1" transform="translate(12 6)"/><rect width="1" height="1" transform="translate(12 6)"/><rect width="1" height="1" transform="translate(1 5)"/><rect width="1" height="1" transform="translate(1 5)"/><rect width="1" height="1" transform="translate(1 5)"/><rect width="1" height="1" transform="translate(1 5)"/><rect width="1" height="1" transform="translate(0 5)"/><rect width="1" height="1" transform="translate(0 5)"/><rect width="1" height="1" transform="translate(0 5)"/><rect width="1" height="1" transform="translate(0 5)"/><rect width="1" height="1" transform="translate(11 5)"/><rect width="1" height="1" transform="translate(11 5)"/><rect width="1" height="1" transform="translate(12 5)"/><rect width="1" height="1" transform="translate(12 5)"/><rect width="1" height="1" transform="translate(11 5)"/><rect width="1" height="1" transform="translate(11 5)"/><rect width="1" height="1" transform="translate(12 5)"/><rect width="1" height="1" transform="translate(12 5)"/><rect width="1" height="1" transform="translate(1 4)"/><rect width="1" height="1" transform="translate(1 4)"/><rect width="1" height="1" transform="translate(1 4)"/><rect width="1" height="1" transform="translate(1 4)"/><rect width="1" height="1" transform="translate(0 4)"/><rect width="1" height="1" transform="translate(0 4)"/><rect width="1" height="1" transform="translate(0 4)"/><rect width="1" height="1" transform="translate(0 4)"/><rect width="1" height="1" transform="translate(11 4)"/><rect width="1" height="1" transform="translate(11 4)"/><rect width="1" height="1" transform="translate(12 4)"/><rect width="1" height="1" transform="translate(12 4)"/><rect width="1" height="1" transform="translate(11 4)"/><rect width="1" height="1" transform="translate(11 4)"/><rect width="1" height="1" transform="translate(12 4)"/><rect width="1" height="1" transform="translate(12 4)"/><rect width="1" height="1" transform="translate(1 3)"/><rect width="1" height="1" transform="translate(1 3)"/><rect width="1" height="1" transform="translate(1 3)"/><rect width="1" height="1" transform="translate(1 3)"/><rect width="1" height="1" transform="translate(0 3)"/><rect width="1" height="1" transform="translate(0 3)"/><rect width="1" height="1" transform="translate(0 3)"/><rect width="1" height="1" transform="translate(0 3)"/><rect width="1" height="1" transform="translate(11 3)"/><rect width="1" height="1" transform="translate(11 3)"/><rect width="1" height="1" transform="translate(12 3)"/><rect width="1" height="1" transform="translate(12 3)"/><rect width="1" height="1" transform="translate(11 3)"/><rect width="1" height="1" transform="translate(11 3)"/><rect width="1" height="1" transform="translate(12 3)"/><rect width="1" height="1" transform="translate(12 3)"/><rect width="1" height="1" transform="translate(2)"/><rect width="1" height="1" transform="translate(2)"/><rect width="1" height="1" transform="translate(2 13)"/><rect width="1" height="1" transform="translate(2 13)"/><rect width="1" height="1" transform="translate(2 14)"/><rect width="1" height="1" transform="translate(2 14)"/><rect width="1" height="1" transform="translate(2 1)"/><rect width="1" height="1" transform="translate(2 1)"/><rect width="1" height="1" transform="translate(3)"/><rect width="1" height="1" transform="translate(3)"/><rect width="1" height="1" transform="translate(3 13)"/><rect width="1" height="1" transform="translate(3 13)"/><rect width="1" height="1" transform="translate(3 14)"/><rect width="1" height="1" transform="translate(3 14)"/><rect width="1" height="1" transform="translate(3 1)"/><rect width="1" height="1" transform="translate(3 1)"/><rect width="1" height="1" transform="translate(4)"/><rect width="1" height="1" transform="translate(4)"/><rect width="1" height="1" transform="translate(4 13)"/><rect width="1" height="1" transform="translate(4 13)"/><rect width="1" height="1" transform="translate(4 14)"/><rect width="1" height="1" transform="translate(4 14)"/><rect width="1" height="1" transform="translate(4 1)"/><rect width="1" height="1" transform="translate(4 1)"/><rect width="1" height="1" transform="translate(5)"/><rect width="1" height="1" transform="translate(5)"/><rect width="1" height="1" transform="translate(5 13)"/><rect width="1" height="1" transform="translate(5 13)"/><rect width="1" height="1" transform="translate(5 14)"/><rect width="1" height="1" transform="translate(5 14)"/><rect width="1" height="1" transform="translate(5 1)"/><rect width="1" height="1" transform="translate(5 1)"/><rect width="1" height="1" transform="translate(6)"/><rect width="1" height="1" transform="translate(6)"/><rect width="1" height="1" transform="translate(6 13)"/><rect width="1" height="1" transform="translate(6 13)"/><rect width="1" height="1" transform="translate(6 14)"/><rect width="1" height="1" transform="translate(6 14)"/><rect width="1" height="1" transform="translate(6 1)"/><rect width="1" height="1" transform="translate(6 1)"/><rect width="1" height="1" transform="translate(10 4)"/><rect width="1" height="1" transform="translate(9 5)"/><rect width="1" height="1" transform="translate(8 4)"/><rect width="1" height="1" transform="translate(7 5)"/><rect width="1" height="1" transform="translate(6 4)"/><rect width="1" height="1" transform="translate(5 5)"/><rect width="1" height="1" transform="translate(6 6)"/><rect width="1" height="1" transform="translate(5 7)"/><rect width="1" height="1" transform="translate(6 8)"/><rect width="1" height="1" transform="translate(10 8)"/><rect width="1" height="1" transform="translate(9 9)"/><rect width="1" height="1" transform="translate(5 9)"/><rect width="1" height="1" transform="translate(7 7)"/><rect width="1" height="1" transform="translate(8 6)"/><rect width="1" height="1" transform="translate(9 7)"/><rect width="1" height="1" transform="translate(8 8)"/><rect width="1" height="1" transform="translate(7 9)"/><rect width="1" height="1" transform="translate(6 10)"/><rect width="1" height="1" transform="translate(5 11)"/><rect width="1" height="1" transform="translate(6 12)"/><rect width="1" height="1" transform="translate(7 11)"/><rect width="1" height="1" transform="translate(8 12)"/><rect width="1" height="1" transform="translate(9 11)"/><rect width="1" height="1" transform="translate(10 12)"/><rect width="1" height="1" transform="translate(10 10)"/><rect width="1" height="1" transform="translate(8 10)"/><rect width="1" height="1" transform="translate(10 6)"/><rect width="1" height="1" transform="translate(7)"/><rect width="1" height="1" transform="translate(7)"/><rect width="1" height="1" transform="translate(7 13)"/><rect width="1" height="1" transform="translate(7 13)"/><rect width="1" height="1" transform="translate(7 14)"/><rect width="1" height="1" transform="translate(7 14)"/><rect width="1" height="1" transform="translate(7 1)"/><rect width="1" height="1" transform="translate(7 1)"/><rect width="1" height="1" transform="translate(8)"/><rect width="1" height="1" transform="translate(8)"/><rect width="1" height="1" transform="translate(8 13)"/><rect width="1" height="1" transform="translate(8 13)"/><rect width="1" height="1" transform="translate(8 14)"/><rect width="1" height="1" transform="translate(8 14)"/><rect width="1" height="1" transform="translate(8 1)"/><rect width="1" height="1" transform="translate(8 1)"/><rect width="1" height="1" transform="translate(9)"/><rect width="1" height="1" transform="translate(9)"/><rect width="1" height="1" transform="translate(9 13)"/><rect width="1" height="1" transform="translate(9 13)"/><rect width="1" height="1" transform="translate(9 14)"/><rect width="1" height="1" transform="translate(9 14)"/><rect width="1" height="1" transform="translate(9 1)"/><rect width="1" height="1" transform="translate(9 1)"/><rect width="1" height="1" transform="translate(10)"/><rect width="1" height="1" transform="translate(10)"/><rect width="1" height="1" transform="translate(10 13)"/><rect width="1" height="1" transform="translate(10 13)"/><rect width="1" height="1" transform="translate(10 14)"/><rect width="1" height="1" transform="translate(10 14)"/><rect width="1" height="1" transform="translate(10 1)"/><rect width="1" height="1" transform="translate(10 1)"/><rect width="1" height="1" transform="translate(1 12)"/><rect width="1" height="1" transform="translate(1 12)"/><rect width="1" height="1" transform="translate(1 12)"/><rect width="1" height="1" transform="translate(1 12)"/><rect width="1" height="1" transform="translate(0 12)"/><rect width="1" height="1" transform="translate(0 12)"/><rect width="1" height="1" transform="translate(0 12)"/><rect width="1" height="1" transform="translate(0 12)"/><rect width="1" height="1" transform="translate(11 12)"/><rect width="1" height="1" transform="translate(11 12)"/><rect width="1" height="1" transform="translate(12 12)"/><rect width="1" height="1" transform="translate(12 12)"/><rect width="1" height="1" transform="translate(11 12)"/><rect width="1" height="1" transform="translate(11 12)"/><rect width="1" height="1" transform="translate(12 12)"/><rect width="1" height="1" transform="translate(12 12)"/></svg>