<svg id="Brick_-_Small_-_Weak" data-name="Brick - Small - Weak" xmlns="http://www.w3.org/2000/svg" width="13" height="15" viewBox="0 0 13 15">
  <rect id="Rectangle_13958" data-name="Rectangle 13958" width="1" height="1" transform="translate(1 2)"/>
  <rect id="Rectangle_13960" data-name="Rectangle 13960" width="1" height="1" transform="translate(1 2)"/>
  <rect id="Rectangle_13973" data-name="Rectangle 13973" width="1" height="1" transform="translate(1 2)"/>
  <rect id="Rectangle_13975" data-name="Rectangle 13975" width="1" height="1" transform="translate(1 2)"/>
  <rect id="Rectangle_13988" data-name="Rectangle 13988" width="1" height="1" transform="translate(0 2)"/>
  <rect id="Rectangle_13990" data-name="Rectangle 13990" width="1" height="1" transform="translate(0 2)"/>
  <rect id="Rectangle_14003" data-name="Rectangle 14003" width="1" height="1" transform="translate(0 2)"/>
  <rect id="Rectangle_14005" data-name="Rectangle 14005" width="1" height="1" transform="translate(0 2)"/>
  <rect id="Rectangle_14018" data-name="Rectangle 14018" width="1" height="1" transform="translate(11 2)"/>
  <rect id="Rectangle_14020" data-name="Rectangle 14020" width="1" height="1" transform="translate(11 2)"/>
  <rect id="Rectangle_14022" data-name="Rectangle 14022" width="1" height="1" transform="translate(12 2)"/>
  <rect id="Rectangle_14024" data-name="Rectangle 14024" width="1" height="1" transform="translate(12 2)"/>
  <rect id="Rectangle_14026" data-name="Rectangle 14026" width="1" height="1" transform="translate(11 2)"/>
  <rect id="Rectangle_14028" data-name="Rectangle 14028" width="1" height="1" transform="translate(11 2)"/>
  <rect id="Rectangle_14030" data-name="Rectangle 14030" width="1" height="1" transform="translate(12 2)"/>
  <rect id="Rectangle_14032" data-name="Rectangle 14032" width="1" height="1" transform="translate(12 2)"/>
  <rect id="Rectangle_14034" data-name="Rectangle 14034" width="1" height="1" transform="translate(1 11)"/>
  <rect id="Rectangle_14036" data-name="Rectangle 14036" width="1" height="1" transform="translate(1 11)"/>
  <rect id="Rectangle_14049" data-name="Rectangle 14049" width="1" height="1" transform="translate(1 11)"/>
  <rect id="Rectangle_14051" data-name="Rectangle 14051" width="1" height="1" transform="translate(1 11)"/>
  <rect id="Rectangle_14064" data-name="Rectangle 14064" width="1" height="1" transform="translate(0 11)"/>
  <rect id="Rectangle_14066" data-name="Rectangle 14066" width="1" height="1" transform="translate(0 11)"/>
  <rect id="Rectangle_14079" data-name="Rectangle 14079" width="1" height="1" transform="translate(0 11)"/>
  <rect id="Rectangle_14081" data-name="Rectangle 14081" width="1" height="1" transform="translate(0 11)"/>
  <rect id="Rectangle_14094" data-name="Rectangle 14094" width="1" height="1" transform="translate(11 11)"/>
  <rect id="Rectangle_14096" data-name="Rectangle 14096" width="1" height="1" transform="translate(11 11)"/>
  <rect id="Rectangle_14098" data-name="Rectangle 14098" width="1" height="1" transform="translate(12 11)"/>
  <rect id="Rectangle_14100" data-name="Rectangle 14100" width="1" height="1" transform="translate(12 11)"/>
  <rect id="Rectangle_14102" data-name="Rectangle 14102" width="1" height="1" transform="translate(11 11)"/>
  <rect id="Rectangle_14104" data-name="Rectangle 14104" width="1" height="1" transform="translate(11 11)"/>
  <rect id="Rectangle_14106" data-name="Rectangle 14106" width="1" height="1" transform="translate(12 11)"/>
  <rect id="Rectangle_14108" data-name="Rectangle 14108" width="1" height="1" transform="translate(12 11)"/>
  <rect id="Rectangle_14110" data-name="Rectangle 14110" width="1" height="1" transform="translate(1 10)"/>
  <rect id="Rectangle_14112" data-name="Rectangle 14112" width="1" height="1" transform="translate(1 10)"/>
  <rect id="Rectangle_14125" data-name="Rectangle 14125" width="1" height="1" transform="translate(1 10)"/>
  <rect id="Rectangle_14127" data-name="Rectangle 14127" width="1" height="1" transform="translate(1 10)"/>
  <rect id="Rectangle_14140" data-name="Rectangle 14140" width="1" height="1" transform="translate(0 10)"/>
  <rect id="Rectangle_14142" data-name="Rectangle 14142" width="1" height="1" transform="translate(0 10)"/>
  <rect id="Rectangle_14155" data-name="Rectangle 14155" width="1" height="1" transform="translate(0 10)"/>
  <rect id="Rectangle_14157" data-name="Rectangle 14157" width="1" height="1" transform="translate(0 10)"/>
  <rect id="Rectangle_14170" data-name="Rectangle 14170" width="1" height="1" transform="translate(11 10)"/>
  <rect id="Rectangle_14172" data-name="Rectangle 14172" width="1" height="1" transform="translate(11 10)"/>
  <rect id="Rectangle_14174" data-name="Rectangle 14174" width="1" height="1" transform="translate(12 10)"/>
  <rect id="Rectangle_14176" data-name="Rectangle 14176" width="1" height="1" transform="translate(12 10)"/>
  <rect id="Rectangle_14178" data-name="Rectangle 14178" width="1" height="1" transform="translate(11 10)"/>
  <rect id="Rectangle_14180" data-name="Rectangle 14180" width="1" height="1" transform="translate(11 10)"/>
  <rect id="Rectangle_14182" data-name="Rectangle 14182" width="1" height="1" transform="translate(12 10)"/>
  <rect id="Rectangle_14184" data-name="Rectangle 14184" width="1" height="1" transform="translate(12 10)"/>
  <rect id="Rectangle_14186" data-name="Rectangle 14186" width="1" height="1" transform="translate(1 9)"/>
  <rect id="Rectangle_14188" data-name="Rectangle 14188" width="1" height="1" transform="translate(1 9)"/>
  <rect id="Rectangle_14201" data-name="Rectangle 14201" width="1" height="1" transform="translate(1 9)"/>
  <rect id="Rectangle_14203" data-name="Rectangle 14203" width="1" height="1" transform="translate(1 9)"/>
  <rect id="Rectangle_14216" data-name="Rectangle 14216" width="1" height="1" transform="translate(0 9)"/>
  <rect id="Rectangle_14218" data-name="Rectangle 14218" width="1" height="1" transform="translate(0 9)"/>
  <rect id="Rectangle_14231" data-name="Rectangle 14231" width="1" height="1" transform="translate(0 9)"/>
  <rect id="Rectangle_14233" data-name="Rectangle 14233" width="1" height="1" transform="translate(0 9)"/>
  <rect id="Rectangle_14246" data-name="Rectangle 14246" width="1" height="1" transform="translate(11 9)"/>
  <rect id="Rectangle_14248" data-name="Rectangle 14248" width="1" height="1" transform="translate(11 9)"/>
  <rect id="Rectangle_14250" data-name="Rectangle 14250" width="1" height="1" transform="translate(12 9)"/>
  <rect id="Rectangle_14252" data-name="Rectangle 14252" width="1" height="1" transform="translate(12 9)"/>
  <rect id="Rectangle_14254" data-name="Rectangle 14254" width="1" height="1" transform="translate(11 9)"/>
  <rect id="Rectangle_14256" data-name="Rectangle 14256" width="1" height="1" transform="translate(11 9)"/>
  <rect id="Rectangle_14258" data-name="Rectangle 14258" width="1" height="1" transform="translate(12 9)"/>
  <rect id="Rectangle_14260" data-name="Rectangle 14260" width="1" height="1" transform="translate(12 9)"/>
  <rect id="Rectangle_14262" data-name="Rectangle 14262" width="1" height="1" transform="translate(1 8)"/>
  <rect id="Rectangle_14264" data-name="Rectangle 14264" width="1" height="1" transform="translate(1 8)"/>
  <rect id="Rectangle_14277" data-name="Rectangle 14277" width="1" height="1" transform="translate(1 8)"/>
  <rect id="Rectangle_14279" data-name="Rectangle 14279" width="1" height="1" transform="translate(1 8)"/>
  <rect id="Rectangle_14292" data-name="Rectangle 14292" width="1" height="1" transform="translate(0 8)"/>
  <rect id="Rectangle_14294" data-name="Rectangle 14294" width="1" height="1" transform="translate(0 8)"/>
  <rect id="Rectangle_14307" data-name="Rectangle 14307" width="1" height="1" transform="translate(0 8)"/>
  <rect id="Rectangle_14309" data-name="Rectangle 14309" width="1" height="1" transform="translate(0 8)"/>
  <rect id="Rectangle_14322" data-name="Rectangle 14322" width="1" height="1" transform="translate(11 8)"/>
  <rect id="Rectangle_14324" data-name="Rectangle 14324" width="1" height="1" transform="translate(11 8)"/>
  <rect id="Rectangle_14326" data-name="Rectangle 14326" width="1" height="1" transform="translate(12 8)"/>
  <rect id="Rectangle_14328" data-name="Rectangle 14328" width="1" height="1" transform="translate(12 8)"/>
  <rect id="Rectangle_14330" data-name="Rectangle 14330" width="1" height="1" transform="translate(11 8)"/>
  <rect id="Rectangle_14332" data-name="Rectangle 14332" width="1" height="1" transform="translate(11 8)"/>
  <rect id="Rectangle_14334" data-name="Rectangle 14334" width="1" height="1" transform="translate(12 8)"/>
  <rect id="Rectangle_14336" data-name="Rectangle 14336" width="1" height="1" transform="translate(12 8)"/>
  <rect id="Rectangle_14338" data-name="Rectangle 14338" width="1" height="1" transform="translate(1 7)"/>
  <rect id="Rectangle_14340" data-name="Rectangle 14340" width="1" height="1" transform="translate(1 7)"/>
  <rect id="Rectangle_14353" data-name="Rectangle 14353" width="1" height="1" transform="translate(1 7)"/>
  <rect id="Rectangle_14355" data-name="Rectangle 14355" width="1" height="1" transform="translate(1 7)"/>
  <rect id="Rectangle_14368" data-name="Rectangle 14368" width="1" height="1" transform="translate(0 7)"/>
  <rect id="Rectangle_14370" data-name="Rectangle 14370" width="1" height="1" transform="translate(0 7)"/>
  <rect id="Rectangle_14383" data-name="Rectangle 14383" width="1" height="1" transform="translate(0 7)"/>
  <rect id="Rectangle_14385" data-name="Rectangle 14385" width="1" height="1" transform="translate(0 7)"/>
  <rect id="Rectangle_14398" data-name="Rectangle 14398" width="1" height="1" transform="translate(11 7)"/>
  <rect id="Rectangle_14400" data-name="Rectangle 14400" width="1" height="1" transform="translate(11 7)"/>
  <rect id="Rectangle_14402" data-name="Rectangle 14402" width="1" height="1" transform="translate(12 7)"/>
  <rect id="Rectangle_14404" data-name="Rectangle 14404" width="1" height="1" transform="translate(12 7)"/>
  <rect id="Rectangle_14406" data-name="Rectangle 14406" width="1" height="1" transform="translate(11 7)"/>
  <rect id="Rectangle_14408" data-name="Rectangle 14408" width="1" height="1" transform="translate(11 7)"/>
  <rect id="Rectangle_14410" data-name="Rectangle 14410" width="1" height="1" transform="translate(12 7)"/>
  <rect id="Rectangle_14412" data-name="Rectangle 14412" width="1" height="1" transform="translate(12 7)"/>
  <rect id="Rectangle_14414" data-name="Rectangle 14414" width="1" height="1" transform="translate(1 6)"/>
  <rect id="Rectangle_14416" data-name="Rectangle 14416" width="1" height="1" transform="translate(1 6)"/>
  <rect id="Rectangle_14429" data-name="Rectangle 14429" width="1" height="1" transform="translate(1 6)"/>
  <rect id="Rectangle_14431" data-name="Rectangle 14431" width="1" height="1" transform="translate(1 6)"/>
  <rect id="Rectangle_14444" data-name="Rectangle 14444" width="1" height="1" transform="translate(0 6)"/>
  <rect id="Rectangle_14446" data-name="Rectangle 14446" width="1" height="1" transform="translate(0 6)"/>
  <rect id="Rectangle_14459" data-name="Rectangle 14459" width="1" height="1" transform="translate(0 6)"/>
  <rect id="Rectangle_14461" data-name="Rectangle 14461" width="1" height="1" transform="translate(0 6)"/>
  <rect id="Rectangle_14474" data-name="Rectangle 14474" width="1" height="1" transform="translate(11 6)"/>
  <rect id="Rectangle_14476" data-name="Rectangle 14476" width="1" height="1" transform="translate(11 6)"/>
  <rect id="Rectangle_14478" data-name="Rectangle 14478" width="1" height="1" transform="translate(12 6)"/>
  <rect id="Rectangle_14480" data-name="Rectangle 14480" width="1" height="1" transform="translate(12 6)"/>
  <rect id="Rectangle_14482" data-name="Rectangle 14482" width="1" height="1" transform="translate(11 6)"/>
  <rect id="Rectangle_14484" data-name="Rectangle 14484" width="1" height="1" transform="translate(11 6)"/>
  <rect id="Rectangle_14486" data-name="Rectangle 14486" width="1" height="1" transform="translate(12 6)"/>
  <rect id="Rectangle_14488" data-name="Rectangle 14488" width="1" height="1" transform="translate(12 6)"/>
  <rect id="Rectangle_14490" data-name="Rectangle 14490" width="1" height="1" transform="translate(1 5)"/>
  <rect id="Rectangle_14492" data-name="Rectangle 14492" width="1" height="1" transform="translate(1 5)"/>
  <rect id="Rectangle_14505" data-name="Rectangle 14505" width="1" height="1" transform="translate(1 5)"/>
  <rect id="Rectangle_14507" data-name="Rectangle 14507" width="1" height="1" transform="translate(1 5)"/>
  <rect id="Rectangle_14520" data-name="Rectangle 14520" width="1" height="1" transform="translate(0 5)"/>
  <rect id="Rectangle_14522" data-name="Rectangle 14522" width="1" height="1" transform="translate(0 5)"/>
  <rect id="Rectangle_14535" data-name="Rectangle 14535" width="1" height="1" transform="translate(0 5)"/>
  <rect id="Rectangle_14537" data-name="Rectangle 14537" width="1" height="1" transform="translate(0 5)"/>
  <rect id="Rectangle_14550" data-name="Rectangle 14550" width="1" height="1" transform="translate(11 5)"/>
  <rect id="Rectangle_14552" data-name="Rectangle 14552" width="1" height="1" transform="translate(11 5)"/>
  <rect id="Rectangle_14554" data-name="Rectangle 14554" width="1" height="1" transform="translate(12 5)"/>
  <rect id="Rectangle_14556" data-name="Rectangle 14556" width="1" height="1" transform="translate(12 5)"/>
  <rect id="Rectangle_14558" data-name="Rectangle 14558" width="1" height="1" transform="translate(11 5)"/>
  <rect id="Rectangle_14560" data-name="Rectangle 14560" width="1" height="1" transform="translate(11 5)"/>
  <rect id="Rectangle_14562" data-name="Rectangle 14562" width="1" height="1" transform="translate(12 5)"/>
  <rect id="Rectangle_14564" data-name="Rectangle 14564" width="1" height="1" transform="translate(12 5)"/>
  <rect id="Rectangle_14566" data-name="Rectangle 14566" width="1" height="1" transform="translate(1 4)"/>
  <rect id="Rectangle_14568" data-name="Rectangle 14568" width="1" height="1" transform="translate(1 4)"/>
  <rect id="Rectangle_14581" data-name="Rectangle 14581" width="1" height="1" transform="translate(1 4)"/>
  <rect id="Rectangle_14583" data-name="Rectangle 14583" width="1" height="1" transform="translate(1 4)"/>
  <rect id="Rectangle_14596" data-name="Rectangle 14596" width="1" height="1" transform="translate(0 4)"/>
  <rect id="Rectangle_14598" data-name="Rectangle 14598" width="1" height="1" transform="translate(0 4)"/>
  <rect id="Rectangle_14611" data-name="Rectangle 14611" width="1" height="1" transform="translate(0 4)"/>
  <rect id="Rectangle_14613" data-name="Rectangle 14613" width="1" height="1" transform="translate(0 4)"/>
  <rect id="Rectangle_14626" data-name="Rectangle 14626" width="1" height="1" transform="translate(11 4)"/>
  <rect id="Rectangle_14628" data-name="Rectangle 14628" width="1" height="1" transform="translate(11 4)"/>
  <rect id="Rectangle_14630" data-name="Rectangle 14630" width="1" height="1" transform="translate(12 4)"/>
  <rect id="Rectangle_14632" data-name="Rectangle 14632" width="1" height="1" transform="translate(12 4)"/>
  <rect id="Rectangle_14634" data-name="Rectangle 14634" width="1" height="1" transform="translate(11 4)"/>
  <rect id="Rectangle_14636" data-name="Rectangle 14636" width="1" height="1" transform="translate(11 4)"/>
  <rect id="Rectangle_14638" data-name="Rectangle 14638" width="1" height="1" transform="translate(12 4)"/>
  <rect id="Rectangle_14640" data-name="Rectangle 14640" width="1" height="1" transform="translate(12 4)"/>
  <rect id="Rectangle_14642" data-name="Rectangle 14642" width="1" height="1" transform="translate(1 3)"/>
  <rect id="Rectangle_14644" data-name="Rectangle 14644" width="1" height="1" transform="translate(1 3)"/>
  <rect id="Rectangle_14657" data-name="Rectangle 14657" width="1" height="1" transform="translate(1 3)"/>
  <rect id="Rectangle_14659" data-name="Rectangle 14659" width="1" height="1" transform="translate(1 3)"/>
  <rect id="Rectangle_14672" data-name="Rectangle 14672" width="1" height="1" transform="translate(0 3)"/>
  <rect id="Rectangle_14674" data-name="Rectangle 14674" width="1" height="1" transform="translate(0 3)"/>
  <rect id="Rectangle_14687" data-name="Rectangle 14687" width="1" height="1" transform="translate(0 3)"/>
  <rect id="Rectangle_14689" data-name="Rectangle 14689" width="1" height="1" transform="translate(0 3)"/>
  <rect id="Rectangle_14702" data-name="Rectangle 14702" width="1" height="1" transform="translate(11 3)"/>
  <rect id="Rectangle_14704" data-name="Rectangle 14704" width="1" height="1" transform="translate(11 3)"/>
  <rect id="Rectangle_14706" data-name="Rectangle 14706" width="1" height="1" transform="translate(12 3)"/>
  <rect id="Rectangle_14708" data-name="Rectangle 14708" width="1" height="1" transform="translate(12 3)"/>
  <rect id="Rectangle_14710" data-name="Rectangle 14710" width="1" height="1" transform="translate(11 3)"/>
  <rect id="Rectangle_14712" data-name="Rectangle 14712" width="1" height="1" transform="translate(11 3)"/>
  <rect id="Rectangle_14714" data-name="Rectangle 14714" width="1" height="1" transform="translate(12 3)"/>
  <rect id="Rectangle_14716" data-name="Rectangle 14716" width="1" height="1" transform="translate(12 3)"/>
  <rect id="Rectangle_14718" data-name="Rectangle 14718" width="1" height="1" transform="translate(2)"/>
  <rect id="Rectangle_14720" data-name="Rectangle 14720" width="1" height="1" transform="translate(2)"/>
  <rect id="Rectangle_14743" data-name="Rectangle 14743" width="1" height="1" transform="translate(2 13)"/>
  <rect id="Rectangle_14745" data-name="Rectangle 14745" width="1" height="1" transform="translate(2 13)"/>
  <rect id="Rectangle_14752" data-name="Rectangle 14752" width="1" height="1" transform="translate(2 14)"/>
  <rect id="Rectangle_14754" data-name="Rectangle 14754" width="1" height="1" transform="translate(2 14)"/>
  <rect id="Rectangle_14761" data-name="Rectangle 14761" width="1" height="1" transform="translate(2 1)"/>
  <rect id="Rectangle_14763" data-name="Rectangle 14763" width="1" height="1" transform="translate(2 1)"/>
  <rect id="Rectangle_14844" data-name="Rectangle 14844" width="1" height="1" transform="translate(3)"/>
  <rect id="Rectangle_14846" data-name="Rectangle 14846" width="1" height="1" transform="translate(3)"/>
  <rect id="Rectangle_14869" data-name="Rectangle 14869" width="1" height="1" transform="translate(3 13)"/>
  <rect id="Rectangle_14871" data-name="Rectangle 14871" width="1" height="1" transform="translate(3 13)"/>
  <rect id="Rectangle_14878" data-name="Rectangle 14878" width="1" height="1" transform="translate(3 14)"/>
  <rect id="Rectangle_14880" data-name="Rectangle 14880" width="1" height="1" transform="translate(3 14)"/>
  <rect id="Rectangle_14887" data-name="Rectangle 14887" width="1" height="1" transform="translate(3 1)"/>
  <rect id="Rectangle_14889" data-name="Rectangle 14889" width="1" height="1" transform="translate(3 1)"/>
  <rect id="Rectangle_14912" data-name="Rectangle 14912" width="1" height="1" transform="translate(4)"/>
  <rect id="Rectangle_14914" data-name="Rectangle 14914" width="1" height="1" transform="translate(4)"/>
  <rect id="Rectangle_14939" data-name="Rectangle 14939" width="1" height="1" transform="translate(4 13)"/>
  <rect id="Rectangle_14941" data-name="Rectangle 14941" width="1" height="1" transform="translate(4 13)"/>
  <rect id="Rectangle_14948" data-name="Rectangle 14948" width="1" height="1" transform="translate(4 14)"/>
  <rect id="Rectangle_14950" data-name="Rectangle 14950" width="1" height="1" transform="translate(4 14)"/>
  <rect id="Rectangle_14957" data-name="Rectangle 14957" width="1" height="1" transform="translate(4 1)"/>
  <rect id="Rectangle_14959" data-name="Rectangle 14959" width="1" height="1" transform="translate(4 1)"/>
  <rect id="Rectangle_14984" data-name="Rectangle 14984" width="1" height="1" transform="translate(5)"/>
  <rect id="Rectangle_14986" data-name="Rectangle 14986" width="1" height="1" transform="translate(5)"/>
  <rect id="Rectangle_15011" data-name="Rectangle 15011" width="1" height="1" transform="translate(5 13)"/>
  <rect id="Rectangle_15013" data-name="Rectangle 15013" width="1" height="1" transform="translate(5 13)"/>
  <rect id="Rectangle_15020" data-name="Rectangle 15020" width="1" height="1" transform="translate(5 14)"/>
  <rect id="Rectangle_15022" data-name="Rectangle 15022" width="1" height="1" transform="translate(5 14)"/>
  <rect id="Rectangle_15029" data-name="Rectangle 15029" width="1" height="1" transform="translate(5 1)"/>
  <rect id="Rectangle_15031" data-name="Rectangle 15031" width="1" height="1" transform="translate(5 1)"/>
  <rect id="Rectangle_15056" data-name="Rectangle 15056" width="1" height="1" transform="translate(6)"/>
  <rect id="Rectangle_15058" data-name="Rectangle 15058" width="1" height="1" transform="translate(6)"/>
  <rect id="Rectangle_15083" data-name="Rectangle 15083" width="1" height="1" transform="translate(6 13)"/>
  <rect id="Rectangle_15085" data-name="Rectangle 15085" width="1" height="1" transform="translate(6 13)"/>
  <rect id="Rectangle_15092" data-name="Rectangle 15092" width="1" height="1" transform="translate(6 14)"/>
  <rect id="Rectangle_15094" data-name="Rectangle 15094" width="1" height="1" transform="translate(6 14)"/>
  <rect id="Rectangle_15101" data-name="Rectangle 15101" width="1" height="1" transform="translate(6 1)"/>
  <rect id="Rectangle_15103" data-name="Rectangle 15103" width="1" height="1" transform="translate(6 1)"/>
  <rect id="Rectangle_15104" data-name="Rectangle 15104" width="1" height="1" transform="translate(10 4)"/>
  <rect id="Rectangle_15112" data-name="Rectangle 15112" width="1" height="1" transform="translate(9 5)"/>
  <rect id="Rectangle_15120" data-name="Rectangle 15120" width="1" height="1" transform="translate(8 4)"/>
  <rect id="Rectangle_15130" data-name="Rectangle 15130" width="1" height="1" transform="translate(7 5)"/>
  <rect id="Rectangle_15140" data-name="Rectangle 15140" width="1" height="1" transform="translate(6 4)"/>
  <rect id="Rectangle_15148" data-name="Rectangle 15148" width="1" height="1" transform="translate(5 5)"/>
  <rect id="Rectangle_15156" data-name="Rectangle 15156" width="1" height="1" transform="translate(6 6)"/>
  <rect id="Rectangle_15164" data-name="Rectangle 15164" width="1" height="1" transform="translate(5 7)"/>
  <rect id="Rectangle_15172" data-name="Rectangle 15172" width="1" height="1" transform="translate(6 8)"/>
  <rect id="Rectangle_15180" data-name="Rectangle 15180" width="1" height="1" transform="translate(10 8)"/>
  <rect id="Rectangle_15188" data-name="Rectangle 15188" width="1" height="1" transform="translate(9 9)"/>
  <rect id="Rectangle_15196" data-name="Rectangle 15196" width="1" height="1" transform="translate(5 9)"/>
  <rect id="Rectangle_15204" data-name="Rectangle 15204" width="1" height="1" transform="translate(7 7)"/>
  <rect id="Rectangle_15214" data-name="Rectangle 15214" width="1" height="1" transform="translate(8 6)"/>
  <rect id="Rectangle_15224" data-name="Rectangle 15224" width="1" height="1" transform="translate(9 7)"/>
  <rect id="Rectangle_15232" data-name="Rectangle 15232" width="1" height="1" transform="translate(8 8)"/>
  <rect id="Rectangle_15242" data-name="Rectangle 15242" width="1" height="1" transform="translate(7 9)"/>
  <rect id="Rectangle_15252" data-name="Rectangle 15252" width="1" height="1" transform="translate(6 10)"/>
  <rect id="Rectangle_15260" data-name="Rectangle 15260" width="1" height="1" transform="translate(5 11)"/>
  <rect id="Rectangle_15268" data-name="Rectangle 15268" width="1" height="1" transform="translate(6 12)"/>
  <rect id="Rectangle_15276" data-name="Rectangle 15276" width="1" height="1" transform="translate(7 11)"/>
  <rect id="Rectangle_15286" data-name="Rectangle 15286" width="1" height="1" transform="translate(8 12)"/>
  <rect id="Rectangle_15296" data-name="Rectangle 15296" width="1" height="1" transform="translate(9 11)"/>
  <rect id="Rectangle_15304" data-name="Rectangle 15304" width="1" height="1" transform="translate(10 12)"/>
  <rect id="Rectangle_15312" data-name="Rectangle 15312" width="1" height="1" transform="translate(10 10)"/>
  <rect id="Rectangle_15320" data-name="Rectangle 15320" width="1" height="1" transform="translate(8 10)"/>
  <rect id="Rectangle_15330" data-name="Rectangle 15330" width="1" height="1" transform="translate(10 6)"/>
  <rect id="Rectangle_15362" data-name="Rectangle 15362" width="1" height="1" transform="translate(7)"/>
  <rect id="Rectangle_15364" data-name="Rectangle 15364" width="1" height="1" transform="translate(7)"/>
  <rect id="Rectangle_15389" data-name="Rectangle 15389" width="1" height="1" transform="translate(7 13)"/>
  <rect id="Rectangle_15391" data-name="Rectangle 15391" width="1" height="1" transform="translate(7 13)"/>
  <rect id="Rectangle_15398" data-name="Rectangle 15398" width="1" height="1" transform="translate(7 14)"/>
  <rect id="Rectangle_15400" data-name="Rectangle 15400" width="1" height="1" transform="translate(7 14)"/>
  <rect id="Rectangle_15407" data-name="Rectangle 15407" width="1" height="1" transform="translate(7 1)"/>
  <rect id="Rectangle_15409" data-name="Rectangle 15409" width="1" height="1" transform="translate(7 1)"/>
  <rect id="Rectangle_15434" data-name="Rectangle 15434" width="1" height="1" transform="translate(8)"/>
  <rect id="Rectangle_15436" data-name="Rectangle 15436" width="1" height="1" transform="translate(8)"/>
  <rect id="Rectangle_15461" data-name="Rectangle 15461" width="1" height="1" transform="translate(8 13)"/>
  <rect id="Rectangle_15463" data-name="Rectangle 15463" width="1" height="1" transform="translate(8 13)"/>
  <rect id="Rectangle_15470" data-name="Rectangle 15470" width="1" height="1" transform="translate(8 14)"/>
  <rect id="Rectangle_15472" data-name="Rectangle 15472" width="1" height="1" transform="translate(8 14)"/>
  <rect id="Rectangle_15479" data-name="Rectangle 15479" width="1" height="1" transform="translate(8 1)"/>
  <rect id="Rectangle_15481" data-name="Rectangle 15481" width="1" height="1" transform="translate(8 1)"/>
  <rect id="Rectangle_15506" data-name="Rectangle 15506" width="1" height="1" transform="translate(9)"/>
  <rect id="Rectangle_15508" data-name="Rectangle 15508" width="1" height="1" transform="translate(9)"/>
  <rect id="Rectangle_15533" data-name="Rectangle 15533" width="1" height="1" transform="translate(9 13)"/>
  <rect id="Rectangle_15535" data-name="Rectangle 15535" width="1" height="1" transform="translate(9 13)"/>
  <rect id="Rectangle_15542" data-name="Rectangle 15542" width="1" height="1" transform="translate(9 14)"/>
  <rect id="Rectangle_15544" data-name="Rectangle 15544" width="1" height="1" transform="translate(9 14)"/>
  <rect id="Rectangle_15551" data-name="Rectangle 15551" width="1" height="1" transform="translate(9 1)"/>
  <rect id="Rectangle_15553" data-name="Rectangle 15553" width="1" height="1" transform="translate(9 1)"/>
  <rect id="Rectangle_15578" data-name="Rectangle 15578" width="1" height="1" transform="translate(10)"/>
  <rect id="Rectangle_15580" data-name="Rectangle 15580" width="1" height="1" transform="translate(10)"/>
  <rect id="Rectangle_15605" data-name="Rectangle 15605" width="1" height="1" transform="translate(10 13)"/>
  <rect id="Rectangle_15607" data-name="Rectangle 15607" width="1" height="1" transform="translate(10 13)"/>
  <rect id="Rectangle_15614" data-name="Rectangle 15614" width="1" height="1" transform="translate(10 14)"/>
  <rect id="Rectangle_15616" data-name="Rectangle 15616" width="1" height="1" transform="translate(10 14)"/>
  <rect id="Rectangle_15623" data-name="Rectangle 15623" width="1" height="1" transform="translate(10 1)"/>
  <rect id="Rectangle_15625" data-name="Rectangle 15625" width="1" height="1" transform="translate(10 1)"/>
  <rect id="Rectangle_15650" data-name="Rectangle 15650" width="1" height="1" transform="translate(1 12)"/>
  <rect id="Rectangle_15652" data-name="Rectangle 15652" width="1" height="1" transform="translate(1 12)"/>
  <rect id="Rectangle_15665" data-name="Rectangle 15665" width="1" height="1" transform="translate(1 12)"/>
  <rect id="Rectangle_15667" data-name="Rectangle 15667" width="1" height="1" transform="translate(1 12)"/>
  <rect id="Rectangle_15680" data-name="Rectangle 15680" width="1" height="1" transform="translate(0 12)"/>
  <rect id="Rectangle_15682" data-name="Rectangle 15682" width="1" height="1" transform="translate(0 12)"/>
  <rect id="Rectangle_15695" data-name="Rectangle 15695" width="1" height="1" transform="translate(0 12)"/>
  <rect id="Rectangle_15697" data-name="Rectangle 15697" width="1" height="1" transform="translate(0 12)"/>
  <rect id="Rectangle_15710" data-name="Rectangle 15710" width="1" height="1" transform="translate(11 12)"/>
  <rect id="Rectangle_15712" data-name="Rectangle 15712" width="1" height="1" transform="translate(11 12)"/>
  <rect id="Rectangle_15714" data-name="Rectangle 15714" width="1" height="1" transform="translate(12 12)"/>
  <rect id="Rectangle_15716" data-name="Rectangle 15716" width="1" height="1" transform="translate(12 12)"/>
  <rect id="Rectangle_15718" data-name="Rectangle 15718" width="1" height="1" transform="translate(11 12)"/>
  <rect id="Rectangle_15720" data-name="Rectangle 15720" width="1" height="1" transform="translate(11 12)"/>
  <rect id="Rectangle_15722" data-name="Rectangle 15722" width="1" height="1" transform="translate(12 12)"/>
  <rect id="Rectangle_15724" data-name="Rectangle 15724" width="1" height="1" transform="translate(12 12)"/>
</svg>
