<svg id="Brick_-_Small_-_Weak" data-name="Brick - Small - Weak" xmlns="http://www.w3.org/2000/svg" width="13" height="15" viewBox="0 0 13 15">
  <path id="Union_4" data-name="Union 4" d="M-1984-8V-9h1v1Zm-1,0V-9h1v1Zm-1,0V-9h1v1Zm-1,0V-9h1v1Zm-1,0V-9h1v1Zm-1,0V-9h1v1Zm-1,0V-9h1v1Zm-1,0V-9h1v1Zm-1,0V-9h1v1Zm8-1v-1h1v1Zm-1,0v-1h1v1Zm-1,0v-1h1v1Zm-1,0v-1h1v1Zm-1,0v-2h1v2Zm-1,0v-1h1v1Zm-1,0v-1h1v1Zm-1,0v-1h1v1Zm-1,0v-1h-2v-1h2v1h1v1Zm10-1h-1v-1h2v1Zm-2,0v-1h1v1Zm-2,0v-1h1v1Zm4-1h-1v-1h-1v-1h1v-1h-1v-1h-1v-1h1v1h1v-1h-1v-1h1v-1h-1v-1h1v-1h2v9Zm-3,0v-1h-1v-1h1v1h1v1Zm-2,0v-1h1v1Zm-2,0v-1h1v1Zm-4,0h-1v-9h2v9Zm5-1v-1h1v1Zm3-1v-1h-1v-1h1v1h1v1Zm-2,0v-1h1v1Zm-2,0v-1h1v1Zm1-1v-1h1v1Zm1-1v-1h1v1Zm-2,0v-1h1v1Zm3-1v-1h1v1Zm-2,0v-1h1v1Zm3-1v-1h-1v-1h1v1h1v1Zm-2,0v-1h-1v-1h1v1h1v1Zm-2,0v-1h1v1Zm7-3h-1v-1h-1v-1h1v1h2v1Zm-11,0h-1v-1h2v1Zm8-1v-1h1v1Zm-1,0v-1h1v1Zm-1,0v-1h1v1Zm-1,0v-1h1v1Zm-1,0v-1h1v1Zm-1,0v-1h1v1Zm-1,0v-1h1v1Zm-1,0v-1h1v1Zm8-1v-1h1v1Zm-1,0v-1h1v1Zm-1,0v-1h1v1Zm-1,0v-1h1v1Zm-1,0v-1h1v1Zm-1,0v-1h1v1Zm-1,0v-1h1v1Zm-1,0v-1h1v1Zm-1,0v-1h1v1Z" transform="translate(1994 23)"/>
</svg>
