<svg xmlns="http://www.w3.org/2000/svg" width="35" height="15" viewBox="0 0 35 15"><rect width="1" height="1" transform="translate(1 2)"/><rect width="1" height="1" transform="translate(34 2)"/><rect width="1" height="1" transform="translate(1 2)"/><rect width="1" height="1" transform="translate(34 2)"/><rect width="1" height="1" transform="translate(0 2)"/><rect width="1" height="1" transform="translate(33 2)"/><rect width="1" height="1" transform="translate(0 2)"/><rect width="1" height="1" transform="translate(33 2)"/><rect width="1" height="1" transform="translate(1 11)"/><rect width="1" height="1" transform="translate(34 11)"/><rect width="1" height="1" transform="translate(1 11)"/><rect width="1" height="1" transform="translate(34 11)"/><rect width="1" height="1" transform="translate(0 11)"/><rect width="1" height="1" transform="translate(33 11)"/><rect width="1" height="1" transform="translate(0 11)"/><rect width="1" height="1" transform="translate(33 11)"/><rect width="1" height="1" transform="translate(1 10)"/><rect width="1" height="1" transform="translate(34 10)"/><rect width="1" height="1" transform="translate(1 10)"/><rect width="1" height="1" transform="translate(34 10)"/><rect width="1" height="1" transform="translate(0 10)"/><rect width="1" height="1" transform="translate(33 10)"/><rect width="1" height="1" transform="translate(0 10)"/><rect width="1" height="1" transform="translate(33 10)"/><rect width="1" height="1" transform="translate(1 9)"/><rect width="1" height="1" transform="translate(34 9)"/><rect width="1" height="1" transform="translate(1 9)"/><rect width="1" height="1" transform="translate(34 9)"/><rect width="1" height="1" transform="translate(0 9)"/><rect width="1" height="1" transform="translate(33 9)"/><rect width="1" height="1" transform="translate(0 9)"/><rect width="1" height="1" transform="translate(33 9)"/><rect width="1" height="1" transform="translate(1 8)"/><rect width="1" height="1" transform="translate(34 8)"/><rect width="1" height="1" transform="translate(1 8)"/><rect width="1" height="1" transform="translate(34 8)"/><rect width="1" height="1" transform="translate(0 8)"/><rect width="1" height="1" transform="translate(33 8)"/><rect width="1" height="1" transform="translate(0 8)"/><rect width="1" height="1" transform="translate(33 8)"/><rect width="1" height="1" transform="translate(1 7)"/><rect width="1" height="1" transform="translate(34 7)"/><rect width="1" height="1" transform="translate(1 7)"/><rect width="1" height="1" transform="translate(34 7)"/><rect width="1" height="1" transform="translate(0 7)"/><rect width="1" height="1" transform="translate(33 7)"/><rect width="1" height="1" transform="translate(0 7)"/><rect width="1" height="1" transform="translate(33 7)"/><rect width="1" height="1" transform="translate(1 6)"/><rect width="1" height="1" transform="translate(34 6)"/><rect width="1" height="1" transform="translate(1 6)"/><rect width="1" height="1" transform="translate(34 6)"/><rect width="1" height="1" transform="translate(0 6)"/><rect width="1" height="1" transform="translate(33 6)"/><rect width="1" height="1" transform="translate(0 6)"/><rect width="1" height="1" transform="translate(33 6)"/><rect width="1" height="1" transform="translate(1 5)"/><rect width="1" height="1" transform="translate(34 5)"/><rect width="1" height="1" transform="translate(1 5)"/><rect width="1" height="1" transform="translate(34 5)"/><rect width="1" height="1" transform="translate(0 5)"/><rect width="1" height="1" transform="translate(33 5)"/><rect width="1" height="1" transform="translate(0 5)"/><rect width="1" height="1" transform="translate(33 5)"/><rect width="1" height="1" transform="translate(1 4)"/><rect width="1" height="1" transform="translate(34 4)"/><rect width="1" height="1" transform="translate(1 4)"/><rect width="1" height="1" transform="translate(34 4)"/><rect width="1" height="1" transform="translate(0 4)"/><rect width="1" height="1" transform="translate(33 4)"/><rect width="1" height="1" transform="translate(0 4)"/><rect width="1" height="1" transform="translate(33 4)"/><rect width="1" height="1" transform="translate(1 3)"/><rect width="1" height="1" transform="translate(34 3)"/><rect width="1" height="1" transform="translate(1 3)"/><rect width="1" height="1" transform="translate(34 3)"/><rect width="1" height="1" transform="translate(0 3)"/><rect width="1" height="1" transform="translate(33 3)"/><rect width="1" height="1" transform="translate(0 3)"/><rect width="1" height="1" transform="translate(33 3)"/><rect width="1" height="1" transform="translate(2)"/><rect width="1" height="1" transform="translate(13)"/><rect width="1" height="1" transform="translate(24)"/><rect width="1" height="1" transform="translate(13 13)"/><rect width="1" height="1" transform="translate(24 13)"/><rect width="1" height="1" transform="translate(2 13)"/><rect width="1" height="1" transform="translate(2 14)"/><rect width="1" height="1" transform="translate(2 1)"/><rect width="1" height="1" transform="translate(13 1)"/><rect width="1" height="1" transform="translate(24 1)"/><rect width="1" height="1" transform="translate(12 1)"/><rect width="1" height="1" transform="translate(23 1)"/><rect width="1" height="1" transform="translate(12 12)"/><rect width="1" height="1" transform="translate(11 1)"/><rect width="1" height="1" transform="translate(22 1)"/><rect width="1" height="1" transform="translate(11 12)"/><rect width="1" height="1" transform="translate(11 2)"/><rect width="1" height="1" transform="translate(22 2)"/><rect width="1" height="1" transform="translate(11 13)"/><rect width="1" height="1" transform="translate(22 13)"/><rect width="1" height="1" transform="translate(12 2)"/><rect width="1" height="1" transform="translate(23 2)"/><rect width="1" height="1" transform="translate(12 13)"/><rect width="1" height="1" transform="translate(23 13)"/><rect width="1" height="1" transform="translate(13 14)"/><rect width="1" height="1" transform="translate(24 14)"/><rect width="1" height="1" transform="translate(3)"/><rect width="1" height="1" transform="translate(14)"/><rect width="1" height="1" transform="translate(25)"/><rect width="1" height="1" transform="translate(14 13)"/><rect width="1" height="1" transform="translate(25 13)"/><rect width="1" height="1" transform="translate(3 13)"/><rect width="1" height="1" transform="translate(3 14)"/><rect width="1" height="1" transform="translate(3 1)"/><rect width="1" height="1" transform="translate(14 1)"/><rect width="1" height="1" transform="translate(25 1)"/><rect width="1" height="1" transform="translate(14 14)"/><rect width="1" height="1" transform="translate(25 14)"/><rect width="1" height="1" transform="translate(4)"/><rect width="1" height="1" transform="translate(15)"/><rect width="1" height="1" transform="translate(26)"/><rect width="1" height="1" transform="translate(15 13)"/><rect width="1" height="1" transform="translate(26 13)"/><rect width="1" height="1" transform="translate(4 13)"/><rect width="1" height="1" transform="translate(4 14)"/><rect width="1" height="1" transform="translate(4 1)"/><rect width="1" height="1" transform="translate(15 1)"/><rect width="1" height="1" transform="translate(26 1)"/><rect width="1" height="1" transform="translate(15 14)"/><rect width="1" height="1" transform="translate(26 14)"/><rect width="1" height="1" transform="translate(5)"/><rect width="1" height="1" transform="translate(16)"/><rect width="1" height="1" transform="translate(27)"/><rect width="1" height="1" transform="translate(16 13)"/><rect width="1" height="1" transform="translate(27 13)"/><rect width="1" height="1" transform="translate(5 13)"/><rect width="1" height="1" transform="translate(5 14)"/><rect width="1" height="1" transform="translate(5 1)"/><rect width="1" height="1" transform="translate(16 1)"/><rect width="1" height="1" transform="translate(27 1)"/><rect width="1" height="1" transform="translate(16 14)"/><rect width="1" height="1" transform="translate(27 14)"/><rect width="1" height="1" transform="translate(6)"/><rect width="1" height="1" transform="translate(17)"/><rect width="1" height="1" transform="translate(28)"/><rect width="1" height="1" transform="translate(17 13)"/><rect width="1" height="1" transform="translate(28 13)"/><rect width="1" height="1" transform="translate(6 13)"/><rect width="1" height="1" transform="translate(6 14)"/><rect width="1" height="1" transform="translate(11 4)"/><rect width="1" height="1" transform="translate(17 4)"/><rect width="1" height="1" transform="translate(23 4)"/><rect width="1" height="1" transform="translate(29 4)"/><rect width="1" height="1" transform="translate(10 5)"/><rect width="1" height="1" transform="translate(16 5)"/><rect width="1" height="1" transform="translate(22 5)"/><rect width="1" height="1" transform="translate(28 5)"/><rect width="1" height="1" transform="translate(9 4)"/><rect width="1" height="1" transform="translate(15 4)"/><rect width="1" height="1" transform="translate(21 4)"/><rect width="1" height="1" transform="translate(27 4)"/><rect width="1" height="1" transform="translate(31 4)"/><rect width="1" height="1" transform="translate(33 4)"/><rect width="1" height="1" transform="translate(8 5)"/><rect width="1" height="1" transform="translate(14 5)"/><rect width="1" height="1" transform="translate(20 5)"/><rect width="1" height="1" transform="translate(26 5)"/><rect width="1" height="1" transform="translate(30 5)"/><rect width="1" height="1" transform="translate(32 5)"/><rect width="1" height="1" transform="translate(7 4)"/><rect width="1" height="1" transform="translate(13 4)"/><rect width="1" height="1" transform="translate(19 4)"/><rect width="1" height="1" transform="translate(25 4)"/><rect width="1" height="1" transform="translate(6 5)"/><rect width="1" height="1" transform="translate(12 5)"/><rect width="1" height="1" transform="translate(18 5)"/><rect width="1" height="1" transform="translate(24 5)"/><rect width="1" height="1" transform="translate(7 6)"/><rect width="1" height="1" transform="translate(13 6)"/><rect width="1" height="1" transform="translate(19 6)"/><rect width="1" height="1" transform="translate(25 6)"/><rect width="1" height="1" transform="translate(6 7)"/><rect width="1" height="1" transform="translate(12 7)"/><rect width="1" height="1" transform="translate(18 7)"/><rect width="1" height="1" transform="translate(24 7)"/><rect width="1" height="1" transform="translate(7 8)"/><rect width="1" height="1" transform="translate(13 8)"/><rect width="1" height="1" transform="translate(19 8)"/><rect width="1" height="1" transform="translate(25 8)"/><rect width="1" height="1" transform="translate(11 8)"/><rect width="1" height="1" transform="translate(17 8)"/><rect width="1" height="1" transform="translate(23 8)"/><rect width="1" height="1" transform="translate(29 8)"/><rect width="1" height="1" transform="translate(10 9)"/><rect width="1" height="1" transform="translate(16 9)"/><rect width="1" height="1" transform="translate(22 9)"/><rect width="1" height="1" transform="translate(28 9)"/><rect width="1" height="1" transform="translate(6 9)"/><rect width="1" height="1" transform="translate(12 9)"/><rect width="1" height="1" transform="translate(18 9)"/><rect width="1" height="1" transform="translate(24 9)"/><rect width="1" height="1" transform="translate(8 7)"/><rect width="1" height="1" transform="translate(14 7)"/><rect width="1" height="1" transform="translate(20 7)"/><rect width="1" height="1" transform="translate(26 7)"/><rect width="1" height="1" transform="translate(30 7)"/><rect width="1" height="1" transform="translate(32 7)"/><rect width="1" height="1" transform="translate(9 6)"/><rect width="1" height="1" transform="translate(15 6)"/><rect width="1" height="1" transform="translate(21 6)"/><rect width="1" height="1" transform="translate(27 6)"/><rect width="1" height="1" transform="translate(31 6)"/><rect width="1" height="1" transform="translate(33 6)"/><rect width="1" height="1" transform="translate(10 7)"/><rect width="1" height="1" transform="translate(16 7)"/><rect width="1" height="1" transform="translate(22 7)"/><rect width="1" height="1" transform="translate(28 7)"/><rect width="1" height="1" transform="translate(9 8)"/><rect width="1" height="1" transform="translate(15 8)"/><rect width="1" height="1" transform="translate(21 8)"/><rect width="1" height="1" transform="translate(27 8)"/><rect width="1" height="1" transform="translate(31 8)"/><rect width="1" height="1" transform="translate(33 8)"/><rect width="1" height="1" transform="translate(8 9)"/><rect width="1" height="1" transform="translate(14 9)"/><rect width="1" height="1" transform="translate(20 9)"/><rect width="1" height="1" transform="translate(26 9)"/><rect width="1" height="1" transform="translate(30 9)"/><rect width="1" height="1" transform="translate(32 9)"/><rect width="1" height="1" transform="translate(7 10)"/><rect width="1" height="1" transform="translate(13 10)"/><rect width="1" height="1" transform="translate(19 10)"/><rect width="1" height="1" transform="translate(25 10)"/><rect width="1" height="1" transform="translate(6 11)"/><rect width="1" height="1" transform="translate(12 11)"/><rect width="1" height="1" transform="translate(18 11)"/><rect width="1" height="1" transform="translate(24 11)"/><rect width="1" height="1" transform="translate(7 12)"/><rect width="1" height="1" transform="translate(13 12)"/><rect width="1" height="1" transform="translate(19 12)"/><rect width="1" height="1" transform="translate(25 12)"/><rect width="1" height="1" transform="translate(8 11)"/><rect width="1" height="1" transform="translate(14 11)"/><rect width="1" height="1" transform="translate(20 11)"/><rect width="1" height="1" transform="translate(26 11)"/><rect width="1" height="1" transform="translate(30 11)"/><rect width="1" height="1" transform="translate(32 11)"/><rect width="1" height="1" transform="translate(9 12)"/><rect width="1" height="1" transform="translate(15 12)"/><rect width="1" height="1" transform="translate(21 12)"/><rect width="1" height="1" transform="translate(27 12)"/><rect width="1" height="1" transform="translate(31 12)"/><rect width="1" height="1" transform="translate(33 12)"/><rect width="1" height="1" transform="translate(10 11)"/><rect width="1" height="1" transform="translate(16 11)"/><rect width="1" height="1" transform="translate(22 11)"/><rect width="1" height="1" transform="translate(28 11)"/><rect width="1" height="1" transform="translate(11 12)"/><rect width="1" height="1" transform="translate(17 12)"/><rect width="1" height="1" transform="translate(23 12)"/><rect width="1" height="1" transform="translate(29 12)"/><rect width="1" height="1" transform="translate(11 10)"/><rect width="1" height="1" transform="translate(17 10)"/><rect width="1" height="1" transform="translate(23 10)"/><rect width="1" height="1" transform="translate(29 10)"/><rect width="1" height="1" transform="translate(9 10)"/><rect width="1" height="1" transform="translate(15 10)"/><rect width="1" height="1" transform="translate(21 10)"/><rect width="1" height="1" transform="translate(27 10)"/><rect width="1" height="1" transform="translate(31 10)"/><rect width="1" height="1" transform="translate(33 10)"/><rect width="1" height="1" transform="translate(11 6)"/><rect width="1" height="1" transform="translate(17 6)"/><rect width="1" height="1" transform="translate(23 6)"/><rect width="1" height="1" transform="translate(29 6)"/><rect width="1" height="1" transform="translate(6 1)"/><rect width="1" height="1" transform="translate(17 1)"/><rect width="1" height="1" transform="translate(28 1)"/><rect width="1" height="1" transform="translate(17 14)"/><rect width="1" height="1" transform="translate(28 14)"/><rect width="1" height="1" transform="translate(7)"/><rect width="1" height="1" transform="translate(18)"/><rect width="1" height="1" transform="translate(29)"/><rect width="1" height="1" transform="translate(18 13)"/><rect width="1" height="1" transform="translate(29 13)"/><rect width="1" height="1" transform="translate(7 13)"/><rect width="1" height="1" transform="translate(7 14)"/><rect width="1" height="1" transform="translate(7 1)"/><rect width="1" height="1" transform="translate(18 1)"/><rect width="1" height="1" transform="translate(29 1)"/><rect width="1" height="1" transform="translate(18 14)"/><rect width="1" height="1" transform="translate(29 14)"/><rect width="1" height="1" transform="translate(8)"/><rect width="1" height="1" transform="translate(19)"/><rect width="1" height="1" transform="translate(30)"/><rect width="1" height="1" transform="translate(19 13)"/><rect width="1" height="1" transform="translate(30 13)"/><rect width="1" height="1" transform="translate(8 13)"/><rect width="1" height="1" transform="translate(8 14)"/><rect width="1" height="1" transform="translate(8 1)"/><rect width="1" height="1" transform="translate(19 1)"/><rect width="1" height="1" transform="translate(30 1)"/><rect width="1" height="1" transform="translate(19 14)"/><rect width="1" height="1" transform="translate(30 14)"/><rect width="1" height="1" transform="translate(9)"/><rect width="1" height="1" transform="translate(20)"/><rect width="1" height="1" transform="translate(31)"/><rect width="1" height="1" transform="translate(20 13)"/><rect width="1" height="1" transform="translate(31 13)"/><rect width="1" height="1" transform="translate(9 13)"/><rect width="1" height="1" transform="translate(9 14)"/><rect width="1" height="1" transform="translate(9 1)"/><rect width="1" height="1" transform="translate(20 1)"/><rect width="1" height="1" transform="translate(31 1)"/><rect width="1" height="1" transform="translate(20 14)"/><rect width="1" height="1" transform="translate(31 14)"/><rect width="1" height="1" transform="translate(10)"/><rect width="1" height="1" transform="translate(21)"/><rect width="1" height="1" transform="translate(32)"/><rect width="1" height="1" transform="translate(21 13)"/><rect width="1" height="1" transform="translate(32 13)"/><rect width="1" height="1" transform="translate(10 13)"/><rect width="1" height="1" transform="translate(10 14)"/><rect width="1" height="1" transform="translate(10 1)"/><rect width="1" height="1" transform="translate(21 1)"/><rect width="1" height="1" transform="translate(32 1)"/><rect width="1" height="1" transform="translate(21 14)"/><rect width="1" height="1" transform="translate(32 14)"/><rect width="1" height="1" transform="translate(1 12)"/><rect width="1" height="1" transform="translate(34 12)"/><rect width="1" height="1" transform="translate(1 12)"/><rect width="1" height="1" transform="translate(34 12)"/><rect width="1" height="1" transform="translate(0 12)"/><rect width="1" height="1" transform="translate(33 12)"/><rect width="1" height="1" transform="translate(0 12)"/><rect width="1" height="1" transform="translate(33 12)"/></svg>