<svg id="Brick_-_Large_-_Weakest" data-name="Brick - Large - Weakest" xmlns="http://www.w3.org/2000/svg" width="35" height="15" viewBox="0 0 35 15">
  <rect id="Rectangle_13966" data-name="Rectangle 13966" width="1" height="1" transform="translate(1 2)"/>
  <rect id="Rectangle_13972" data-name="Rectangle 13972" width="1" height="1" transform="translate(34 2)"/>
  <rect id="Rectangle_13981" data-name="Rectangle 13981" width="1" height="1" transform="translate(1 2)"/>
  <rect id="Rectangle_13987" data-name="Rectangle 13987" width="1" height="1" transform="translate(34 2)"/>
  <rect id="Rectangle_13996" data-name="Rectangle 13996" width="1" height="1" transform="translate(0 2)"/>
  <rect id="Rectangle_14002" data-name="Rectangle 14002" width="1" height="1" transform="translate(33 2)"/>
  <rect id="Rectangle_14011" data-name="Rectangle 14011" width="1" height="1" transform="translate(0 2)"/>
  <rect id="Rectangle_14017" data-name="Rectangle 14017" width="1" height="1" transform="translate(33 2)"/>
  <rect id="Rectangle_14042" data-name="Rectangle 14042" width="1" height="1" transform="translate(1 11)"/>
  <rect id="Rectangle_14048" data-name="Rectangle 14048" width="1" height="1" transform="translate(34 11)"/>
  <rect id="Rectangle_14057" data-name="Rectangle 14057" width="1" height="1" transform="translate(1 11)"/>
  <rect id="Rectangle_14063" data-name="Rectangle 14063" width="1" height="1" transform="translate(34 11)"/>
  <rect id="Rectangle_14072" data-name="Rectangle 14072" width="1" height="1" transform="translate(0 11)"/>
  <rect id="Rectangle_14078" data-name="Rectangle 14078" width="1" height="1" transform="translate(33 11)"/>
  <rect id="Rectangle_14087" data-name="Rectangle 14087" width="1" height="1" transform="translate(0 11)"/>
  <rect id="Rectangle_14093" data-name="Rectangle 14093" width="1" height="1" transform="translate(33 11)"/>
  <rect id="Rectangle_14118" data-name="Rectangle 14118" width="1" height="1" transform="translate(1 10)"/>
  <rect id="Rectangle_14124" data-name="Rectangle 14124" width="1" height="1" transform="translate(34 10)"/>
  <rect id="Rectangle_14133" data-name="Rectangle 14133" width="1" height="1" transform="translate(1 10)"/>
  <rect id="Rectangle_14139" data-name="Rectangle 14139" width="1" height="1" transform="translate(34 10)"/>
  <rect id="Rectangle_14148" data-name="Rectangle 14148" width="1" height="1" transform="translate(0 10)"/>
  <rect id="Rectangle_14154" data-name="Rectangle 14154" width="1" height="1" transform="translate(33 10)"/>
  <rect id="Rectangle_14163" data-name="Rectangle 14163" width="1" height="1" transform="translate(0 10)"/>
  <rect id="Rectangle_14169" data-name="Rectangle 14169" width="1" height="1" transform="translate(33 10)"/>
  <rect id="Rectangle_14194" data-name="Rectangle 14194" width="1" height="1" transform="translate(1 9)"/>
  <rect id="Rectangle_14200" data-name="Rectangle 14200" width="1" height="1" transform="translate(34 9)"/>
  <rect id="Rectangle_14209" data-name="Rectangle 14209" width="1" height="1" transform="translate(1 9)"/>
  <rect id="Rectangle_14215" data-name="Rectangle 14215" width="1" height="1" transform="translate(34 9)"/>
  <rect id="Rectangle_14224" data-name="Rectangle 14224" width="1" height="1" transform="translate(0 9)"/>
  <rect id="Rectangle_14230" data-name="Rectangle 14230" width="1" height="1" transform="translate(33 9)"/>
  <rect id="Rectangle_14239" data-name="Rectangle 14239" width="1" height="1" transform="translate(0 9)"/>
  <rect id="Rectangle_14245" data-name="Rectangle 14245" width="1" height="1" transform="translate(33 9)"/>
  <rect id="Rectangle_14270" data-name="Rectangle 14270" width="1" height="1" transform="translate(1 8)"/>
  <rect id="Rectangle_14276" data-name="Rectangle 14276" width="1" height="1" transform="translate(34 8)"/>
  <rect id="Rectangle_14285" data-name="Rectangle 14285" width="1" height="1" transform="translate(1 8)"/>
  <rect id="Rectangle_14291" data-name="Rectangle 14291" width="1" height="1" transform="translate(34 8)"/>
  <rect id="Rectangle_14300" data-name="Rectangle 14300" width="1" height="1" transform="translate(0 8)"/>
  <rect id="Rectangle_14306" data-name="Rectangle 14306" width="1" height="1" transform="translate(33 8)"/>
  <rect id="Rectangle_14315" data-name="Rectangle 14315" width="1" height="1" transform="translate(0 8)"/>
  <rect id="Rectangle_14321" data-name="Rectangle 14321" width="1" height="1" transform="translate(33 8)"/>
  <rect id="Rectangle_14346" data-name="Rectangle 14346" width="1" height="1" transform="translate(1 7)"/>
  <rect id="Rectangle_14352" data-name="Rectangle 14352" width="1" height="1" transform="translate(34 7)"/>
  <rect id="Rectangle_14361" data-name="Rectangle 14361" width="1" height="1" transform="translate(1 7)"/>
  <rect id="Rectangle_14367" data-name="Rectangle 14367" width="1" height="1" transform="translate(34 7)"/>
  <rect id="Rectangle_14376" data-name="Rectangle 14376" width="1" height="1" transform="translate(0 7)"/>
  <rect id="Rectangle_14382" data-name="Rectangle 14382" width="1" height="1" transform="translate(33 7)"/>
  <rect id="Rectangle_14391" data-name="Rectangle 14391" width="1" height="1" transform="translate(0 7)"/>
  <rect id="Rectangle_14397" data-name="Rectangle 14397" width="1" height="1" transform="translate(33 7)"/>
  <rect id="Rectangle_14422" data-name="Rectangle 14422" width="1" height="1" transform="translate(1 6)"/>
  <rect id="Rectangle_14428" data-name="Rectangle 14428" width="1" height="1" transform="translate(34 6)"/>
  <rect id="Rectangle_14437" data-name="Rectangle 14437" width="1" height="1" transform="translate(1 6)"/>
  <rect id="Rectangle_14443" data-name="Rectangle 14443" width="1" height="1" transform="translate(34 6)"/>
  <rect id="Rectangle_14452" data-name="Rectangle 14452" width="1" height="1" transform="translate(0 6)"/>
  <rect id="Rectangle_14458" data-name="Rectangle 14458" width="1" height="1" transform="translate(33 6)"/>
  <rect id="Rectangle_14467" data-name="Rectangle 14467" width="1" height="1" transform="translate(0 6)"/>
  <rect id="Rectangle_14473" data-name="Rectangle 14473" width="1" height="1" transform="translate(33 6)"/>
  <rect id="Rectangle_14498" data-name="Rectangle 14498" width="1" height="1" transform="translate(1 5)"/>
  <rect id="Rectangle_14504" data-name="Rectangle 14504" width="1" height="1" transform="translate(34 5)"/>
  <rect id="Rectangle_14513" data-name="Rectangle 14513" width="1" height="1" transform="translate(1 5)"/>
  <rect id="Rectangle_14519" data-name="Rectangle 14519" width="1" height="1" transform="translate(34 5)"/>
  <rect id="Rectangle_14528" data-name="Rectangle 14528" width="1" height="1" transform="translate(0 5)"/>
  <rect id="Rectangle_14534" data-name="Rectangle 14534" width="1" height="1" transform="translate(33 5)"/>
  <rect id="Rectangle_14543" data-name="Rectangle 14543" width="1" height="1" transform="translate(0 5)"/>
  <rect id="Rectangle_14549" data-name="Rectangle 14549" width="1" height="1" transform="translate(33 5)"/>
  <rect id="Rectangle_14574" data-name="Rectangle 14574" width="1" height="1" transform="translate(1 4)"/>
  <rect id="Rectangle_14580" data-name="Rectangle 14580" width="1" height="1" transform="translate(34 4)"/>
  <rect id="Rectangle_14589" data-name="Rectangle 14589" width="1" height="1" transform="translate(1 4)"/>
  <rect id="Rectangle_14595" data-name="Rectangle 14595" width="1" height="1" transform="translate(34 4)"/>
  <rect id="Rectangle_14604" data-name="Rectangle 14604" width="1" height="1" transform="translate(0 4)"/>
  <rect id="Rectangle_14610" data-name="Rectangle 14610" width="1" height="1" transform="translate(33 4)"/>
  <rect id="Rectangle_14619" data-name="Rectangle 14619" width="1" height="1" transform="translate(0 4)"/>
  <rect id="Rectangle_14625" data-name="Rectangle 14625" width="1" height="1" transform="translate(33 4)"/>
  <rect id="Rectangle_14650" data-name="Rectangle 14650" width="1" height="1" transform="translate(1 3)"/>
  <rect id="Rectangle_14656" data-name="Rectangle 14656" width="1" height="1" transform="translate(34 3)"/>
  <rect id="Rectangle_14665" data-name="Rectangle 14665" width="1" height="1" transform="translate(1 3)"/>
  <rect id="Rectangle_14671" data-name="Rectangle 14671" width="1" height="1" transform="translate(34 3)"/>
  <rect id="Rectangle_14680" data-name="Rectangle 14680" width="1" height="1" transform="translate(0 3)"/>
  <rect id="Rectangle_14686" data-name="Rectangle 14686" width="1" height="1" transform="translate(33 3)"/>
  <rect id="Rectangle_14695" data-name="Rectangle 14695" width="1" height="1" transform="translate(0 3)"/>
  <rect id="Rectangle_14701" data-name="Rectangle 14701" width="1" height="1" transform="translate(33 3)"/>
  <rect id="Rectangle_14726" data-name="Rectangle 14726" width="1" height="1" transform="translate(2)"/>
  <rect id="Rectangle_14731" data-name="Rectangle 14731" width="1" height="1" transform="translate(13)"/>
  <rect id="Rectangle_14734" data-name="Rectangle 14734" width="1" height="1" transform="translate(24)"/>
  <rect id="Rectangle_14739" data-name="Rectangle 14739" width="1" height="1" transform="translate(13 13)"/>
  <rect id="Rectangle_14742" data-name="Rectangle 14742" width="1" height="1" transform="translate(24 13)"/>
  <rect id="Rectangle_14751" data-name="Rectangle 14751" width="1" height="1" transform="translate(2 13)"/>
  <rect id="Rectangle_14760" data-name="Rectangle 14760" width="1" height="1" transform="translate(2 14)"/>
  <rect id="Rectangle_14769" data-name="Rectangle 14769" width="1" height="1" transform="translate(2 1)"/>
  <rect id="Rectangle_14774" data-name="Rectangle 14774" width="1" height="1" transform="translate(13 1)"/>
  <rect id="Rectangle_14777" data-name="Rectangle 14777" width="1" height="1" transform="translate(24 1)"/>
  <rect id="Rectangle_14782" data-name="Rectangle 14782" width="1" height="1" transform="translate(12 1)"/>
  <rect id="Rectangle_14785" data-name="Rectangle 14785" width="1" height="1" transform="translate(23 1)"/>
  <rect id="Rectangle_14790" data-name="Rectangle 14790" width="1" height="1" transform="translate(12 12)"/>
  <rect id="Rectangle_14795" data-name="Rectangle 14795" width="1" height="1" transform="translate(11 1)"/>
  <rect id="Rectangle_14798" data-name="Rectangle 14798" width="1" height="1" transform="translate(22 1)"/>
  <rect id="Rectangle_14803" data-name="Rectangle 14803" width="1" height="1" transform="translate(11 12)"/>
  <rect id="Rectangle_14808" data-name="Rectangle 14808" width="1" height="1" transform="translate(11 2)"/>
  <rect id="Rectangle_14811" data-name="Rectangle 14811" width="1" height="1" transform="translate(22 2)"/>
  <rect id="Rectangle_14816" data-name="Rectangle 14816" width="1" height="1" transform="translate(11 13)"/>
  <rect id="Rectangle_14819" data-name="Rectangle 14819" width="1" height="1" transform="translate(22 13)"/>
  <rect id="Rectangle_14824" data-name="Rectangle 14824" width="1" height="1" transform="translate(12 2)"/>
  <rect id="Rectangle_14827" data-name="Rectangle 14827" width="1" height="1" transform="translate(23 2)"/>
  <rect id="Rectangle_14832" data-name="Rectangle 14832" width="1" height="1" transform="translate(12 13)"/>
  <rect id="Rectangle_14835" data-name="Rectangle 14835" width="1" height="1" transform="translate(23 13)"/>
  <rect id="Rectangle_14840" data-name="Rectangle 14840" width="1" height="1" transform="translate(13 14)"/>
  <rect id="Rectangle_14843" data-name="Rectangle 14843" width="1" height="1" transform="translate(24 14)"/>
  <rect id="Rectangle_14852" data-name="Rectangle 14852" width="1" height="1" transform="translate(3)"/>
  <rect id="Rectangle_14857" data-name="Rectangle 14857" width="1" height="1" transform="translate(14)"/>
  <rect id="Rectangle_14860" data-name="Rectangle 14860" width="1" height="1" transform="translate(25)"/>
  <rect id="Rectangle_14865" data-name="Rectangle 14865" width="1" height="1" transform="translate(14 13)"/>
  <rect id="Rectangle_14868" data-name="Rectangle 14868" width="1" height="1" transform="translate(25 13)"/>
  <rect id="Rectangle_14877" data-name="Rectangle 14877" width="1" height="1" transform="translate(3 13)"/>
  <rect id="Rectangle_14886" data-name="Rectangle 14886" width="1" height="1" transform="translate(3 14)"/>
  <rect id="Rectangle_14895" data-name="Rectangle 14895" width="1" height="1" transform="translate(3 1)"/>
  <rect id="Rectangle_14900" data-name="Rectangle 14900" width="1" height="1" transform="translate(14 1)"/>
  <rect id="Rectangle_14903" data-name="Rectangle 14903" width="1" height="1" transform="translate(25 1)"/>
  <rect id="Rectangle_14908" data-name="Rectangle 14908" width="1" height="1" transform="translate(14 14)"/>
  <rect id="Rectangle_14911" data-name="Rectangle 14911" width="1" height="1" transform="translate(25 14)"/>
  <rect id="Rectangle_14920" data-name="Rectangle 14920" width="1" height="1" transform="translate(4)"/>
  <rect id="Rectangle_14926" data-name="Rectangle 14926" width="1" height="1" transform="translate(15)"/>
  <rect id="Rectangle_14929" data-name="Rectangle 14929" width="1" height="1" transform="translate(26)"/>
  <rect id="Rectangle_14935" data-name="Rectangle 14935" width="1" height="1" transform="translate(15 13)"/>
  <rect id="Rectangle_14938" data-name="Rectangle 14938" width="1" height="1" transform="translate(26 13)"/>
  <rect id="Rectangle_14947" data-name="Rectangle 14947" width="1" height="1" transform="translate(4 13)"/>
  <rect id="Rectangle_14956" data-name="Rectangle 14956" width="1" height="1" transform="translate(4 14)"/>
  <rect id="Rectangle_14965" data-name="Rectangle 14965" width="1" height="1" transform="translate(4 1)"/>
  <rect id="Rectangle_14971" data-name="Rectangle 14971" width="1" height="1" transform="translate(15 1)"/>
  <rect id="Rectangle_14974" data-name="Rectangle 14974" width="1" height="1" transform="translate(26 1)"/>
  <rect id="Rectangle_14980" data-name="Rectangle 14980" width="1" height="1" transform="translate(15 14)"/>
  <rect id="Rectangle_14983" data-name="Rectangle 14983" width="1" height="1" transform="translate(26 14)"/>
  <rect id="Rectangle_14992" data-name="Rectangle 14992" width="1" height="1" transform="translate(5)"/>
  <rect id="Rectangle_14998" data-name="Rectangle 14998" width="1" height="1" transform="translate(16)"/>
  <rect id="Rectangle_15001" data-name="Rectangle 15001" width="1" height="1" transform="translate(27)"/>
  <rect id="Rectangle_15007" data-name="Rectangle 15007" width="1" height="1" transform="translate(16 13)"/>
  <rect id="Rectangle_15010" data-name="Rectangle 15010" width="1" height="1" transform="translate(27 13)"/>
  <rect id="Rectangle_15019" data-name="Rectangle 15019" width="1" height="1" transform="translate(5 13)"/>
  <rect id="Rectangle_15028" data-name="Rectangle 15028" width="1" height="1" transform="translate(5 14)"/>
  <rect id="Rectangle_15037" data-name="Rectangle 15037" width="1" height="1" transform="translate(5 1)"/>
  <rect id="Rectangle_15043" data-name="Rectangle 15043" width="1" height="1" transform="translate(16 1)"/>
  <rect id="Rectangle_15046" data-name="Rectangle 15046" width="1" height="1" transform="translate(27 1)"/>
  <rect id="Rectangle_15052" data-name="Rectangle 15052" width="1" height="1" transform="translate(16 14)"/>
  <rect id="Rectangle_15055" data-name="Rectangle 15055" width="1" height="1" transform="translate(27 14)"/>
  <rect id="Rectangle_15064" data-name="Rectangle 15064" width="1" height="1" transform="translate(6)"/>
  <rect id="Rectangle_15070" data-name="Rectangle 15070" width="1" height="1" transform="translate(17)"/>
  <rect id="Rectangle_15073" data-name="Rectangle 15073" width="1" height="1" transform="translate(28)"/>
  <rect id="Rectangle_15079" data-name="Rectangle 15079" width="1" height="1" transform="translate(17 13)"/>
  <rect id="Rectangle_15082" data-name="Rectangle 15082" width="1" height="1" transform="translate(28 13)"/>
  <rect id="Rectangle_15091" data-name="Rectangle 15091" width="1" height="1" transform="translate(6 13)"/>
  <rect id="Rectangle_15100" data-name="Rectangle 15100" width="1" height="1" transform="translate(6 14)"/>
  <rect id="Rectangle_15343" data-name="Rectangle 15343" width="1" height="1" transform="translate(6 1)"/>
  <rect id="Rectangle_15349" data-name="Rectangle 15349" width="1" height="1" transform="translate(17 1)"/>
  <rect id="Rectangle_15352" data-name="Rectangle 15352" width="1" height="1" transform="translate(28 1)"/>
  <rect id="Rectangle_15358" data-name="Rectangle 15358" width="1" height="1" transform="translate(17 14)"/>
  <rect id="Rectangle_15361" data-name="Rectangle 15361" width="1" height="1" transform="translate(28 14)"/>
  <rect id="Rectangle_15370" data-name="Rectangle 15370" width="1" height="1" transform="translate(7)"/>
  <rect id="Rectangle_15376" data-name="Rectangle 15376" width="1" height="1" transform="translate(18)"/>
  <rect id="Rectangle_15379" data-name="Rectangle 15379" width="1" height="1" transform="translate(29)"/>
  <rect id="Rectangle_15385" data-name="Rectangle 15385" width="1" height="1" transform="translate(18 13)"/>
  <rect id="Rectangle_15388" data-name="Rectangle 15388" width="1" height="1" transform="translate(29 13)"/>
  <rect id="Rectangle_15397" data-name="Rectangle 15397" width="1" height="1" transform="translate(7 13)"/>
  <rect id="Rectangle_15406" data-name="Rectangle 15406" width="1" height="1" transform="translate(7 14)"/>
  <rect id="Rectangle_15415" data-name="Rectangle 15415" width="1" height="1" transform="translate(7 1)"/>
  <rect id="Rectangle_15421" data-name="Rectangle 15421" width="1" height="1" transform="translate(18 1)"/>
  <rect id="Rectangle_15424" data-name="Rectangle 15424" width="1" height="1" transform="translate(29 1)"/>
  <rect id="Rectangle_15430" data-name="Rectangle 15430" width="1" height="1" transform="translate(18 14)"/>
  <rect id="Rectangle_15433" data-name="Rectangle 15433" width="1" height="1" transform="translate(29 14)"/>
  <rect id="Rectangle_15442" data-name="Rectangle 15442" width="1" height="1" transform="translate(8)"/>
  <rect id="Rectangle_15448" data-name="Rectangle 15448" width="1" height="1" transform="translate(19)"/>
  <rect id="Rectangle_15451" data-name="Rectangle 15451" width="1" height="1" transform="translate(30)"/>
  <rect id="Rectangle_15457" data-name="Rectangle 15457" width="1" height="1" transform="translate(19 13)"/>
  <rect id="Rectangle_15460" data-name="Rectangle 15460" width="1" height="1" transform="translate(30 13)"/>
  <rect id="Rectangle_15469" data-name="Rectangle 15469" width="1" height="1" transform="translate(8 13)"/>
  <rect id="Rectangle_15478" data-name="Rectangle 15478" width="1" height="1" transform="translate(8 14)"/>
  <rect id="Rectangle_15487" data-name="Rectangle 15487" width="1" height="1" transform="translate(8 1)"/>
  <rect id="Rectangle_15493" data-name="Rectangle 15493" width="1" height="1" transform="translate(19 1)"/>
  <rect id="Rectangle_15496" data-name="Rectangle 15496" width="1" height="1" transform="translate(30 1)"/>
  <rect id="Rectangle_15502" data-name="Rectangle 15502" width="1" height="1" transform="translate(19 14)"/>
  <rect id="Rectangle_15505" data-name="Rectangle 15505" width="1" height="1" transform="translate(30 14)"/>
  <rect id="Rectangle_15514" data-name="Rectangle 15514" width="1" height="1" transform="translate(9)"/>
  <rect id="Rectangle_15520" data-name="Rectangle 15520" width="1" height="1" transform="translate(20)"/>
  <rect id="Rectangle_15523" data-name="Rectangle 15523" width="1" height="1" transform="translate(31)"/>
  <rect id="Rectangle_15529" data-name="Rectangle 15529" width="1" height="1" transform="translate(20 13)"/>
  <rect id="Rectangle_15532" data-name="Rectangle 15532" width="1" height="1" transform="translate(31 13)"/>
  <rect id="Rectangle_15541" data-name="Rectangle 15541" width="1" height="1" transform="translate(9 13)"/>
  <rect id="Rectangle_15550" data-name="Rectangle 15550" width="1" height="1" transform="translate(9 14)"/>
  <rect id="Rectangle_15559" data-name="Rectangle 15559" width="1" height="1" transform="translate(9 1)"/>
  <rect id="Rectangle_15565" data-name="Rectangle 15565" width="1" height="1" transform="translate(20 1)"/>
  <rect id="Rectangle_15568" data-name="Rectangle 15568" width="1" height="1" transform="translate(31 1)"/>
  <rect id="Rectangle_15574" data-name="Rectangle 15574" width="1" height="1" transform="translate(20 14)"/>
  <rect id="Rectangle_15577" data-name="Rectangle 15577" width="1" height="1" transform="translate(31 14)"/>
  <rect id="Rectangle_15586" data-name="Rectangle 15586" width="1" height="1" transform="translate(10)"/>
  <rect id="Rectangle_15592" data-name="Rectangle 15592" width="1" height="1" transform="translate(21)"/>
  <rect id="Rectangle_15595" data-name="Rectangle 15595" width="1" height="1" transform="translate(32)"/>
  <rect id="Rectangle_15601" data-name="Rectangle 15601" width="1" height="1" transform="translate(21 13)"/>
  <rect id="Rectangle_15604" data-name="Rectangle 15604" width="1" height="1" transform="translate(32 13)"/>
  <rect id="Rectangle_15613" data-name="Rectangle 15613" width="1" height="1" transform="translate(10 13)"/>
  <rect id="Rectangle_15622" data-name="Rectangle 15622" width="1" height="1" transform="translate(10 14)"/>
  <rect id="Rectangle_15631" data-name="Rectangle 15631" width="1" height="1" transform="translate(10 1)"/>
  <rect id="Rectangle_15637" data-name="Rectangle 15637" width="1" height="1" transform="translate(21 1)"/>
  <rect id="Rectangle_15640" data-name="Rectangle 15640" width="1" height="1" transform="translate(32 1)"/>
  <rect id="Rectangle_15646" data-name="Rectangle 15646" width="1" height="1" transform="translate(21 14)"/>
  <rect id="Rectangle_15649" data-name="Rectangle 15649" width="1" height="1" transform="translate(32 14)"/>
  <rect id="Rectangle_15658" data-name="Rectangle 15658" width="1" height="1" transform="translate(1 12)"/>
  <rect id="Rectangle_15664" data-name="Rectangle 15664" width="1" height="1" transform="translate(34 12)"/>
  <rect id="Rectangle_15673" data-name="Rectangle 15673" width="1" height="1" transform="translate(1 12)"/>
  <rect id="Rectangle_15679" data-name="Rectangle 15679" width="1" height="1" transform="translate(34 12)"/>
  <rect id="Rectangle_15688" data-name="Rectangle 15688" width="1" height="1" transform="translate(0 12)"/>
  <rect id="Rectangle_15694" data-name="Rectangle 15694" width="1" height="1" transform="translate(33 12)"/>
  <rect id="Rectangle_15703" data-name="Rectangle 15703" width="1" height="1" transform="translate(0 12)"/>
  <rect id="Rectangle_15709" data-name="Rectangle 15709" width="1" height="1" transform="translate(33 12)"/>
</svg>
