<svg id="Brick_-_Large_-_Strong" data-name="Brick - Large - Strong" xmlns="http://www.w3.org/2000/svg" width="35" height="14.999" viewBox="0 0 35 14.999">
  <path id="Union_3" data-name="Union 3" d="M-2007,11V10h1v1Zm-1,0V10h1v1Zm-1,0V10h1v1Zm-1,0V10h1v1Zm-1,0V10h1v1Zm-1,0V10h1v1Zm-1,0V10h1v1Zm-1,0V10h1v1Zm-1,0V10h1v1Zm-3,0V10h1v1Zm-1,0V10h1v1Zm-1,0V10h1v1Zm-1,0V10h1v1Zm-1,0V10h1v1Zm-1,0V10h1v1Zm-1,0V10h1v1Zm-1,0V10h1v1Zm-1,0V10h1v1Zm-3,0V10h1v1Zm-1,0V10h1v1Zm-1,0V10h1v1Zm-1,0V10h1v1Zm-1,0V10h1v1Zm-1,0V10h1v1Zm-1,0V10h1v1Zm-1,0V10h1v1Zm-1,0V10h1v1Zm30-1v0h-1v0h-1v0h-1v0h-1v0h-1v0h-1v0h-1v0h-2v0h-2v0h-1v0h-1v0h-1v0h-1v0h-1v0h-1v0h-1v0h-2v0h-2v0h-1v0h-1v0h-1v0h-1V0h27V-1h2V8h0V9h-2v1Zm-27,0V9h1v1Zm-1,0V9h1v1Zm-1,0V9h1v1Zm-1,0V9h-2V8h2V9h1v1Zm-1-2h-1V-1h2V8Zm33-9h-1V-2h-1V-3h1v1h2v1Zm-11,0V-2h1v1Zm-1,0V-2h-1V-3h0V-4h1v1h3v1h-2v1Zm-10,0V-2h1v1Zm-1,0V-2h-1V-3h0V-4h1v1h3v1h-2v1Zm-10,0h-1V-2h2v1Zm30-1V-3h1v1Zm-1,0V-3h1v1Zm-1,0V-3h1v1Zm-1,0V-3h1v1Zm-1,0V-3h1v1Zm-1,0V-3h1v1Zm-1,0V-3h1v1Zm-5,0V-3h1v1Zm-1,0V-3h1v1Zm-1,0V-3h1v1Zm-1,0V-3h1v1Zm-1,0V-3h1v1Zm-1,0V-3h1v1Zm-1,0V-3h1v1Zm-5,0V-3h1v1Zm-1,0V-3h1v1Zm-1,0V-3h1v1Zm-1,0V-3h1v1Zm-1,0V-3h1v1Zm-1,0V-3h1v1Zm-1,0V-3h1v1Zm-1,0V-3h1v1Zm30-1V-4h1v1Zm-1,0V-4h1v1Zm-1,0V-4h1v1Zm-1,0V-4h1v1Zm-1,0V-4h1v1Zm-1,0V-4h1v1Zm-1,0V-4h1v1Zm-1,0V-4h1v1Zm-1,0V-4h1v1Zm-4,0V-4h1v1Zm-1,0V-4h1v1Zm-1,0V-4h1v1Zm-1,0V-4h1v1Zm-1,0V-4h1v1Zm-1,0V-4h1v1Zm-1,0V-4h1v1Zm-1,0V-4h1v1Zm-4,0V-4h1v1Zm-1,0V-4h1v1Zm-1,0V-4h1v1Zm-1,0V-4h1v1Zm-1,0V-4h1v1Zm-1,0V-4h1v1Zm-1,0V-4h1v1Zm-1,0V-4h1v1Z" transform="translate(2039 4)"/>
</svg>
