<svg id="Brick_-_Meadium_-_Weakest" data-name="Brick - Meadium - Weakest" xmlns="http://www.w3.org/2000/svg" width="24" height="15" viewBox="0 0 24 15">
  <rect id="Rectangle_13963" data-name="Rectangle 13963" width="1" height="1" transform="translate(1 2)"/>
  <rect id="Rectangle_13969" data-name="Rectangle 13969" width="1" height="1" transform="translate(23 2)"/>
  <rect id="Rectangle_13978" data-name="Rectangle 13978" width="1" height="1" transform="translate(1 2)"/>
  <rect id="Rectangle_13984" data-name="Rectangle 13984" width="1" height="1" transform="translate(23 2)"/>
  <rect id="Rectangle_13993" data-name="Rectangle 13993" width="1" height="1" transform="translate(0 2)"/>
  <rect id="Rectangle_13999" data-name="Rectangle 13999" width="1" height="1" transform="translate(22 2)"/>
  <rect id="Rectangle_14008" data-name="Rectangle 14008" width="1" height="1" transform="translate(0 2)"/>
  <rect id="Rectangle_14014" data-name="Rectangle 14014" width="1" height="1" transform="translate(22 2)"/>
  <rect id="Rectangle_14039" data-name="Rectangle 14039" width="1" height="1" transform="translate(1 11)"/>
  <rect id="Rectangle_14045" data-name="Rectangle 14045" width="1" height="1" transform="translate(23 11)"/>
  <rect id="Rectangle_14054" data-name="Rectangle 14054" width="1" height="1" transform="translate(1 11)"/>
  <rect id="Rectangle_14060" data-name="Rectangle 14060" width="1" height="1" transform="translate(23 11)"/>
  <rect id="Rectangle_14069" data-name="Rectangle 14069" width="1" height="1" transform="translate(0 11)"/>
  <rect id="Rectangle_14075" data-name="Rectangle 14075" width="1" height="1" transform="translate(22 11)"/>
  <rect id="Rectangle_14084" data-name="Rectangle 14084" width="1" height="1" transform="translate(0 11)"/>
  <rect id="Rectangle_14090" data-name="Rectangle 14090" width="1" height="1" transform="translate(22 11)"/>
  <rect id="Rectangle_14115" data-name="Rectangle 14115" width="1" height="1" transform="translate(1 10)"/>
  <rect id="Rectangle_14121" data-name="Rectangle 14121" width="1" height="1" transform="translate(23 10)"/>
  <rect id="Rectangle_14130" data-name="Rectangle 14130" width="1" height="1" transform="translate(1 10)"/>
  <rect id="Rectangle_14136" data-name="Rectangle 14136" width="1" height="1" transform="translate(23 10)"/>
  <rect id="Rectangle_14145" data-name="Rectangle 14145" width="1" height="1" transform="translate(0 10)"/>
  <rect id="Rectangle_14151" data-name="Rectangle 14151" width="1" height="1" transform="translate(22 10)"/>
  <rect id="Rectangle_14160" data-name="Rectangle 14160" width="1" height="1" transform="translate(0 10)"/>
  <rect id="Rectangle_14166" data-name="Rectangle 14166" width="1" height="1" transform="translate(22 10)"/>
  <rect id="Rectangle_14191" data-name="Rectangle 14191" width="1" height="1" transform="translate(1 9)"/>
  <rect id="Rectangle_14197" data-name="Rectangle 14197" width="1" height="1" transform="translate(23 9)"/>
  <rect id="Rectangle_14206" data-name="Rectangle 14206" width="1" height="1" transform="translate(1 9)"/>
  <rect id="Rectangle_14212" data-name="Rectangle 14212" width="1" height="1" transform="translate(23 9)"/>
  <rect id="Rectangle_14221" data-name="Rectangle 14221" width="1" height="1" transform="translate(0 9)"/>
  <rect id="Rectangle_14227" data-name="Rectangle 14227" width="1" height="1" transform="translate(22 9)"/>
  <rect id="Rectangle_14236" data-name="Rectangle 14236" width="1" height="1" transform="translate(0 9)"/>
  <rect id="Rectangle_14242" data-name="Rectangle 14242" width="1" height="1" transform="translate(22 9)"/>
  <rect id="Rectangle_14267" data-name="Rectangle 14267" width="1" height="1" transform="translate(1 8)"/>
  <rect id="Rectangle_14273" data-name="Rectangle 14273" width="1" height="1" transform="translate(23 8)"/>
  <rect id="Rectangle_14282" data-name="Rectangle 14282" width="1" height="1" transform="translate(1 8)"/>
  <rect id="Rectangle_14288" data-name="Rectangle 14288" width="1" height="1" transform="translate(23 8)"/>
  <rect id="Rectangle_14297" data-name="Rectangle 14297" width="1" height="1" transform="translate(0 8)"/>
  <rect id="Rectangle_14303" data-name="Rectangle 14303" width="1" height="1" transform="translate(22 8)"/>
  <rect id="Rectangle_14312" data-name="Rectangle 14312" width="1" height="1" transform="translate(0 8)"/>
  <rect id="Rectangle_14318" data-name="Rectangle 14318" width="1" height="1" transform="translate(22 8)"/>
  <rect id="Rectangle_14343" data-name="Rectangle 14343" width="1" height="1" transform="translate(1 7)"/>
  <rect id="Rectangle_14349" data-name="Rectangle 14349" width="1" height="1" transform="translate(23 7)"/>
  <rect id="Rectangle_14358" data-name="Rectangle 14358" width="1" height="1" transform="translate(1 7)"/>
  <rect id="Rectangle_14364" data-name="Rectangle 14364" width="1" height="1" transform="translate(23 7)"/>
  <rect id="Rectangle_14373" data-name="Rectangle 14373" width="1" height="1" transform="translate(0 7)"/>
  <rect id="Rectangle_14379" data-name="Rectangle 14379" width="1" height="1" transform="translate(22 7)"/>
  <rect id="Rectangle_14388" data-name="Rectangle 14388" width="1" height="1" transform="translate(0 7)"/>
  <rect id="Rectangle_14394" data-name="Rectangle 14394" width="1" height="1" transform="translate(22 7)"/>
  <rect id="Rectangle_14419" data-name="Rectangle 14419" width="1" height="1" transform="translate(1 6)"/>
  <rect id="Rectangle_14425" data-name="Rectangle 14425" width="1" height="1" transform="translate(23 6)"/>
  <rect id="Rectangle_14434" data-name="Rectangle 14434" width="1" height="1" transform="translate(1 6)"/>
  <rect id="Rectangle_14440" data-name="Rectangle 14440" width="1" height="1" transform="translate(23 6)"/>
  <rect id="Rectangle_14449" data-name="Rectangle 14449" width="1" height="1" transform="translate(0 6)"/>
  <rect id="Rectangle_14455" data-name="Rectangle 14455" width="1" height="1" transform="translate(22 6)"/>
  <rect id="Rectangle_14464" data-name="Rectangle 14464" width="1" height="1" transform="translate(0 6)"/>
  <rect id="Rectangle_14470" data-name="Rectangle 14470" width="1" height="1" transform="translate(22 6)"/>
  <rect id="Rectangle_14495" data-name="Rectangle 14495" width="1" height="1" transform="translate(1 5)"/>
  <rect id="Rectangle_14501" data-name="Rectangle 14501" width="1" height="1" transform="translate(23 5)"/>
  <rect id="Rectangle_14510" data-name="Rectangle 14510" width="1" height="1" transform="translate(1 5)"/>
  <rect id="Rectangle_14516" data-name="Rectangle 14516" width="1" height="1" transform="translate(23 5)"/>
  <rect id="Rectangle_14525" data-name="Rectangle 14525" width="1" height="1" transform="translate(0 5)"/>
  <rect id="Rectangle_14531" data-name="Rectangle 14531" width="1" height="1" transform="translate(22 5)"/>
  <rect id="Rectangle_14540" data-name="Rectangle 14540" width="1" height="1" transform="translate(0 5)"/>
  <rect id="Rectangle_14546" data-name="Rectangle 14546" width="1" height="1" transform="translate(22 5)"/>
  <rect id="Rectangle_14571" data-name="Rectangle 14571" width="1" height="1" transform="translate(1 4)"/>
  <rect id="Rectangle_14577" data-name="Rectangle 14577" width="1" height="1" transform="translate(23 4)"/>
  <rect id="Rectangle_14586" data-name="Rectangle 14586" width="1" height="1" transform="translate(1 4)"/>
  <rect id="Rectangle_14592" data-name="Rectangle 14592" width="1" height="1" transform="translate(23 4)"/>
  <rect id="Rectangle_14601" data-name="Rectangle 14601" width="1" height="1" transform="translate(0 4)"/>
  <rect id="Rectangle_14607" data-name="Rectangle 14607" width="1" height="1" transform="translate(22 4)"/>
  <rect id="Rectangle_14616" data-name="Rectangle 14616" width="1" height="1" transform="translate(0 4)"/>
  <rect id="Rectangle_14622" data-name="Rectangle 14622" width="1" height="1" transform="translate(22 4)"/>
  <rect id="Rectangle_14647" data-name="Rectangle 14647" width="1" height="1" transform="translate(1 3)"/>
  <rect id="Rectangle_14653" data-name="Rectangle 14653" width="1" height="1" transform="translate(23 3)"/>
  <rect id="Rectangle_14662" data-name="Rectangle 14662" width="1" height="1" transform="translate(1 3)"/>
  <rect id="Rectangle_14668" data-name="Rectangle 14668" width="1" height="1" transform="translate(23 3)"/>
  <rect id="Rectangle_14677" data-name="Rectangle 14677" width="1" height="1" transform="translate(0 3)"/>
  <rect id="Rectangle_14683" data-name="Rectangle 14683" width="1" height="1" transform="translate(22 3)"/>
  <rect id="Rectangle_14692" data-name="Rectangle 14692" width="1" height="1" transform="translate(0 3)"/>
  <rect id="Rectangle_14698" data-name="Rectangle 14698" width="1" height="1" transform="translate(22 3)"/>
  <rect id="Rectangle_14723" data-name="Rectangle 14723" width="1" height="1" transform="translate(2)"/>
  <rect id="Rectangle_14728" data-name="Rectangle 14728" width="1" height="1" transform="translate(13)"/>
  <rect id="Rectangle_14736" data-name="Rectangle 14736" width="1" height="1" transform="translate(13 13)"/>
  <rect id="Rectangle_14748" data-name="Rectangle 14748" width="1" height="1" transform="translate(2 13)"/>
  <rect id="Rectangle_14757" data-name="Rectangle 14757" width="1" height="1" transform="translate(2 14)"/>
  <rect id="Rectangle_14766" data-name="Rectangle 14766" width="1" height="1" transform="translate(2 1)"/>
  <rect id="Rectangle_14771" data-name="Rectangle 14771" width="1" height="1" transform="translate(13 1)"/>
  <rect id="Rectangle_14779" data-name="Rectangle 14779" width="1" height="1" transform="translate(12 1)"/>
  <rect id="Rectangle_14787" data-name="Rectangle 14787" width="1" height="1" transform="translate(12 12)"/>
  <rect id="Rectangle_14792" data-name="Rectangle 14792" width="1" height="1" transform="translate(11 1)"/>
  <rect id="Rectangle_14800" data-name="Rectangle 14800" width="1" height="1" transform="translate(11 12)"/>
  <rect id="Rectangle_14805" data-name="Rectangle 14805" width="1" height="1" transform="translate(11 2)"/>
  <rect id="Rectangle_14813" data-name="Rectangle 14813" width="1" height="1" transform="translate(11 13)"/>
  <rect id="Rectangle_14821" data-name="Rectangle 14821" width="1" height="1" transform="translate(12 2)"/>
  <rect id="Rectangle_14829" data-name="Rectangle 14829" width="1" height="1" transform="translate(12 13)"/>
  <rect id="Rectangle_14837" data-name="Rectangle 14837" width="1" height="1" transform="translate(13 14)"/>
  <rect id="Rectangle_14849" data-name="Rectangle 14849" width="1" height="1" transform="translate(3)"/>
  <rect id="Rectangle_14854" data-name="Rectangle 14854" width="1" height="1" transform="translate(14)"/>
  <rect id="Rectangle_14862" data-name="Rectangle 14862" width="1" height="1" transform="translate(14 13)"/>
  <rect id="Rectangle_14874" data-name="Rectangle 14874" width="1" height="1" transform="translate(3 13)"/>
  <rect id="Rectangle_14883" data-name="Rectangle 14883" width="1" height="1" transform="translate(3 14)"/>
  <rect id="Rectangle_14892" data-name="Rectangle 14892" width="1" height="1" transform="translate(3 1)"/>
  <rect id="Rectangle_14897" data-name="Rectangle 14897" width="1" height="1" transform="translate(14 1)"/>
  <rect id="Rectangle_14905" data-name="Rectangle 14905" width="1" height="1" transform="translate(14 14)"/>
  <rect id="Rectangle_14917" data-name="Rectangle 14917" width="1" height="1" transform="translate(4)"/>
  <rect id="Rectangle_14923" data-name="Rectangle 14923" width="1" height="1" transform="translate(15)"/>
  <rect id="Rectangle_14932" data-name="Rectangle 14932" width="1" height="1" transform="translate(15 13)"/>
  <rect id="Rectangle_14944" data-name="Rectangle 14944" width="1" height="1" transform="translate(4 13)"/>
  <rect id="Rectangle_14953" data-name="Rectangle 14953" width="1" height="1" transform="translate(4 14)"/>
  <rect id="Rectangle_14962" data-name="Rectangle 14962" width="1" height="1" transform="translate(4 1)"/>
  <rect id="Rectangle_14968" data-name="Rectangle 14968" width="1" height="1" transform="translate(15 1)"/>
  <rect id="Rectangle_14977" data-name="Rectangle 14977" width="1" height="1" transform="translate(15 14)"/>
  <rect id="Rectangle_14989" data-name="Rectangle 14989" width="1" height="1" transform="translate(5)"/>
  <rect id="Rectangle_14995" data-name="Rectangle 14995" width="1" height="1" transform="translate(16)"/>
  <rect id="Rectangle_15004" data-name="Rectangle 15004" width="1" height="1" transform="translate(16 13)"/>
  <rect id="Rectangle_15016" data-name="Rectangle 15016" width="1" height="1" transform="translate(5 13)"/>
  <rect id="Rectangle_15025" data-name="Rectangle 15025" width="1" height="1" transform="translate(5 14)"/>
  <rect id="Rectangle_15034" data-name="Rectangle 15034" width="1" height="1" transform="translate(5 1)"/>
  <rect id="Rectangle_15040" data-name="Rectangle 15040" width="1" height="1" transform="translate(16 1)"/>
  <rect id="Rectangle_15049" data-name="Rectangle 15049" width="1" height="1" transform="translate(16 14)"/>
  <rect id="Rectangle_15061" data-name="Rectangle 15061" width="1" height="1" transform="translate(6)"/>
  <rect id="Rectangle_15067" data-name="Rectangle 15067" width="1" height="1" transform="translate(17)"/>
  <rect id="Rectangle_15076" data-name="Rectangle 15076" width="1" height="1" transform="translate(17 13)"/>
  <rect id="Rectangle_15088" data-name="Rectangle 15088" width="1" height="1" transform="translate(6 13)"/>
  <rect id="Rectangle_15097" data-name="Rectangle 15097" width="1" height="1" transform="translate(6 14)"/>
  <rect id="Rectangle_15340" data-name="Rectangle 15340" width="1" height="1" transform="translate(6 1)"/>
  <rect id="Rectangle_15346" data-name="Rectangle 15346" width="1" height="1" transform="translate(17 1)"/>
  <rect id="Rectangle_15355" data-name="Rectangle 15355" width="1" height="1" transform="translate(17 14)"/>
  <rect id="Rectangle_15367" data-name="Rectangle 15367" width="1" height="1" transform="translate(7)"/>
  <rect id="Rectangle_15373" data-name="Rectangle 15373" width="1" height="1" transform="translate(18)"/>
  <rect id="Rectangle_15382" data-name="Rectangle 15382" width="1" height="1" transform="translate(18 13)"/>
  <rect id="Rectangle_15394" data-name="Rectangle 15394" width="1" height="1" transform="translate(7 13)"/>
  <rect id="Rectangle_15403" data-name="Rectangle 15403" width="1" height="1" transform="translate(7 14)"/>
  <rect id="Rectangle_15412" data-name="Rectangle 15412" width="1" height="1" transform="translate(7 1)"/>
  <rect id="Rectangle_15418" data-name="Rectangle 15418" width="1" height="1" transform="translate(18 1)"/>
  <rect id="Rectangle_15427" data-name="Rectangle 15427" width="1" height="1" transform="translate(18 14)"/>
  <rect id="Rectangle_15439" data-name="Rectangle 15439" width="1" height="1" transform="translate(8)"/>
  <rect id="Rectangle_15445" data-name="Rectangle 15445" width="1" height="1" transform="translate(19)"/>
  <rect id="Rectangle_15454" data-name="Rectangle 15454" width="1" height="1" transform="translate(19 13)"/>
  <rect id="Rectangle_15466" data-name="Rectangle 15466" width="1" height="1" transform="translate(8 13)"/>
  <rect id="Rectangle_15475" data-name="Rectangle 15475" width="1" height="1" transform="translate(8 14)"/>
  <rect id="Rectangle_15484" data-name="Rectangle 15484" width="1" height="1" transform="translate(8 1)"/>
  <rect id="Rectangle_15490" data-name="Rectangle 15490" width="1" height="1" transform="translate(19 1)"/>
  <rect id="Rectangle_15499" data-name="Rectangle 15499" width="1" height="1" transform="translate(19 14)"/>
  <rect id="Rectangle_15511" data-name="Rectangle 15511" width="1" height="1" transform="translate(9)"/>
  <rect id="Rectangle_15517" data-name="Rectangle 15517" width="1" height="1" transform="translate(20)"/>
  <rect id="Rectangle_15526" data-name="Rectangle 15526" width="1" height="1" transform="translate(20 13)"/>
  <rect id="Rectangle_15538" data-name="Rectangle 15538" width="1" height="1" transform="translate(9 13)"/>
  <rect id="Rectangle_15547" data-name="Rectangle 15547" width="1" height="1" transform="translate(9 14)"/>
  <rect id="Rectangle_15556" data-name="Rectangle 15556" width="1" height="1" transform="translate(9 1)"/>
  <rect id="Rectangle_15562" data-name="Rectangle 15562" width="1" height="1" transform="translate(20 1)"/>
  <rect id="Rectangle_15571" data-name="Rectangle 15571" width="1" height="1" transform="translate(20 14)"/>
  <rect id="Rectangle_15583" data-name="Rectangle 15583" width="1" height="1" transform="translate(10)"/>
  <rect id="Rectangle_15589" data-name="Rectangle 15589" width="1" height="1" transform="translate(21)"/>
  <rect id="Rectangle_15598" data-name="Rectangle 15598" width="1" height="1" transform="translate(21 13)"/>
  <rect id="Rectangle_15610" data-name="Rectangle 15610" width="1" height="1" transform="translate(10 13)"/>
  <rect id="Rectangle_15619" data-name="Rectangle 15619" width="1" height="1" transform="translate(10 14)"/>
  <rect id="Rectangle_15628" data-name="Rectangle 15628" width="1" height="1" transform="translate(10 1)"/>
  <rect id="Rectangle_15634" data-name="Rectangle 15634" width="1" height="1" transform="translate(21 1)"/>
  <rect id="Rectangle_15643" data-name="Rectangle 15643" width="1" height="1" transform="translate(21 14)"/>
  <rect id="Rectangle_15655" data-name="Rectangle 15655" width="1" height="1" transform="translate(1 12)"/>
  <rect id="Rectangle_15661" data-name="Rectangle 15661" width="1" height="1" transform="translate(23 12)"/>
  <rect id="Rectangle_15670" data-name="Rectangle 15670" width="1" height="1" transform="translate(1 12)"/>
  <rect id="Rectangle_15676" data-name="Rectangle 15676" width="1" height="1" transform="translate(23 12)"/>
  <rect id="Rectangle_15685" data-name="Rectangle 15685" width="1" height="1" transform="translate(0 12)"/>
  <rect id="Rectangle_15691" data-name="Rectangle 15691" width="1" height="1" transform="translate(22 12)"/>
  <rect id="Rectangle_15700" data-name="Rectangle 15700" width="1" height="1" transform="translate(0 12)"/>
  <rect id="Rectangle_15706" data-name="Rectangle 15706" width="1" height="1" transform="translate(22 12)"/>
</svg>
