<svg id="Brick_-_Large_-_Strong" data-name="Brick - Large - Strong" xmlns="http://www.w3.org/2000/svg" width="35" height="15" viewBox="0 0 35 15">
  <rect id="Rectangle_13964" data-name="Rectangle 13964" width="1" height="1" transform="translate(1 2)"/>
  <rect id="Rectangle_13970" data-name="Rectangle 13970" width="1" height="1" transform="translate(34 2)"/>
  <rect id="Rectangle_13979" data-name="Rectangle 13979" width="1" height="1" transform="translate(1 2)"/>
  <rect id="Rectangle_13985" data-name="Rectangle 13985" width="1" height="1" transform="translate(34 2)"/>
  <rect id="Rectangle_13994" data-name="Rectangle 13994" width="1" height="1" transform="translate(0 2)"/>
  <rect id="Rectangle_14000" data-name="Rectangle 14000" width="1" height="1" transform="translate(33 2)"/>
  <rect id="Rectangle_14009" data-name="Rectangle 14009" width="1" height="1" transform="translate(0 2)"/>
  <rect id="Rectangle_14015" data-name="Rectangle 14015" width="1" height="1" transform="translate(33 2)"/>
  <rect id="Rectangle_14040" data-name="Rectangle 14040" width="1" height="1" transform="translate(1 11)"/>
  <rect id="Rectangle_14046" data-name="Rectangle 14046" width="1" height="1" transform="translate(34 11)"/>
  <rect id="Rectangle_14055" data-name="Rectangle 14055" width="1" height="1" transform="translate(1 11)"/>
  <rect id="Rectangle_14061" data-name="Rectangle 14061" width="1" height="1" transform="translate(34 11)"/>
  <rect id="Rectangle_14070" data-name="Rectangle 14070" width="1" height="1" transform="translate(0 11)"/>
  <rect id="Rectangle_14076" data-name="Rectangle 14076" width="1" height="1" transform="translate(33 11)"/>
  <rect id="Rectangle_14085" data-name="Rectangle 14085" width="1" height="1" transform="translate(0 11)"/>
  <rect id="Rectangle_14091" data-name="Rectangle 14091" width="1" height="1" transform="translate(33 11)"/>
  <rect id="Rectangle_14116" data-name="Rectangle 14116" width="1" height="1" transform="translate(1 10)"/>
  <rect id="Rectangle_14122" data-name="Rectangle 14122" width="1" height="1" transform="translate(34 10)"/>
  <rect id="Rectangle_14131" data-name="Rectangle 14131" width="1" height="1" transform="translate(1 10)"/>
  <rect id="Rectangle_14137" data-name="Rectangle 14137" width="1" height="1" transform="translate(34 10)"/>
  <rect id="Rectangle_14146" data-name="Rectangle 14146" width="1" height="1" transform="translate(0 10)"/>
  <rect id="Rectangle_14152" data-name="Rectangle 14152" width="1" height="1" transform="translate(33 10)"/>
  <rect id="Rectangle_14161" data-name="Rectangle 14161" width="1" height="1" transform="translate(0 10)"/>
  <rect id="Rectangle_14167" data-name="Rectangle 14167" width="1" height="1" transform="translate(33 10)"/>
  <rect id="Rectangle_14192" data-name="Rectangle 14192" width="1" height="1" transform="translate(1 9)"/>
  <rect id="Rectangle_14198" data-name="Rectangle 14198" width="1" height="1" transform="translate(34 9)"/>
  <rect id="Rectangle_14207" data-name="Rectangle 14207" width="1" height="1" transform="translate(1 9)"/>
  <rect id="Rectangle_14213" data-name="Rectangle 14213" width="1" height="1" transform="translate(34 9)"/>
  <rect id="Rectangle_14222" data-name="Rectangle 14222" width="1" height="1" transform="translate(0 9)"/>
  <rect id="Rectangle_14228" data-name="Rectangle 14228" width="1" height="1" transform="translate(33 9)"/>
  <rect id="Rectangle_14237" data-name="Rectangle 14237" width="1" height="1" transform="translate(0 9)"/>
  <rect id="Rectangle_14243" data-name="Rectangle 14243" width="1" height="1" transform="translate(33 9)"/>
  <rect id="Rectangle_14268" data-name="Rectangle 14268" width="1" height="1" transform="translate(1 8)"/>
  <rect id="Rectangle_14274" data-name="Rectangle 14274" width="1" height="1" transform="translate(34 8)"/>
  <rect id="Rectangle_14283" data-name="Rectangle 14283" width="1" height="1" transform="translate(1 8)"/>
  <rect id="Rectangle_14289" data-name="Rectangle 14289" width="1" height="1" transform="translate(34 8)"/>
  <rect id="Rectangle_14298" data-name="Rectangle 14298" width="1" height="1" transform="translate(0 8)"/>
  <rect id="Rectangle_14304" data-name="Rectangle 14304" width="1" height="1" transform="translate(33 8)"/>
  <rect id="Rectangle_14313" data-name="Rectangle 14313" width="1" height="1" transform="translate(0 8)"/>
  <rect id="Rectangle_14319" data-name="Rectangle 14319" width="1" height="1" transform="translate(33 8)"/>
  <rect id="Rectangle_14344" data-name="Rectangle 14344" width="1" height="1" transform="translate(1 7)"/>
  <rect id="Rectangle_14350" data-name="Rectangle 14350" width="1" height="1" transform="translate(34 7)"/>
  <rect id="Rectangle_14359" data-name="Rectangle 14359" width="1" height="1" transform="translate(1 7)"/>
  <rect id="Rectangle_14365" data-name="Rectangle 14365" width="1" height="1" transform="translate(34 7)"/>
  <rect id="Rectangle_14374" data-name="Rectangle 14374" width="1" height="1" transform="translate(0 7)"/>
  <rect id="Rectangle_14380" data-name="Rectangle 14380" width="1" height="1" transform="translate(33 7)"/>
  <rect id="Rectangle_14389" data-name="Rectangle 14389" width="1" height="1" transform="translate(0 7)"/>
  <rect id="Rectangle_14395" data-name="Rectangle 14395" width="1" height="1" transform="translate(33 7)"/>
  <rect id="Rectangle_14420" data-name="Rectangle 14420" width="1" height="1" transform="translate(1 6)"/>
  <rect id="Rectangle_14426" data-name="Rectangle 14426" width="1" height="1" transform="translate(34 6)"/>
  <rect id="Rectangle_14435" data-name="Rectangle 14435" width="1" height="1" transform="translate(1 6)"/>
  <rect id="Rectangle_14441" data-name="Rectangle 14441" width="1" height="1" transform="translate(34 6)"/>
  <rect id="Rectangle_14450" data-name="Rectangle 14450" width="1" height="1" transform="translate(0 6)"/>
  <rect id="Rectangle_14456" data-name="Rectangle 14456" width="1" height="1" transform="translate(33 6)"/>
  <rect id="Rectangle_14465" data-name="Rectangle 14465" width="1" height="1" transform="translate(0 6)"/>
  <rect id="Rectangle_14471" data-name="Rectangle 14471" width="1" height="1" transform="translate(33 6)"/>
  <rect id="Rectangle_14496" data-name="Rectangle 14496" width="1" height="1" transform="translate(1 5)"/>
  <rect id="Rectangle_14502" data-name="Rectangle 14502" width="1" height="1" transform="translate(34 5)"/>
  <rect id="Rectangle_14511" data-name="Rectangle 14511" width="1" height="1" transform="translate(1 5)"/>
  <rect id="Rectangle_14517" data-name="Rectangle 14517" width="1" height="1" transform="translate(34 5)"/>
  <rect id="Rectangle_14526" data-name="Rectangle 14526" width="1" height="1" transform="translate(0 5)"/>
  <rect id="Rectangle_14532" data-name="Rectangle 14532" width="1" height="1" transform="translate(33 5)"/>
  <rect id="Rectangle_14541" data-name="Rectangle 14541" width="1" height="1" transform="translate(0 5)"/>
  <rect id="Rectangle_14547" data-name="Rectangle 14547" width="1" height="1" transform="translate(33 5)"/>
  <rect id="Rectangle_14572" data-name="Rectangle 14572" width="1" height="1" transform="translate(1 4)"/>
  <rect id="Rectangle_14578" data-name="Rectangle 14578" width="1" height="1" transform="translate(34 4)"/>
  <rect id="Rectangle_14587" data-name="Rectangle 14587" width="1" height="1" transform="translate(1 4)"/>
  <rect id="Rectangle_14593" data-name="Rectangle 14593" width="1" height="1" transform="translate(34 4)"/>
  <rect id="Rectangle_14602" data-name="Rectangle 14602" width="1" height="1" transform="translate(0 4)"/>
  <rect id="Rectangle_14608" data-name="Rectangle 14608" width="1" height="1" transform="translate(33 4)"/>
  <rect id="Rectangle_14617" data-name="Rectangle 14617" width="1" height="1" transform="translate(0 4)"/>
  <rect id="Rectangle_14623" data-name="Rectangle 14623" width="1" height="1" transform="translate(33 4)"/>
  <rect id="Rectangle_14648" data-name="Rectangle 14648" width="1" height="1" transform="translate(1 3)"/>
  <rect id="Rectangle_14654" data-name="Rectangle 14654" width="1" height="1" transform="translate(34 3)"/>
  <rect id="Rectangle_14663" data-name="Rectangle 14663" width="1" height="1" transform="translate(1 3)"/>
  <rect id="Rectangle_14669" data-name="Rectangle 14669" width="1" height="1" transform="translate(34 3)"/>
  <rect id="Rectangle_14678" data-name="Rectangle 14678" width="1" height="1" transform="translate(0 3)"/>
  <rect id="Rectangle_14684" data-name="Rectangle 14684" width="1" height="1" transform="translate(33 3)"/>
  <rect id="Rectangle_14693" data-name="Rectangle 14693" width="1" height="1" transform="translate(0 3)"/>
  <rect id="Rectangle_14699" data-name="Rectangle 14699" width="1" height="1" transform="translate(33 3)"/>
  <rect id="Rectangle_14724" data-name="Rectangle 14724" width="1" height="1" transform="translate(2)"/>
  <rect id="Rectangle_14729" data-name="Rectangle 14729" width="1" height="1" transform="translate(13)"/>
  <rect id="Rectangle_14732" data-name="Rectangle 14732" width="1" height="1" transform="translate(24)"/>
  <rect id="Rectangle_14737" data-name="Rectangle 14737" width="1" height="1" transform="translate(13 13)"/>
  <rect id="Rectangle_14740" data-name="Rectangle 14740" width="1" height="1" transform="translate(24 13)"/>
  <rect id="Rectangle_14749" data-name="Rectangle 14749" width="1" height="1" transform="translate(2 13)"/>
  <rect id="Rectangle_14758" data-name="Rectangle 14758" width="1" height="1" transform="translate(2 14)"/>
  <rect id="Rectangle_14767" data-name="Rectangle 14767" width="1" height="1" transform="translate(2 1)"/>
  <rect id="Rectangle_14772" data-name="Rectangle 14772" width="1" height="1" transform="translate(13 1)"/>
  <rect id="Rectangle_14775" data-name="Rectangle 14775" width="1" height="1" transform="translate(24 1)"/>
  <rect id="Rectangle_14780" data-name="Rectangle 14780" width="1" height="1" transform="translate(12 1)"/>
  <rect id="Rectangle_14783" data-name="Rectangle 14783" width="1" height="1" transform="translate(23 1)"/>
  <rect id="Rectangle_14788" data-name="Rectangle 14788" width="1" height="1" transform="translate(12 12)"/>
  <rect id="Rectangle_14793" data-name="Rectangle 14793" width="1" height="1" transform="translate(11 1)"/>
  <rect id="Rectangle_14796" data-name="Rectangle 14796" width="1" height="1" transform="translate(22 1)"/>
  <rect id="Rectangle_14801" data-name="Rectangle 14801" width="1" height="1" transform="translate(11 12)"/>
  <rect id="Rectangle_14806" data-name="Rectangle 14806" width="1" height="1" transform="translate(11 2)"/>
  <rect id="Rectangle_14809" data-name="Rectangle 14809" width="1" height="1" transform="translate(22 2)"/>
  <rect id="Rectangle_14814" data-name="Rectangle 14814" width="1" height="1" transform="translate(11 13)"/>
  <rect id="Rectangle_14817" data-name="Rectangle 14817" width="1" height="1" transform="translate(22 13)"/>
  <rect id="Rectangle_14822" data-name="Rectangle 14822" width="1" height="1" transform="translate(12 2)"/>
  <rect id="Rectangle_14825" data-name="Rectangle 14825" width="1" height="1" transform="translate(23 2)"/>
  <rect id="Rectangle_14830" data-name="Rectangle 14830" width="1" height="1" transform="translate(12 13)"/>
  <rect id="Rectangle_14833" data-name="Rectangle 14833" width="1" height="1" transform="translate(23 13)"/>
  <rect id="Rectangle_14838" data-name="Rectangle 14838" width="1" height="1" transform="translate(13 14)"/>
  <rect id="Rectangle_14841" data-name="Rectangle 14841" width="1" height="1" transform="translate(24 14)"/>
  <rect id="Rectangle_14850" data-name="Rectangle 14850" width="1" height="1" transform="translate(3)"/>
  <rect id="Rectangle_14855" data-name="Rectangle 14855" width="1" height="1" transform="translate(14)"/>
  <rect id="Rectangle_14858" data-name="Rectangle 14858" width="1" height="1" transform="translate(25)"/>
  <rect id="Rectangle_14863" data-name="Rectangle 14863" width="1" height="1" transform="translate(14 13)"/>
  <rect id="Rectangle_14866" data-name="Rectangle 14866" width="1" height="1" transform="translate(25 13)"/>
  <rect id="Rectangle_14875" data-name="Rectangle 14875" width="1" height="1" transform="translate(3 13)"/>
  <rect id="Rectangle_14884" data-name="Rectangle 14884" width="1" height="1" transform="translate(3 14)"/>
  <rect id="Rectangle_14893" data-name="Rectangle 14893" width="1" height="1" transform="translate(3 1)"/>
  <rect id="Rectangle_14898" data-name="Rectangle 14898" width="1" height="1" transform="translate(14 1)"/>
  <rect id="Rectangle_14901" data-name="Rectangle 14901" width="1" height="1" transform="translate(25 1)"/>
  <rect id="Rectangle_14906" data-name="Rectangle 14906" width="1" height="1" transform="translate(14 14)"/>
  <rect id="Rectangle_14909" data-name="Rectangle 14909" width="1" height="1" transform="translate(25 14)"/>
  <rect id="Rectangle_14918" data-name="Rectangle 14918" width="1" height="1" transform="translate(4)"/>
  <rect id="Rectangle_14924" data-name="Rectangle 14924" width="1" height="1" transform="translate(15)"/>
  <rect id="Rectangle_14927" data-name="Rectangle 14927" width="1" height="1" transform="translate(26)"/>
  <rect id="Rectangle_14933" data-name="Rectangle 14933" width="1" height="1" transform="translate(15 13)"/>
  <rect id="Rectangle_14936" data-name="Rectangle 14936" width="1" height="1" transform="translate(26 13)"/>
  <rect id="Rectangle_14945" data-name="Rectangle 14945" width="1" height="1" transform="translate(4 13)"/>
  <rect id="Rectangle_14954" data-name="Rectangle 14954" width="1" height="1" transform="translate(4 14)"/>
  <rect id="Rectangle_14963" data-name="Rectangle 14963" width="1" height="1" transform="translate(4 1)"/>
  <rect id="Rectangle_14969" data-name="Rectangle 14969" width="1" height="1" transform="translate(15 1)"/>
  <rect id="Rectangle_14972" data-name="Rectangle 14972" width="1" height="1" transform="translate(26 1)"/>
  <rect id="Rectangle_14978" data-name="Rectangle 14978" width="1" height="1" transform="translate(15 14)"/>
  <rect id="Rectangle_14981" data-name="Rectangle 14981" width="1" height="1" transform="translate(26 14)"/>
  <rect id="Rectangle_14990" data-name="Rectangle 14990" width="1" height="1" transform="translate(5)"/>
  <rect id="Rectangle_14996" data-name="Rectangle 14996" width="1" height="1" transform="translate(16)"/>
  <rect id="Rectangle_14999" data-name="Rectangle 14999" width="1" height="1" transform="translate(27)"/>
  <rect id="Rectangle_15005" data-name="Rectangle 15005" width="1" height="1" transform="translate(16 13)"/>
  <rect id="Rectangle_15008" data-name="Rectangle 15008" width="1" height="1" transform="translate(27 13)"/>
  <rect id="Rectangle_15017" data-name="Rectangle 15017" width="1" height="1" transform="translate(5 13)"/>
  <rect id="Rectangle_15026" data-name="Rectangle 15026" width="1" height="1" transform="translate(5 14)"/>
  <rect id="Rectangle_15035" data-name="Rectangle 15035" width="1" height="1" transform="translate(5 1)"/>
  <rect id="Rectangle_15041" data-name="Rectangle 15041" width="1" height="1" transform="translate(16 1)"/>
  <rect id="Rectangle_15044" data-name="Rectangle 15044" width="1" height="1" transform="translate(27 1)"/>
  <rect id="Rectangle_15050" data-name="Rectangle 15050" width="1" height="1" transform="translate(16 14)"/>
  <rect id="Rectangle_15053" data-name="Rectangle 15053" width="1" height="1" transform="translate(27 14)"/>
  <rect id="Rectangle_15062" data-name="Rectangle 15062" width="1" height="1" transform="translate(6)"/>
  <rect id="Rectangle_15068" data-name="Rectangle 15068" width="1" height="1" transform="translate(17)"/>
  <rect id="Rectangle_15071" data-name="Rectangle 15071" width="1" height="1" transform="translate(28)"/>
  <rect id="Rectangle_15077" data-name="Rectangle 15077" width="1" height="1" transform="translate(17 13)"/>
  <rect id="Rectangle_15080" data-name="Rectangle 15080" width="1" height="1" transform="translate(28 13)"/>
  <rect id="Rectangle_15089" data-name="Rectangle 15089" width="1" height="1" transform="translate(6 13)"/>
  <rect id="Rectangle_15098" data-name="Rectangle 15098" width="1" height="1" transform="translate(6 14)"/>
  <rect id="Rectangle_15341" data-name="Rectangle 15341" width="1" height="1" transform="translate(6 1)"/>
  <rect id="Rectangle_15347" data-name="Rectangle 15347" width="1" height="1" transform="translate(17 1)"/>
  <rect id="Rectangle_15350" data-name="Rectangle 15350" width="1" height="1" transform="translate(28 1)"/>
  <rect id="Rectangle_15356" data-name="Rectangle 15356" width="1" height="1" transform="translate(17 14)"/>
  <rect id="Rectangle_15359" data-name="Rectangle 15359" width="1" height="1" transform="translate(28 14)"/>
  <rect id="Rectangle_15368" data-name="Rectangle 15368" width="1" height="1" transform="translate(7)"/>
  <rect id="Rectangle_15374" data-name="Rectangle 15374" width="1" height="1" transform="translate(18)"/>
  <rect id="Rectangle_15377" data-name="Rectangle 15377" width="1" height="1" transform="translate(29)"/>
  <rect id="Rectangle_15383" data-name="Rectangle 15383" width="1" height="1" transform="translate(18 13)"/>
  <rect id="Rectangle_15386" data-name="Rectangle 15386" width="1" height="1" transform="translate(29 13)"/>
  <rect id="Rectangle_15395" data-name="Rectangle 15395" width="1" height="1" transform="translate(7 13)"/>
  <rect id="Rectangle_15404" data-name="Rectangle 15404" width="1" height="1" transform="translate(7 14)"/>
  <rect id="Rectangle_15413" data-name="Rectangle 15413" width="1" height="1" transform="translate(7 1)"/>
  <rect id="Rectangle_15419" data-name="Rectangle 15419" width="1" height="1" transform="translate(18 1)"/>
  <rect id="Rectangle_15422" data-name="Rectangle 15422" width="1" height="1" transform="translate(29 1)"/>
  <rect id="Rectangle_15428" data-name="Rectangle 15428" width="1" height="1" transform="translate(18 14)"/>
  <rect id="Rectangle_15431" data-name="Rectangle 15431" width="1" height="1" transform="translate(29 14)"/>
  <rect id="Rectangle_15440" data-name="Rectangle 15440" width="1" height="1" transform="translate(8)"/>
  <rect id="Rectangle_15446" data-name="Rectangle 15446" width="1" height="1" transform="translate(19)"/>
  <rect id="Rectangle_15449" data-name="Rectangle 15449" width="1" height="1" transform="translate(30)"/>
  <rect id="Rectangle_15455" data-name="Rectangle 15455" width="1" height="1" transform="translate(19 13)"/>
  <rect id="Rectangle_15458" data-name="Rectangle 15458" width="1" height="1" transform="translate(30 13)"/>
  <rect id="Rectangle_15467" data-name="Rectangle 15467" width="1" height="1" transform="translate(8 13)"/>
  <rect id="Rectangle_15476" data-name="Rectangle 15476" width="1" height="1" transform="translate(8 14)"/>
  <rect id="Rectangle_15485" data-name="Rectangle 15485" width="1" height="1" transform="translate(8 1)"/>
  <rect id="Rectangle_15491" data-name="Rectangle 15491" width="1" height="1" transform="translate(19 1)"/>
  <rect id="Rectangle_15494" data-name="Rectangle 15494" width="1" height="1" transform="translate(30 1)"/>
  <rect id="Rectangle_15500" data-name="Rectangle 15500" width="1" height="1" transform="translate(19 14)"/>
  <rect id="Rectangle_15503" data-name="Rectangle 15503" width="1" height="1" transform="translate(30 14)"/>
  <rect id="Rectangle_15512" data-name="Rectangle 15512" width="1" height="1" transform="translate(9)"/>
  <rect id="Rectangle_15518" data-name="Rectangle 15518" width="1" height="1" transform="translate(20)"/>
  <rect id="Rectangle_15521" data-name="Rectangle 15521" width="1" height="1" transform="translate(31)"/>
  <rect id="Rectangle_15527" data-name="Rectangle 15527" width="1" height="1" transform="translate(20 13)"/>
  <rect id="Rectangle_15530" data-name="Rectangle 15530" width="1" height="1" transform="translate(31 13)"/>
  <rect id="Rectangle_15539" data-name="Rectangle 15539" width="1" height="1" transform="translate(9 13)"/>
  <rect id="Rectangle_15548" data-name="Rectangle 15548" width="1" height="1" transform="translate(9 14)"/>
  <rect id="Rectangle_15557" data-name="Rectangle 15557" width="1" height="1" transform="translate(9 1)"/>
  <rect id="Rectangle_15563" data-name="Rectangle 15563" width="1" height="1" transform="translate(20 1)"/>
  <rect id="Rectangle_15566" data-name="Rectangle 15566" width="1" height="1" transform="translate(31 1)"/>
  <rect id="Rectangle_15572" data-name="Rectangle 15572" width="1" height="1" transform="translate(20 14)"/>
  <rect id="Rectangle_15575" data-name="Rectangle 15575" width="1" height="1" transform="translate(31 14)"/>
  <rect id="Rectangle_15584" data-name="Rectangle 15584" width="1" height="1" transform="translate(10)"/>
  <rect id="Rectangle_15590" data-name="Rectangle 15590" width="1" height="1" transform="translate(21)"/>
  <rect id="Rectangle_15593" data-name="Rectangle 15593" width="1" height="1" transform="translate(32)"/>
  <rect id="Rectangle_15599" data-name="Rectangle 15599" width="1" height="1" transform="translate(21 13)"/>
  <rect id="Rectangle_15602" data-name="Rectangle 15602" width="1" height="1" transform="translate(32 13)"/>
  <rect id="Rectangle_15611" data-name="Rectangle 15611" width="1" height="1" transform="translate(10 13)"/>
  <rect id="Rectangle_15620" data-name="Rectangle 15620" width="1" height="1" transform="translate(10 14)"/>
  <rect id="Rectangle_15629" data-name="Rectangle 15629" width="1" height="1" transform="translate(10 1)"/>
  <rect id="Rectangle_15635" data-name="Rectangle 15635" width="1" height="1" transform="translate(21 1)"/>
  <rect id="Rectangle_15638" data-name="Rectangle 15638" width="1" height="1" transform="translate(32 1)"/>
  <rect id="Rectangle_15644" data-name="Rectangle 15644" width="1" height="1" transform="translate(21 14)"/>
  <rect id="Rectangle_15647" data-name="Rectangle 15647" width="1" height="1" transform="translate(32 14)"/>
  <rect id="Rectangle_15656" data-name="Rectangle 15656" width="1" height="1" transform="translate(1 12)"/>
  <rect id="Rectangle_15662" data-name="Rectangle 15662" width="1" height="1" transform="translate(34 12)"/>
  <rect id="Rectangle_15671" data-name="Rectangle 15671" width="1" height="1" transform="translate(1 12)"/>
  <rect id="Rectangle_15677" data-name="Rectangle 15677" width="1" height="1" transform="translate(34 12)"/>
  <rect id="Rectangle_15686" data-name="Rectangle 15686" width="1" height="1" transform="translate(0 12)"/>
  <rect id="Rectangle_15692" data-name="Rectangle 15692" width="1" height="1" transform="translate(33 12)"/>
  <rect id="Rectangle_15701" data-name="Rectangle 15701" width="1" height="1" transform="translate(0 12)"/>
  <rect id="Rectangle_15707" data-name="Rectangle 15707" width="1" height="1" transform="translate(33 12)"/>
  <rect id="Rectangle_15726" data-name="Rectangle 15726" width="27" height="9" transform="translate(6 4)"/>
</svg>
