<svg xmlns="http://www.w3.org/2000/svg" width="9" height="9" viewBox="0 0 9 9"><rect width="1" height="1" transform="translate(6 5)"/><rect width="1" height="1" transform="translate(2 4)"/><rect width="1" height="1" transform="translate(7 7)"/><rect width="1" height="1" transform="translate(1 1)"/><rect width="1" height="1" transform="translate(7 1)"/><rect width="1" height="1" transform="translate(4 6)"/><rect width="1" height="1" transform="translate(6 3)"/><rect width="1" height="1" transform="translate(2 3)"/><rect width="1" height="1" transform="translate(2 5)"/><rect width="1" height="1" transform="translate(4 2)"/><rect width="1" height="1" transform="translate(3 2)"/><rect width="1" height="1" transform="translate(6 4)"/><rect width="1" height="1" transform="translate(3 6)"/><rect width="1" height="1" transform="translate(4)"/><rect width="1" height="1" transform="translate(4 8)"/><rect width="1" height="1" transform="translate(8 4)"/><rect width="1" height="1" transform="translate(0 4)"/><rect width="1" height="1" transform="translate(5 2)"/><rect width="1" height="1" transform="translate(5 6)"/><rect width="1" height="1" transform="translate(1 7)"/><rect width="1" height="1" transform="translate(6 5)"/><rect width="1" height="1" transform="translate(2 4)"/><rect width="1" height="1" transform="translate(7 7)"/><rect width="1" height="1" transform="translate(1 1)"/><rect width="1" height="1" transform="translate(7 1)"/><rect width="1" height="1" transform="translate(4 6)"/><rect width="1" height="1" transform="translate(6 3)"/><rect width="1" height="1" transform="translate(2 3)"/><rect width="1" height="1" transform="translate(2 5)"/><rect width="1" height="1" transform="translate(4 2)"/><rect width="1" height="1" transform="translate(3 2)"/><rect width="1" height="1" transform="translate(6 4)"/><rect width="1" height="1" transform="translate(3 6)"/><rect width="1" height="1" transform="translate(4)"/><rect width="1" height="1" transform="translate(4 8)"/><rect width="1" height="1" transform="translate(8 4)"/><rect width="1" height="1" transform="translate(0 4)"/><rect width="1" height="1" transform="translate(5 2)"/><rect width="1" height="1" transform="translate(5 6)"/><rect width="1" height="1" transform="translate(1 7)"/></svg>