<svg xmlns="http://www.w3.org/2000/svg" width="15" height="14" viewBox="0 0 15 14"><rect width="1" height="1" transform="translate(6)"/><rect width="1" height="1" transform="translate(7)"/><rect width="1" height="1" transform="translate(8)"/><rect width="1" height="1" transform="translate(9)"/><rect width="1" height="1" transform="translate(10 1)"/><rect width="1" height="1" transform="translate(11 2)"/><rect width="1" height="1" transform="translate(12 3)"/><rect width="1" height="1" transform="translate(13 4)"/><rect width="1" height="1" transform="translate(14 5)"/><rect width="1" height="1" transform="translate(14 6)"/><rect width="1" height="1" transform="translate(14 7)"/><rect width="1" height="1" transform="translate(14 8)"/><rect width="1" height="1" transform="translate(13 9)"/><rect width="1" height="1" transform="translate(12 10)"/><rect width="1" height="1" transform="translate(11 11)"/><rect width="1" height="1" transform="translate(10 12)"/><rect width="1" height="1" transform="translate(9 13)"/><rect width="1" height="1" transform="translate(9)"/><rect width="1" height="1" transform="translate(8 13)"/><rect width="1" height="1" transform="translate(8)"/><rect width="1" height="1" transform="translate(7 13)"/><rect width="1" height="1" transform="translate(7)"/><rect width="1" height="1" transform="translate(6 13)"/><rect width="1" height="1" transform="translate(6)"/><rect width="1" height="1" transform="translate(5 13)"/><rect width="1" height="1" transform="translate(6)"/><rect width="1" height="1" transform="translate(5 13)"/><rect width="1" height="1" transform="translate(4 12)"/><rect width="1" height="1" transform="translate(3 11)"/><rect width="1" height="1" transform="translate(2 10)"/><rect width="1" height="1" transform="translate(5 4)"/><rect width="1" height="1" transform="translate(2 8)"/><rect width="1" height="1" transform="translate(6 5)"/><rect width="1" height="1" transform="translate(8 5)"/><rect width="1" height="1" transform="translate(10 5)"/><rect width="1" height="1" transform="translate(3 9)"/><rect width="1" height="1" transform="translate(4 10)"/><rect width="1" height="1" transform="translate(5 11)"/><rect width="1" height="1" transform="translate(6 12)"/><rect width="1" height="1" transform="translate(8 12)"/><rect width="1" height="1" transform="translate(10 8)"/><rect width="1" height="1" transform="translate(5 2)"/><rect width="1" height="1" transform="translate(6 1)"/><rect width="1" height="1" transform="translate(4 5)"/><rect width="1" height="1" transform="translate(10 3)"/><rect width="1" height="1" transform="translate(11 4)"/><rect width="1" height="1" transform="translate(9 4)"/><rect width="1" height="1" transform="translate(2 3)"/><rect width="1" height="1" transform="translate(2 5)"/><rect width="1" height="1" transform="translate(6 3)"/><rect width="1" height="1" transform="translate(7 4)"/><rect width="1" height="1" transform="translate(4 8)"/><rect width="1" height="1" transform="translate(5 9)"/><rect width="1" height="1" transform="translate(6 10)"/><rect width="1" height="1" transform="translate(7 11)"/><rect width="1" height="1" transform="translate(9 11)"/><rect width="1" height="1" transform="translate(12 5)"/><rect width="1" height="1" transform="translate(12 8)"/><rect width="1" height="1" transform="translate(3 2)"/><rect width="1" height="1" transform="translate(3 4)"/><rect width="1" height="1" transform="translate(7 2)"/><rect width="1" height="1" transform="translate(8 3)"/><rect width="1" height="1" transform="translate(6 8)"/><rect width="1" height="1" transform="translate(7 9)"/><rect width="1" height="1" transform="translate(8 10)"/><rect width="1" height="1" transform="translate(10 10)"/><rect width="1" height="1" transform="translate(4 1)"/><rect width="1" height="1" transform="translate(4 3)"/><rect width="1" height="1" transform="translate(8 1)"/><rect width="1" height="1" transform="translate(9 2)"/><rect width="1" height="1" transform="translate(8 8)"/><rect width="1" height="1" transform="translate(9 9)"/><rect width="1" height="1" transform="translate(11 9)"/><rect width="1" height="1" transform="translate(5)"/><rect width="1" height="1" transform="translate(1 9)"/><rect width="1" height="1" transform="translate(0 8)"/><rect width="1" height="1" transform="translate(0 7)"/><rect width="1" height="1" transform="translate(0 6)"/><rect width="1" height="1" transform="translate(0 5)"/><rect width="1" height="1" transform="translate(1 4)"/></svg>