<svg id="Pattern" xmlns="http://www.w3.org/2000/svg" width="15" height="14" viewBox="0 0 15 14">
  <rect id="Rectangle_16764" data-name="Rectangle 16764" width="1" height="1" transform="translate(6)"/>
  <rect id="Rectangle_16765" data-name="Rectangle 16765" width="1" height="1" transform="translate(7)"/>
  <rect id="Rectangle_16771" data-name="Rectangle 16771" width="1" height="1" transform="translate(8)"/>
  <rect id="Rectangle_16777" data-name="Rectangle 16777" width="1" height="1" transform="translate(9)"/>
  <rect id="Rectangle_16789" data-name="Rectangle 16789" width="1" height="1" transform="translate(10 1)"/>
  <rect id="Rectangle_16791" data-name="Rectangle 16791" width="1" height="1" transform="translate(11 2)"/>
  <rect id="Rectangle_16792" data-name="Rectangle 16792" width="1" height="1" transform="translate(12 3)"/>
  <rect id="Rectangle_16802" data-name="Rectangle 16802" width="1" height="1" transform="translate(13 4)"/>
  <rect id="Rectangle_16811" data-name="Rectangle 16811" width="1" height="1" transform="translate(14 5)"/>
  <rect id="Rectangle_16812" data-name="Rectangle 16812" width="1" height="1" transform="translate(14 6)"/>
  <rect id="Rectangle_16813" data-name="Rectangle 16813" width="1" height="1" transform="translate(14 7)"/>
  <rect id="Rectangle_16814" data-name="Rectangle 16814" width="1" height="1" transform="translate(14 8)"/>
  <rect id="Rectangle_16815" data-name="Rectangle 16815" width="1" height="1" transform="translate(13 9)"/>
  <rect id="Rectangle_16822" data-name="Rectangle 16822" width="1" height="1" transform="translate(12 10)"/>
  <rect id="Rectangle_16828" data-name="Rectangle 16828" width="1" height="1" transform="translate(11 11)"/>
  <rect id="Rectangle_16833" data-name="Rectangle 16833" width="1" height="1" transform="translate(10 12)"/>
  <rect id="Rectangle_16837" data-name="Rectangle 16837" width="1" height="1" transform="translate(9 13)"/>
  <rect id="Rectangle_16778" data-name="Rectangle 16778" width="1" height="1" transform="translate(9)"/>
  <rect id="Rectangle_16838" data-name="Rectangle 16838" width="1" height="1" transform="translate(8 13)"/>
  <rect id="Rectangle_16772" data-name="Rectangle 16772" width="1" height="1" transform="translate(8)"/>
  <rect id="Rectangle_16839" data-name="Rectangle 16839" width="1" height="1" transform="translate(7 13)"/>
  <rect id="Rectangle_16766" data-name="Rectangle 16766" width="1" height="1" transform="translate(7)"/>
  <rect id="Rectangle_16840" data-name="Rectangle 16840" width="1" height="1" transform="translate(6 13)"/>
  <rect id="Rectangle_16767" data-name="Rectangle 16767" width="1" height="1" transform="translate(6)"/>
  <rect id="Rectangle_16841" data-name="Rectangle 16841" width="1" height="1" transform="translate(5 13)"/>
  <rect id="Rectangle_16768" data-name="Rectangle 16768" width="1" height="1" transform="translate(6)"/>
  <rect id="Rectangle_16842" data-name="Rectangle 16842" width="1" height="1" transform="translate(5 13)"/>
  <rect id="Rectangle_16834" data-name="Rectangle 16834" width="1" height="1" transform="translate(4 12)"/>
  <rect id="Rectangle_16829" data-name="Rectangle 16829" width="1" height="1" transform="translate(3 11)"/>
  <rect id="Rectangle_16823" data-name="Rectangle 16823" width="1" height="1" transform="translate(2 10)"/>
  <rect id="Rectangle_16780" data-name="Rectangle 16780" width="1" height="1" transform="translate(5 4)"/>
  <rect id="Rectangle_16805" data-name="Rectangle 16805" width="1" height="1" transform="translate(2 8)"/>
  <rect id="Rectangle_16795" data-name="Rectangle 16795" width="1" height="1" transform="translate(6 5)"/>
  <rect id="Rectangle_16796" data-name="Rectangle 16796" width="1" height="1" transform="translate(8 5)"/>
  <rect id="Rectangle_16797" data-name="Rectangle 16797" width="1" height="1" transform="translate(10 5)"/>
  <rect id="Rectangle_16817" data-name="Rectangle 16817" width="1" height="1" transform="translate(3 9)"/>
  <rect id="Rectangle_16824" data-name="Rectangle 16824" width="1" height="1" transform="translate(4 10)"/>
  <rect id="Rectangle_16830" data-name="Rectangle 16830" width="1" height="1" transform="translate(5 11)"/>
  <rect id="Rectangle_16835" data-name="Rectangle 16835" width="1" height="1" transform="translate(6 12)"/>
  <rect id="Rectangle_16836" data-name="Rectangle 16836" width="1" height="1" transform="translate(8 12)"/>
  <rect id="Rectangle_16806" data-name="Rectangle 16806" width="1" height="1" transform="translate(10 8)"/>
  <rect id="Rectangle_16773" data-name="Rectangle 16773" width="1" height="1" transform="translate(5 2)"/>
  <rect id="Rectangle_16769" data-name="Rectangle 16769" width="1" height="1" transform="translate(6 1)"/>
  <rect id="Rectangle_16798" data-name="Rectangle 16798" width="1" height="1" transform="translate(4 5)"/>
  <rect id="Rectangle_16790" data-name="Rectangle 16790" width="1" height="1" transform="translate(10 3)"/>
  <rect id="Rectangle_16799" data-name="Rectangle 16799" width="1" height="1" transform="translate(11 4)"/>
  <rect id="Rectangle_16781" data-name="Rectangle 16781" width="1" height="1" transform="translate(9 4)"/>
  <rect id="Rectangle_16782" data-name="Rectangle 16782" width="1" height="1" transform="translate(2 3)"/>
  <rect id="Rectangle_16800" data-name="Rectangle 16800" width="1" height="1" transform="translate(2 5)"/>
  <rect id="Rectangle_16783" data-name="Rectangle 16783" width="1" height="1" transform="translate(6 3)"/>
  <rect id="Rectangle_16784" data-name="Rectangle 16784" width="1" height="1" transform="translate(7 4)"/>
  <rect id="Rectangle_16807" data-name="Rectangle 16807" width="1" height="1" transform="translate(4 8)"/>
  <rect id="Rectangle_16818" data-name="Rectangle 16818" width="1" height="1" transform="translate(5 9)"/>
  <rect id="Rectangle_16825" data-name="Rectangle 16825" width="1" height="1" transform="translate(6 10)"/>
  <rect id="Rectangle_16831" data-name="Rectangle 16831" width="1" height="1" transform="translate(7 11)"/>
  <rect id="Rectangle_16832" data-name="Rectangle 16832" width="1" height="1" transform="translate(9 11)"/>
  <rect id="Rectangle_16801" data-name="Rectangle 16801" width="1" height="1" transform="translate(12 5)"/>
  <rect id="Rectangle_16808" data-name="Rectangle 16808" width="1" height="1" transform="translate(12 8)"/>
  <rect id="Rectangle_16774" data-name="Rectangle 16774" width="1" height="1" transform="translate(3 2)"/>
  <rect id="Rectangle_16785" data-name="Rectangle 16785" width="1" height="1" transform="translate(3 4)"/>
  <rect id="Rectangle_16775" data-name="Rectangle 16775" width="1" height="1" transform="translate(7 2)"/>
  <rect id="Rectangle_16786" data-name="Rectangle 16786" width="1" height="1" transform="translate(8 3)"/>
  <rect id="Rectangle_16809" data-name="Rectangle 16809" width="1" height="1" transform="translate(6 8)"/>
  <rect id="Rectangle_16819" data-name="Rectangle 16819" width="1" height="1" transform="translate(7 9)"/>
  <rect id="Rectangle_16826" data-name="Rectangle 16826" width="1" height="1" transform="translate(8 10)"/>
  <rect id="Rectangle_16827" data-name="Rectangle 16827" width="1" height="1" transform="translate(10 10)"/>
  <rect id="Rectangle_16770" data-name="Rectangle 16770" width="1" height="1" transform="translate(4 1)"/>
  <rect id="Rectangle_16787" data-name="Rectangle 16787" width="1" height="1" transform="translate(4 3)"/>
  <rect id="Rectangle_16776" data-name="Rectangle 16776" width="1" height="1" transform="translate(8 1)"/>
  <rect id="Rectangle_16788" data-name="Rectangle 16788" width="1" height="1" transform="translate(9 2)"/>
  <rect id="Rectangle_16810" data-name="Rectangle 16810" width="1" height="1" transform="translate(8 8)"/>
  <rect id="Rectangle_16820" data-name="Rectangle 16820" width="1" height="1" transform="translate(9 9)"/>
  <rect id="Rectangle_16821" data-name="Rectangle 16821" width="1" height="1" transform="translate(11 9)"/>
  <rect id="Rectangle_16763" data-name="Rectangle 16763" width="1" height="1" transform="translate(5)"/>
  <rect id="Rectangle_16816" data-name="Rectangle 16816" width="1" height="1" transform="translate(1 9)"/>
  <rect id="Rectangle_16803" data-name="Rectangle 16803" width="1" height="1" transform="translate(0 8)"/>
  <rect id="Rectangle_16804" data-name="Rectangle 16804" width="1" height="1" transform="translate(0 7)"/>
  <rect id="Rectangle_16793" data-name="Rectangle 16793" width="1" height="1" transform="translate(0 6)"/>
  <rect id="Rectangle_16794" data-name="Rectangle 16794" width="1" height="1" transform="translate(0 5)"/>
  <rect id="Rectangle_16779" data-name="Rectangle 16779" width="1" height="1" transform="translate(1 4)"/>
</svg>
