<svg id="Ball3" xmlns="http://www.w3.org/2000/svg" width="10" height="10" viewBox="0 0 10 10">
  <path id="Union_17" data-name="Union 17" d="M-2031-66v-1h1v1Zm-1,0v-1h-1v-1h1v1h1v1Zm3-1h-1v-1h2v1Zm-5,0v-1h1v1Zm6-1v-1h1v1Zm-3,0h-1v-1h1v-1h2v1h-1v1Zm-4,0v-2h-1v-2h1v1h2v1h-1v2Zm7-1v-1h1v1Zm-4,0h-1v-1h2v1Zm5-1h-2v-1h2v-1h1v2Zm-4-1h-1v-1h2v1Zm3-1v-2h1v2Zm-2,0v-1h1v1Zm-3,0v-3h1v1h1v1h-1v1Zm-2,0v-2h1v2Zm5-1h-1v-1h2v1Zm1-1v-1h1v1Zm-1,0v-1h-2v-1h2v1h1v1Zm-4,0v-1h1v1Z" transform="translate(2036 76)"/>
</svg>
