<svg id="BallRotate5" xmlns="http://www.w3.org/2000/svg" width="13.042" height="13.042" viewBox="0 0 13.042 13.042">
  <path id="Union_26" data-name="Union 26" d="M-2058.756-125.411l.975-.225.224.975-.974.225Zm4.872-1.124.975-.225.225.974-.975.225Zm-3.148-.3-.225-.975-.974.225-.975.225-.225-.975-.225-.974-.975.225-.224-.975-.975.225-.225-.975.975-.225-.225-.974.974-.225.225.974-.974.225.974-.225.975-.224.225.974.225.975-.225-.975-.225-.974.975-.225.974-.225h0l.975-.225.225.974.225.975-.975.225-.225-.975.225.975.225.975-.225-.975.975-.225.225.975-.975.225.975-.225.225.974-.225-.974-.225-.975-.225-.975.974-.225.225.975-.974.225.975-.225.224.975-.224-.975.974-.225-.975.225-.225-.975.975-.225.225.975-.225-.975.974-.225-.974.225-.225-.974.225.974-.975.225-.224-.974.974-.225-.974.225h0l-.975.225-.975.225-.225-.975.975-.225.974-.225h0l-.224-.975.974-.224.225.974.975-.225.225.975.974-.225.225.975.225.974-.974.225.225.975-.975.225-.225-.975.225.975-.975.225.975-.225.975-.225.224.974-.974.225-.975.225.975-.225.225.975-.975.225-.974.225h0l-.975.225.975-.225.225.975-.975.224-.975.225Zm-.45-1.949-.224-.974.974-.225-.975.225-.224-.975.224.975Zm4.648-2.1-.225-.974Zm-6.371,3.524.975-.225.225.975-.975.225Zm.975-.225.974-.225.225.975-.974.225Zm-4.123-.075.975-.225.225.975-.975.225Zm1.949-.45-.225-.974.974-.225.225.974.225.975-.975.225Zm-1.425-1.723.975-.225.224.975-.974.225Zm10.193-.3.975-.225.225.974-.975.225Zm-4.572-2.023.975-.225.224.974-.974.225Zm-4.123-.075.975-.225.225.975-.975.224Zm.975-.225.975-.225.224.975-.974.225Zm-4.122-.075.974-.225.225.975-.975.225Zm5.1-.15.974-.225.225.975-.974.225Zm-3.148-.3.974-.225.225.975-.974.225Zm.974-.225.975-.225.225.975-.975.225Zm.975-.225.975-.225.225.975-.975.225Zm.975-.225.974-.225.975-.225.225.975-.975.225-.974.225Zm1.948-.45.975-.225.224.975-.974.225Zm-4.122-.074.974-.225.975-.225.975-.225.224.974-.974.225-.975.225-.975.225Zm6.071-.375.975-.225.225.974-.975.225Zm-3.147-.3.974-.225-.975.225-.974.225-.225-.975.974-.225.975-.225.225.975.225.974-.975.225Zm5.1-.15.974-.225.225.974-.975.225Zm-4.123-.075.975-.225.974-.225.225.975-.974.224-.975.225Zm-4.347-1.049.974-.225.225.975-.974.225Zm4.872-1.124.974-.225.225.974-.974.225Z" transform="translate(2063.479 137.479)"/>
</svg>
