<svg id="Brick_-_Large_-_Weak" data-name="Brick - Large - Weak" xmlns="http://www.w3.org/2000/svg" width="35" height="15" viewBox="0 0 35 15">
  <path id="Union_6" data-name="Union 6" d="M-2007-8V-9h1v1Zm-1,0V-9h1v1Zm-1,0V-9h1v1Zm-1,0V-9h1v1Zm-1,0V-9h1v1Zm-1,0V-9h1v1Zm-1,0V-9h1v1Zm-1,0V-9h1v1Zm-1,0V-9h1v1Zm-3,0V-9h1v1Zm-1,0V-9h1v1Zm-1,0V-9h1v1Zm-1,0V-9h1v1Zm-1,0V-9h1v1Zm-1,0V-9h1v1Zm-1,0V-9h1v1Zm-1,0V-9h1v1Zm-1,0V-9h1v1Zm-3,0V-9h1v1Zm-1,0V-9h1v1Zm-1,0V-9h1v1Zm-1,0V-9h1v1Zm-1,0V-9h1v1Zm-1,0V-9h1v1Zm-1,0V-9h1v1Zm-1,0V-9h1v1Zm-1,0V-9h1v1Zm30-1v-1h1v1Zm-1,0v-1h1v1Zm-1,0v-1h1v1Zm-1,0v-1h1v1Zm-1,0v0h-1v-2h1v1h1v1Zm-2,0v0h-1v-2h1v1h1v1Zm-2,0h-1v-2h1v1h1v1Zm-2,0h-1v-1h0v-1h1v1h1v1Zm-2,0v-1h1v1Zm-1,0v-1h1v1Zm-1,0v-1h1v1Zm-1,0v-2h1v2Zm-1,0v0h-1v-2h1v1h1v1Zm-2,0v0h-2v0h-2v-1h1v-1h-1v-1h-1v-1h1v1h1v1h1v-1h-1v-1h1v1h1v1h1v1h1v1Zm-1-1h0Zm-4,1v-1h1v1Zm-1,0v-1h1v1Zm-1,0v-1h1v1Zm-1,0v-1h1v1Zm-1,0v-1h1v1Zm-1,0v-1h1v1Zm-1,0v-1h1v1Zm-1,0v-1h-2v-1h2v1h1v1Zm32-1h-1v-1h2v1Zm-3,0v-1h1v1Zm-2,0v-1h1v1Zm-10,0v-1h1v1Zm-10,0v-1h1v1Zm-2,0v-1h1v1Zm27-1h-2v-1h-1v-1h1v1h1v-1h-1v-1h1v-1h-1v-1h-1v-1h1v1h1v-1h-1v-1h1v-2h2v9Zm-4,0v-1h-1v-1h1v1h1v1Zm-2,0v-1h-1v-1h1v1h1v1Zm-2,0v-1h1v1Zm-2,0v-1h-1v-1h1v1h1v1Zm-2,0v-1h-1v-1h1v1h1v1Zm-2,0v-1h1v1Zm-2,0v-1h-1v-1h1v1h1v1Zm-2,0v-1h-1v-1h1v1h1v1Zm-2,0v-1h1v1Zm-6,0v-1h1v1Zm-2,0v-1h1v1Zm-5,0h-1v-9h2v9Zm24-1v-1h1v1Zm-6,0v-1h1v1Zm-6,0v-1h1v1Zm-6,0v-1h1v1Zm23-1v-1h1v1Zm-2,0v-1h-1v-1h1v1h1v1Zm-2,0v-1h1v1Zm-2,0v-1h1v1Zm-2,0v-1h-1v-1h1v1h1v1Zm-2,0v-1h1v1Zm-2,0v-1h1v1Zm-2,0v-1h-1v-1h1v1h1v1Zm-2,0v-1h1v1Zm-2,0v-1h1v1Zm-2,0v-1h-1v-1h1v1h1v1Zm-2,0v-1h1v1Zm-2,0v-1h1v1Zm25-1v-1h1v1Zm-2,0v-1h-1v-1h1v1h1v1Zm-4,0v-1h1v1Zm-2,0v-1h-1v-1h1v1h1v1Zm-4,0v-1h1v1Zm-2,0v-1h-1v-1h1v1h1v1Zm-4,0v-1h1v1Zm-2,0v-1h-1v-1h1v1h1v1Zm-4,0v-1h1v1Zm23-1v-1h-1v-1h1v1h1v1Zm-4,0v-1h1v1Zm-2,0v-1h-1v-1h1v1h1v1Zm-4,0v-1h1v1Zm-2,0v-1h-1v-1h1v1h1v1Zm-4,0v-1h1v1Zm-2,0v-1h-1v-1h1v1h1v1Zm-4,0v-1h1v1Zm-2,0v-1h1v1Zm21-1v-1h1v1Zm-2,0v-1h1v1Zm-4,0v-1h1v1Zm-2,0v-1h1v1Zm-4,0v-1h1v1Zm-2,0v-1h1v1Zm-4,0v-1h1v1Zm-2,0v-1h1v1Zm23-1v-1h1v1Zm-2,0v-1h-1v-1h1v1h1v1Zm-2,0v-1h-1v-1h1v1h1v1Zm-2,0v-1h1v1Zm-2,0v-1h-1v-1h1v1h1v1Zm-2,0v-1h-1v-1h1v1h1v1Zm-2,0v-1h1v1Zm-2,0v-1h-1v-1h1v1h1v1Zm-2,0v-1h-1v-1h1v1h1v1Zm-2,0v-1h1v1Zm-2,0v-1h-1v-1h1v1h1v1Zm-2,0v-1h-1v-1h1v1h1v1Zm-2,0v-1h1v1Zm25-1v-1h1v1Zm-2,0v-1h1v1Zm-6,0v-1h1v1Zm-6,0v-1h1v1Zm-6,0v-1h1v1Zm23-2h-1v-1h-1v-1h1v1h2v1Zm-11,0v-1h1v1Zm-1,0v-1h-1v-1h0v-1h1v1h3v1h-2v1Zm-10,0v-1h1v1Zm-1,0v-1h-1v-1h0v-1h1v1h3v1h-2v1Zm-10,0h-1v-1h2v1Zm30-1v-1h1v1Zm-1,0v-1h1v1Zm-1,0v-1h1v1Zm-1,0v-1h1v1Zm-1,0v-1h1v1Zm-1,0v-1h1v1Zm-1,0v-1h1v1Zm-5,0v-1h1v1Zm-1,0v-1h1v1Zm-1,0v-1h1v1Zm-1,0v-1h1v1Zm-1,0v-1h1v1Zm-1,0v-1h1v1Zm-1,0v-1h1v1Zm-5,0v-1h1v1Zm-1,0v-1h1v1Zm-1,0v-1h1v1Zm-1,0v-1h1v1Zm-1,0v-1h1v1Zm-1,0v-1h1v1Zm-1,0v-1h1v1Zm-1,0v-1h1v1Zm30-1v-1h1v1Zm-1,0v-1h1v1Zm-1,0v-1h1v1Zm-1,0v-1h1v1Zm-1,0v-1h1v1Zm-1,0v-1h1v1Zm-1,0v-1h1v1Zm-1,0v-1h1v1Zm-1,0v-1h1v1Zm-4,0v-1h1v1Zm-1,0v-1h1v1Zm-1,0v-1h1v1Zm-1,0v-1h1v1Zm-1,0v-1h1v1Zm-1,0v-1h1v1Zm-1,0v-1h1v1Zm-1,0v-1h1v1Zm-4,0v-1h1v1Zm-1,0v-1h1v1Zm-1,0v-1h1v1Zm-1,0v-1h1v1Zm-1,0v-1h1v1Zm-1,0v-1h1v1Zm-1,0v-1h1v1Zm-1,0v-1h1v1Z" transform="translate(2039 23)"/>
</svg>
