<svg id="Brick_-_Meadium_-_Weakest" data-name="Brick - Meadium - Weakest" xmlns="http://www.w3.org/2000/svg" width="23.999" height="15" viewBox="0 0 23.999 15">
  <path id="Union_8" data-name="Union 8" d="M-1990-27v-1h1v1Zm-1,0v-1h1v1Zm-1,0v-1h1v1Zm-1,0v-1h1v1Zm-1,0v-1h1v1Zm-1,0v-1h1v1Zm-1,0v-1h1v1Zm-1,0v-1h1v1Zm-1,0v-1h1v1Zm-3,0v-1h1v1Zm-1,0v-1h1v1Zm-1,0v-1h1v1Zm-1,0v-1h1v1Zm-1,0v-1h1v1Zm-1,0v-1h1v1Zm-1,0v-1h1v1Zm-1,0v-1h1v1Zm-1,0v-1h1v1Zm19-1v-1h1v1Zm-1,0v-1h1v1Zm-1,0v-1h1v1Zm-1,0v-1h1v1Zm-1,0v-1h1v1Zm-1,0v-1h1v1Zm-1,0v-1h1v1Zm-1,0v-1h1v1Zm-1,0h-1v-1h-1v-1h2v1h1v1Zm-2,0h-1v-1h2v1Zm-2,0v-1h1v1Zm-1,0v-1h1v1Zm-1,0v-1h1v1Zm-1,0v-1h1v1Zm-1,0v-1h1v1Zm-1,0v-1h1v1Zm-1,0v-1h1v1Zm-1,0v-1h-2v-1h2v1h1v1Zm21-1h-1v-1h2v1Zm0-1h-1v-9h2v9Zm-22,0h-1v-9h2v9Zm22-9h-1v-1h-1v-1h1v1h2v1Zm-11,0v-1h1v1Zm-1,0v-1h-1v-1h0v-1h1v1h3v1h-2v1Zm-10,0h-1v-1h2v1Zm19-1v-1h1v1Zm-1,0v-1h1v1Zm-1,0v-1h1v1Zm-1,0v-1h1v1Zm-1,0v-1h1v1Zm-1,0v-1h1v1Zm-1,0v-1h1v1Zm-5,0v-1h1v1Zm-1,0v-1h1v1Zm-1,0v-1h1v1Zm-1,0v-1h1v1Zm-1,0v-1h1v1Zm-1,0v-1h1v1Zm-1,0v-1h1v1Zm-1,0v-1h1v1Zm19-1v-1h1v1Zm-1,0v-1h1v1Zm-1,0v-1h1v1Zm-1,0v-1h1v1Zm-1,0v-1h1v1Zm-1,0v-1h1v1Zm-1,0v-1h1v1Zm-1,0v-1h1v1Zm-1,0v-1h1v1Zm-4,0v-1h1v1Zm-1,0v-1h1v1Zm-1,0v-1h1v1Zm-1,0v-1h1v1Zm-1,0v-1h1v1Zm-1,0v-1h1v1Zm-1,0v-1h1v1Zm-1,0v-1h1v1Z" transform="translate(2011 42)"/>
</svg>
